<svg width="264" height="142" viewBox="0 0 264 142" fill="none" xmlns="http://www.w3.org/2000/svg">
<path d="M0.689356 58.7548C0.189355 58.5548 -0.0106567 59.2548 0.489343 59.4548C0.989343 59.6548 1.18936 58.9548 0.689356 58.7548C0.189355 58.5548 -0.0106567 59.2548 0.489343 59.4548C0.989343 59.6548 1.18936 58.9548 0.689356 58.7548Z" fill="#346E3C" fill-opacity="0.55"/>
<path d="M19.4894 67.0549C23.1894 66.8549 26.8894 66.5549 30.4894 66.1549C34.3894 65.6549 38.1894 65.0549 41.9894 64.0549C45.6894 63.1549 49.2893 61.9549 52.7893 60.3549C55.9893 58.8549 59.0894 57.0549 61.6894 54.6549C64.1894 52.4549 66.1894 49.6549 67.3894 46.6549C68.7894 43.2549 69.0893 39.4549 68.7893 35.7549C68.2893 30.8549 66.6894 26.1549 64.5894 21.6549C63.9894 20.3549 63.3894 19.0549 62.6894 17.7549C62.6894 17.5549 62.4894 17.4549 62.3894 17.2549C62.2894 17.0549 62.1894 16.8549 62.0894 16.7549C62.6894 18.3549 62.9894 20.0549 63.1894 21.6549C63.6894 25.4549 63.4894 29.4549 62.4894 33.1549C60.9894 38.3549 57.8893 42.8549 53.7893 46.3549C47.2893 51.7549 38.9894 54.6549 30.8894 56.3549C24.7894 57.6549 18.4893 58.3549 12.2893 58.6549C10.4893 58.6549 8.58934 58.8549 6.78934 58.8549C5.88934 58.8549 4.98936 58.8549 3.98936 58.8549L1.68937 58.8549C1.48937 58.8549 0.989342 58.7549 0.789345 58.8549C0.789345 58.8549 0.789368 58.8549 0.689369 58.8549C0.689369 58.8549 0.689369 59.1549 0.689369 59.2549V63.8549C0.689369 64.4549 0.689369 66.6549 0.689369 66.6549C1.48937 66.6549 2.78939 66.8549 3.58939 66.8549C5.78939 66.9549 7.88939 67.0549 10.0894 67.0549C13.1894 67.0549 16.3894 67.0549 19.4894 66.9549V67.0549ZM62.0894 17.2549C62.0894 17.2549 62.0894 17.0549 61.9894 16.9549C61.9894 16.9549 61.9894 17.1549 62.0894 17.2549ZM1.08939 61.6549V60.4549C1.08939 60.0549 0.98938 60.0549 1.38938 59.9549C1.88938 59.9549 2.48936 59.9549 2.98936 59.9549L4.48936 59.9549C5.48936 59.9549 6.48935 59.9549 7.48935 59.9549C14.1894 59.8549 20.7894 59.3549 27.3894 58.2549C36.0894 56.7549 45.0894 54.2549 52.3894 48.9549C56.8894 45.6549 60.5894 41.2549 62.4894 35.9549C63.7894 32.1549 64.2894 28.0549 63.8894 23.9549C63.6894 22.0549 63.3894 20.0549 62.6894 18.2549C64.8894 22.5549 66.6894 27.1549 67.6894 31.8549C68.3894 35.6549 68.4894 39.6549 67.4894 43.3549C66.5894 46.5549 64.8894 49.5549 62.6894 51.9549C60.3894 54.4549 57.4894 56.4549 54.4894 58.0549C51.1894 59.8549 47.6894 61.1549 44.0894 62.1549C40.2894 63.2549 36.4894 64.0549 32.6894 64.5549C28.9894 65.1549 25.1894 65.4549 21.4894 65.6549C18.1894 65.8549 14.8894 65.9549 11.5894 65.9549C8.28939 65.9549 6.68935 65.9549 4.28934 65.7549C3.28934 65.7549 2.18937 65.5549 1.18937 65.5549V61.3549L1.08939 61.6549Z" fill="#346E3C" fill-opacity="0.55"/>
<path d="M19.4893 67.4547C31.2893 66.9547 43.8894 65.4547 54.5894 59.9547C59.2894 57.5547 63.5893 54.2547 66.2893 49.6547C68.9893 45.0547 69.6893 39.2547 68.7893 33.8547C67.7893 27.6547 65.0893 22.2547 62.2893 16.6547C62.0893 16.2547 61.4894 16.5547 61.5894 16.9547C63.8894 23.4547 63.3893 31.3547 60.2893 37.5547C57.3893 43.2547 52.3893 47.5547 46.7893 50.5547C41.1893 53.5547 34.5894 55.3547 28.1894 56.5547C21.0894 57.8547 13.7894 58.4547 6.58937 58.5547C4.78938 58.5547 3.08932 58.6547 1.28932 58.5547C0.589325 58.5547 0.189369 58.5547 0.0893707 59.2547C-0.110626 60.8547 0.0893707 62.7547 0.0893707 64.3547C0.0893707 65.1547 -0.110657 66.2547 0.189346 66.9547C0.189346 67.0547 0.389336 67.1547 0.489334 67.1547C6.78933 67.6547 13.0893 67.6547 19.2893 67.4547C19.7893 67.4547 19.7893 66.6547 19.2893 66.6547C14.9893 66.8547 10.6894 66.8547 6.38936 66.6547C5.38936 66.6547 4.38936 66.6547 3.38936 66.5547C2.68936 66.5547 1.58933 66.6547 0.989334 66.3547C0.689331 66.2547 0.88932 66.3547 0.789322 65.9547C0.789322 65.6547 0.789322 65.3547 0.789322 65.1547V60.2547C0.789322 60.0547 0.789322 59.1547 0.789322 59.2547C0.789322 59.2547 1.28937 59.2547 1.58937 59.2547C3.48937 59.2547 5.48936 59.2547 7.38936 59.2547C11.5894 59.1547 15.8894 58.9547 20.0894 58.4547C34.0894 56.9547 50.8893 53.2547 59.2893 40.7547C63.9893 33.8547 65.1894 24.5547 62.3894 16.6547L61.6894 16.9547C63.9894 21.6547 66.3894 26.1547 67.5894 31.2547C68.8894 36.8547 68.8893 42.8547 66.2893 48.0547C61.2893 57.8547 49.4894 62.0547 39.3894 64.1547C32.8894 65.5547 26.1894 66.2547 19.5894 66.5547C19.0894 66.5547 19.0894 67.3547 19.5894 67.3547L19.4893 67.4547Z" fill="#346E3C" fill-opacity="0.55"/>
<path d="M62.4893 17.0548C62.4893 17.0548 62.4894 16.8548 62.3894 16.8548L61.6894 17.1548C61.6894 17.1548 61.6893 17.3548 61.7893 17.4548C61.7893 17.4548 61.7893 17.4548 61.7893 17.5548C61.7893 17.6548 61.7894 17.5548 61.8894 17.5548C61.8894 17.5548 61.8894 17.5548 62.0894 17.5548C62.0894 17.5548 62.0894 17.5548 62.1894 17.5548C62.1894 17.5548 62.3894 17.4548 62.3894 17.3548V17.2548C62.3894 17.2548 62.3894 17.1548 62.3894 17.0548C62.3894 17.0548 62.3893 16.8548 62.2893 16.7548C62.2893 16.7548 62.2893 16.7548 62.2893 16.6548C62.2893 16.5548 62.2894 16.6548 62.1894 16.6548C62.0894 16.6548 61.9893 16.6548 61.9893 16.6548C61.9893 16.6548 61.9893 16.6548 61.9893 16.7548C61.9893 16.7548 61.9893 16.8548 61.9893 16.9548C61.9893 16.9548 61.9893 17.0548 61.9893 17.1548C61.9893 17.1548 61.9893 17.1548 61.9893 17.2548C61.9893 17.2548 61.9893 17.2548 61.9893 17.3548C61.9893 17.4548 61.9894 17.3548 62.0894 17.3548C62.0894 17.3548 62.0893 17.3548 62.2893 17.3548C62.2893 17.3548 62.2894 17.3548 62.3894 17.3548C62.3894 17.3548 62.5894 17.2548 62.5894 17.1548V17.0548C62.5894 17.0548 62.5894 16.9548 62.5894 16.8548L62.4893 17.0548Z" fill="#346E3C" fill-opacity="0.55"/>
<path d="M1.48943 61.6547C1.48943 61.4547 1.38943 60.6547 1.48943 60.4547C1.68942 60.0547 1.08942 60.4547 1.78941 60.3547C2.38941 60.2547 3.08942 60.3547 3.78941 60.3547C5.48941 60.3547 7.28943 60.3547 8.98943 60.3547C12.1894 60.3547 15.4894 60.0547 18.7894 59.7547C24.7894 59.1547 30.8894 58.2547 36.7894 56.6547C47.1894 53.7547 57.8895 48.0547 62.3895 37.6547C64.8895 31.7547 65.3894 24.2547 63.1894 18.2547L62.4894 18.5547C65.3894 24.2547 67.7895 30.5547 67.8895 37.0547C67.9895 43.5547 65.3895 49.4547 60.5895 53.6547C55.7895 57.8547 49.5894 60.4547 43.4894 62.1547C36.8894 63.9547 30.0895 64.9547 23.3895 65.4547C19.5895 65.7547 15.8895 65.8547 12.0895 65.8547C8.28947 65.8547 4.88944 65.5547 1.18944 65.4547L1.58946 65.8547V61.7547C1.58946 61.2547 0.789413 61.2547 0.789413 61.7547V65.8547C0.789413 66.0547 0.989441 66.2547 1.18944 66.2547C4.68944 66.2547 8.08947 66.6547 11.5895 66.6547C15.0895 66.6547 18.7895 66.5547 22.3895 66.2547C29.3895 65.7547 36.4894 64.8547 43.1894 62.9547C49.2894 61.2547 55.4895 58.8547 60.3895 54.7547C65.0895 50.8547 67.9894 45.4547 68.4894 39.3547C69.0894 31.9547 66.2894 24.6547 62.9894 18.1547C62.7894 17.7547 62.1894 18.0547 62.2894 18.4547C64.3894 24.2547 63.9894 31.3547 61.6894 37.0547C59.4894 42.3547 55.4894 46.5547 50.7894 49.7547C40.7894 56.3547 28.0894 58.4547 16.2894 59.3547C12.6894 59.6547 9.08943 59.7547 5.48943 59.7547C4.68943 59.7547 3.78943 59.7547 2.98943 59.7547C2.48943 59.7547 1.78941 59.5547 1.28941 59.7547C0.389412 60.0547 0.789413 60.9547 0.789413 61.7547C0.789413 62.5547 1.58946 62.2547 1.58946 61.7547L1.48943 61.6547Z" fill="#346E3C" fill-opacity="0.55"/>
<path d="M29.7248 60.8943C43.415 66.182 56.9497 72.5586 68.9573 81.1415C77.0331 86.8399 84.4444 93.6556 90.0456 101.829C93.9919 107.443 96.9482 113.623 98.3066 120.383C99.1981 124.753 99.4531 129.335 99.0152 133.818C98.8174 135.204 98.6196 136.59 98.3369 137.862C98.2521 138.456 97.8562 139.107 97.7714 139.701C97.7573 139.8 98.323 140.79 98.224 140.776C98.6765 140.436 99.1291 140.097 99.5816 139.757C100.713 138.909 101.759 137.947 102.721 136.872C104.135 135.458 105.365 133.916 106.51 132.261C107.797 130.324 108.9 128.259 109.72 126.052C110.582 123.549 111.049 120.989 111.133 118.274C111.161 115.248 110.595 112.136 109.591 109.266C108.303 105.546 106.465 102.153 104.202 98.9001C101.259 94.7427 97.6387 91.0944 93.7775 87.7149C88.5727 83.1334 82.774 79.1743 76.8197 75.597C68.9279 70.7329 60.6402 66.5195 52.1969 62.6879C49.835 61.5427 47.36 60.4823 44.984 59.436C45.281 59.4784 45.1397 60.4684 45.4367 60.5108C54.375 64.413 63.0728 68.584 71.5869 73.3348C78.0361 76.9828 84.2449 80.8994 90.0579 85.4667C94.4282 88.8179 98.4449 92.5227 102.094 96.6801C104.781 99.791 107.115 103.256 108.7 107.017C108.7 107.017 108.77 107.229 108.855 107.342C108.926 107.555 108.997 107.767 109.067 107.979C109.209 108.403 109.35 108.827 109.506 109.153C109.704 109.888 109.987 110.736 110.086 111.458C110.383 112.914 110.581 114.357 110.68 115.785C110.808 118.43 110.441 121.004 109.578 123.507C108.857 125.727 107.938 127.919 106.652 129.857C105.591 131.625 104.361 133.167 103.032 134.694C101.957 135.854 100.896 136.915 99.751 137.862C99.1854 138.287 98.5067 138.796 97.941 139.22L98.3937 140.295C98.4643 139.8 98.7188 139.432 98.7895 138.937C99.1712 137.678 99.3408 136.49 99.5245 135.204C99.793 133.323 99.8776 131.314 99.8491 129.391C99.8064 126.86 99.5516 124.399 99.0988 121.91C98.5186 118.898 97.7121 116.055 96.7077 113.185C95.378 109.762 93.921 106.524 92.0398 103.427C89.8473 99.6796 87.2024 96.2716 84.3312 93.0334C80.8518 89.1022 76.9057 85.6096 72.8183 82.3998C67.8256 78.4547 62.3664 74.948 56.8648 71.7384C50.0478 67.8359 42.9481 64.4991 35.6929 61.5442C33.6846 60.7525 31.5915 59.8476 29.5691 59.1549C29.8661 59.1973 29.7247 60.1872 30.0217 60.2296L29.7248 60.8943Z" fill="#346E3C" fill-opacity="0.55"/>
<path d="M29.5692 61.2764C44.1221 66.8892 58.4064 73.6759 70.895 83.1356C82.4783 91.86 93.0721 103.272 97.1041 117.484C98.2926 121.896 98.9436 126.535 98.7037 131.046C98.5767 133.351 98.3507 135.642 97.7287 137.877C97.6439 138.471 97.1207 139.305 97.1349 139.913C97.0784 140.309 97.531 140.677 97.5735 141.087C97.5311 141.384 97.9271 141.441 98.1392 141.37C104.206 137.084 109.112 130.31 110.554 123.04C111.996 115.771 109.803 108.488 106.054 102.195C102.15 95.5772 96.3799 90.0058 90.2982 85.1982C84.2166 80.3905 77.2723 75.9648 70.2573 72.0341C61.9271 67.4105 53.4131 63.3668 44.6728 59.4928C44.3758 59.4504 43.9233 59.7899 44.192 60.0303C44.6305 60.4969 44.3619 60.9637 45.0124 61.3596C46.2287 62.0382 47.6713 62.5472 49.0007 63.141C51.5606 64.3145 54.1205 65.488 56.6662 66.7606C61.6728 69.1924 66.6652 71.7233 71.5304 74.4381C80.9638 79.8252 90.2983 85.9053 97.8793 93.6543C102.023 97.8824 105.602 102.535 107.964 107.923C108.205 108.361 108.855 108.05 108.714 107.626C108.714 107.626 108.714 107.626 108.728 107.527C108.487 107.088 107.837 107.399 107.978 107.824C110.171 113.692 110.356 120.184 108.009 126.01C105.831 131.356 101.9 136.25 97.1914 139.517C97.0783 139.602 97.0501 139.8 97.1208 140.012L97.5735 141.087C97.7291 141.412 98.1392 141.37 98.2664 141.186C100.67 134.256 100.117 126.096 98.2923 119.068C96.4672 112.039 93.0157 105.082 88.7017 99.2132C79.6494 86.9106 66.9063 77.8186 53.5978 70.5651C45.7201 66.3092 37.5456 62.718 29.2155 59.5087C28.9185 59.4663 28.466 59.8058 28.7347 60.0461C29.0034 60.2865 28.9187 60.8805 29.1874 61.1209C29.541 61.4744 30.1066 61.0501 29.753 60.6966C29.4843 60.4562 29.5691 59.8622 29.3003 59.6218L28.8196 60.1593C42.9906 65.6166 56.8082 72.1345 69.0563 81.1559C80.9508 89.8237 91.1768 100.981 96.1422 115.023C99.0422 123.013 100.288 132.686 97.5027 140.875L98.1957 140.974L97.7572 139.8L97.6865 140.295C102.523 136.844 106.708 131.583 108.914 126.039C111.176 120.099 110.991 113.607 108.813 107.64L108.063 107.937C108.063 107.937 108.063 107.937 108.049 108.036L108.799 107.739C104.583 98.3488 97.0447 91.0099 88.9264 84.9014C80.0868 78.1848 70.4696 72.6704 60.5554 67.8208C57.6278 66.3928 54.7002 64.9647 51.7585 63.6357C50.3301 63.0277 48.9158 62.3208 47.5864 61.727C46.9217 61.4301 45.8468 61.1756 45.3235 60.5958C45.0689 60.2565 45.1113 59.9595 44.7577 59.606L44.2769 60.1434C58.7309 66.4492 73.1708 73.5611 85.9846 82.8652C92.0238 87.2627 97.8651 92.3391 102.462 98.349C107.059 104.359 110.383 111.5 110.129 118.939C109.805 127.58 104.488 135.811 97.5169 140.776L98.0826 141.059C98.1391 140.663 97.7714 140.408 97.7148 140.097C97.5875 139.574 98.1247 138.64 98.1954 138.145C98.676 136.194 98.9586 134.214 99.0432 132.206C99.3115 128.203 98.9717 124.215 98.1227 120.256C96.6087 113.171 93.3129 106.538 89.0978 100.684C80.1586 88.2964 67.4156 79.2044 54.107 71.951C46.1445 67.582 37.871 63.9767 29.3429 60.7391C28.8621 60.5694 28.5651 61.2341 29.046 61.4037L29.5692 61.2764Z" fill="#346E3C" fill-opacity="0.55"/>
<path d="M50.9729 57.5695C59.1519 58.2278 67.3892 58.3896 75.6849 58.0547C82.7654 57.7786 89.8049 56.9942 96.8034 55.7015C102.873 54.6018 108.791 53.0816 114.644 51.2517C119.668 49.6265 124.639 47.5924 129.347 45.2253C133.512 43.1972 137.502 40.9471 141.339 38.2764C144.611 36.1433 147.718 33.689 150.638 31.112C153.103 28.9849 155.393 26.6359 157.583 24.2752C159.306 22.4638 160.854 20.4304 162.302 18.3854C163.272 16.9889 164.241 15.5924 165.123 14.085C165.503 13.4248 165.981 12.7762 166.262 12.1043L165.782 11.0411C165.823 11.5494 165.864 12.0576 165.794 12.6535C165.731 14.0557 165.655 15.5571 165.293 16.9242C165.036 19.1092 164.394 21.1482 163.74 23.2865C162.83 25.8981 161.621 28.4748 160.225 30.9287C158.473 33.8443 156.435 36.6256 154.023 39.1616C151.143 42.2468 147.902 44.9875 144.508 47.3075C140.238 50.2295 135.629 52.6083 130.857 54.6657C124.822 57.1792 118.56 59.0617 112.245 60.5353C104.271 62.4182 96.1801 63.5826 88.0481 64.2387C77.8714 65.1582 67.677 65.3707 57.4417 65.0751C54.6258 65.0465 51.8216 64.9186 49.0173 64.7907C49.216 64.814 49.298 65.8305 49.4967 65.8538C60.2053 66.4065 70.9722 66.4625 81.7215 65.8116C90.3384 65.3132 98.9143 64.3064 107.461 62.6921C114.261 61.3761 120.909 59.6395 127.329 57.2721C132.487 55.3606 137.393 53.0168 142.049 50.2408C145.84 47.9674 149.38 45.2617 152.557 42.2115C155.168 39.6988 157.504 36.9525 159.466 33.9609C161.061 31.5303 162.48 28.8777 163.502 26.1784C164.366 23.9641 165.031 21.7264 165.498 19.4654C165.784 17.888 166.082 16.2113 166.069 14.5989C166.151 13.9037 166.256 13.0098 166.04 12.2796C166.04 12.2796 166.04 12.2796 166.051 12.1803C166.075 11.9816 165.449 11.3041 165.572 11.1171C165.315 11.5904 165.058 12.0637 164.801 12.5369C164.042 13.8574 163.295 15.0786 162.448 16.288C161.11 18.2454 159.697 19.9925 158.173 21.8273C156.193 24.112 154.014 26.3733 151.859 28.436C149.137 31.0364 146.141 33.4031 143.167 35.5711C139.639 38.1775 135.848 40.4509 131.97 42.6133C127.46 45.0037 122.676 47.1605 117.939 48.92C112.36 50.9835 106.74 52.5387 100.957 53.7727C94.2444 55.1997 87.4796 56.2177 80.5744 56.7158C72.6527 57.2959 64.7893 57.3795 56.8732 57.0541C54.7759 56.9085 52.5676 56.8505 50.4702 56.7049C50.6689 56.7283 50.7509 57.7448 50.9495 57.7681L50.9729 57.5695Z" fill="#346E3C" fill-opacity="0.55"/>
<path d="M50.9262 57.9667C68.8967 59.2713 87.0887 58.6889 104.608 54.4028C122.128 50.1167 137.467 42.9567 150.58 31.6085C154.166 28.5056 157.49 25.0697 160.55 21.3009C162.086 19.3668 163.634 17.3335 164.884 15.2651C165.374 14.5172 165.876 13.67 166.268 12.9104C166.671 12.0516 166.396 11.8179 166.104 10.8774C165.952 10.4568 165.321 10.6848 165.373 11.0938C165.632 15.7557 164.464 20.5523 162.748 24.8816C161.031 29.211 158.765 33.0731 155.839 36.5556C150.197 43.4446 142.633 48.6983 134.624 52.5909C118.087 60.5164 99.3172 63.4475 81.1779 64.4388C70.4286 65.0897 59.7727 64.946 48.953 64.4811C48.5558 64.4344 48.3981 64.9193 48.6728 65.1529C48.9474 65.3866 48.7781 65.9708 49.152 66.2161C49.339 66.3387 49.8473 66.2977 50.0459 66.321C50.7411 66.4027 51.5473 66.3967 52.2542 66.379C54.8598 66.4836 57.4654 66.5881 60.0826 66.5934C65.2061 66.6916 70.242 66.6788 75.3012 66.4673C85.6065 66.1671 95.7832 65.2476 105.977 63.3233C124.396 59.9484 144.118 53.2022 156.523 38.4483C160.027 34.3288 162.795 29.6195 164.506 24.484C165.405 21.9717 166.006 19.4244 166.321 16.7428C166.473 15.4517 166.624 14.1606 166.566 12.9454C166.601 12.6475 166.647 12.2502 166.484 11.9289C166.419 11.6193 166.057 11.2747 166.092 10.9768C166.139 10.5795 165.554 10.4102 165.408 10.7958C163.575 14.4066 161.069 17.7372 158.488 20.8574C155.906 23.9776 152.828 27.0395 149.674 29.8912C143.389 35.3958 136.304 40.0009 128.815 43.7532C113.639 51.2344 96.8851 55.0062 80.1245 56.2602C70.2691 57.016 60.4193 56.8663 50.6396 56.1207C50.2423 56.074 50.0846 56.559 50.3593 56.7926C50.6339 57.0262 50.4646 57.6104 50.8385 57.8557C51.2008 58.2003 51.6798 57.5517 51.3058 57.3065C51.0312 57.0728 51.1011 56.4769 50.8265 56.2433L50.5463 56.9152C68.1078 58.2725 85.9026 57.6435 103.089 53.6203C120.275 49.5971 135.16 42.8871 148.191 32.2342C151.765 29.2306 155.165 26.005 158.19 22.5341C161.216 19.0632 164.066 15.3705 166.156 11.2864L165.461 11.2048C165.414 11.602 165.788 11.8473 165.929 12.3672C166.221 13.3077 165.935 14.8851 165.819 15.8783C165.527 18.3612 165.037 20.8209 164.348 23.2572C162.894 27.9194 160.681 32.1905 157.808 36.0819C152.195 43.5785 144.485 49.2179 136.143 53.3734C118.929 61.9242 99.1656 64.7386 80.1207 65.7243C74.4423 66.0644 68.7989 66.1066 63.1671 66.0494C60.3512 66.0208 57.6347 66.0039 54.8305 65.876C53.4284 65.812 52.0262 65.7481 50.7234 65.6958C50.5248 65.6725 50.0165 65.7135 49.9289 65.6025C49.9289 65.6025 49.9639 65.3045 49.7769 65.1819C49.6016 64.9599 49.6249 64.7613 49.438 64.6387L49.1577 65.3106C68.5886 66.1826 88.2587 65.8744 107.42 62.1838C124.934 58.8032 143.416 52.3144 155.606 38.5419C158.865 34.7965 161.575 30.5837 163.525 25.9798C165.475 21.3758 166.689 16.1819 166.466 11.2221L165.736 11.4384C165.812 11.6487 166.162 12.0926 166.127 12.3905C166.081 12.7878 165.602 13.4364 165.357 13.8103C164.843 14.7568 164.241 15.5924 163.64 16.428C162.425 18.1984 161.222 19.8695 159.82 21.5172C157.116 24.8245 154.137 27.898 150.995 30.6504C144.698 36.2543 137.7 40.9704 130.112 44.711C114.814 52.3792 97.8376 56.3263 80.779 57.5453C70.9237 58.3011 60.9746 58.1397 51.0955 57.3825C50.5989 57.3241 50.5056 58.1187 51.0022 58.177L50.9262 57.9667Z" fill="#346E3C" fill-opacity="0.55"/>
<path d="M67.1381 66.2329C81.7705 66.744 96.3375 68.7571 110.354 73.0233C121.255 76.3415 131.804 81.0292 141.392 87.1198C148.816 91.8644 155.754 97.3602 161.897 103.674C166.14 108.066 170.052 112.725 173.313 117.814C174.782 119.988 176.208 122.561 177.27 124.791C177.259 124.89 177.281 124.691 177.192 124.581C177.181 124.68 177.369 124.802 177.347 125.001C176.938 123.245 176.219 121.556 175.5 119.867C173.587 115.329 171.443 111.067 168.779 106.95C164.922 100.889 160.402 95.3589 155.22 90.3591C148.403 83.77 140.681 78.0869 132.33 73.5416C121.615 67.6282 110.106 63.438 98.2547 60.5179C96.587 60.1323 94.9192 59.7467 93.1521 59.3501C93.3509 59.372 93.4398 60.388 93.6385 60.4099C105.732 62.9544 117.573 66.8794 128.53 72.4172C137.102 76.7857 145.166 82.1042 152.414 88.4391C157.905 93.3724 162.833 98.8472 167.099 104.852C169.962 108.992 172.681 113.518 174.693 118.067C175.5 119.867 176.175 121.953 176.872 123.841L177.027 124.261C176.142 122.252 175.048 120.32 173.843 118.476C170.859 113.619 167.323 109.203 163.566 104.965C157.82 98.6953 151.39 93.1551 144.375 88.3551C135.206 82.1095 125.087 77.1676 114.528 73.4849C100.954 68.8651 86.7508 66.2886 72.4605 65.4128C70.4616 65.2924 68.4627 65.172 66.4528 65.151C66.6516 65.173 66.7296 66.2883 66.9393 66.2109L67.1381 66.2329Z" fill="#346E3C" fill-opacity="0.55"/>
<path d="M67.1051 66.5312C84.653 67.0629 102.235 70.013 118.759 76.1662C134.41 82.0218 148.815 90.959 160.682 102.835C163.842 106.102 166.892 109.458 169.611 113.078C172.329 116.699 174.695 120.784 176.961 124.857C177.215 125.288 177.855 124.956 177.601 124.526C177.601 124.526 177.612 124.426 177.524 124.316L176.883 124.648C176.872 124.747 177.06 124.868 177.038 125.067C177.193 125.487 177.822 125.255 177.767 124.846C176.848 121.324 175.311 117.934 173.664 114.633C172.017 111.332 170.326 108.429 168.436 105.503C164.468 99.5311 159.849 93.9899 154.557 89.0786C143.994 79.0571 131.246 71.5104 117.66 66.0844C109.752 62.9966 101.568 60.5825 93.3064 58.8642C92.9089 58.8202 92.7545 59.3062 93.0307 59.538C93.2075 59.7588 93.1526 60.2557 93.3294 60.4765C93.5946 60.8077 94.202 60.7742 94.5885 60.9176C96.6538 61.3471 98.6088 61.8651 100.663 62.3941C104.286 63.2977 107.886 64.4001 111.476 65.6018C118.556 67.9944 125.57 70.9834 132.109 74.6241C144.912 81.6738 156.546 91.1095 165.298 102.943C167.84 106.343 170.15 110.019 172.151 113.762C173.068 115.473 173.975 117.283 174.683 119.072C175.39 120.861 175.877 122.826 176.684 124.626C176.839 125.045 177.579 124.725 177.325 124.294C173.842 116.665 168.372 109.722 162.604 103.651C156.836 97.5806 150.572 92.3605 143.745 87.6819C129.516 78.0599 113.202 71.8293 96.3816 68.3597C86.541 66.3661 76.5022 65.2562 66.4748 64.9523C66.0773 64.9084 65.9229 65.3944 66.1991 65.6261C66.4753 65.8579 66.31 66.4433 66.6856 66.686C67.0502 67.0281 67.5247 66.3763 67.1491 66.1336C66.8729 65.9018 66.9389 65.3055 66.6626 65.0737L66.3869 65.7475C83.9348 66.2792 101.429 69.119 117.842 75.3606C133.394 81.2051 147.909 90.0539 159.688 101.82C166.306 108.387 172.693 116.136 176.574 124.714L177.214 124.382C176.474 122.892 176.153 121.247 175.522 119.668C174.814 117.879 174.007 116.08 173.09 114.369C171.432 111.167 169.475 107.932 167.387 104.985C163.22 98.9907 158.292 93.5159 152.9 88.5936C141.918 78.7269 128.751 71.335 114.922 66.2847C110.957 64.8401 106.969 63.5944 102.872 62.4371C100.917 61.9191 98.8625 61.3901 96.9076 60.8721C96.4106 60.8172 96.024 60.6738 95.5381 60.5195C95.0521 60.3652 94.1466 60.3656 93.7819 60.0235C93.6161 59.7033 93.6491 59.4051 93.3839 59.074L93.1082 59.7478C121.216 65.7733 148.588 79.3638 165.674 103.186C168.028 106.464 170.161 109.92 171.974 113.541C173.787 117.162 175.755 121.203 176.817 125.244L177.546 125.023C177.557 124.923 177.48 124.714 177.391 124.603C177.137 124.173 176.497 124.504 176.751 124.935C176.751 124.935 176.74 125.034 176.828 125.145L177.469 124.813C175.534 121.38 173.699 117.957 171.334 114.778C168.803 111.279 166.14 108.067 163.168 104.921C157.588 98.9716 151.335 93.6522 144.596 89.0839C130.367 79.4619 114.164 73.1429 97.4534 69.5849C87.425 67.47 77.1875 66.338 66.9613 66.0122C66.4644 65.9573 66.3764 66.7524 66.8734 66.8074L67.1051 66.5312Z" fill="#346E3C" fill-opacity="0.55"/>
<path d="M96.1504 58.4171C97.943 58.5805 99.7356 58.7439 101.429 58.8982C105.81 59.2976 110.292 59.7062 114.665 60.2052C120.341 60.7226 126.108 61.3487 131.775 61.9657C137.443 62.5828 143.219 63.1093 148.886 63.7263L161.932 64.9156C163.915 65.1967 165.997 65.4869 168.097 65.578C176.798 65.9694 185.525 67.1666 194.053 69.4502C201.314 71.317 208.402 73.9715 215.128 77.2958C220.885 80.2305 226.398 83.6451 231.558 87.6299C235.966 91.0442 240.048 94.73 243.795 98.7869C246.909 102.083 249.697 105.651 252.267 109.4C254.131 112.08 255.878 114.951 257.425 117.803C257.941 118.754 258.457 119.704 258.873 120.646C258.873 120.646 258.864 120.746 258.955 120.854C258.955 120.854 258.955 120.854 259.036 121.062C259.117 121.271 259.199 121.479 259.28 121.687C259.434 122.203 259.262 121.886 258.882 121.651C257.171 120.591 255.352 119.622 253.623 118.762C250.155 117.14 246.571 115.709 242.959 114.576C238.278 113.045 233.534 112.211 228.7 111.268C220.407 109.709 212.441 106.774 204.819 103.368C196.047 99.3547 187.655 94.4727 180.042 88.7581C176.186 85.8962 172.665 82.6632 169.144 79.4302C166.175 76.7496 162.862 74.5397 159.314 72.71C152.497 69.2771 145.038 67.3921 137.505 66.3038C132.354 65.533 127.058 65.2511 121.734 65.2679C120.937 65.1952 119.416 65.3578 118.71 65.3939C118.81 65.4029 119.824 66.3991 119.923 66.4081C125.383 66.0021 130.968 66.4109 136.428 67.1093C146.948 68.4699 157.829 71.3697 166.483 77.7818C168.927 79.6112 171.045 81.7122 173.272 83.7226C175.779 85.9595 178.395 88.1058 181.119 90.1616C186.578 94.1737 192.371 97.8147 198.31 100.967C203.958 103.992 209.852 106.538 215.881 108.694C221.33 110.596 226.835 111.901 232.457 113.016C238.776 114.195 245.031 116.07 251.033 118.525C254.03 119.803 256.917 121.171 259.669 122.928C259.769 122.937 259.959 123.054 260.05 123.163C259.398 121.497 258.547 119.813 257.697 118.129C255.733 114.335 253.453 110.713 250.955 107.272C247.208 102.11 243.026 97.311 238.401 92.9732C232.572 87.5215 226.081 82.7125 219.012 78.7543C210.511 73.9629 201.296 70.4117 191.763 68.1369C186.259 66.8318 180.528 65.8074 174.851 65.2899C171.764 65.0085 168.659 64.9263 165.671 64.6539L152.725 63.4738C152.734 63.3742 130.644 61.1597 130.644 61.1597C123.374 60.497 116.113 59.7347 108.753 58.9634C104.57 58.5821 100.388 58.2008 96.214 57.72L95.6164 57.6655C95.8156 57.6837 95.924 58.6977 96.1232 58.7158L96.1504 58.4171Z" fill="#346E3C" fill-opacity="0.55"/>
<path d="M96.1141 58.8155C108.354 60.0317 120.594 61.2479 132.726 62.5545C138.701 63.0992 144.767 63.7526 150.733 64.3968C156.699 65.0411 162.656 65.785 168.659 66.0309C192.542 67.3042 215.934 75.0598 234.409 90.5007C239.442 94.7752 244.13 99.5204 248.275 104.718C252.421 109.916 255.959 115.159 258.638 121.026C258.801 121.443 259.534 121.108 259.272 120.682L258.538 121.017C258.71 121.334 258.882 121.651 258.945 122.058L259.19 121.579C259.19 121.579 257.008 120.175 256.628 119.939C255.578 119.342 254.519 118.843 253.46 118.345C251.052 117.222 248.635 116.198 246.209 115.274C241.248 113.517 236.232 112.356 231.108 111.287C225.984 110.217 220.67 109.03 215.51 107.254C210.739 105.614 206.005 103.576 201.388 101.348C192.254 96.9003 183.609 91.4932 175.87 84.9637C172.05 81.7035 168.565 78.0721 164.401 75.2826C160.237 72.4931 155.801 70.4821 151.112 69.0505C140.774 65.6981 129.348 64.3554 118.439 65.068C118.04 65.0316 118.085 65.6382 118.375 65.7651C118.855 66.0096 119.099 66.6344 119.489 66.7703C119.688 66.7885 119.986 66.8157 120.285 66.8429C121.191 66.825 122.096 66.8071 123.11 66.6987C125.826 66.6451 128.424 66.7815 131.113 67.0266C136.192 67.4896 141.253 68.1517 146.16 69.4023C150.777 70.5261 155.258 72.0392 159.476 74.2312C164.084 76.5591 167.822 79.611 171.624 83.0704C179.128 89.9802 187.628 95.8761 196.626 100.713C205.624 105.55 215.681 109.78 226.011 112.128C231.714 113.451 237.454 114.376 243.121 116.097C248.779 117.918 254.591 120.256 259.624 123.426C259.905 123.652 260.339 123.29 260.167 122.973C258.24 117.676 255.082 112.669 251.878 108.159C248.412 103.224 244.61 98.6604 240.374 94.4585C232.183 86.2812 222.542 79.6787 212.041 74.8053C200.961 69.6783 189.002 66.4795 176.78 65.0641C173.693 64.7827 170.606 64.5013 167.609 64.3285C164.322 64.029 161.036 63.7294 157.75 63.4298C151.376 62.8488 145.012 62.1683 138.548 61.4786C124.216 60.0718 109.993 58.5745 95.6618 57.1676C95.2635 57.1313 95.1185 57.6202 95.3991 57.8466C95.6797 58.073 95.5257 58.6615 95.9059 58.897C96.277 59.232 96.7388 58.5712 96.3587 58.3357C96.0781 58.1093 96.1326 57.5118 95.8519 57.2854L95.5892 57.9644C108.029 59.1987 120.567 60.4421 133.097 61.7851C139.272 62.3479 145.537 63.0194 151.702 63.6819C157.867 64.3443 164.331 65.0339 170.623 65.4067C194.697 66.7978 218.388 75.6851 236.391 91.8864C241.216 96.2423 245.696 101.069 249.633 106.348C253.57 111.627 257.272 117.287 259.624 123.426L260.167 122.973C251.541 117.367 241.266 114.422 231.198 112.5C220.443 110.415 210.232 106.773 200.437 101.864C190.642 96.9542 182.215 91.3661 174.403 84.5287C170.583 81.2685 167.189 77.7459 162.799 75.2369C158.798 72.8639 154.344 71.0521 149.944 69.7473C144.757 68.2703 139.424 67.2822 133.956 66.6833C130.869 66.4019 127.782 66.1205 124.767 66.1469C123.463 66.1285 122.15 66.2096 120.747 66.1821C119.941 66.2091 119.851 66.1004 119.29 65.6476C119.099 65.5299 119.009 65.4212 118.819 65.3034L118.755 66.0005C128.859 65.3149 139.298 66.4673 148.984 69.2582C153.873 70.708 158.617 72.6466 162.989 75.3547C167.361 78.0627 170.755 81.5854 174.475 84.8366C181.925 91.2393 190.271 96.6192 198.998 101.13C208.014 105.768 217.61 109.554 227.559 111.666C233.471 112.908 239.401 113.951 245.14 115.98C247.865 116.931 250.481 117.973 253.079 119.214C254.528 119.848 255.967 120.582 257.298 121.406C257.777 121.651 258.882 122.756 259.398 122.602C259.606 122.52 259.724 122.33 259.642 122.122C259.57 121.814 259.398 121.497 259.235 121.081C259.072 120.664 258.339 120.999 258.601 121.425L259.335 121.09C256.982 116.055 253.905 111.256 250.593 106.837C247.009 102.092 243.089 97.7185 238.736 93.7067C230.218 85.8009 220.36 79.3795 209.633 74.7867C198.616 70.0671 186.82 67.2847 174.878 66.0958C171.791 65.8144 168.785 65.7412 165.698 65.4598C162.611 65.1784 159.623 64.906 156.636 64.6337C150.461 64.0709 144.296 63.4084 138.23 62.7551C124.198 61.3755 110.174 59.8963 96.2409 58.5258C95.743 58.4805 95.6704 59.2771 96.1683 59.3225L96.1141 58.8155Z" fill="#346E3C" fill-opacity="0.55"/>
<path d="M259.05 120.984C255.759 116.556 251.812 112.551 247.953 108.659C239.488 100.38 229.922 92.8739 219.284 87.555C213.966 84.8956 208.241 83.0935 202.652 81.0057C197.932 79.2247 193.224 77.3444 188.528 75.3649C178.552 71.2343 168.565 67.203 158.259 64.1404C145.332 60.2565 132.014 57.9368 118.652 56.8205C116.666 56.5798 112.858 56.4203 110.86 56.2789C110.96 56.2909 112.861 57.2265 113.071 57.1513C127.066 58.042 140.928 60.0248 154.474 63.7824C165.003 66.6705 175.3 70.6386 185.375 74.7812C190.071 76.7607 194.866 78.7523 199.586 80.5333C201.996 81.4298 204.393 82.4256 206.815 83.2229C209.622 84.1675 212.428 85.1121 215.1 86.3426C226.393 91.2373 236.579 98.6168 245.54 106.956C250.432 111.477 255.076 116.372 259.177 121.604L259.351 121.826C259.177 121.604 259.225 121.206 258.951 120.972L259.05 120.984Z" fill="#346E3C" fill-opacity="0.55"/>
<path d="M259.45 121.382C253.058 113.095 245.16 105.64 236.938 99.2553C232.777 96.0573 228.395 93.0349 223.756 90.4864C219.118 87.9378 214.323 85.8745 209.306 83.9869C188.036 76.3984 167.538 66.4831 145.339 61.7067C133.842 59.2726 122.318 57.9428 110.615 57.2969C110.218 57.251 110.038 57.9349 110.535 57.9922C111.032 58.0495 111.593 58.4163 112.067 58.6723C112.839 58.9627 113.645 58.9551 114.551 58.959C117.344 59.1806 120.236 59.4137 123.029 59.6354C128.691 60.2889 134.354 60.9423 139.971 61.9931C151.204 64.0948 162.211 67.2777 173.028 71.2439C183.646 75.1871 193.985 79.8029 204.714 83.6583C209.841 85.4579 214.881 87.1468 219.741 89.5196C224.601 91.8924 228.918 94.6053 233.102 97.6047C242.868 104.57 251.965 112.968 259.324 122.475C259.587 122.807 260.118 122.566 259.977 122.047C259.813 121.726 259.736 121.516 259.572 121.195C259.32 120.763 258.678 121.092 258.93 121.523C259.094 121.844 259.171 122.054 259.335 122.375L259.988 121.948C253.497 113.649 245.512 106.083 237.202 99.5878C228.979 93.2031 220.012 88.041 210.143 84.5868C199.204 80.8078 188.655 76.2685 177.861 72.1037C167.354 68.0725 156.69 64.5266 145.69 62.1499C139.401 60.8201 133.078 59.7884 126.72 59.0547C123.541 58.6879 120.263 58.3095 116.962 58.1299C115.67 57.9809 114.134 58.2063 112.866 57.8585C112.182 57.6789 111.632 57.2128 110.948 57.0332L110.867 57.7286C120.87 58.279 130.927 59.2382 140.868 61.1908C152.002 63.281 162.8 66.5403 173.318 70.4721C183.837 74.4039 194.077 79.0082 204.717 82.7527C209.845 84.5524 214.984 86.2528 219.733 88.7134C224.482 91.1741 228.899 93.8984 233.182 96.9093C237.928 100.276 242.329 104.005 246.597 108.02C251.052 112.158 255.274 116.572 259.041 121.436C259.293 121.867 259.958 121.34 259.595 120.996L259.45 121.382Z" fill="#346E3C" fill-opacity="0.55"/>
</svg>
