<svg width="80" height="232" viewBox="0 0 80 232" fill="none" xmlns="http://www.w3.org/2000/svg">
<g opacity="0.44">
<rect x="68" y="185" width="12" height="12" rx="6" fill="white" fill-opacity="0.08"/>
<rect x="68.5" y="185.5" width="11" height="11" rx="5.5" stroke="white" stroke-opacity="0.12"/>
</g>
<path d="M65.0701 109.002C64.4701 109.002 63.7701 109.102 63.1701 109.302C63.7701 108.902 64.2701 108.502 64.7701 108.002C65.5701 107.302 66.87 106.202 66.87 105.102C66.87 103.202 63.8701 104.802 62.6701 105.502C63.6701 104.402 64.3701 103.002 62.9701 102.302C61.9701 101.802 60.77 102.302 59.87 102.802C58.47 103.602 57.2701 104.702 56.1701 105.902C55.9701 106.102 55.7701 106.302 55.5701 106.502H55.37C55.17 106.502 55.07 106.502 54.87 106.602C54.57 106.802 54.2701 107.102 54.0701 107.402C53.3701 108.302 50.6701 111.002 51.0701 112.102C51.0701 112.102 51.0701 112.302 51.1701 112.302C48.7701 113.702 46.47 115.402 44.37 117.202C37.87 122.802 32.8701 129.902 29.5701 137.702C27.7701 142.002 26.3701 146.502 25.5701 151.102C25.5701 146.102 25.5701 141.102 25.7701 136.102C26.5701 131.302 28.77 126.902 31.37 122.802C33.47 119.602 35.8701 116.602 38.5701 113.802L38.7701 113.602C39.2701 114.002 39.9701 113.202 40.2701 112.902C41.5701 111.902 42.7701 110.902 43.9701 109.802C44.7701 109.102 45.4701 108.202 45.5701 107.302C46.3701 106.602 47.0701 105.902 47.7701 105.002C48.7701 103.702 49.9701 101.802 49.9701 100.102C49.9701 98.9024 48.67 98.9024 47.87 99.4024C47.17 99.8024 46.6701 100.402 46.1701 101.102C46.1701 101.002 46.1701 100.802 46.2701 100.702C46.5701 99.6024 47.0701 98.3024 46.7701 97.2024C46.5701 96.5024 45.8701 96.2024 45.2701 96.5024C44.2701 97.0024 43.6701 98.4025 43.2701 99.3025C43.2701 99.5024 43.1701 99.6024 43.0701 99.7024C43.0701 98.9024 43.0701 98.1024 42.7701 97.4024C42.5701 97.0024 42.37 96.7024 41.87 96.7024C40.97 96.7024 40.3701 97.9024 40.0701 98.6024C39.5701 99.9024 39.3701 101.402 39.2701 102.802C39.2701 103.202 39.2701 103.702 39.2701 104.102C38.7701 104.102 38.4701 104.702 38.4701 105.202C38.1701 107.202 38.5701 109.202 38.7701 111.202C38.7701 111.502 38.5701 112.602 38.6701 113.102C37.2701 114.402 36.07 115.802 34.87 117.302C31.97 120.802 29.27 124.602 27.37 128.802C26.87 129.802 26.4701 130.902 26.0701 131.902C26.0701 131.702 26.0701 131.402 26.0701 131.202C26.5701 124.602 27.9701 118.002 29.1701 111.402C31.3701 99.7024 33.6701 88.1024 35.9701 76.4024C36.2701 75.4024 36.9701 74.4024 37.5701 73.6024C38.5701 72.3024 39.6701 71.0024 40.7701 69.8025C42.9701 67.4025 45.2701 65.1025 47.6701 62.8025C47.6701 62.8025 47.77 62.7024 47.87 62.6024C48.07 62.7024 48.2701 62.8025 48.7701 62.8025C49.7701 62.8025 50.9701 62.4024 51.9701 62.1024C52.2701 62.1024 54.57 60.5024 55.37 59.5024C55.37 59.5024 55.4701 59.4025 55.4701 59.3025C56.2701 58.6025 56.9701 57.9024 57.6701 57.1024C58.2701 56.5024 58.7701 55.8024 59.1701 55.1024C59.4701 54.7024 59.7701 54.1024 59.7701 53.6024C59.7701 52.5024 58.2701 52.9024 57.6701 53.2024C57.2701 53.4024 56.8701 53.7024 56.5701 53.9024C56.6701 53.7024 56.8701 53.5025 56.9701 53.3025C57.6701 52.2025 58.67 50.9024 58.87 49.6024C59.07 48.7024 58.3701 48.2024 57.4701 48.4024C56.2701 48.8024 55.3701 50.1024 54.6701 51.0024C55.0701 50.0024 55.87 48.0024 54.87 47.1024C53.87 46.3024 52.57 47.0025 51.87 47.8025C50.77 49.1025 50.1701 50.9024 49.7701 52.5024C49.5701 53.1024 49.4701 53.6024 49.2701 54.2024C49.2701 54.2024 49.0701 54.4024 49.0701 54.5024C47.9701 56.5024 47.7701 58.7024 47.7701 60.9024C47.7701 61.5024 47.7701 61.8024 47.7701 62.1024C47.5701 62.3024 47.2701 62.5024 47.0701 62.8025C46.0701 63.8025 45.0701 64.7024 44.0701 65.7024C41.5701 68.1024 39.1701 70.6024 36.9701 73.4024C36.7701 73.6024 36.57 73.9024 36.37 74.2024C37.47 68.8024 38.4701 63.4024 39.4701 58.0024C39.8701 55.8024 40.27 53.6024 40.37 51.5024L44.5701 42.8025C44.8701 42.9025 45.3701 42.8024 46.0701 42.4024C47.3701 41.5024 48.7701 40.6024 49.9701 39.6024C50.4701 39.2024 50.9701 38.7024 51.0701 38.1024C51.6701 37.7024 52.1701 37.3025 52.7701 36.8025C54.0701 35.7025 55.5701 34.5024 56.4701 33.0024C56.6701 32.6024 56.8701 32.1024 56.6701 31.7024C56.3701 31.1024 55.5701 31.1024 54.9701 31.2024C53.9701 31.4024 52.9701 32.0024 52.0701 32.7024C52.3701 32.3024 52.67 31.9024 52.87 31.5024C53.47 30.4024 54.2701 29.2024 54.4701 27.9024C54.5701 27.0024 54.0701 26.4024 53.1701 26.6024C52.1701 26.8024 51.4701 27.8024 50.9701 28.7024C51.1701 27.7024 51.3701 26.0024 50.1701 25.7024C49.1701 25.4024 48.4701 26.5024 48.0701 27.2024C47.2701 28.6024 46.77 30.1024 46.37 31.6024C46.17 32.3024 45.97 32.9024 45.87 33.5024C45.67 33.5024 45.3701 33.6025 45.1701 33.8025C44.8701 34.1025 44.7701 34.6024 44.6701 35.0024C44.3701 37.0024 44.1701 39.0024 44.1701 41.0024C44.1701 43.0024 44.1701 42.3024 44.4701 42.6024C43.2701 44.0024 41.4701 46.6024 40.5701 50.0024C40.5701 48.8024 40.5701 47.6025 40.2701 46.3025C39.5701 41.7025 37.8701 37.4024 35.7701 33.2024C35.2701 32.1024 34.6701 31.0024 33.9701 29.9024C32.7701 25.8024 32.6701 21.4024 32.7701 17.1024C32.7701 15.4024 32.9701 13.8024 33.1701 12.2024C34.1701 12.1024 34.7701 10.5024 35.1701 9.70235C35.7701 8.40236 36.17 6.9024 36.37 5.5024C36.37 5.2024 36.47 2.80245 36.37 1.80245C36.37 1.60245 36.3701 1.50245 36.5701 1.30245C37.0701 -0.0975475 37.6701 -1.49762 38.0701 -2.89762C38.2701 -3.79762 38.5701 -4.69757 38.5701 -5.59757C38.5701 -6.19757 38.5701 -6.99762 38.0701 -7.39762C36.9701 -8.29762 35.5701 -6.79757 35.0701 -6.09757C34.3701 -5.19757 33.7701 -4.19757 33.2701 -3.09757C33.2701 -3.49757 33.2701 -3.89765 33.2701 -4.29765C33.2701 -5.49765 33.27 -6.89757 32.87 -8.09757C32.67 -8.79757 32.07 -9.29765 31.37 -8.79765C30.47 -8.19765 30.4701 -6.69755 30.4701 -5.69755C30.4701 -5.19755 30.4701 -4.69757 30.4701 -4.09757C29.8701 -5.39757 28.9701 -6.99765 27.9701 -6.29765C27.2701 -5.79765 27.0701 -4.69762 27.0701 -3.89762C27.0701 -2.49762 27.5701 -1.09762 28.2701 0.102379C28.6701 0.902379 29.1701 1.70243 29.7701 2.40243C29.5701 2.80243 29.5701 3.30238 29.5701 3.60238C29.7701 5.20238 29.9701 6.80243 30.4701 8.40243C30.7701 9.30243 31.4701 11.2024 32.4701 11.9024C32.1701 13.8024 32.0701 15.7024 31.9701 17.7024C31.8701 20.8024 31.97 23.9024 32.37 26.9024C29.97 23.0024 27.37 19.4024 24.37 15.9024C24.67 15.6024 24.7701 15.1024 24.6701 14.4024C24.3701 11.6024 23.0701 9.00238 21.0701 7.10238C21.0701 7.10238 21.0701 7.10238 20.9701 7.10238C20.7701 6.80238 20.6701 6.40238 20.4701 6.10238C19.4701 4.20238 18.5701 2.30235 17.2701 0.702354C16.7701 0.00235462 15.1701 -1.49762 14.6701 0.102379C14.3701 1.10238 14.6701 2.30245 14.9701 3.30245C14.9701 3.60245 15.1701 4.00245 15.2701 4.30245C15.0701 4.10245 14.8701 3.80238 14.6701 3.60238C13.9701 2.80238 13.1701 1.8024 12.1701 1.5024C11.4701 1.3024 10.6701 1.50243 10.6701 2.40243C10.6701 3.50243 11.4701 4.6024 12.0701 5.5024C12.2701 5.8024 12.5701 6.2024 12.7701 6.5024C12.4701 6.3024 12.0701 6.00245 11.6701 5.80245C10.8701 5.40245 9.37009 4.70245 8.67009 5.80245C8.07009 6.80245 8.97009 7.90238 9.67009 8.60238C10.7701 9.70238 12.1701 10.5025 13.5701 11.3025C14.3701 11.8025 15.2701 12.2024 16.0701 12.6024V12.8025C16.8701 14.2025 18.2701 15.1024 19.6701 15.6024C20.6701 16.0024 22.0701 16.5024 23.0701 16.4024C26.1701 20.0024 28.9701 24.0024 31.4701 28.1024C31.9701 28.9024 32.37 29.7024 32.87 30.4024C36.87 37.4024 40.27 45.5024 39.37 53.6024C38.97 57.1024 38.1701 60.6024 37.4701 64.1024C37.0701 66.1024 36.6701 68.2024 36.2701 70.2024C35.5701 66.6024 33.6701 63.1024 30.7701 60.9024C29.5701 60.1024 28.7701 58.8024 27.9701 57.7024C26.8701 56.2024 25.87 54.6024 24.87 53.1024C24.57 52.7024 24.3701 52.3024 24.0701 51.9024C24.1701 51.7024 24.2701 51.4024 24.1701 51.0024C23.7701 48.8024 23.1701 46.6024 22.2701 44.6024C22.1701 44.3024 22.0701 44.0024 21.7701 43.9024C21.4701 43.2024 21.1701 42.5025 20.7701 41.8025C20.2701 40.7025 19.6701 39.4024 18.7701 38.5024C18.2701 38.0024 17.57 38.0024 17.37 38.7024C17.17 39.4024 17.17 40.3024 17.37 41.1024C17.17 40.9024 16.9701 40.6024 16.7701 40.4024C16.1701 39.8024 15.4701 39.1024 14.5701 38.9024C13.9701 38.8024 13.2701 38.9024 13.1701 39.6024C13.1701 40.4024 13.7701 41.4024 14.2701 42.0024C14.4701 42.3024 14.7701 42.6024 14.9701 42.9024C14.6701 42.7024 14.27 42.6024 13.87 42.5024C13.07 42.3024 11.67 42.1024 11.37 43.1024C11.07 43.9024 11.87 44.8025 12.37 45.3025C13.17 46.2025 14.1701 47.0024 15.0701 47.7024C15.5701 48.1024 16.1701 48.5024 16.7701 48.9024V49.1024C16.7701 49.4024 17.1701 49.7024 17.4701 49.9024C18.1701 50.5024 21.3701 52.2025 23.1701 52.3025C24.3701 54.2025 25.4701 56.0024 26.7701 57.8025C27.6701 59.0024 28.5701 60.4024 29.7701 61.4024C30.2701 61.8024 30.87 62.2025 31.37 62.8025C32.07 63.6025 32.7701 64.4025 33.2701 65.3025C34.8701 67.8025 35.77 70.7024 35.87 73.6024C35.67 74.7024 35.4701 75.8024 35.1701 76.9024C34.4701 80.3024 33.7701 83.7024 33.1701 87.1024C32.9701 85.9024 31.67 83.6024 31.37 83.1024C30.57 81.6024 29.5701 80.1024 28.0701 79.2024C27.8701 79.1024 27.5701 78.9024 27.2701 78.9024C26.9701 78.9024 26.6701 79.0024 26.6701 79.3025C26.6701 79.5024 26.6701 79.6025 26.6701 79.8025C27.1701 81.9025 28.1701 84.0024 29.5701 85.6024C29.9701 86.1024 32.0701 88.3024 33.0701 87.7024C31.9701 93.5024 30.7701 99.2024 29.6701 105.002C28.1701 112.602 26.7701 120.202 25.7701 127.902C25.7701 128.502 25.6701 129.002 25.5701 129.602C24.5701 127.602 22.8701 126.002 21.0701 124.602C20.8701 124.402 20.67 124.302 20.37 124.302C19.97 124.302 19.6701 124.502 19.5701 124.902C19.3701 125.202 19.3701 125.602 19.5701 126.002C19.7701 126.902 20.3701 127.702 20.9701 128.402C21.8701 129.402 22.9701 130.302 24.0701 131.102C24.4701 131.402 25.0701 131.702 25.4701 131.802C25.3701 133.302 25.2701 134.902 25.1701 136.402C25.1701 136.402 25.1701 136.402 25.1701 136.502C24.9701 141.002 24.9701 145.502 25.0701 150.002C25.0701 151.602 25.0701 153.302 25.0701 154.902C21.0701 151.202 16.9701 147.502 12.9701 143.802C12.6701 143.502 12.27 143.202 11.87 142.802C11.87 142.802 11.87 142.602 11.87 142.502C11.47 140.402 11.3701 138.302 10.4701 136.302C10.3701 135.902 10.1701 135.502 10.0701 135.102C9.57006 133.402 8.97004 131.402 7.87004 129.902C7.07004 128.902 5.77009 129.102 5.67009 130.502C5.67009 131.202 5.77008 132.002 5.97008 132.702C5.37008 131.902 4.67009 130.802 3.67009 130.602C2.77009 130.402 2.07009 131.102 2.17009 131.902C2.27009 133.202 3.27008 134.402 3.97008 135.402C4.37008 135.902 4.77009 136.402 5.17009 136.902C3.77009 136.202 1.97004 135.702 0.870043 136.702C-1.22996 138.602 2.97007 140.602 4.27007 141.202C4.97007 141.502 5.57007 141.802 6.27007 142.002C6.27007 142.102 6.47008 142.202 6.47008 142.302C6.77008 142.602 7.17005 142.802 7.57006 142.902C8.57006 143.302 9.67007 143.702 10.7701 143.902C11.1701 143.902 11.3701 143.902 11.5701 143.902C15.0701 147.102 18.6701 150.402 22.2701 153.602C23.1701 154.502 24.1701 155.302 25.0701 156.202C25.0701 156.502 25.0701 156.902 24.9701 157.302C24.9701 157.302 24.9701 157.202 25.1701 157.102C25.1701 160.602 25.3701 164.002 25.6701 167.502C23.6701 166.102 21.8701 164.302 20.4701 162.302C20.2701 162.002 20.0701 161.702 19.7701 161.502C19.4701 161.302 19.0701 161.302 18.7701 161.502C18.5701 161.702 18.4701 162.102 18.4701 162.402C18.4701 163.302 18.8701 164.102 19.2701 164.802C20.4701 166.902 22.0701 168.802 23.9701 170.402C24.3701 170.702 24.9701 171.402 25.4701 171.502C25.6701 171.502 25.77 171.502 25.87 171.502C26.07 174.802 26.3701 178.002 26.7701 181.302C25.9701 180.202 25.2701 179.102 24.4701 178.102C23.6701 177.102 22.4701 176.002 21.2701 176.402C21.2701 177.902 22.0701 179.302 22.9701 180.602C23.7701 181.702 24.6701 182.802 25.5701 183.802C26.0701 184.302 26.5701 184.802 27.1701 185.102C27.5701 188.402 28.0701 191.802 28.7701 195.102C29.5701 199.002 30.17 202.902 30.37 206.902C30.87 216.202 30.3701 225.502 29.5701 234.802C29.0701 240.902 28.3701 247.002 27.4701 253.002C27.4701 253.302 27.47 253.602 27.37 254.002C27.37 253.802 28.27 253.702 28.37 253.402C30.37 240.102 31.5701 226.602 31.5701 213.102C31.5701 208.702 31.3701 204.302 30.7701 199.902C30.5701 198.702 30.3701 197.402 30.1701 196.202C31.9701 196.202 33.6701 195.202 34.6701 193.702C35.7701 192.002 36.0701 189.902 36.1701 187.902C35.5701 187.702 34.87 188.102 34.37 188.602C33.17 189.702 32.0701 191.002 31.1701 192.302C30.9701 192.602 30.27 193.702 29.87 194.602C29.37 192.302 28.9701 190.002 28.5701 187.702C28.4701 186.902 28.3701 186.002 28.2701 185.202C28.8701 185.202 29.4701 184.802 29.9701 184.402C30.6701 183.802 31.1701 182.902 31.6701 182.202C32.9701 180.402 34.5701 178.502 34.4701 176.302C34.4701 176.002 34.3701 175.602 34.0701 175.502C33.8701 175.502 33.6701 175.502 33.4701 175.702C31.6701 177.202 30.5701 179.302 29.1701 181.102C28.6701 181.702 28.27 182.202 27.87 182.202C27.47 178.402 27.07 174.702 26.87 170.902C27.87 169.902 28.8701 168.902 29.7701 167.802C30.3701 167.102 30.97 166.402 31.37 165.502C31.87 164.502 32.1701 163.502 32.4701 162.402C32.6701 161.802 32.7701 161.202 32.4701 160.702C32.0701 160.202 31.2701 160.202 30.6701 160.702C30.0701 161.202 29.8701 161.702 29.5701 162.302C28.9701 163.702 28.3701 165.102 27.7701 166.502C27.5701 167.002 27.2701 167.602 26.7701 167.702C26.5701 164.102 26.3701 160.402 26.2701 156.802C26.2701 156.302 26.2701 155.802 26.2701 155.302C27.4701 145.002 30.7701 135.002 36.6701 126.402C40.2701 121.102 44.8701 116.302 50.2701 112.602C50.6701 112.302 51.1701 112.002 51.5701 111.802C51.5701 111.802 51.77 111.702 51.87 111.602C52.77 112.602 56.2701 112.702 57.2701 112.702C58.7701 112.702 60.2701 112.502 61.6701 112.202C61.8701 112.202 62.0701 112.202 62.0701 111.902C62.0701 111.902 62.0701 111.802 62.0701 111.702C62.6701 111.702 63.1701 111.602 63.7701 111.502C64.9701 111.302 67.2701 110.802 67.6701 109.502C68.0701 108.302 66.2701 108.302 65.5701 108.302L65.0701 109.002ZM40.37 100.402C40.57 99.4024 40.8701 98.1025 41.6701 97.3025C41.7701 97.2025 41.9701 97.1024 42.1701 97.0024C42.1701 97.0024 42.37 97.2025 42.37 97.3025C42.57 97.8025 42.5701 98.3024 42.5701 98.9024C42.5701 100.002 42.4701 101.002 42.2701 102.102C42.2701 102.302 42.77 102.302 42.87 102.102C43.17 101.202 43.47 100.202 43.87 99.3025C44.07 98.9025 45.4701 95.9024 46.1701 96.7024C46.4701 97.1024 46.3701 97.8024 46.2701 98.2024C46.2701 98.9024 46.07 99.5024 45.87 100.202C45.67 101.102 45.3701 101.902 44.9701 102.802C44.9701 102.902 45.4701 103.002 45.4701 102.802C45.9701 101.902 46.67 101.002 47.37 100.202C47.67 99.9024 48.5701 98.8024 49.0701 99.2024C49.4701 99.4024 49.2701 100.202 49.1701 100.502C48.8701 102.202 47.8701 103.802 46.7701 105.102C46.3701 105.602 45.87 106.102 45.37 106.602C44.47 106.402 43.8701 107.602 42.9701 107.702C42.8701 107.702 42.7701 107.702 42.6701 107.702C42.4701 107.502 42.5701 107.202 42.6701 106.902C42.9701 106.502 43.3701 106.202 43.6701 105.802C43.9701 105.402 43.8701 104.702 43.4701 104.502C42.9701 104.302 42.4701 104.802 42.0701 105.202C41.8701 105.502 41.5701 105.802 41.2701 106.002C41.0701 106.102 40.9701 106.202 40.7701 106.202C40.2701 106.202 40.0701 105.602 39.9701 105.202C39.9701 104.902 39.8701 104.602 39.7701 104.402C39.7701 103.002 39.7701 101.602 40.0701 100.302L40.37 100.402ZM49.87 57.5024C49.87 56.7024 49.97 55.8024 49.87 55.0024C49.87 55.0024 49.87 54.8024 49.87 54.7024C50.27 52.9024 50.8701 51.1024 51.6701 49.5024C52.0701 48.7024 53.3701 46.5024 54.4701 47.4024C55.4701 48.2024 54.6701 50.2024 54.2701 51.1024C53.8701 52.2024 53.3701 53.3025 52.7701 54.3025C52.7701 54.5025 53.2701 54.5025 53.2701 54.3025C54.2701 52.5025 55.4701 50.6025 57.0701 49.3025C57.3701 49.1025 57.9701 48.5025 58.2701 48.8025C58.5701 49.1025 58.3701 49.6024 58.2701 50.0024C57.9701 51.2024 57.1701 52.4024 56.4701 53.4024C55.9701 54.2024 55.37 54.9024 54.87 55.6024C54.87 55.7024 55.27 55.8024 55.37 55.6024C55.97 55.0024 56.67 54.4025 57.37 53.8025C57.67 53.6025 58.47 52.9024 58.87 53.0024C59.37 53.0024 59.1701 53.7024 59.0701 54.0024C58.5701 55.2024 57.5701 56.3024 56.6701 57.2024C56.2701 57.7024 55.7701 58.1024 55.2701 58.6024C55.0701 58.5024 54.7701 58.5024 54.4701 58.6024C53.9701 58.8024 53.4701 59.1024 53.0701 59.5024C52.7701 59.8024 52.3701 60.1024 51.9701 60.1024C51.4701 60.1024 51.27 59.4024 51.37 58.9024C51.47 58.4024 51.8701 58.0024 52.0701 57.6024C52.2701 57.2024 52.57 56.7024 52.37 56.2024C51.67 56.2024 50.9701 56.8024 50.7701 57.5024C50.7701 57.8024 50.5701 58.2025 50.2701 58.3025C50.0701 58.3025 49.7701 58.2024 49.6701 57.9024C49.5701 57.6024 49.6701 57.4024 49.6701 57.1024L49.87 57.5024ZM47.87 29.0024C48.07 28.4024 48.3701 27.8024 48.6701 27.2024C48.8701 26.9024 49.1701 26.2024 49.5701 26.2024C50.0701 26.2024 50.3701 26.9025 50.4701 27.3025C50.5701 28.0025 50.4701 28.7024 50.2701 29.4024C50.0701 30.5024 49.5701 31.6024 49.1701 32.7024C49.1701 32.9024 49.6701 32.8024 49.6701 32.7024C49.9701 32.0024 50.2701 31.3024 50.5701 30.7024C51.0701 29.6024 51.7701 28.3024 52.6701 27.6024C53.0701 27.3024 53.5701 27.1024 53.7701 27.6024C53.9701 28.0024 53.7701 28.5024 53.7701 28.9024C53.4701 30.0024 52.8701 31.1024 52.2701 32.1024C51.8701 32.8024 51.3701 33.5024 50.9701 34.2024C50.9701 34.3024 51.4701 34.2024 51.4701 34.2024C52.3701 33.4024 53.4701 32.6024 54.6701 32.1024C55.2701 31.9024 56.1701 31.8024 56.2701 32.6024C56.2701 33.1024 55.9701 33.6024 55.6701 34.0024C54.6701 35.3024 53.3701 36.4024 52.1701 37.4024C51.8701 37.6024 51.5701 37.9024 51.2701 38.1024V37.9024C51.2701 37.9024 51.2701 37.7024 51.1701 37.7024C50.9701 37.5024 50.6701 37.7025 50.4701 37.8025C50.2701 38.0025 50.07 38.3024 49.87 38.5024C49.67 38.7024 49.2701 38.8024 48.9701 38.7024C48.5701 38.4024 48.7701 37.9024 48.9701 37.5024C49.2701 36.8024 49.5701 36.2024 49.5701 35.4024C49.5701 35.2024 49.5701 35.1024 49.4701 35.0024C49.4701 35.0024 49.2701 34.9024 49.0701 34.9024C48.3701 34.9024 47.8701 35.7024 47.6701 36.4024C47.6701 36.7024 47.5701 37.0024 47.2701 37.2024C46.9701 37.4024 46.5701 37.4024 46.4701 37.2024C46.4701 37.2024 46.4701 37.0024 46.4701 36.9024C46.4701 36.3024 46.4701 35.7024 46.5701 35.1024C46.5701 34.8024 46.57 34.4024 46.37 34.1024C46.77 32.4024 47.2701 30.7024 47.9701 29.1024L47.87 29.0024ZM20.6701 11.2024C20.6701 11.2024 20.4701 11.2024 20.2701 11.2024C19.7701 11.2024 19.27 10.7025 18.87 10.3025C18.57 10.0025 18.1701 9.70243 17.7701 9.90243C17.4701 10.0024 17.3701 10.4024 17.4701 10.7024C17.5701 11.0024 17.7701 11.2024 17.9701 11.4024C18.2701 11.7024 18.6701 11.9024 18.9701 12.2024C19.2701 12.5024 19.3701 13.0025 19.1701 13.3025C18.4701 13.3025 17.6701 13.1024 17.1701 12.5024C16.8701 12.2024 16.5701 11.8024 16.1701 12.1024C15.9701 12.1024 15.9701 12.3024 15.9701 12.5024C14.3701 11.7024 12.8701 10.9024 11.4701 9.90243C10.5701 9.30243 9.47005 8.40245 9.07006 7.30245C8.97005 6.90245 9.07004 6.3024 9.37004 6.0024C9.87004 5.6024 10.5701 6.00235 11.0701 6.20235C11.9701 6.70235 12.8701 7.3024 13.5701 8.0024C13.5701 8.0024 14.2701 8.2024 14.0701 8.0024C13.4701 7.3024 12.97 6.60243 12.37 5.90243C11.77 5.10243 10.7701 3.70238 10.9701 2.60238C11.2701 1.10238 13.0701 3.0024 13.5701 3.5024C14.1701 4.2024 14.7701 4.90235 15.2701 5.70235C15.2701 5.70235 15.8701 5.90235 15.7701 5.70235C15.2701 4.20235 14.77 2.50243 14.87 0.902428C14.87 0.602427 14.8701 0.202403 15.1701 0.00240326C15.3701 -0.197597 15.57 0.00235462 15.87 0.202354C16.57 0.802355 16.9701 1.60245 17.4701 2.30245C18.4701 3.90245 19.2701 5.50235 20.1701 7.20235C19.9701 7.20235 19.87 7.50245 19.87 7.80245C19.87 8.10245 19.9701 8.40238 20.0701 8.60238C20.3701 9.20238 20.5701 9.90238 20.5701 10.6024C20.5701 10.8024 20.5701 11.0024 20.4701 11.1024L20.6701 11.2024ZM32.2701 3.20235C32.2701 3.60235 32.4701 3.90245 32.4701 4.30245C32.4701 4.70245 32.0701 5.10243 31.6701 4.90243C31.4701 4.90243 31.3701 4.7024 31.2701 4.5024C31.0701 4.1024 31.07 3.60235 30.87 3.20235C30.67 2.90235 30.3701 2.60238 30.0701 2.60238C28.7701 0.802379 27.3701 -1.59765 27.4701 -3.79765C27.4701 -4.59765 27.7701 -5.19765 28.1701 -5.79765C29.3701 -4.99765 29.87 -3.2976 30.37 -1.9976C30.37 -1.7976 30.9701 -1.9976 30.9701 -1.9976C30.7701 -3.6976 30.6701 -5.8976 31.2701 -7.4976C31.3701 -7.7976 31.5701 -8.2976 31.9701 -7.9976C32.2701 -7.6976 32.3701 -7.19765 32.4701 -6.79765C32.6701 -5.69765 32.7701 -4.5976 32.7701 -3.4976C32.7701 -2.6976 32.7701 -1.99755 32.7701 -1.19755C32.7701 -0.997548 33.2701 -1.19755 33.2701 -1.19755C33.8701 -2.59755 34.5701 -3.99755 35.4701 -5.19755C35.7701 -5.69755 36.7701 -7.09755 37.4701 -6.69755C38.0701 -6.29755 38.0701 -5.19757 37.9701 -4.59757C37.7701 -2.59757 37.07 -0.597646 36.37 1.20235C36.27 1.50235 36.1701 1.8024 36.0701 2.0024C35.5701 2.2024 35.3701 2.80245 35.1701 3.30245C34.9701 3.90245 34.5701 4.6024 33.9701 4.5024C33.7701 4.0024 33.9701 3.50238 33.7701 3.10238C33.6701 2.60238 33.1701 2.20243 32.7701 2.40243C32.4701 2.60243 32.37 3.00243 32.37 3.40243L32.2701 3.20235ZM21.0701 47.3025C20.5701 47.4025 20.0701 47.1025 19.5701 46.8025C19.0701 46.5025 18.5701 46.3024 18.0701 46.6024C17.8701 47.0024 18.2701 47.5024 18.6701 47.7024C19.0701 47.9024 19.47 48.3025 19.37 48.8025C19.37 49.1025 18.8701 49.3025 18.5701 49.3025C18.2701 49.3025 17.9701 49.0025 17.6701 48.8025C17.4701 48.7025 17.3701 48.5024 17.1701 48.5024C16.9701 48.5024 16.8701 48.5024 16.7701 48.7024C15.7701 48.0024 14.6701 47.2025 13.7701 46.3025C13.0701 45.7025 12.3701 45.0024 11.9701 44.2024C11.8701 43.9024 11.77 43.6025 11.87 43.3025C12.17 42.7025 12.77 42.7024 13.37 42.9024C14.17 43.1024 15.0701 43.6024 15.7701 44.1024C15.7701 44.1024 16.3701 44.1024 16.2701 44.0024C15.7701 43.5024 15.3701 43.0024 14.9701 42.5024C14.4701 41.9024 13.4701 40.7025 13.7701 39.8025C14.0701 38.7025 15.7701 40.3024 16.0701 40.7024C16.5701 41.2024 17.0701 41.7025 17.4701 42.3025C17.4701 42.3025 18.0701 42.3025 17.9701 42.3025C17.8701 41.5025 17.7701 40.8024 17.7701 40.0024C17.7701 39.8024 17.7701 39.5025 17.7701 39.3025C17.7701 39.2025 17.77 39.1024 17.87 39.0024V38.9024C18.17 39.0024 18.3701 39.4024 18.5701 39.6024C19.2701 40.6024 19.87 41.7025 20.37 42.8025C20.57 43.3025 20.8701 43.8025 21.0701 44.3025C21.0701 44.3025 20.97 44.3024 20.87 44.4024C20.87 44.5024 20.7701 44.7025 20.7701 44.8025C20.7701 45.7025 21.3701 46.7024 20.9701 47.5024L21.0701 47.3025ZM10.0701 140.502C9.97005 140.702 9.67006 140.502 9.57006 140.202C9.37006 139.902 9.17004 139.502 8.87004 139.202C8.77004 139.002 8.57004 138.902 8.37004 138.902C8.17004 138.902 7.97008 139.102 7.97008 139.302C7.97008 139.502 7.97009 139.702 8.17009 139.902C8.47009 140.402 8.77009 140.902 9.17009 141.302C9.37009 141.502 9.57009 141.702 9.67009 142.002C9.77009 142.302 9.67008 142.602 9.47008 142.802C9.07008 143.102 8.57007 142.602 8.27007 142.302C7.57007 141.702 6.67007 141.402 5.77007 141.402C5.77007 141.502 5.77007 141.702 5.77007 141.802C4.57007 141.302 3.27009 140.702 2.17009 140.002C1.47009 139.502 0.470055 138.802 0.570055 137.902C0.570055 136.302 2.47008 136.602 3.47008 136.902C4.27008 137.202 5.07004 137.602 5.87004 138.102C5.87004 138.102 6.47004 138.102 6.37004 137.902C5.07004 136.502 3.77004 135.002 2.87004 133.302C2.67004 132.902 1.97005 130.902 3.07005 131.002C3.57005 131.002 3.97007 131.602 4.27007 131.902C4.67007 132.302 4.97007 132.802 5.27007 133.302C5.77007 134.102 6.27005 134.802 6.57006 135.602C6.57006 135.802 7.17005 135.602 7.07006 135.602C6.57006 134.402 6.07004 133.102 5.87004 131.802C5.87004 131.402 5.47006 130.002 6.07006 129.802C6.47006 129.602 7.07007 130.602 7.27007 130.902C8.17007 132.502 8.77007 134.202 9.27007 136.002C9.27007 136.202 9.37008 136.402 9.47008 136.602C9.37008 137.202 9.47008 137.702 9.47008 138.302C9.67008 139.002 10.0701 139.602 9.97008 140.302C9.97008 140.302 9.97008 140.402 9.97008 140.502H10.0701ZM66.5701 110.302C65.9701 111.502 63.8701 111.902 62.6701 112.102C62.2701 112.102 61.8701 112.202 61.4701 112.302C60.9701 111.702 60.3701 111.402 59.6701 111.202C58.8701 111.002 58.0701 111.102 57.2701 111.202C57.2701 110.802 57.7701 110.502 58.0701 110.302C58.3701 110.102 58.6701 109.602 58.5701 109.202C58.3701 108.802 57.8701 108.702 57.4701 108.902C57.0701 109.102 56.7701 109.402 56.4701 109.702C56.0701 110.102 55.4701 110.502 54.9701 110.102C54.8701 109.702 54.97 109.202 55.37 108.802C55.77 108.402 55.9701 108.002 56.0701 107.602C56.0701 107.402 56.0701 107.202 56.0701 107.002C56.9701 106.002 58.0701 105.002 59.0701 104.202C59.8701 103.502 61.27 102.402 62.37 102.502C64.07 102.702 62.97 104.602 62.37 105.302C61.67 106.102 60.8701 106.802 60.0701 107.402C60.0701 107.402 60.4701 107.602 60.5701 107.502C61.2701 107.002 61.8701 106.502 62.5701 106.102C63.1701 105.702 63.77 105.402 64.37 105.102C64.77 104.902 65.5701 104.402 65.9701 104.602C67.0701 104.902 65.1701 107.102 64.7701 107.402C63.7701 108.402 62.5701 109.502 61.2701 109.902C60.9701 109.902 61.4701 110.202 61.6701 110.102C62.4701 109.902 63.2701 109.702 64.0701 109.502C64.7701 109.402 67.1701 108.902 66.4701 110.402L66.5701 110.302Z" fill="white" fill-opacity="0.09"/>
<path d="M65.0705 108.602C64.3705 108.602 63.7705 108.802 63.0705 108.902L63.3705 109.602C64.5705 108.802 68.2705 106.302 67.1705 104.402C66.2705 102.902 63.5705 104.702 62.5705 105.202L63.0705 105.802C64.0705 104.602 65.0705 102.502 62.8705 101.902C60.6705 101.302 58.0705 103.802 56.5705 105.302C56.1705 105.702 55.8705 106.002 55.4705 106.102C55.0705 106.202 54.8705 106.302 54.5705 106.502C53.9705 107.002 53.3705 107.902 52.8705 108.502C52.0705 109.502 50.3705 111.202 51.1705 112.502V112.002C37.1705 120.102 28.5705 135.402 25.4705 151.002H26.1705C26.1705 147.502 26.1705 143.802 26.1705 140.202C26.1705 138.402 26.1705 136.602 26.5705 134.802C26.8705 133.202 27.3705 131.702 27.9705 130.302C30.4705 124.202 34.5705 118.502 39.2705 113.802H38.7705C39.3705 114.102 39.8705 113.802 40.3705 113.402C41.4705 112.502 42.6705 111.602 43.6705 110.602C44.5705 109.802 45.3705 109.002 45.8705 108.002C46.4705 106.802 47.6705 105.902 48.3705 104.802C49.0705 103.702 51.3705 100.502 50.0705 99.1024C48.7705 97.7024 46.7705 99.9025 45.9705 100.802L46.5705 101.202C46.9705 100.002 48.2705 96.4024 46.0705 96.1024C44.2705 95.8024 43.2705 98.4024 42.7705 99.7024H43.4705C43.4705 98.4024 42.9705 95.3025 40.8705 96.9025C38.9705 98.5024 39.0705 102.002 38.9705 104.202L39.2705 103.802C37.0705 104.402 38.1705 108.802 38.3705 110.302C38.3705 111.302 38.6705 112.602 37.9705 113.402C36.9705 114.602 35.7705 115.702 34.7705 116.902C30.9705 121.402 27.6705 126.302 25.6705 131.802H26.3705C27.0705 122.202 29.2705 112.502 31.0705 102.902C31.9705 98.2025 32.8705 93.4024 33.8705 88.7024C34.3705 86.3024 34.8705 83.8025 35.3705 81.4025C35.8705 79.2025 35.9705 76.6024 37.2705 74.7024C40.1705 70.3024 44.3705 66.6024 48.0705 62.9025H47.5705C48.8705 63.8025 51.3705 62.9024 52.5705 62.2024C54.2705 61.2024 55.5705 59.8025 56.9705 58.4025C57.9705 57.4025 60.6705 55.0025 60.0705 53.3025C59.4705 51.6025 57.1705 53.1024 56.3705 53.7024L56.8705 54.2024C57.6705 53.1024 60.3705 49.8025 58.7705 48.4025C57.1705 47.0025 55.0705 49.9024 54.3705 51.0024L55.0705 51.3025C55.4705 50.2025 56.0705 48.7024 55.5705 47.6024C55.0705 46.5024 53.7705 46.4025 52.8705 46.8025C51.5705 47.4025 50.7705 48.9024 50.2705 50.1024C49.8705 51.0024 49.5705 52.0024 49.2705 53.0024C49.0705 53.8024 48.6705 54.5025 48.2705 55.3025C47.5705 57.0025 47.3705 58.8024 47.2705 60.6024C47.2705 61.0024 47.2705 61.4025 47.2705 61.8025C47.2705 62.3025 47.2705 62.2024 46.7705 62.7024C46.0705 63.4024 45.2705 64.1025 44.5705 64.8025C41.5705 67.7025 38.5705 70.7024 36.0705 74.1024L36.7705 74.4025C37.5705 70.2025 38.4705 66.0025 39.2705 61.8025C39.6705 59.7025 40.0705 57.6024 40.3705 55.5024C40.5705 54.3024 40.3705 52.8024 40.8705 51.6024C41.3705 50.0024 42.4705 48.4025 43.1705 46.9025L44.9705 43.2024L44.5705 43.4025C45.3705 43.6025 46.0705 43.1024 46.7705 42.7024C47.8705 42.0024 48.9705 41.2025 49.9705 40.4025C50.7705 39.7025 51.2705 38.8024 52.0705 38.2024C52.9705 37.4024 53.9705 36.7025 54.8705 35.9025C55.7705 35.1025 58.0705 33.0024 56.9705 31.6024C55.8705 30.2024 53.0705 31.9024 51.9705 32.7024L52.4705 33.2024C53.2705 31.9024 55.9705 28.5025 54.5705 26.9025C53.1705 25.3025 51.2705 27.7024 50.6705 28.7024L51.3705 29.0024C51.5705 27.8024 51.7705 25.8024 50.1705 25.5024C48.2705 25.1024 47.2705 28.1025 46.7705 29.4025C46.5705 30.1025 46.2705 30.7025 46.0705 31.4025C45.8705 32.0025 45.7705 32.9025 45.3705 33.4025C45.0705 33.7025 44.8705 33.7024 44.6705 34.1024C44.4705 34.5024 44.3705 34.9025 44.3705 35.4025C44.1705 36.8025 43.9705 38.3025 43.8705 39.8025C43.8705 40.9025 43.6705 42.1024 44.1705 43.1024V42.7024C42.3705 44.9024 40.9705 47.5024 40.2705 50.2024H40.9705C40.9705 43.8024 38.3705 37.6025 35.3705 31.9025C35.1705 31.6025 35.0705 31.2025 34.8705 30.9025C34.8705 30.8025 34.4705 30.4025 34.4705 30.4025C34.2705 30.0025 34.2705 29.2024 34.1705 28.7024C33.7705 26.9024 33.5705 25.0024 33.3705 23.2024C33.1705 19.7024 33.3705 16.1024 33.7705 12.6024L33.4705 13.0024C34.4705 12.8024 34.9705 11.8024 35.3705 11.0024C35.9705 9.70243 36.5705 8.30245 36.7705 6.90245C36.9705 5.90245 36.9705 4.90245 36.9705 3.90245C36.9705 2.90245 36.9705 2.60245 36.9705 1.90245C37.1705 1.00245 37.6705 0.102406 37.9705 -0.897594C38.4705 -2.29759 40.1705 -6.99755 37.6705 -7.59755C35.4705 -8.09755 33.6705 -4.29762 32.9705 -2.79762L33.6705 -2.59755C33.6705 -3.99755 34.1705 -8.59762 31.9705 -8.79762C29.7705 -8.99762 29.9705 -4.89755 29.9705 -3.59755L30.6705 -3.79762C30.2705 -4.69762 29.5705 -6.39762 28.2705 -6.29762C27.1705 -6.29762 26.7705 -4.89757 26.5705 -3.99757C26.3705 -2.19757 27.0705 -0.397619 27.9705 1.20238C28.1705 1.60238 28.4705 2.00245 28.6705 2.40245C28.8705 2.70245 28.9705 2.90238 29.1705 3.20238C29.1705 3.20238 29.0705 3.20245 29.0705 3.40245C29.0705 4.10245 29.0705 4.90241 29.2705 5.60241C29.4705 7.30241 29.8705 9.00241 30.5705 10.6024C30.8705 11.3024 31.2705 11.8025 31.6705 12.4025C32.0705 13.1025 31.7705 13.9024 31.6705 14.7024C31.2705 19.0024 31.1705 23.4024 31.8705 27.7024L32.5705 27.4025C30.1705 23.5025 27.4705 19.8025 24.5705 16.3025V16.7024C25.8705 15.0024 24.3705 11.7024 23.3705 10.1024C22.6705 9.00241 21.6705 8.20241 21.0705 7.10241C20.2705 5.80241 19.6705 4.30243 18.8705 3.00243C18.2705 2.00243 16.7705 -0.89757 15.0705 -0.49757C13.0705 -0.0975704 14.4705 3.80245 14.7705 4.90245L15.3705 4.50243C14.5705 3.40243 12.3705 0.602479 10.6705 1.80248C8.97051 3.00248 11.5705 6.10238 12.3705 7.20238L12.8705 6.70238C11.8705 6.00238 10.4705 5.10245 9.27049 5.40245C8.17049 5.70245 7.87049 6.90248 8.27049 7.80248C8.87049 9.20248 10.4705 10.2024 11.7705 11.0024C12.6705 11.6024 13.6705 12.1024 14.5705 12.6024C15.0705 12.9024 15.5705 13.0024 15.8705 13.5024C16.0705 13.8024 16.2705 14.1025 16.4705 14.3025C17.5705 15.5025 18.9705 16.1024 20.4705 16.6024C21.1705 16.8024 22.0705 16.8024 22.6705 17.1024C23.5705 17.5024 24.2705 18.8024 24.8705 19.6024C26.3705 21.5024 27.6705 23.4025 29.0705 25.4025C29.6705 26.3025 30.2705 27.3024 30.8705 28.2024C31.3705 29.0024 32.2705 30.0025 32.4705 30.9025C32.4705 31.2025 32.8705 31.3024 33.0705 31.1024C32.8705 31.1024 32.6705 31.1024 32.4705 31.1024C35.7705 36.9024 38.5705 43.2025 38.9705 49.9025C39.1705 53.3025 38.5705 56.7024 37.8705 60.0024C37.1705 63.5024 36.4705 67.1024 35.7705 70.6024H36.4705C35.6705 67.0024 33.9705 63.7025 31.0705 61.4025C29.2705 59.9025 27.8705 57.9024 26.5705 56.0024C25.8705 55.0024 25.2705 54.1024 24.6705 53.0024C24.3705 52.4024 24.3705 52.5025 24.3705 51.9025C24.3705 51.6025 24.3705 51.4024 24.3705 51.1024C24.0705 49.0024 23.3705 46.7025 22.4705 44.8025C22.2705 44.4025 21.9705 44.0024 21.7705 43.6024C21.2705 42.7024 20.8705 41.7025 20.4705 40.8025C20.0705 39.9025 19.0705 37.9024 17.7705 38.2024C16.3705 38.5024 16.7705 40.7024 16.8705 41.6024L17.4705 41.2024C16.5705 40.2024 14.5705 37.9024 13.0705 39.2024C11.6705 40.4024 13.7705 42.6024 14.5705 43.5024L15.0705 42.9025C14.0705 42.4025 12.4705 41.8024 11.4705 42.6024C10.2705 43.5024 11.1705 44.8024 11.9705 45.7024C12.7705 46.6024 13.5705 47.3024 14.4705 48.0024C15.0705 48.4024 15.9705 48.9025 16.3705 49.4025C16.6705 49.8025 16.8705 50.2024 17.3705 50.6024C17.9705 51.0024 18.5705 51.4024 19.1705 51.7024C19.7705 52.0024 20.4705 52.3024 21.1705 52.6024C21.5705 52.8024 21.9705 52.8024 22.3705 53.0024C22.8705 53.2024 22.8705 53.3025 23.2705 53.8025C24.5705 55.8025 25.8705 57.9025 27.3705 59.8025C28.6705 61.5025 30.4705 62.6025 31.7705 64.3025C33.2705 66.2025 34.4705 68.5025 34.9705 70.8025C35.3705 72.3025 35.4705 73.7025 35.1705 75.3025C34.9705 76.4025 34.7705 77.5024 34.5705 78.5024C33.9705 81.5024 33.3705 84.5024 32.7705 87.5024H33.4705C32.9705 85.5024 31.7705 83.3024 30.5705 81.7024C30.0705 81.0024 26.9705 77.6025 26.2705 79.8025C25.9705 80.7025 26.7705 82.2024 27.1705 83.1024C27.7705 84.4024 28.4705 85.6024 29.3705 86.6024C30.1705 87.5024 31.8705 89.3024 33.1705 88.6024L32.6705 88.2024C31.2705 95.3024 29.8705 102.402 28.4705 109.602C27.0705 116.802 25.8705 123.302 25.1705 130.302L25.8705 130.102C25.1705 128.902 20.6705 122.402 19.1705 125.302C18.4705 126.602 19.6705 128.202 20.5705 129.102C21.8705 130.502 23.4705 131.902 25.2705 132.702L24.9705 132.302C24.8705 133.802 24.9705 135.502 24.6705 137.002C24.6705 137.402 25.1705 137.702 25.3705 137.302L24.6705 137.102C24.3705 143.202 24.4705 149.402 24.6705 155.502L25.2705 155.202C22.2705 152.402 19.2705 149.602 16.1705 146.902C15.3705 146.202 14.6705 145.502 13.8705 144.802C13.1705 144.202 12.3705 143.602 12.0705 142.802C11.5705 141.102 11.6705 139.202 10.9705 137.502C10.4705 136.102 10.0705 134.702 9.57048 133.302C9.17048 132.202 8.67052 130.702 7.67051 130.002C7.07051 129.502 6.17048 129.402 5.57048 130.002C4.77048 130.902 5.27048 132.502 5.57048 133.402L6.27049 133.102C5.47049 131.902 3.37048 129.502 2.07048 131.502C0.770478 133.502 3.8705 136.502 4.9705 137.802L5.4705 137.202C4.2705 136.602 2.67047 136.002 1.37047 136.602C0.470466 137.002 -0.229522 137.902 0.0704778 138.902C0.670478 141.302 4.07047 141.802 5.87047 142.902C6.47047 143.302 6.87051 143.702 7.67051 144.002C8.67052 144.402 9.77046 144.802 10.8705 145.002H11.5705C11.9705 145.102 12.3705 145.602 12.6705 145.902C13.5705 146.702 14.4705 147.502 15.3705 148.302C17.1705 149.902 18.8705 151.502 20.6705 153.202C21.4705 153.902 22.2705 154.702 23.0705 155.402C23.4705 155.802 23.9705 156.102 24.2705 156.502C24.7705 157.102 24.7705 157.202 24.7705 157.902C24.7705 158.202 25.1705 158.302 25.3705 158.202L25.5705 158.002L24.9705 157.702C24.9705 161.202 25.1705 164.602 25.4705 168.102L26.0705 167.802C23.8705 166.502 22.3705 164.402 20.7705 162.502C19.9705 161.502 18.4705 161.302 18.3705 162.902C18.1705 164.902 19.9705 167.002 21.1705 168.402C21.9705 169.302 22.7705 170.202 23.6705 171.002C24.3705 171.602 25.0705 172.402 26.0705 172.602L25.7705 172.202C25.9705 175.502 26.2705 178.702 26.6705 182.002L27.3705 181.802C26.0705 179.902 24.2705 176.202 21.4705 176.702C21.2705 176.702 21.1705 176.902 21.1705 177.102C21.1705 179.202 22.4705 180.902 23.7705 182.602C24.3705 183.402 25.0705 184.202 25.7705 185.002C26.0705 185.302 26.4705 185.602 26.7705 185.902C27.2705 186.302 27.2705 186.802 27.3705 187.502C28.0705 192.802 29.4705 198.102 30.0705 203.502C31.2705 214.302 30.4705 225.302 29.5705 236.102C29.0705 242.302 28.3705 248.502 27.4705 254.702C27.4705 255.002 27.8705 255.402 28.0705 255.102C28.3705 254.702 28.8705 254.802 29.1705 254.402C29.4705 254.002 29.3705 252.902 29.4705 252.402C29.4705 251.702 29.6705 251.102 29.7705 250.402C30.0705 248.002 30.3705 245.602 30.6705 243.202C31.2705 238.002 31.6705 232.802 31.9705 227.602C32.5705 217.402 32.7705 207.102 30.9705 197.002L30.5705 197.502C35.1705 197.502 36.7705 192.702 36.8705 188.802C36.8705 188.602 36.7705 188.502 36.5705 188.402C34.9705 188.102 33.6705 189.802 32.7705 190.902C31.6705 192.202 30.6705 193.702 29.8705 195.302H30.5705C29.9705 192.302 29.3705 189.202 28.9705 186.102L28.6705 186.502C30.6705 186.102 31.5705 184.302 32.6705 182.702C33.7705 181.102 35.3705 179.202 35.1705 177.102C34.9705 175.402 33.6705 176.102 32.8705 176.902C32.0705 177.702 31.4705 178.602 30.7705 179.502C30.0705 180.502 29.1705 182.402 27.9705 182.702L28.4705 183.102C28.2705 181.302 28.0705 179.502 27.8705 177.702C27.8705 176.802 27.6705 175.802 27.6705 174.902C27.6705 174.102 27.3705 173.102 27.4705 172.302C27.5705 171.502 28.4705 170.902 28.9705 170.402C29.5705 169.802 30.0705 169.102 30.6705 168.502C31.5705 167.402 32.1705 166.202 32.5705 164.902C32.8705 164.002 33.3705 162.802 32.9705 161.902C32.6705 161.102 31.7705 160.902 31.0705 161.102C29.9705 161.402 29.5705 162.602 29.1705 163.602C28.8705 164.402 28.4705 165.202 28.1705 165.902C27.8705 166.602 27.5705 168.002 26.6705 168.402L27.2705 168.702C27.1705 166.402 27.0705 164.002 26.9705 161.702C26.8705 159.402 26.6705 157.102 26.9705 154.902C27.5705 150.802 28.4705 146.802 29.7705 142.902C32.2705 135.102 36.3705 127.802 41.8705 121.702C44.8705 118.402 48.3705 115.402 52.1705 113.102H51.6705C53.0705 114.502 62.9705 114.802 62.4705 112.802L62.0705 113.302C63.8705 113.102 66.7705 112.902 67.8705 111.202C68.9705 109.502 66.8705 109.002 65.6705 109.102C65.1705 109.102 65.1705 109.902 65.6705 109.902C66.0705 109.902 66.7705 109.902 67.0705 110.102C68.0705 110.802 66.5705 111.602 65.9705 111.802C64.7705 112.302 63.3705 112.502 62.1705 112.602C61.9705 112.602 61.7705 112.802 61.7705 113.102C61.7705 113.302 56.9705 113.602 56.2705 113.502C55.0705 113.502 53.1705 113.502 52.2705 112.502C52.1705 112.402 51.9705 112.402 51.7705 112.502C37.4705 121.202 29.1705 137.102 26.4705 153.202C25.6705 158.302 26.2705 163.702 26.4705 168.802C26.4705 169.102 26.7705 169.202 27.0705 169.102C27.8705 168.702 28.1705 167.902 28.5705 167.002C29.0705 165.802 29.5705 164.502 30.1705 163.302C30.2705 163.002 30.4705 162.702 30.6705 162.502C30.8705 162.102 31.2705 161.802 31.7705 161.802L32.3705 163.002C32.3705 163.502 32.0705 164.202 31.8705 164.702C31.3705 166.202 30.5705 167.502 29.5705 168.702C28.7705 169.602 27.7705 170.502 26.9705 171.402C26.3705 172.202 26.7705 173.502 26.9705 174.402C27.1705 177.302 27.4705 180.202 27.8705 183.102C27.8705 183.302 28.0705 183.502 28.3705 183.502C29.4705 183.202 30.0705 182.002 30.6705 181.202C31.1705 180.502 31.6705 179.802 32.1705 179.102C32.4705 178.702 32.7705 178.302 33.0705 178.002C33.4705 177.602 33.5705 177.202 34.1705 177.402C35.3705 178.002 32.8705 181.302 32.3705 182.102C31.3705 183.602 30.4705 185.502 28.5705 185.902C28.4705 185.902 28.2705 186.102 28.2705 186.302C28.6705 189.502 29.2705 192.602 29.8705 195.802C29.8705 196.102 30.3705 196.202 30.5705 195.802C31.0705 194.702 31.7705 193.702 32.4705 192.702C33.1705 191.702 35.0705 189.002 36.4705 189.202L36.1705 188.802C36.1705 192.202 34.7705 196.702 30.5705 196.702C30.2705 196.702 30.1705 196.902 30.1705 197.202C31.9705 206.902 31.7705 217.002 31.2705 226.802C30.9705 231.702 30.5705 236.702 30.0705 241.602C29.7705 244.002 29.5705 246.402 29.1705 248.702C28.9705 250.002 28.7705 251.302 28.6705 252.602C28.6705 252.902 28.6705 253.302 28.4705 253.602C28.4705 253.902 28.2705 254.202 27.9705 254.202C27.9705 254.202 27.6705 254.402 27.5705 254.502L28.1705 254.902C29.6705 244.402 30.7705 233.802 31.1705 223.202C31.3705 217.802 31.4705 212.402 31.1705 207.002C30.8705 201.902 29.6705 196.902 28.8705 191.902C28.5705 190.402 28.3705 188.902 28.1705 187.402C28.1705 187.002 28.1705 186.102 27.8705 185.802C27.5705 185.402 26.8705 185.202 26.4705 184.802C25.4705 183.802 24.5705 182.602 23.7705 181.502C22.8705 180.302 21.9705 178.902 21.9705 177.302L21.6705 177.702C23.9705 177.302 25.6705 180.902 26.6705 182.402C26.8705 182.702 27.3705 182.602 27.3705 182.202C27.0705 178.902 26.7705 175.702 26.4705 172.402C26.4705 172.202 26.3705 172.102 26.1705 172.002C25.1705 171.902 24.4705 171.002 23.7705 170.302C23.1705 169.802 22.6705 169.202 22.0705 168.602C20.8705 167.302 19.5705 165.602 19.0705 163.902V163.102C19.5705 162.502 19.9705 162.602 20.1705 163.202C20.3705 163.402 20.5705 163.702 20.6705 163.902C21.1705 164.502 21.5705 165.102 22.0705 165.602C23.0705 166.702 24.2705 167.702 25.4705 168.502C25.6705 168.602 26.0705 168.502 26.0705 168.202C25.8705 164.702 25.7705 161.302 25.5705 157.802C25.5705 157.502 25.1705 157.302 24.9705 157.502L24.7705 157.702L25.3705 158.002C25.3705 157.602 25.5705 157.102 25.3705 156.702C25.1705 156.102 24.0705 155.502 23.5705 155.102C22.1705 153.902 20.8705 152.602 19.4705 151.302C18.0705 150.002 16.6705 148.702 15.2705 147.502C14.4705 146.802 13.7705 146.102 12.9705 145.402C12.5705 145.002 12.1705 144.402 11.5705 144.202C11.3705 144.202 11.0705 144.202 10.7705 144.202C10.2705 144.202 9.77046 144.002 9.37047 143.902C8.97047 143.802 8.57049 143.602 8.27049 143.502C7.47049 143.202 7.1705 142.802 6.4705 142.402C5.5705 141.902 4.4705 141.602 3.4705 141.102C2.4705 140.602 1.47047 140.002 0.870466 139.202C0.270466 138.402 0.870466 137.502 1.87047 137.202C2.87047 136.902 4.0705 137.402 4.9705 137.902C5.3705 138.102 5.6705 137.602 5.4705 137.302C4.5705 136.202 3.5705 135.102 2.9705 133.902C2.3705 132.702 2.57048 133.202 2.57048 132.902L3.37047 131.602L4.17051 131.802C4.87051 132.202 5.27051 132.902 5.67051 133.502C5.87051 133.802 6.47047 133.602 6.37047 133.202C6.27047 132.802 6.17051 132.402 6.17051 131.902C6.17051 131.202 5.97051 131.102 6.67051 130.702C7.47051 130.202 7.57048 130.702 8.07048 131.302C8.27048 131.502 8.3705 131.802 8.4705 132.002C9.0705 133.202 9.47047 134.602 9.87047 135.902C10.2705 137.102 10.6705 138.102 10.9705 139.302C11.0705 140.002 11.1705 140.602 11.2705 141.302C11.2705 141.902 11.2705 142.802 11.5705 143.402C11.7705 143.802 12.2705 144.102 12.5705 144.402C13.1705 144.902 13.6705 145.402 14.2705 146.002C15.3705 147.002 16.5705 148.102 17.6705 149.102C20.0705 151.302 22.4705 153.502 24.8705 155.702C25.0705 155.902 25.5705 155.702 25.4705 155.402C25.3705 149.302 25.2705 143.102 25.4705 137.002C25.4705 136.602 24.9705 136.502 24.7705 136.802L25.4705 137.102C25.7705 135.502 25.6705 133.802 25.7705 132.202C25.7705 132.002 25.6705 131.902 25.4705 131.802C24.2705 131.302 23.0705 130.402 22.0705 129.402C21.3705 128.702 19.7705 127.402 19.8705 126.302C19.9705 124.202 22.5705 126.802 23.0705 127.302C23.9705 128.202 24.6705 129.202 25.2705 130.302C25.4705 130.702 25.9705 130.502 25.9705 130.102C26.6705 123.102 28.0705 116.102 29.3705 109.202C30.6705 102.302 32.0705 95.3025 33.4705 88.4025C33.4705 88.1024 33.2705 87.8024 32.9705 88.0024C32.0705 88.4024 30.4705 86.6024 29.9705 86.0024C29.2705 85.1024 28.6705 84.1024 28.1705 83.1024C27.9705 82.6024 27.6705 82.1024 27.5705 81.6024C27.5705 81.3024 27.3705 81.0025 27.3705 80.8025C27.1705 80.4025 27.1705 80.2025 27.6705 80.3025C29.0705 79.8025 30.8705 83.1024 31.3705 84.1024C31.9705 85.3024 32.6705 86.5025 33.0705 87.8025C33.0705 88.1025 33.7705 88.2025 33.7705 87.8025C34.5705 83.6025 35.4705 79.3024 36.2705 75.1024C36.9705 71.6024 35.3705 67.6025 33.3705 64.8025C32.2705 63.3025 30.8705 62.4024 29.6705 61.1024C28.1705 59.6024 26.9705 57.6024 25.7705 55.9025C25.1705 55.0024 24.5705 54.1024 23.9705 53.1024C23.5705 52.4024 23.4705 52.5025 22.6705 52.3025C21.1705 52.0025 19.7705 51.2025 18.4705 50.4025C18.2705 50.2025 17.8705 50.1025 17.6705 49.9025C17.4705 49.7025 17.4705 49.4024 17.2705 49.2024C16.6705 48.4024 15.4705 47.9025 14.7705 47.3025C13.8705 46.6025 12.9705 45.8025 12.3705 44.8025C11.8705 43.9025 12.5705 43.2025 13.4705 43.3025C14.0705 43.3025 14.6705 43.6025 15.1705 43.8025C15.5705 44.0025 15.8705 43.6024 15.6705 43.2024C15.2705 42.7024 12.9705 40.2025 14.6705 39.8025C15.6705 39.6025 16.9705 41.3025 17.4705 41.9025C17.7705 42.2025 18.1705 41.9024 18.0705 41.5024C18.0705 41.4024 17.8705 40.2024 18.0705 40.0024L19.2705 39.6024C19.4705 39.8024 19.6705 40.1025 19.8705 40.4025C20.2705 41.1025 20.6705 41.8024 20.9705 42.5024C21.6705 43.9024 22.4705 45.2024 22.9705 46.7024C23.5705 48.3024 24.2705 50.1025 24.2705 51.9025C24.2705 53.7025 24.1705 52.6024 24.5705 53.2024C25.0705 54.0024 25.5705 54.8024 26.0705 55.5024C26.9705 56.9024 27.9705 58.3024 28.9705 59.7024C29.8705 60.9024 30.9705 61.8024 32.0705 62.7024C34.4705 64.9024 35.8705 67.9024 36.5705 71.0024C36.5705 71.4024 37.2705 71.4024 37.2705 71.0024C37.9705 67.3024 38.7705 63.6024 39.4705 59.9025C40.1705 56.5024 40.6705 53.1024 40.4705 49.6024C39.9705 42.9024 37.1705 36.6025 33.8705 30.9025C33.7705 30.7025 33.4705 30.6025 33.2705 30.9025C33.4705 30.9025 33.6705 31.0024 33.8705 31.1024C33.7705 30.5024 33.1705 29.9025 32.8705 29.4025C32.4705 28.7025 32.0705 28.1025 31.6705 27.4025C30.7705 25.9025 29.7705 24.4024 28.7705 23.0024C27.8705 21.7024 26.8705 20.3024 25.8705 19.1024C25.3705 18.5024 24.6705 17.3025 24.0705 16.9025C23.6705 16.7025 23.0705 16.7024 22.5705 16.7024C20.9705 16.4024 19.3705 15.7024 18.1705 14.6024C17.6705 14.2024 17.3705 13.4024 16.9705 13.0024C16.5705 12.6024 15.5705 12.3024 14.9705 12.0024C13.3705 11.1024 11.7705 10.2025 10.4705 8.90245C10.2705 8.70245 9.87051 8.30243 9.67051 8.00243C8.87051 6.20243 10.1705 6.20245 10.9705 6.40245C11.7705 6.60245 12.3705 7.10243 13.0705 7.50243C13.3705 7.70243 13.7705 7.30243 13.5705 7.00243C13.1705 6.50243 12.8705 6.00243 12.4705 5.50243C12.2705 5.20243 12.0705 4.90241 11.8705 4.60241L11.5705 3.90245C11.2705 3.30245 11.3705 3.00245 11.9705 2.90245C12.5705 2.60245 12.7705 2.70241 13.2705 3.10241C13.5705 3.30241 13.8705 3.50248 14.0705 3.80248C14.5705 4.30248 14.9705 4.80248 15.3705 5.30248C15.5705 5.60248 16.0705 5.30245 15.9705 4.90245C15.6705 4.00245 15.3705 3.00243 15.2705 2.00243C15.2705 1.50243 15.2705 0.502405 16.0705 0.602406C16.3705 0.602406 16.7705 1.10245 17.0705 1.40245C18.3705 2.80245 19.2705 4.60248 20.0705 6.30248C20.3705 6.90248 20.6705 7.70238 21.0705 8.20238C21.6705 9.00238 22.3705 9.60246 22.8705 10.4025C23.7705 11.8025 25.3705 15.1024 24.2705 16.6024C24.2705 16.7024 24.2705 16.9024 24.2705 17.0024C27.1705 20.5024 29.7705 24.1025 32.1705 27.9025C32.3705 28.3025 32.9705 28.0024 32.8705 27.6024C32.3705 24.1024 32.3705 20.5024 32.5705 17.0024C32.5705 16.2024 32.6705 15.4024 32.7705 14.6024C32.7705 14.0024 33.1705 13.1024 32.9705 12.6024C32.8705 12.2024 32.3705 11.9024 32.1705 11.6024C31.7705 11.0024 31.4705 10.4024 31.2705 9.70238C30.7705 8.40238 30.4705 6.90243 30.2705 5.50243C30.2705 5.00243 30.0705 4.50243 30.0705 4.00243C30.0705 4.20243 30.2705 3.40248 30.2705 3.30248C30.2705 2.90248 29.8705 2.60238 29.6705 2.20238C28.6705 0.802382 27.7705 -0.997521 27.6705 -2.69752C27.6705 -3.09752 27.6705 -3.59757 27.6705 -3.99757C27.8705 -4.59757 27.8705 -4.79759 28.5705 -4.89759C29.2705 -4.99759 29.3705 -4.79752 29.7705 -4.19752C29.9705 -3.89752 30.1705 -3.49755 30.2705 -3.09755C30.3705 -2.69755 30.9705 -2.89762 30.9705 -3.29762C30.9705 -3.89762 30.9705 -8.89759 32.6705 -7.39759C33.1705 -6.89759 33.1705 -5.39752 33.1705 -4.69752C33.1705 -3.89752 33.1705 -2.99752 33.1705 -2.19752C33.1705 -1.79752 33.6705 -1.69757 33.8705 -1.99757C34.3705 -3.09757 34.9705 -4.19755 35.7705 -5.09755C36.0705 -5.49755 36.4705 -5.89752 36.8705 -6.19752C37.8705 -6.79752 38.5705 -5.59752 38.4705 -4.69752C38.4705 -3.49752 38.0705 -2.29752 37.6705 -1.19752C37.2705 -0.0975208 36.4705 1.30243 36.3705 2.50243C36.2705 3.70243 36.4705 5.00248 36.3705 6.30248C36.2705 7.70248 35.7705 9.10248 35.1705 10.3025C34.7705 11.1025 34.3705 12.4024 33.3705 12.6024C33.1705 12.6024 33.0705 12.8024 33.0705 13.0024C32.6705 16.0024 32.5705 19.1024 32.6705 22.2024C32.6705 23.6024 32.7705 25.0025 32.9705 26.4025C32.9705 27.1025 33.1705 27.7025 33.2705 28.4025C33.2705 28.7025 33.8705 30.5024 33.8705 30.5024C33.8705 30.6024 33.8705 30.8025 33.8705 30.9025C37.2705 37.0025 40.2705 43.7024 40.3705 50.7024C40.3705 51.1024 40.9705 51.2024 41.0705 50.7024C41.7705 48.0024 43.1705 45.6024 44.8705 43.5024C44.9705 43.4024 44.9705 43.2024 44.8705 43.1024C44.2705 42.0024 44.6705 40.1025 44.7705 38.9025C44.7705 37.9025 44.7705 34.8024 46.0705 34.5024C46.1705 34.5024 46.2705 34.4024 46.3705 34.2024C46.8705 32.3024 47.3705 30.3024 48.2705 28.6024C48.4705 28.1024 49.1705 26.6024 49.8705 26.7024L50.9705 27.4025C50.9705 27.7025 50.9705 27.9024 50.9705 28.2024C50.9705 28.6024 50.9705 28.9025 50.8705 29.3025C50.8705 29.7025 51.3705 30.0024 51.5705 29.6024C51.9705 29.0024 52.3705 28.4024 52.9705 28.0024C53.3705 27.8024 54.1705 27.7024 54.4705 28.1024C54.6705 28.5024 54.2705 29.4024 54.1705 29.7024C53.6705 31.0024 52.8705 32.1024 52.1705 33.2024C51.9705 33.5024 52.3705 33.9024 52.6705 33.7024C53.2705 33.2024 53.9705 32.8024 54.6705 32.5024C54.8705 32.5024 55.6705 32.1024 55.9705 32.2024L56.5705 33.5024C56.4705 33.7024 56.2705 33.9024 56.1705 34.1024C55.2705 35.3024 54.0705 36.3024 52.9705 37.2024C52.4705 37.6024 51.7705 38.0024 51.2705 38.5024C50.7705 39.0024 50.6705 39.5024 50.1705 40.0024C49.3705 40.7024 48.5705 41.3025 47.7705 41.8025C47.1705 42.2025 45.9705 43.3024 45.1705 43.1024C44.9705 43.1024 44.8705 43.1025 44.7705 43.3025C44.1705 44.5025 43.5705 45.8024 42.9705 47.0024C42.1705 48.6024 41.2705 50.1025 40.6705 51.8025C40.2705 52.9025 40.3705 54.4024 40.1705 55.6024C39.8705 57.7024 39.4705 59.8025 39.0705 61.9025C38.2705 66.2025 37.3705 70.5025 36.5705 74.8025C36.5705 75.2025 36.9705 75.4024 37.2705 75.1024C39.3705 72.3024 41.7705 69.8025 44.1705 67.4025C45.2705 66.3025 46.3705 65.2024 47.4705 64.1024C47.7705 63.8024 48.4705 63.4025 48.5705 62.9025C48.6705 62.5024 48.5705 61.8025 48.5705 61.4025C48.5705 59.8025 48.7705 58.2024 49.2705 56.7024C49.5705 55.9024 50.0705 55.3024 50.2705 54.5024C50.4705 53.8024 50.6705 53.1025 50.8705 52.4025C51.3705 50.9025 51.9705 49.0024 53.3705 48.1024C54.0705 47.7024 55.1705 47.4024 55.5705 48.6024C55.6705 49.0024 55.5705 49.5025 55.5705 49.9025C55.4705 50.5025 55.2705 51.0024 55.0705 51.6024C54.8705 52.0024 55.5705 52.2025 55.7705 51.9025C56.1705 51.3025 56.5705 50.8025 57.0705 50.3025C57.3705 50.1025 57.6705 49.7024 58.0705 49.6024C58.3705 49.3024 58.6705 49.5024 58.7705 50.0024C59.1705 50.2024 59.2705 50.6025 59.0705 50.9025C58.8705 52.1025 57.6705 53.4025 57.0705 54.3025C56.8705 54.6025 57.2705 55.0025 57.5705 54.8025C58.0705 54.4025 58.7705 53.8025 59.3705 53.8025C60.9705 53.8025 58.9705 56.3024 58.6705 56.7024C57.7705 57.8024 56.6705 58.8025 55.6705 59.9025C54.8705 60.7025 53.9705 61.4024 52.9705 62.0024C51.9705 62.6024 49.7705 63.4024 48.7705 62.7024C48.6705 62.7024 48.4705 62.7024 48.2705 62.7024C44.8705 66.0024 41.4705 69.2025 38.4705 72.9025C37.8705 73.7025 37.1705 74.5024 36.6705 75.4025C36.1705 76.3025 36.0705 77.4025 35.8705 78.4025C35.3705 80.8025 34.8705 83.3024 34.3705 85.7024C32.3705 95.7024 30.3705 105.802 28.5705 115.902C27.5705 121.302 26.5705 126.702 26.2705 132.202C26.2705 132.602 26.8705 132.702 26.9705 132.202C28.8705 126.902 32.0705 122.102 35.6705 117.802C36.5705 116.802 37.4705 115.802 38.3705 114.802C39.0705 114.102 39.5705 113.802 39.6705 112.802C39.6705 111.602 39.6705 110.602 39.6705 109.502C39.6705 108.602 38.9705 105.002 40.1705 104.702C40.3705 104.702 40.4705 104.502 40.4705 104.302C40.4705 102.702 40.5705 101.102 41.0705 99.6024C41.2705 99.0024 41.4705 98.2025 41.9705 97.8025L42.3705 97.5024L43.3705 98.2024C43.5705 98.5024 43.4705 99.5024 43.4705 100.002C43.4705 100.502 44.0705 100.502 44.1705 100.002C44.3705 99.5024 44.6705 98.9025 44.9705 98.4025C45.4705 97.6024 45.5705 97.3025 46.4705 97.4025C47.1705 97.2025 47.4705 97.4024 47.2705 98.2024C47.2705 98.6024 47.2705 99.0024 47.0705 99.4025C46.9705 100.002 46.7705 100.502 46.5705 101.102C46.4705 101.402 46.9705 101.802 47.1705 101.502C47.5705 100.902 48.4705 99.8024 49.1705 99.7024C49.8705 99.6024 50.3705 100.302 50.2705 101.002C50.2705 101.502 49.9705 102.002 49.7705 102.502C49.0705 104.102 47.8705 105.602 46.5705 106.802C45.9705 107.402 46.0705 107.602 45.6705 108.402C45.1705 109.202 44.4705 109.802 43.7705 110.502C43.0705 111.202 42.2705 111.702 41.5705 112.302C41.2705 112.502 40.0705 113.702 39.7705 113.502C39.5705 113.502 39.4705 113.502 39.2705 113.502C34.6705 118.202 30.4705 123.802 27.9705 129.902C27.3705 131.402 26.7705 133.002 26.4705 134.602C26.1705 136.202 26.0705 137.902 25.9705 139.602C25.8705 143.502 25.8705 147.402 25.9705 151.302C25.9705 151.702 26.6705 151.802 26.6705 151.302C29.6705 135.902 38.1705 120.702 52.1705 112.702C52.3705 112.702 52.3705 112.402 52.2705 112.202C51.7705 111.302 53.2705 109.802 53.7705 109.202C54.1705 108.802 55.5705 106.702 56.2705 107.002C56.3705 107.002 56.5705 107.002 56.6705 107.002C57.7705 105.902 58.8705 104.802 60.1705 103.902C60.7705 103.502 61.3705 103.102 62.1705 102.902C62.5705 102.802 62.9705 102.702 63.3705 102.902L64.1705 104.202C64.1705 104.602 63.4705 105.402 63.2705 105.602C62.9705 105.902 63.2705 106.402 63.7705 106.202C64.5705 105.802 66.4705 104.502 67.1705 105.202C68.1705 106.202 64.4705 108.902 63.8705 109.302C63.5705 109.502 63.7705 110.102 64.1705 110.002C64.7705 109.902 65.3705 109.802 65.9705 109.702C66.4705 109.702 66.4705 108.902 65.9705 108.902H65.8705L65.0705 108.602Z" fill="white" fill-opacity="0.09"/>
<path d="M40.7705 100.502C40.9705 99.3025 41.2705 98.0025 42.3705 97.4025H41.8705C42.2705 97.8025 42.2705 98.6024 42.2705 99.2024C42.2705 100.002 42.2705 100.802 42.0705 101.502C42.0705 101.902 41.8705 102.302 42.3705 102.502C42.6705 102.502 43.0705 102.503 43.2705 102.303C43.4705 102.103 43.4705 101.703 43.5705 101.403C43.6705 101.003 43.8705 100.703 43.9705 100.303C44.1705 99.9025 44.2705 99.5024 44.4705 99.2024C44.7705 98.6024 45.1705 97.9025 45.5705 97.3025C45.5705 97.2025 45.7705 97.1025 45.8705 97.0025C46.1705 97.3025 45.8705 98.4025 45.8705 98.8025C45.7705 99.5025 45.5705 100.203 45.3705 100.903C45.3705 101.203 45.1705 101.603 45.0705 101.903C45.0705 102.203 44.7705 102.603 44.7705 102.903C44.7705 103.203 45.0705 103.403 45.4705 103.403C46.0705 103.403 46.1705 103.002 46.4705 102.602C47.0705 101.702 47.7705 100.702 48.6705 100.002C48.7705 100.002 49.0705 99.7025 49.1705 99.8025C49.2705 99.9025 49.1705 100.402 49.1705 100.602C49.0705 101.402 48.7705 102.103 48.3705 102.803C47.6705 104.203 46.6705 105.502 45.4705 106.602L46.0705 106.903C46.0705 106.703 45.9705 106.602 45.7705 106.502C45.2705 106.502 44.7705 106.503 44.3705 106.903C44.1705 107.103 43.8705 107.303 43.6705 107.403L43.2705 107.602L43.5705 107.202C43.9705 106.802 44.4705 106.402 44.5705 105.702C44.5705 105.202 44.5705 104.702 43.9705 104.502C43.4705 104.302 42.8705 104.503 42.4705 104.903C42.1705 105.203 41.9705 105.502 41.6705 105.702C41.4705 105.902 41.1705 106.202 40.8705 106.102C40.7705 106.102 40.6705 105.802 40.6705 105.702C40.6705 105.402 40.4705 105.103 40.4705 104.803C40.3705 104.403 40.4705 103.902 40.4705 103.502C40.4705 102.602 40.5705 101.602 40.7705 100.702C40.7705 100.202 40.1705 100.002 40.0705 100.502C39.8705 101.402 39.7705 102.303 39.7705 103.303C39.7705 103.803 39.7705 104.302 39.7705 104.702C39.7705 105.002 39.9705 105.402 40.0705 105.702C40.1705 106.202 40.4705 106.803 41.0705 106.903C41.8705 106.903 42.4705 106.102 42.8705 105.602C43.0705 105.402 43.7705 104.703 43.8705 105.403C43.8705 105.803 43.5705 106.203 43.2705 106.403C42.8705 106.803 42.3705 107.303 42.5705 107.903C42.7705 108.503 43.5705 108.302 43.9705 108.102C44.3705 107.902 44.9705 107.102 45.5705 107.202L45.2705 106.803C45.2705 107.103 45.6705 107.302 45.8705 107.102C46.9705 106.102 47.8705 104.902 48.5705 103.702C49.1705 102.702 49.7705 101.402 49.7705 100.102C49.7705 99.1025 48.8705 98.8025 48.1705 99.3025C47.2705 100.003 46.4705 100.903 45.8705 101.803C45.6705 102.103 45.3705 102.402 45.3705 102.702C45.4705 102.902 45.5705 102.902 45.5705 102.702C45.5705 102.702 45.6705 102.302 45.7705 102.202C46.0705 101.402 46.2705 100.603 46.4705 99.8025C46.6705 99.0025 47.2705 97.2025 46.4705 96.5025C45.3705 95.5025 44.0705 98.3025 43.7705 99.0025C43.5705 99.5025 43.2705 100.002 43.0705 100.502C42.8705 100.902 42.7705 101.302 42.6705 101.702C42.6705 101.702 42.4705 102.202 42.6705 102.002C42.6705 102.002 42.6705 101.403 42.6705 101.303C42.7705 100.403 42.8705 99.5025 42.8705 98.6025C42.8705 97.9025 42.7705 97.3025 42.2705 96.8025C42.1705 96.7025 41.9705 96.7025 41.7705 96.8025C40.4705 97.6025 40.0705 99.0025 39.8705 100.403C39.8705 100.903 40.4705 101.102 40.5705 100.602L40.7705 100.502Z" fill="white" fill-opacity="0.09"/>
<path d="M50.2701 57.5022C50.2701 56.6022 50.2701 55.7021 50.2701 54.7021C50.2701 54.3021 50.4701 53.8022 50.5701 53.4022C50.6701 52.9022 50.8702 52.5022 50.9702 52.0022C51.4702 50.7022 51.9702 49.2022 52.9702 48.1022C53.3702 47.7022 54.0701 47.3022 54.3701 48.1022C54.5701 48.7022 54.3702 49.5022 54.1702 50.0022C53.9702 50.7022 53.6701 51.4022 53.3701 52.0022C53.1701 52.4022 53.0701 52.7022 52.8701 53.1022C52.6701 53.4022 52.2701 53.9022 52.2701 54.3022C52.2701 54.7022 52.7702 54.9022 53.1702 54.8022C53.7702 54.7022 54.0701 53.7022 54.3701 53.3022C54.8701 52.5022 55.3702 51.7022 55.9702 51.0022C56.4702 50.4022 56.9702 49.7022 57.6702 49.3022C58.2702 49.0022 58.0702 49.5022 57.9702 49.9022C57.8702 50.4022 57.6701 50.8022 57.3701 51.3022C56.9701 52.1022 56.3701 52.9022 55.8701 53.6022C55.5701 54.0022 55.3701 54.4021 55.0701 54.7021C54.8701 54.9021 54.5702 55.2022 54.4702 55.5022C54.4702 56.0022 54.8701 56.2022 55.2701 56.1022C55.6701 56.1022 55.8701 55.7022 56.0701 55.5022C56.3701 55.2022 56.7701 54.9022 57.0701 54.6022C57.3701 54.3022 57.7701 54.1022 58.0701 53.8022C58.3701 53.6022 58.8701 53.2022 58.7701 53.8022C58.5701 54.7022 57.8701 55.5021 57.2701 56.2021C56.5701 57.0021 55.7701 57.8022 55.0701 58.5022H55.5701C55.0701 58.2022 54.6701 58.3022 54.2701 58.5022C53.9701 58.7022 53.6701 58.8022 53.3701 59.0022C53.0701 59.2022 52.8701 59.6021 52.5701 59.7021C51.9701 59.9021 51.7702 59.4022 51.9702 59.0022C52.0702 58.6022 52.3701 58.3022 52.5701 58.0022C52.9701 57.4022 53.1702 56.9021 52.9702 56.2021C52.9702 56.0021 52.6702 55.9022 52.4702 55.9022C51.8702 55.9022 51.3702 56.3021 50.9702 56.7021C50.7702 56.9021 50.6701 57.1022 50.5701 57.4022C50.5701 57.4022 50.5702 57.8022 50.4702 57.8022L50.1702 57.6022C50.1702 57.5022 50.1702 57.3021 50.1702 57.2021C50.1702 56.7021 49.4701 56.7021 49.3701 57.2021C49.3701 57.9021 49.5701 59.0021 50.5701 58.7021C50.9701 58.5021 51.0702 58.2022 51.1702 57.9022C51.3702 57.2022 51.8701 56.8021 52.5701 56.7021L52.0701 56.4022C52.2701 57.3022 51.2701 58.0022 51.0701 58.9022C50.9701 59.4022 51.0702 60.0022 51.4702 60.3022C51.8702 60.7022 52.4701 60.6022 52.8701 60.3022C53.3701 60.0022 54.3702 58.8022 55.1702 59.1022C55.3702 59.1022 55.4702 59.1022 55.6702 59.1022C56.6702 58.2022 57.6702 57.2022 58.4702 56.1022C58.9702 55.4022 59.8701 54.3022 59.5701 53.4022C59.2701 52.5022 58.2701 52.9021 57.7701 53.2021C57.4701 53.4021 55.0701 55.4022 55.0701 55.4022V55.8022C55.1701 55.6022 55.5702 55.3022 55.6702 55.1022C55.8702 54.8022 56.1701 54.5021 56.3701 54.2021C56.8701 53.5021 57.3701 52.8022 57.7701 52.1022C58.1701 51.3022 59.1702 49.7022 58.6702 48.8022C57.5702 46.9022 54.1702 52.2022 53.6702 52.9022C53.4702 53.2022 53.2701 53.5022 53.0701 53.8022C53.1701 53.6022 52.8701 54.1022 52.8701 54.0022C52.8701 54.6022 53.2701 53.8022 53.2701 53.8022C53.6701 53.1022 53.9701 52.4021 54.2701 51.7021C54.6701 50.7021 55.0702 49.7022 55.1702 48.6022C55.1702 47.8022 54.7701 46.8022 53.8701 46.8022C52.9701 46.8022 52.1701 47.6022 51.7701 48.3022C50.9701 49.5022 50.4702 50.9021 49.9702 52.2021C49.8702 52.6021 49.7702 53.0022 49.6702 53.4022C49.5702 53.8022 49.3701 54.2021 49.3701 54.7021C49.3701 55.2021 49.3701 55.6022 49.3701 56.0022C49.3701 56.5022 49.3701 57.0022 49.3701 57.5022C49.3701 58.0022 50.0702 58.0022 50.1702 57.5022H50.2701Z" fill="white" fill-opacity="0.09"/>
<path d="M48.2704 29.1025C48.4704 28.5025 48.7704 28.0026 49.0704 27.4026C49.2704 27.1026 49.5704 26.3025 49.9704 26.7025C50.2704 27.0025 50.2704 27.8025 50.1704 28.2025C50.1704 28.8025 49.9704 29.4026 49.8704 29.9026C49.6704 30.5026 49.4704 31.1025 49.2704 31.7025C49.1704 32.0025 48.7704 32.5026 48.9704 32.9026C49.2704 33.4026 50.0704 33.0025 50.2704 32.6025C50.7704 31.6025 51.1704 30.6025 51.6704 29.6025C51.9704 29.1025 52.2704 28.7026 52.5704 28.3026C52.7704 28.1026 52.9704 27.8026 53.1704 27.8026C53.5704 27.6026 53.6704 27.9026 53.6704 28.3026C53.4704 29.4026 52.8704 30.5026 52.2704 31.5026C51.9704 32.0026 51.6704 32.5026 51.3704 33.0026C51.1704 33.3026 50.7704 33.7025 50.6704 34.2025C50.6704 34.3025 50.6704 34.5026 50.8704 34.5026C51.6704 34.9026 52.3704 33.9026 52.8704 33.5026C53.3704 33.1026 53.8704 32.8025 54.3704 32.6025C54.6704 32.4025 55.3704 32.1026 55.7704 32.4026C56.9704 33.2026 51.6704 37.4026 50.9704 37.9026L51.5704 38.1025C51.4704 37.4025 50.8704 37.1026 50.2704 37.4026C49.9704 37.6026 49.7704 38.0025 49.4704 38.2025C48.6704 38.9025 48.9704 37.8026 49.1704 37.4026C49.4704 36.7026 49.9704 35.8026 49.6704 35.0026C49.4704 34.4026 48.7704 34.3025 48.1704 34.6025C47.5704 34.9025 47.2704 35.6025 47.0704 36.2025C47.0704 36.4025 46.8704 37.2026 46.6704 36.8026C46.6704 36.7026 46.6704 36.2025 46.6704 36.1025C46.6704 35.6025 46.6704 35.1025 46.6704 34.6025C46.6704 34.3025 46.4704 34.1026 46.4704 33.8026C46.4704 33.5026 46.6704 33.1026 46.6704 32.9026C46.6704 32.7026 46.7704 32.4025 46.8704 32.2025C47.1704 31.1025 47.5704 30.1026 47.9704 29.0026C48.1704 28.6026 47.4704 28.4026 47.2704 28.8026C46.8704 29.8026 46.4704 30.9026 46.1704 32.0026C45.9704 32.5026 45.8704 33.1025 45.7704 33.6025C45.6704 34.1025 45.8704 34.3025 45.9704 34.7025C45.9704 35.2025 45.9704 35.7025 45.9704 36.2025C45.9704 36.5025 45.9704 36.9025 45.9704 37.2025C46.2704 37.7025 47.0704 37.5025 47.3704 37.2025C47.5704 36.9025 47.6704 36.5025 47.7704 36.2025C47.7704 35.9025 48.2704 34.9025 48.7704 35.1025C49.3704 35.3025 48.1704 37.3026 48.0704 37.8026C48.0704 38.4026 48.2704 39.0026 48.9704 39.0026C49.6704 39.0026 49.5704 38.9025 49.7704 38.7025C49.9704 38.6025 50.0704 38.4025 50.1704 38.2025C50.3704 38.0025 50.6704 37.6025 50.6704 38.1025C50.6704 38.4025 51.0704 38.4026 51.2704 38.3026C52.4704 37.4026 53.6704 36.4026 54.7704 35.3026C55.4704 34.6026 56.8704 33.2025 56.3704 32.1025C56.0704 31.3025 54.9704 31.3025 54.2704 31.6025C53.5704 31.8025 52.9704 32.2025 52.4704 32.6025C52.1704 32.8025 51.9704 33.0025 51.6704 33.2025C51.4704 33.3025 51.3704 33.5025 51.1704 33.6025C51.1704 33.6025 50.8704 33.6025 50.9704 33.7025L51.1704 34.0026C51.1704 34.0026 51.4704 33.6026 51.5704 33.5026C51.6704 33.3026 51.8704 33.1026 51.9704 32.8026C52.2704 32.3026 52.5704 31.8026 52.8704 31.3026C53.3704 30.4026 53.8704 29.5026 54.0704 28.5026C54.1704 27.9026 54.0704 26.9026 53.3704 26.8026C52.5704 26.7026 51.9704 27.5026 51.5704 28.0026C50.9704 28.7026 50.5704 29.6026 50.1704 30.4026C49.9704 30.8026 49.7704 31.3025 49.5704 31.7025C49.5704 31.8025 49.5704 32.0025 49.3704 32.1025L49.1704 32.4026H49.2704C49.2704 32.7026 49.3704 32.7025 49.4704 32.6025C49.4704 32.6025 49.5704 32.3025 49.6704 32.2025C50.0704 31.1025 50.4704 30.0026 50.6704 28.9026C50.7704 28.1026 50.8704 27.2026 50.3704 26.5026C49.1704 24.5026 47.5704 28.2026 47.2704 29.0026C47.0704 29.4026 47.7704 29.6025 47.9704 29.2025L48.2704 29.1025Z" fill="white" fill-opacity="0.09"/>
<path d="M20.5704 10.8023C19.6704 11.2023 18.0704 8.20223 17.2704 10.0022C16.5704 11.6022 19.3704 11.9022 18.9704 13.2022L19.3704 12.9023C18.8704 12.9023 18.3704 12.9022 17.8704 12.5022C17.5704 12.3022 17.2704 11.9022 16.8704 11.7022C16.2704 11.5022 15.8704 11.9022 15.7704 12.5022L16.3704 12.2022C15.0704 11.6022 13.8705 10.9022 12.6705 10.1022C11.6705 9.4022 10.4704 8.7022 9.87041 7.6022C9.47041 6.9022 9.67046 5.90228 10.6705 6.30228C11.2705 6.50228 11.8704 6.90228 12.3704 7.30228C12.8704 7.70228 13.8705 9.00225 14.6705 8.40225C14.6705 8.40225 14.7705 8.20223 14.6705 8.00223C14.5705 7.70223 14.2704 7.4022 13.9704 7.1022C13.5704 6.6022 13.2704 6.1022 12.8704 5.6022C12.3704 4.9022 11.8704 4.20228 11.5704 3.30228C11.5704 3.10228 11.3705 2.40225 11.6705 2.40225C11.8705 2.40225 12.2704 2.70228 12.3704 2.80228C12.7704 3.10228 13.1704 3.50223 13.5704 4.00223C13.8704 4.40223 14.2704 4.80218 14.5704 5.20218C14.7704 5.50218 14.9704 5.9022 15.2704 6.1022C15.5704 6.3022 16.2704 6.30228 16.2704 5.80228C16.2704 5.40228 16.0704 4.9022 15.8704 4.6022C15.6704 4.1022 15.5704 3.50223 15.4704 3.00223C15.3704 2.50223 15.2704 1.90225 15.2704 1.40225C15.2704 0.902252 15.2704 0.802203 15.2704 0.602203C15.3704 0.402203 15.3704 0.602203 15.5704 0.602203C15.6704 0.602203 15.7704 0.802252 15.8704 0.902252C16.6704 1.80225 17.2704 2.90223 17.8704 4.00223C18.5704 5.10223 19.0705 6.30223 19.6705 7.50223V7.00223C19.2705 7.40223 19.1704 7.90223 19.3704 8.50223C19.4704 8.90223 19.6704 9.30218 19.7704 9.70218C19.7704 9.90218 20.1704 10.8022 19.9704 11.0022C19.6704 11.4022 20.1704 11.9022 20.4704 11.5022C20.7704 11.1022 20.6704 10.6022 20.5704 10.2022C20.5704 9.90218 20.3704 9.50218 20.2704 9.20218C20.1704 8.90218 19.6704 8.00218 19.9704 7.70218C20.1704 7.60218 20.1704 7.40218 20.0704 7.20218C19.3704 5.80218 18.6704 4.4022 17.8704 3.1022C17.2704 2.0022 16.4704 0.502252 15.3704 -0.0977482C14.1704 -0.797748 14.0704 1.20225 14.0704 1.90225C14.0704 2.60225 14.1704 3.20225 14.3704 3.90225C14.3704 4.30225 14.5705 4.7022 14.6705 5.1022C14.6705 5.4022 15.0704 5.90218 14.9704 6.20218L15.1705 5.90225C15.1705 5.90225 13.9704 4.30218 13.7704 4.20218C13.4704 3.80218 13.0704 3.4022 12.7704 3.1022C12.2704 2.6022 11.3705 1.80218 10.6705 2.20218C9.67046 2.70218 10.2705 4.30223 10.6705 5.00223C10.9705 5.60223 11.3705 6.1022 11.6705 6.6022C11.9705 7.0022 12.1704 7.30218 12.4704 7.70218C12.6704 8.00218 13.1704 8.3022 13.2704 8.6022V8.20218C13.4704 8.20218 11.8705 7.00228 11.6705 6.80228C11.0705 6.40228 10.4704 6.00225 9.77044 5.90225C8.57044 5.60225 7.77046 6.80225 8.17046 7.90225C8.57046 9.10225 9.67046 9.9022 10.6705 10.6022C12.0705 11.6022 13.5705 12.5022 15.1705 13.2022C15.4705 13.3022 15.6704 13.2023 15.7704 12.9023C15.7704 12.7023 16.3704 13.3023 16.4704 13.3023C16.6704 13.5023 16.8705 13.6022 17.1705 13.7022C17.6705 13.9022 18.1705 14.0022 18.6705 14.0022C18.8705 14.0022 18.9704 13.9022 19.0704 13.7022C19.4704 12.5022 18.3705 12.0023 17.6705 11.3023C17.6705 11.3023 17.3704 11.0023 17.3704 10.9023H17.9704C17.9704 10.8023 18.1705 10.9023 18.1705 10.9023C18.3705 11.1023 18.5704 11.3022 18.7704 11.5022C19.1704 11.8022 19.7704 12.1023 20.2704 11.9023C20.6704 11.7023 20.4704 11.0022 20.0704 11.2022L20.5704 10.8023Z" fill="white" fill-opacity="0.09"/>
<path d="M31.97 3.30233C31.97 3.50233 32.0701 3.80228 32.1701 4.00228V4.50228L31.6701 4.30233C31.4701 4.00233 31.47 3.50223 31.37 3.20223C31.27 3.00223 31.07 2.70226 30.87 2.60226C30.67 2.50226 30.37 2.40231 30.37 2.40231L30.57 2.80233C30.57 2.60233 30.57 2.40223 30.37 2.20223C30.17 1.90223 29.8701 1.50223 29.6701 1.20223C29.1701 0.502233 28.87 -0.197719 28.47 -0.997719C27.87 -2.49772 27.5701 -4.19769 28.6701 -5.59769H27.97C27.97 -5.59769 28.27 -5.39777 28.37 -5.29777C28.67 -5.09777 28.87 -4.79772 29.07 -4.49772C29.47 -3.89772 29.67 -3.29767 29.97 -2.69767C30.07 -2.29767 30.17 -1.79767 30.57 -1.69767C30.87 -1.69767 31.37 -1.69772 31.47 -1.99772C31.67 -2.39772 31.47 -3.19769 31.47 -3.59769C31.47 -4.39769 31.47 -5.19772 31.47 -5.99772C31.47 -6.19772 31.77 -7.89777 32.07 -7.79777C32.17 -7.79777 32.27 -7.09772 32.27 -6.99772C32.27 -6.59772 32.47 -6.09767 32.47 -5.69767C32.47 -4.89767 32.47 -4.09777 32.47 -3.29777C32.47 -2.89777 32.47 -2.49767 32.47 -2.19767C32.47 -1.89767 32.37 -1.59777 32.47 -1.29777C32.67 -0.997767 33.07 -1.09767 33.37 -1.19767C33.87 -1.39767 34.07 -2.29777 34.27 -2.79777C34.87 -3.99777 35.47 -5.19767 36.37 -6.19767C36.67 -6.59767 37.27 -7.19772 37.57 -6.49772C37.77 -5.99772 37.57 -5.39777 37.57 -4.79777C37.37 -2.99777 36.77 -1.19769 36.07 0.402306C35.97 0.802305 35.87 1.10231 35.57 1.40231C35.37 1.60231 35.27 1.70228 35.07 2.00228C34.77 2.50228 34.67 3.80223 33.87 3.70223L34.27 4.00228C34.07 3.20228 34.2701 1.90226 33.1701 1.60226C32.2701 1.30226 31.87 2.20228 31.97 3.00228C31.97 3.50228 32.77 3.50228 32.77 3.00228C32.77 2.80228 32.77 2.10228 33.27 2.50228C33.47 2.60228 33.47 3.00223 33.47 3.20223C33.47 3.50223 33.47 3.90223 33.57 4.20223C33.57 4.40223 33.77 4.40228 33.97 4.50228C35.47 4.70228 35.27 2.70228 36.07 2.00228C36.27 1.80228 36.37 1.80228 36.47 1.50228C36.57 1.10228 36.77 0.802305 36.87 0.402306C37.17 -0.397695 37.47 -1.29769 37.77 -2.09769C38.17 -3.39769 38.57 -4.99774 38.37 -6.39774C38.17 -7.29774 37.37 -7.99774 36.47 -7.39774C35.47 -6.79774 34.77 -5.49772 34.27 -4.49772C33.87 -3.79772 33.5701 -3.09777 33.1701 -2.29777V-2.09769C32.8701 -1.99769 32.9701 -1.89774 33.1701 -1.89774C33.1701 -1.89774 33.1701 -2.29774 33.1701 -2.39774C33.1701 -2.89774 33.1701 -3.39774 33.1701 -3.89774C33.1701 -4.79774 33.17 -5.59772 32.97 -6.49772C32.97 -7.09772 32.77 -7.79777 32.47 -8.29777C32.27 -8.59777 31.97 -8.89777 31.47 -8.79777C30.97 -8.59777 30.7701 -7.79774 30.6701 -7.39774C30.4701 -6.59774 30.37 -5.79774 30.37 -4.89774C30.37 -3.99774 30.37 -3.99769 30.37 -3.59769C30.37 -3.39769 30.37 -3.19772 30.37 -2.99772C30.37 -2.79772 30.37 -2.69769 30.47 -2.59769C30.57 -2.59769 30.47 -2.89774 30.47 -2.89774C30.47 -3.09774 30.27 -3.29772 30.27 -3.49772C30.17 -3.79772 29.97 -4.19772 29.87 -4.49772C29.67 -4.79772 29.47 -5.19772 29.27 -5.49772C29.27 -5.49772 29.07 -5.69777 29.07 -5.79777C29.07 -5.79777 28.57 -6.29769 28.57 -6.09769C28.57 -6.39769 28.07 -6.39769 27.87 -6.09769C26.87 -4.79769 26.97 -3.29777 27.37 -1.79777C27.57 -0.997767 27.87 -0.197719 28.27 0.502281C28.47 0.902281 28.77 1.30223 28.97 1.70223C28.97 1.90223 29.17 2.00226 29.27 2.10226C29.27 2.10226 29.5701 2.70231 29.6701 2.40231C29.6701 2.60231 29.67 2.70233 29.87 2.80233C30.07 2.90233 30.37 2.90226 30.47 3.10226C30.67 3.40226 30.77 3.90223 30.87 4.20223C30.97 4.60223 31.27 5.10226 31.77 5.10226C32.17 5.10226 32.4701 4.90228 32.6701 4.50228C32.9701 4.00228 32.6701 3.40233 32.6701 2.80233C32.6701 2.30233 31.87 2.50228 31.97 3.00228V3.30233Z" fill="white" fill-opacity="0.09"/>
<path d="M21.0704 47.0023C20.1704 47.1023 19.4704 46.2023 18.5704 46.2023C17.8704 46.2023 17.3704 46.8023 17.7704 47.4023C17.9704 47.7023 18.1704 47.9023 18.4704 48.1023C18.6704 48.2023 18.9704 48.4023 18.9704 48.7023C18.9704 49.1023 18.3704 49.0023 18.2704 48.9023C17.9704 48.7023 17.7704 48.4024 17.3704 48.3024C16.9704 48.2024 16.6704 48.3023 16.4704 48.6023H16.9704C16.0704 47.9023 15.1704 47.2023 14.2704 46.4023C13.4704 45.7023 12.5704 45.0023 12.1704 44.0023C11.6704 42.5023 14.1704 43.7023 14.5704 44.0023C15.0704 44.3023 15.8704 45.0023 16.4704 44.4023C16.4704 44.4023 16.5704 44.2023 16.4704 44.0023C16.4704 43.7023 16.0704 43.5024 15.8704 43.3024C15.5704 43.0024 15.2704 42.6024 15.0704 42.3024C14.6704 41.8024 14.2704 41.4024 14.0704 40.8024C14.0704 40.6024 13.7704 40.1023 14.0704 39.9023C14.0704 39.9023 14.3704 39.9023 14.4704 39.9023C14.8704 40.1023 15.1704 40.4023 15.4704 40.7023C15.8704 41.1023 16.2704 41.5023 16.6704 41.9023C17.0704 42.3023 17.2704 42.8023 17.9704 42.7023C18.5704 42.5023 18.3704 42.0023 18.2704 41.5023C18.2704 41.1023 18.2704 40.7024 18.1704 40.3024C18.1704 40.0024 18.1704 39.3023 18.3704 39.0023H17.8704C18.2704 39.3023 18.4704 39.8023 18.6704 40.1023C18.9704 40.5023 19.1704 41.0023 19.4704 41.4023C19.9704 42.3023 20.4704 43.3024 20.8704 44.3024V43.8024C19.7704 44.5024 21.2704 46.2023 20.8704 47.2023C20.6704 47.6023 21.2704 48.0023 21.5704 47.6023C21.8704 47.2023 21.7704 46.7023 21.7704 46.2023C21.7704 45.9023 21.2704 44.6023 21.5704 44.4023C21.7704 44.3023 21.7704 44.1023 21.6704 43.9023C21.1704 42.8023 20.6704 41.7023 20.1704 40.7023C19.7704 39.9023 19.2704 38.9023 18.4704 38.4023C18.3704 38.4023 18.1704 38.4023 17.9704 38.4023C17.4704 38.9023 17.5704 39.8023 17.5704 40.5023C17.5704 40.9023 17.5704 41.3024 17.6704 41.8024C17.6704 41.9024 17.6704 42.1023 17.6704 42.2023C17.8704 42.1023 17.8704 42.0023 17.6704 42.0023C17.6704 41.8023 17.4704 41.7023 17.3704 41.6023C16.6704 40.8023 15.7704 39.8024 14.8704 39.3024C13.9704 38.8024 13.1704 39.6023 13.3704 40.6023C13.5704 41.3023 13.9704 41.8023 14.3704 42.4023C14.5704 42.7023 14.7704 42.9023 14.9704 43.2023C15.1704 43.4023 15.2704 43.6023 15.4704 43.7023C15.4704 43.7023 15.8704 44.1023 15.9704 44.2023V43.8024C15.9704 43.8024 14.7704 43.0023 14.5704 43.0023C14.0704 42.8023 13.5704 42.6023 12.9704 42.5023C12.0704 42.5023 11.2704 43.1023 11.4704 44.0023C11.6704 45.1023 12.6704 45.9023 13.4704 46.7023C14.4704 47.6023 15.4704 48.4023 16.5704 49.2023C16.6704 49.2023 16.8704 49.2023 17.0704 49.2023C17.2704 49.0023 17.8704 49.6023 18.0704 49.7023C18.3704 49.8023 18.6704 49.9024 18.9704 49.8024C19.5704 49.7024 19.9704 49.1023 19.7704 48.5023C19.7704 48.2023 19.4704 48.0024 19.1704 47.8024C18.9704 47.7024 18.8704 47.6023 18.6704 47.4023C18.4704 47.2023 18.2704 47.0023 18.6704 47.0023C19.0704 47.0023 19.4704 47.4023 19.8704 47.6023C20.2704 47.8023 20.5704 47.9024 20.9704 47.8024C21.4704 47.8024 21.4704 47.0023 20.9704 47.0023H21.0704Z" fill="white" fill-opacity="0.09"/>
<path d="M9.97054 140.202C10.1705 140.202 9.37053 139.103 9.27053 139.003C9.07053 138.803 8.77051 138.502 8.37051 138.602C7.47051 138.802 7.77052 139.803 8.07052 140.403C8.27052 140.803 8.57051 141.203 8.87051 141.503C8.97051 141.703 9.77056 142.403 9.17056 142.503C8.97056 142.503 8.57054 142.103 8.47054 142.003C7.77054 141.403 6.87051 141.102 5.87051 141.102C5.67051 141.102 5.57054 141.303 5.47054 141.503C5.47054 141.603 5.47054 141.803 5.47054 141.903L5.97054 141.503C4.47054 140.903 2.47051 140.203 1.37051 138.803C0.970507 138.303 0.770519 137.402 1.57052 137.102C2.07052 136.902 2.77053 137.102 3.27053 137.202C4.07053 137.402 4.77052 137.903 5.57052 138.303C5.87052 138.503 6.57053 138.602 6.77053 138.202C6.97053 137.702 6.17051 137.103 5.87051 136.903C5.17051 136.103 4.47051 135.303 3.87051 134.403C3.57051 133.903 3.27052 133.403 3.07052 132.803C3.07052 132.503 2.67052 131.603 3.07052 131.503C3.57052 131.303 4.57053 132.802 4.77053 133.102C5.37053 133.902 5.87051 134.903 6.37051 135.803C6.57051 136.203 6.87051 136.402 7.37051 136.202C8.07051 135.902 7.37051 135.003 7.37051 134.503C7.07051 133.703 6.87056 132.803 6.67056 132.003C6.67056 131.703 6.27056 130.402 6.67056 130.202C7.07056 129.902 8.87054 134.403 8.97054 134.803C9.07054 135.203 9.27051 135.702 9.37051 136.102C9.37051 136.102 9.57052 136.403 9.57052 136.503C9.57052 136.703 9.57052 137.103 9.57052 137.303C9.57052 137.803 9.67051 138.303 9.87051 138.803C10.0705 139.303 10.3706 139.903 10.1706 140.403C10.0706 140.903 10.7705 141.102 10.8705 140.602C11.0705 140.002 10.8705 139.403 10.5705 138.803C10.4705 138.503 10.3705 138.103 10.2705 137.803C10.2705 137.403 10.2705 137.002 10.2705 136.602C10.2705 136.002 9.97053 135.403 9.77053 134.903C9.57053 134.103 9.27054 133.402 8.97054 132.602C8.57054 131.702 8.17051 130.503 7.37051 129.803C6.67051 129.203 6.07051 129.603 5.87051 130.403C5.77051 131.403 6.07051 132.603 6.37051 133.503C6.37051 133.803 6.57056 134.203 6.67056 134.503C6.67056 134.503 6.97052 135.602 7.07052 135.602C7.47052 135.602 6.87051 134.803 6.87051 134.803C6.67051 134.403 6.47053 134.102 6.27053 133.702C5.67053 132.802 4.87053 131.303 3.77053 130.903C3.07053 130.603 2.47054 131.003 2.47054 131.803C2.47054 132.703 2.87053 133.603 3.27053 134.403C3.67053 135.103 4.17056 135.803 4.67056 136.403C4.97056 136.703 5.17054 137.103 5.47054 137.403C5.47054 137.503 5.67053 137.602 5.77053 137.702C5.87053 137.802 6.27053 138.103 6.27053 138.303V137.903C6.27053 137.903 4.67054 137.103 4.47054 137.003C3.97054 136.803 3.47051 136.603 2.87051 136.503C2.07051 136.403 0.970556 136.503 0.670556 137.403C0.170556 138.603 1.07054 139.602 1.97054 140.202C3.17054 141.102 4.67052 141.803 6.07052 142.303C6.27052 142.303 6.57052 142.203 6.57052 141.903C6.57052 141.803 6.57052 141.603 6.57052 141.503L6.17056 141.903C6.77056 141.903 7.37054 142.003 7.97054 142.403C8.37054 142.703 8.77053 143.103 9.27053 143.303C9.97053 143.603 10.5705 143.103 10.5705 142.303C10.5705 141.803 10.1705 141.502 9.87051 141.202C9.67051 141.002 9.57051 140.802 9.37051 140.602C9.27051 140.402 8.97054 140.103 8.97054 139.903C8.97054 139.203 9.37054 140.002 9.47054 140.202C9.57054 140.402 9.67053 140.603 9.77053 140.803C9.97053 141.103 10.2705 141.103 10.5705 141.003C10.9705 140.803 10.5706 140.103 10.1706 140.303L9.97054 140.202Z" fill="white" fill-opacity="0.09"/>
<path d="M66.271 110.102C65.571 111.302 63.671 111.502 62.471 111.702C62.271 111.702 61.871 111.902 61.671 111.802C61.571 111.802 61.371 111.602 61.271 111.502C60.971 111.302 60.571 111.102 60.271 110.902C59.271 110.602 58.271 110.602 57.271 110.702L57.671 111.202C57.971 110.402 59.171 110.202 58.971 109.102C58.871 108.302 57.971 108.102 57.271 108.402C56.871 108.602 56.571 108.902 56.271 109.302C56.071 109.502 55.771 109.802 55.571 109.802C55.171 109.802 55.471 109.402 55.571 109.102C56.071 108.302 56.771 107.702 56.471 106.702V107.102C57.371 106.102 58.371 105.102 59.471 104.202C60.271 103.602 61.571 102.402 62.671 102.702C63.471 103.002 62.671 104.102 62.471 104.602C62.171 105.102 61.671 105.502 61.271 106.002C60.971 106.202 60.771 106.502 60.471 106.702C60.271 106.902 59.971 107.002 59.971 107.202C59.971 107.302 59.971 107.502 59.971 107.602C60.371 107.902 60.771 107.902 61.171 107.602C61.871 107.102 62.471 106.702 63.171 106.202C63.771 105.802 64.371 105.502 65.071 105.102C65.271 105.002 66.271 104.402 66.171 105.102C65.971 105.802 65.371 106.502 64.871 107.002C64.371 107.502 63.771 108.002 63.171 108.502C62.871 108.702 62.571 108.902 62.271 109.102C61.971 109.302 61.571 109.402 61.271 109.502C61.171 109.502 61.071 109.702 61.071 109.802C61.071 110.302 61.571 110.402 61.971 110.302C62.471 110.302 62.971 110.002 63.471 109.902C63.771 109.902 64.171 109.702 64.471 109.702C64.871 109.702 65.271 109.602 65.671 109.602C66.071 109.602 66.471 109.602 66.271 110.102C66.071 110.502 66.671 110.902 66.971 110.502C67.471 109.502 66.771 108.902 65.771 108.902C65.271 108.902 64.871 108.902 64.371 109.002C64.071 109.002 63.671 109.102 63.371 109.202C63.071 109.202 62.771 109.302 62.471 109.402C62.371 109.402 62.171 109.402 62.071 109.502C61.871 109.502 61.771 109.502 61.871 109.802L61.671 110.102C61.971 109.902 62.371 109.802 62.771 109.602C63.171 109.402 63.471 109.202 63.771 108.902C64.371 108.502 64.871 108.002 65.371 107.402C65.971 106.802 66.671 106.002 66.871 105.102C66.871 104.702 66.871 104.302 66.571 104.102C66.071 103.802 65.471 104.102 64.971 104.302C64.171 104.602 63.471 105.102 62.771 105.502C62.571 105.702 60.571 107.102 60.471 107.002V107.402C60.471 107.502 60.871 107.302 60.871 107.202C61.071 107.002 61.271 106.902 61.471 106.702C61.771 106.402 62.071 106.102 62.371 105.802C62.771 105.402 63.071 105.002 63.371 104.502C63.771 103.802 64.071 102.602 63.171 102.102C61.971 101.402 60.471 102.502 59.571 103.202C58.271 104.202 57.071 105.402 55.871 106.602C55.871 106.602 55.771 106.802 55.871 107.002C56.171 107.902 54.971 108.602 54.771 109.502C54.571 110.202 55.071 110.702 55.771 110.602C56.171 110.602 56.471 110.302 56.771 110.102C57.071 109.802 57.371 109.302 57.771 109.202C58.271 109.102 58.371 109.602 58.071 109.902C57.971 110.002 57.771 110.102 57.671 110.202C57.371 110.502 57.171 110.702 56.971 111.102C56.971 111.302 57.071 111.602 57.371 111.602C58.471 111.602 59.671 111.402 60.671 112.102C61.071 112.402 61.171 112.802 61.771 112.702C62.271 112.702 62.771 112.602 63.171 112.502C64.571 112.302 66.271 111.902 67.071 110.602C67.271 110.202 66.671 109.802 66.371 110.202L66.271 110.102Z" fill="white" fill-opacity="0.09"/>
</svg>
