<svg xmlns="http://www.w3.org/2000/svg" width="80" height="232" fill="none" viewBox="0 0 80 232"><g opacity=".44"><rect width="12" height="12" x="68" y="185" fill="#fff" fill-opacity=".08" rx="6"/><rect width="11" height="11" x="68.5" y="185.5" stroke="#fff" stroke-opacity=".12" rx="5.5"/></g><path fill="#fff" fill-opacity=".09" d="M65.07 109.002c-.6 0-1.3.1-1.9.3.6-.4 1.1-.8 1.6-1.3.8-.7 2.1-1.8 2.1-2.9 0-1.9-3-.3-4.2.4 1-1.1 1.7-2.5.3-3.2-1-.5-2.2 0-3.1.5-1.4.8-2.6 1.9-3.7 3.1l-.6.6h-.2c-.2 0-.3 0-.5.1-.3.2-.6.5-.8.8-.7.9-3.4 3.6-3 4.7 0 0 0 .2.1.2-2.4 1.4-4.7 3.1-6.8 4.9-6.5 5.6-11.5 12.7-14.8 20.5-1.8 4.3-3.2 8.8-4 13.4 0-5 0-10 .2-15 .8-4.8 3-9.2 5.6-13.3q3.15-4.8 7.2-9l.2-.2c.5.4 1.2-.4 1.5-.7 1.3-1 2.5-2 3.7-3.1.8-.7 1.5-1.6 1.6-2.5.8-.7 1.5-1.4 2.2-2.3 1-1.3 2.2-3.2 2.2-4.9 0-1.2-1.3-1.2-2.1-.7-.7.4-1.2 1-1.7 1.7 0-.1 0-.3.1-.4.3-1.1.8-2.4.5-3.5-.2-.7-.9-1-1.5-.7-1 .5-1.6 1.9-2 2.8 0 .2-.1.3-.2.4 0-.8 0-1.6-.3-2.3-.2-.4-.4-.7-.9-.7-.9 0-1.5 1.2-1.8 1.9-.5 1.3-.7 2.8-.8 4.2v1.3c-.5 0-.8.6-.8 1.1-.3 2 .1 4 .3 6 0 .3-.2 1.4-.1 1.9-1.4 1.3-2.6 2.7-3.8 4.2-2.9 3.5-5.6 7.3-7.5 11.5-.5 1-.9 2.1-1.3 3.1v-.7c.5-6.6 1.9-13.2 3.1-19.8 2.2-11.7 4.5-23.3 6.8-35 .3-1 1-2 1.6-2.8 1-1.3 2.1-2.6 3.2-3.8 2.2-2.4 4.5-4.7 6.9-7l.2-.2c.2.1.4.2.9.2 1 0 2.2-.4 3.2-.7.3 0 2.6-1.6 3.4-2.6 0 0 .1-.1.1-.2.8-.7 1.5-1.4 2.2-2.2.6-.6 1.1-1.3 1.5-2 .3-.4.6-1 .6-1.5 0-1.1-1.5-.7-2.1-.4-.4.2-.8.5-1.1.7.1-.2.3-.4.4-.6.7-1.1 1.7-2.4 1.9-3.7.2-.9-.5-1.4-1.4-1.2-1.2.4-2.1 1.7-2.8 2.6.4-1 1.2-3 .2-3.9-1-.8-2.3-.1-3 .7-1.1 1.3-1.7 3.1-2.1 4.7-.2.6-.3 1.1-.5 1.7 0 0-.2.2-.2.3-1.1 2-1.3 4.2-1.3 6.4v1.2c-.2.2-.5.4-.7.7-1 1-2 1.9-3 2.9-2.5 2.4-4.9 4.9-7.1 7.7-.2.2-.4.5-.6.8 1.1-5.4 2.1-10.8 3.1-16.2.4-2.2.8-4.4.9-6.5l4.2-8.7c.3.1.8 0 1.5-.4 1.3-.9 2.7-1.8 3.9-2.8.5-.4 1-.9 1.1-1.5.6-.4 1.1-.8 1.7-1.3 1.3-1.1 2.8-2.3 3.7-3.8.2-.4.4-.9.2-1.3-.3-.6-1.1-.6-1.7-.5-1 .2-2 .8-2.9 1.5.3-.4.6-.8.8-1.2.6-1.1 1.4-2.3 1.6-3.6.1-.9-.4-1.5-1.3-1.3-1 .2-1.7 1.2-2.2 2.1.2-1 .4-2.7-.8-3-1-.3-1.7.8-2.1 1.5-.8 1.4-1.3 2.9-1.7 4.4-.2.7-.4 1.3-.5 1.9-.2 0-.5.1-.7.3-.3.3-.4.8-.5 1.2-.3 2-.5 4-.5 6s0 1.3.3 1.6c-1.2 1.4-3 4-3.9 7.4 0-1.2 0-2.4-.3-3.7-.7-4.6-2.4-8.9-4.5-13.1q-.75-1.65-1.8-3.3c-1.2-4.1-1.3-8.5-1.2-12.8 0-1.7.2-3.3.4-4.9 1-.1 1.6-1.7 2-2.5.6-1.3 1-2.8 1.2-4.2 0-.3.1-2.7 0-3.7 0-.2 0-.3.2-.5.5-1.4 1.1-2.8 1.5-4.2.2-.9.5-1.8.5-2.7 0-.6 0-1.4-.5-1.8-1.1-.9-2.5.6-3 1.3q-1.05 1.35-1.8 3v-1.2c0-1.2 0-2.6-.4-3.8-.2-.7-.8-1.2-1.5-.7-.9.6-.9 2.1-.9 3.1v1.6c-.6-1.3-1.5-2.9-2.5-2.2-.7.5-.9 1.6-.9 2.4 0 1.4.5 2.8 1.2 4 .4.8.9 1.6 1.5 2.3-.2.4-.2.9-.2 1.2.2 1.6.4 3.2.9 4.8.3.9 1 2.8 2 3.5-.3 1.9-.4 3.8-.5 5.8-.1 3.1 0 6.2.4 9.2-2.4-3.9-5-7.5-8-11q.45-.45.3-1.5c-.3-2.8-1.6-5.4-3.6-7.3h-.1c-.2-.3-.3-.7-.5-1-1-1.9-1.9-3.8-3.2-5.4-.5-.7-2.1-2.2-2.6-.6-.3 1 0 2.2.3 3.2 0 .3.2.7.3 1-.2-.2-.4-.5-.6-.7-.7-.8-1.5-1.8-2.5-2.1-.7-.2-1.5 0-1.5.9 0 1.1.8 2.2 1.4 3.1.2.3.5.7.7 1-.3-.2-.7-.5-1.1-.7-.8-.4-2.3-1.1-3 0-.6 1 .3 2.1 1 2.8 1.1 1.1 2.5 1.9 3.9 2.7.8.5 1.7.9 2.5 1.3v.2c.8 1.4 2.2 2.3 3.6 2.8 1 .4 2.4.9 3.4.8 3.1 3.6 5.9 7.6 8.4 11.7.5.8.9 1.6 1.4 2.3 4 7 7.4 15.1 6.5 23.2-.4 3.5-1.2 7-1.9 10.5-.4 2-.8 4.1-1.2 6.1-.7-3.6-2.6-7.1-5.5-9.3-1.2-.8-2-2.1-2.8-3.2-1.1-1.5-2.1-3.1-3.1-4.6-.3-.4-.5-.8-.8-1.2.1-.2.2-.5.1-.9-.4-2.2-1-4.4-1.9-6.4-.1-.3-.2-.6-.5-.7-.3-.7-.6-1.4-1-2.1-.5-1.1-1.1-2.4-2-3.3-.5-.5-1.2-.5-1.4.2s-.2 1.6 0 2.4c-.2-.2-.4-.5-.6-.7-.6-.6-1.3-1.3-2.2-1.5-.6-.1-1.3 0-1.4.7 0 .8.6 1.8 1.1 2.4.2.3.5.6.7.9-.3-.2-.7-.3-1.1-.4-.8-.2-2.2-.4-2.5.6-.3.8.5 1.7 1 2.2.8.9 1.8 1.7 2.7 2.4.5.4 1.1.8 1.7 1.2v.2c0 .3.4.6.7.8.7.6 3.9 2.3 5.7 2.4 1.2 1.9 2.3 3.7 3.6 5.5.9 1.2 1.8 2.6 3 3.6.5.4 1.1.8 1.6 1.4.7.8 1.4 1.6 1.9 2.5 1.6 2.5 2.5 5.4 2.6 8.3-.2 1.1-.4 2.2-.7 3.3-.7 3.4-1.4 6.8-2 10.2-.2-1.2-1.5-3.5-1.8-4-.8-1.5-1.8-3-3.3-3.9-.2-.1-.5-.3-.8-.3s-.6.1-.6.4v.5c.5 2.1 1.5 4.2 2.9 5.8.4.5 2.5 2.7 3.5 2.1-1.1 5.8-2.3 11.5-3.4 17.3-1.5 7.6-2.9 15.2-3.9 22.9 0 .6-.1 1.1-.2 1.7-1-2-2.7-3.6-4.5-5-.2-.2-.4-.3-.7-.3-.4 0-.7.2-.8.6-.2.3-.2.7 0 1.1.2.9.8 1.7 1.4 2.4.9 1 2 1.9 3.1 2.7.4.3 1 .6 1.4.7-.1 1.5-.2 3.1-.3 4.6v.1c-.2 4.5-.2 9-.1 13.5v4.9c-4-3.7-8.1-7.4-12.1-11.1-.3-.3-.7-.6-1.1-1v-.3c-.4-2.1-.5-4.2-1.4-6.2-.1-.4-.3-.8-.4-1.2-.5-1.7-1.1-3.7-2.2-5.2-.8-1-2.1-.8-2.2.6 0 .7.1 1.5.3 2.2-.6-.8-1.3-1.9-2.3-2.1-.9-.2-1.6.5-1.5 1.3.1 1.3 1.1 2.5 1.8 3.5l1.2 1.5c-1.4-.7-3.2-1.2-4.3-.2-2.1 1.9 2.1 3.9 3.4 4.5.7.3 1.3.6 2 .8 0 .1.2.2.2.3.3.3.7.5 1.1.6 1 .4 2.1.8 3.2 1h.8c3.5 3.2 7.1 6.5 10.7 9.7.9.9 1.9 1.7 2.8 2.6 0 .3 0 .7-.1 1.1 0 0 0-.1.2-.2 0 3.5.2 6.9.5 10.4-2-1.4-3.8-3.2-5.2-5.2-.2-.3-.4-.6-.7-.8s-.7-.2-1 0c-.2.2-.3.6-.3.9 0 .9.4 1.7.8 2.4 1.2 2.1 2.8 4 4.7 5.6.4.3 1 1 1.5 1.1h.4c.2 3.3.5 6.5.9 9.8-.8-1.1-1.5-2.2-2.3-3.2s-2-2.1-3.2-1.7c0 1.5.8 2.9 1.7 4.2.8 1.1 1.7 2.2 2.6 3.2.5.5 1 1 1.6 1.3.4 3.3.9 6.7 1.6 10 .8 3.9 1.4 7.8 1.6 11.8.5 9.3 0 18.6-.8 27.9-.5 6.1-1.2 12.2-2.1 18.2 0 .3 0 .6-.1 1 0-.2.9-.3 1-.6 2-13.3 3.2-26.8 3.2-40.3 0-4.4-.2-8.8-.8-13.2-.2-1.2-.4-2.5-.6-3.7 1.8 0 3.5-1 4.5-2.5 1.1-1.7 1.4-3.8 1.5-5.8-.6-.2-1.3.2-1.8.7-1.2 1.1-2.3 2.4-3.2 3.7-.2.3-.9 1.4-1.3 2.3-.5-2.3-.9-4.6-1.3-6.9-.1-.8-.2-1.7-.3-2.5.6 0 1.2-.4 1.7-.8.7-.6 1.2-1.5 1.7-2.2 1.3-1.8 2.9-3.7 2.8-5.9 0-.3-.1-.7-.4-.8-.2 0-.4 0-.6.2-1.8 1.5-2.9 3.6-4.3 5.4-.5.6-.9 1.1-1.3 1.1-.4-3.8-.8-7.5-1-11.3 1-1 2-2 2.9-3.1.6-.7 1.2-1.4 1.6-2.3.5-1 .8-2 1.1-3.1.2-.6.3-1.2 0-1.7-.4-.5-1.2-.5-1.8 0s-.8 1-1.1 1.6l-1.8 4.2c-.2.5-.5 1.1-1 1.2-.2-3.6-.4-7.3-.5-10.9v-1.5c1.2-10.3 4.5-20.3 10.4-28.9 3.6-5.3 8.2-10.1 13.6-13.8.4-.3.9-.6 1.3-.8 0 0 .2-.1.3-.2.9 1 4.4 1.1 5.4 1.1 1.5 0 3-.2 4.4-.5.2 0 .4 0 .4-.3v-.2c.6 0 1.1-.1 1.7-.2 1.2-.2 3.5-.7 3.9-2 .4-1.2-1.4-1.2-2.1-1.2zm-24.7-8.6c.2-1 .5-2.3 1.3-3.1.1-.1.3-.2.5-.3 0 0 .2.2.2.3.2.5.2 1 .2 1.6 0 1.1-.1 2.1-.3 3.2 0 .2.5.2.6 0 .3-.9.6-1.9 1-2.8.2-.4 1.6-3.4 2.3-2.6.3.4.2 1.1.1 1.5 0 .7-.2 1.3-.4 2-.2.9-.5 1.7-.9 2.6 0 .1.5.2.5 0 .5-.9 1.2-1.8 1.9-2.6.3-.3 1.2-1.4 1.7-1 .4.2.2 1 .1 1.3-.3 1.7-1.3 3.3-2.4 4.6-.4.5-.9 1-1.4 1.5-.9-.2-1.5 1-2.4 1.1h-.3c-.2-.2-.1-.5 0-.8.3-.4.7-.7 1-1.1s.2-1.1-.2-1.3c-.5-.2-1 .3-1.4.7-.2.3-.5.6-.8.8-.2.1-.3.2-.5.2-.5 0-.7-.6-.8-1 0-.3-.1-.6-.2-.8 0-1.4 0-2.8.3-4.1zm9.5-42.9c0-.8.1-1.7 0-2.5v-.3c.4-1.8 1-3.6 1.8-5.2.4-.8 1.7-3 2.8-2.1 1 .8.2 2.8-.2 3.7-.4 1.1-.9 2.2-1.5 3.2 0 .2.5.2.5 0 1-1.8 2.2-3.7 3.8-5 .3-.2.9-.8 1.2-.5s.1.8 0 1.2c-.3 1.2-1.1 2.4-1.8 3.4-.5.8-1.1 1.5-1.6 2.2 0 .1.4.2.5 0 .6-.6 1.3-1.2 2-1.8.3-.2 1.1-.9 1.5-.8.5 0 .3.7.2 1-.5 1.2-1.5 2.3-2.4 3.2-.4.5-.9.9-1.4 1.4-.2-.1-.5-.1-.8 0-.5.2-1 .5-1.4.9-.3.3-.7.6-1.1.6-.5 0-.7-.7-.6-1.2s.5-.9.7-1.3.5-.9.3-1.4c-.7 0-1.4.6-1.6 1.3 0 .3-.2.7-.5.8-.2 0-.5-.1-.6-.4s0-.5 0-.8zm-2-28.5c.2-.6.5-1.2.8-1.8.2-.3.5-1 .9-1 .5 0 .8.7.9 1.1.1.7 0 1.4-.2 2.1-.2 1.1-.7 2.2-1.1 3.3 0 .2.5.1.5 0 .3-.7.6-1.4.9-2 .5-1.1 1.2-2.4 2.1-3.1.4-.3.9-.5 1.1 0 .2.4 0 .9 0 1.3-.3 1.1-.9 2.2-1.5 3.2-.4.7-.9 1.4-1.3 2.1 0 .1.5 0 .5 0 .9-.8 2-1.6 3.2-2.1.6-.2 1.5-.3 1.6.5 0 .5-.3 1-.6 1.4-1 1.3-2.3 2.4-3.5 3.4-.3.2-.6.5-.9.7v-.2s0-.2-.1-.2c-.2-.2-.5 0-.7.1-.2.2-.4.5-.6.7s-.6.3-.9.2c-.4-.3-.2-.8 0-1.2.3-.7.6-1.3.6-2.1 0-.2 0-.3-.1-.4 0 0-.2-.1-.4-.1-.7 0-1.2.8-1.4 1.5 0 .3-.1.6-.4.8s-.7.2-.8 0v-.3c0-.6 0-1.2.1-1.8 0-.3 0-.7-.2-1 .4-1.7.9-3.4 1.6-5zm-27.2-17.8h-.4c-.5 0-1-.5-1.4-.9-.3-.3-.7-.6-1.1-.4-.3.1-.4.5-.3.8s.3.5.5.7c.3.3.7.5 1 .8s.4.8.2 1.1c-.7 0-1.5-.2-2-.8-.3-.3-.6-.7-1-.4-.2 0-.2.2-.2.4-1.6-.8-3.1-1.6-4.5-2.6-.9-.6-2-1.5-2.4-2.6-.1-.4 0-1 .3-1.3.5-.4 1.2 0 1.7.2.9.5 1.8 1.1 2.5 1.8 0 0 .7.2.5 0-.6-.7-1.1-1.4-1.7-2.1-.6-.8-1.6-2.2-1.4-3.3.3-1.5 2.1.4 2.6.9.6.7 1.2 1.4 1.7 2.2 0 0 .6.2.5 0-.5-1.5-1-3.2-.9-4.8 0-.3 0-.7.3-.9.2-.2.4 0 .7.2.7.6 1.1 1.4 1.6 2.1 1 1.6 1.8 3.2 2.7 4.9-.2 0-.3.3-.3.6s.1.6.2.8c.3.6.5 1.3.5 2 0 .2 0 .4-.1.5zm11.6-8c0 .4.2.7.2 1.1s-.4.8-.8.6c-.2 0-.3-.2-.4-.4-.2-.4-.2-.9-.4-1.3-.2-.3-.5-.6-.8-.6-1.3-1.8-2.7-4.2-2.6-6.4 0-.8.3-1.4.7-2 1.2.8 1.7 2.5 2.2 3.8 0 .2.6 0 .6 0-.2-1.7-.3-3.9.3-5.5.1-.3.3-.8.7-.5.3.3.4.8.5 1.2q.3 1.65.3 3.3v2.3c0 .2.5 0 .5 0 .6-1.4 1.3-2.8 2.2-4 .3-.5 1.3-1.9 2-1.5.6.4.6 1.5.5 2.1-.2 2-.9 4-1.6 5.8-.1.3-.2.6-.3.8-.5.2-.7.8-.9 1.3-.2.6-.6 1.3-1.2 1.2-.2-.5 0-1-.2-1.4-.1-.5-.6-.9-1-.7-.3.2-.4.6-.4 1zm-11.2 44.1c-.5.1-1-.2-1.5-.5s-1-.5-1.5-.2c-.2.4.2.9.6 1.1s.8.6.7 1.1c0 .3-.5.5-.8.5s-.6-.3-.9-.5c-.2-.1-.3-.3-.5-.3s-.3 0-.4.2c-1-.7-2.1-1.5-3-2.4-.7-.6-1.4-1.3-1.8-2.1-.1-.3-.2-.6-.1-.9.3-.6.9-.6 1.5-.4.8.2 1.7.7 2.4 1.2 0 0 .6 0 .5-.1-.5-.5-.9-1-1.3-1.5-.5-.6-1.5-1.8-1.2-2.7.3-1.1 2 .5 2.3.9.5.5 1 1 1.4 1.6h.5c-.1-.8-.2-1.5-.2-2.3v-.7c0-.1 0-.2.1-.3v-.1c.3.1.5.5.7.7.7 1 1.3 2.1 1.8 3.2.2.5.5 1 .7 1.5 0 0-.1 0-.2.1 0 .1-.1.3-.1.4 0 .9.6 1.9.2 2.7zm-11 93.2c-.1.2-.4 0-.5-.3-.2-.3-.4-.7-.7-1-.1-.2-.3-.3-.5-.3s-.4.2-.4.4 0 .4.2.6c.3.5.6 1 1 1.4.2.2.4.4.5.7s0 .6-.2.8c-.4.3-.9-.2-1.2-.5-.7-.6-1.6-.9-2.5-.9v.4c-1.2-.5-2.5-1.1-3.6-1.8-.7-.5-1.7-1.2-1.6-2.1 0-1.6 1.9-1.3 2.9-1q1.2.45 2.4 1.2s.6 0 .5-.2c-1.3-1.4-2.6-2.9-3.5-4.6-.2-.4-.9-2.4.2-2.3.5 0 .9.6 1.2.9.4.4.7.9 1 1.4.5.8 1 1.5 1.3 2.3 0 .2.6 0 .5 0-.5-1.2-1-2.5-1.2-3.8 0-.4-.4-1.8.2-2 .4-.2 1 .8 1.2 1.1.9 1.6 1.5 3.3 2 5.1 0 .2.1.4.2.6-.1.6 0 1.1 0 1.7.2.7.6 1.3.5 2v.2zm56.5-30.2c-.6 1.2-2.7 1.6-3.9 1.8-.4 0-.8.1-1.2.2-.5-.6-1.1-.9-1.8-1.1-.8-.2-1.6-.1-2.4 0 0-.4.5-.7.8-.9s.6-.7.5-1.1c-.2-.4-.7-.5-1.1-.3s-.7.5-1 .8c-.4.4-1 .8-1.5.4-.1-.4 0-.9.4-1.3s.6-.8.7-1.2v-.6c.9-1 2-2 3-2.8.8-.7 2.2-1.8 3.3-1.7 1.7.2.6 2.1 0 2.8-.7.8-1.5 1.5-2.3 2.1 0 0 .4.2.5.1.7-.5 1.3-1 2-1.4.6-.4 1.2-.7 1.8-1 .4-.2 1.2-.7 1.6-.5 1.1.3-.8 2.5-1.2 2.8-1 1-2.2 2.1-3.5 2.5-.3 0 .2.3.4.2l2.4-.6c.7-.1 3.1-.6 2.4.9z"/><path fill="#fff" fill-opacity=".09" d="M65.07 108.602c-.7 0-1.3.2-2 .3l.3.7c1.2-.8 4.9-3.3 3.8-5.2-.9-1.5-3.6.3-4.6.8l.5.6c1-1.2 2-3.3-.2-3.9s-4.8 1.9-6.3 3.4c-.4.4-.7.7-1.1.8s-.6.2-.9.4c-.6.5-1.2 1.4-1.7 2-.8 1-2.5 2.7-1.7 4v-.5c-14 8.1-22.6 23.4-25.7 39h.7v-10.8c0-1.8 0-3.6.4-5.4.3-1.6.8-3.1 1.4-4.5 2.5-6.1 6.6-11.8 11.3-16.5h-.5c.6.3 1.1 0 1.6-.4 1.1-.9 2.3-1.8 3.3-2.8.9-.8 1.7-1.6 2.2-2.6.6-1.2 1.8-2.1 2.5-3.2s3-4.3 1.7-5.7-3.3.8-4.1 1.7l.6.4c.4-1.2 1.7-4.8-.5-5.1-1.8-.3-2.8 2.3-3.3 3.6h.7c0-1.3-.5-4.4-2.6-2.8-1.9 1.6-1.8 5.1-1.9 7.3l.3-.4c-2.2.6-1.1 5-.9 6.5 0 1 .3 2.3-.4 3.1-1 1.2-2.2 2.3-3.2 3.5-3.8 4.5-7.1 9.4-9.1 14.9h.7c.7-9.6 2.9-19.3 4.7-28.9.9-4.7 1.8-9.5 2.8-14.2.5-2.4 1-4.9 1.5-7.3.5-2.2.6-4.8 1.9-6.7 2.9-4.4 7.1-8.1 10.8-11.8h-.5c1.3.9 3.8 0 5-.7 1.7-1 3-2.4 4.4-3.8 1-1 3.7-3.4 3.1-5.1s-2.9-.2-3.7.4l.5.5c.8-1.1 3.5-4.4 1.9-5.8s-3.7 1.5-4.4 2.6l.7.3c.4-1.1 1-2.6.5-3.7s-1.8-1.2-2.7-.8c-1.3.6-2.1 2.1-2.6 3.3-.4.9-.7 1.9-1 2.9-.2.8-.6 1.5-1 2.3-.7 1.7-.9 3.5-1 5.3v1.2c0 .5 0 .4-.5.9-.7.7-1.5 1.4-2.2 2.1-3 2.9-6 5.9-8.5 9.3l.7.3c.8-4.2 1.7-8.4 2.5-12.6.4-2.1.8-4.2 1.1-6.3.2-1.2 0-2.7.5-3.9.5-1.6 1.6-3.2 2.3-4.7l1.8-3.7-.4.2c.8.2 1.5-.3 2.2-.7 1.1-.7 2.2-1.5 3.2-2.3.8-.7 1.3-1.6 2.1-2.2.9-.8 1.9-1.5 2.8-2.3s3.2-2.9 2.1-4.3-3.9.3-5 1.1l.5.5c.8-1.3 3.5-4.7 2.1-6.3s-3.3.8-3.9 1.8l.7.3c.2-1.2.4-3.2-1.2-3.5-1.9-.4-2.9 2.6-3.4 3.9-.2.7-.5 1.3-.7 2-.2.6-.3 1.5-.7 2-.3.3-.5.3-.7.7s-.3.8-.3 1.3c-.2 1.4-.4 2.9-.5 4.4 0 1.1-.2 2.3.3 3.3v-.4c-1.8 2.2-3.2 4.8-3.9 7.5h.7c0-6.4-2.6-12.6-5.6-18.3-.2-.3-.3-.7-.5-1 0-.1-.4-.5-.4-.5-.2-.4-.2-1.2-.3-1.7-.4-1.8-.6-3.7-.8-5.5-.2-3.5 0-7.1.4-10.6l-.3.4c1-.2 1.5-1.2 1.9-2 .6-1.3 1.2-2.7 1.4-4.1.2-1 .2-2 .2-3v-2c.2-.9.7-1.8 1-2.8.5-1.4 2.2-6.1-.3-6.7-2.2-.5-4 3.3-4.7 4.8l.7.2c0-1.4.5-6-1.7-6.2s-2 3.9-2 5.2l.7-.2c-.4-.9-1.1-2.6-2.4-2.5-1.1 0-1.5 1.4-1.7 2.3-.2 1.8.5 3.6 1.4 5.2.2.4.5.8.7 1.2.2.3.3.5.5.8 0 0-.1 0-.1.2 0 .7 0 1.5.2 2.2.2 1.7.6 3.4 1.3 5 .3.7.7 1.2 1.1 1.8.4.7.1 1.5 0 2.3-.4 4.3-.5 8.7.2 13l.7-.3c-2.4-3.9-5.1-7.6-8-11.1v.4c1.3-1.7-.2-5-1.2-6.6-.7-1.1-1.7-1.9-2.3-3-.8-1.3-1.4-2.8-2.2-4.1-.6-1-2.1-3.9-3.8-3.5-2 .4-.6 4.3-.3 5.4l.6-.4c-.8-1.1-3-3.9-4.7-2.7s.9 4.3 1.7 5.4l.5-.5c-1-.7-2.4-1.6-3.6-1.3-1.1.3-1.4 1.5-1 2.4.6 1.4 2.2 2.4 3.5 3.2.9.6 1.9 1.1 2.8 1.6.5.3 1 .4 1.3.9.2.3.4.6.6.8 1.1 1.2 2.5 1.8 4 2.3.7.2 1.6.2 2.2.5.9.4 1.6 1.7 2.2 2.5 1.5 1.9 2.8 3.8 4.2 5.8.6.9 1.2 1.9 1.8 2.8.5.8 1.4 1.8 1.6 2.7 0 .3.4.4.6.2h-.6c3.3 5.8 6.1 12.1 6.5 18.8.2 3.4-.4 6.8-1.1 10.1-.7 3.5-1.4 7.1-2.1 10.6h.7c-.8-3.6-2.5-6.9-5.4-9.2-1.8-1.5-3.2-3.5-4.5-5.4-.7-1-1.3-1.9-1.9-3-.3-.6-.3-.5-.3-1.1v-.8c-.3-2.1-1-4.4-1.9-6.3-.2-.4-.5-.8-.7-1.2-.5-.9-.9-1.9-1.3-2.8s-1.4-2.9-2.7-2.6c-1.4.3-1 2.5-.9 3.4l.6-.4c-.9-1-2.9-3.3-4.4-2-1.4 1.2.7 3.4 1.5 4.3l.5-.6c-1-.5-2.6-1.1-3.6-.3-1.2.9-.3 2.2.5 3.1s1.6 1.6 2.5 2.3c.6.4 1.5.9 1.9 1.4.3.4.5.8 1 1.2.6.4 1.2.8 1.8 1.1s1.3.6 2 .9c.4.2.8.2 1.2.4.5.2.5.3.9.8 1.3 2 2.6 4.1 4.1 6 1.3 1.7 3.1 2.8 4.4 4.5 1.5 1.9 2.7 4.2 3.2 6.5.4 1.5.5 2.9.2 4.5-.2 1.1-.4 2.2-.6 3.2l-1.8 9h.7c-.5-2-1.7-4.2-2.9-5.8-.5-.7-3.6-4.1-4.3-1.9-.3.9.5 2.4.9 3.3.6 1.3 1.3 2.5 2.2 3.5.8.9 2.5 2.7 3.8 2l-.5-.4c-1.4 7.1-2.8 14.2-4.2 21.4s-2.6 13.7-3.3 20.7l.7-.2c-.7-1.2-5.2-7.7-6.7-4.8-.7 1.3.5 2.9 1.4 3.8 1.3 1.4 2.9 2.8 4.7 3.6l-.3-.4c-.1 1.5 0 3.2-.3 4.7 0 .4.5.7.7.3l-.7-.2c-.3 6.1-.2 12.3 0 18.4l.6-.3c-3-2.8-6-5.6-9.1-8.3-.8-.7-1.5-1.4-2.3-2.1-.7-.6-1.5-1.2-1.8-2-.5-1.7-.4-3.6-1.1-5.3-.5-1.4-.9-2.8-1.4-4.2-.4-1.1-.9-2.6-1.9-3.3-.6-.5-1.5-.6-2.1 0-.8.9-.3 2.5 0 3.4l.7-.3c-.8-1.2-2.9-3.6-4.2-1.6s1.8 5 2.9 6.3l.5-.6c-1.2-.6-2.8-1.2-4.1-.6-.9.4-1.6 1.3-1.3 2.3.6 2.4 4 2.9 5.8 4 .6.4 1 .8 1.8 1.1 1 .4 2.1.8 3.2 1h.7c.4.1.8.6 1.1.9l2.7 2.4c1.8 1.6 3.5 3.2 5.3 4.9.8.7 1.6 1.5 2.4 2.2.4.4.9.7 1.2 1.1.5.6.5.7.5 1.4 0 .3.4.4.6.3l.2-.2-.6-.3c0 3.5.2 6.9.5 10.4l.6-.3c-2.2-1.3-3.7-3.4-5.3-5.3-.8-1-2.3-1.2-2.4.4-.2 2 1.6 4.1 2.8 5.5.8.9 1.6 1.8 2.5 2.6.7.6 1.4 1.4 2.4 1.6l-.3-.4c.2 3.3.5 6.5.9 9.8l.7-.2c-1.3-1.9-3.1-5.6-5.9-5.1-.2 0-.3.2-.3.4 0 2.1 1.3 3.8 2.6 5.5.6.8 1.3 1.6 2 2.4.3.3.7.6 1 .9.5.4.5.9.6 1.6.7 5.3 2.1 10.6 2.7 16 1.2 10.8.4 21.8-.5 32.6q-.75 9.3-2.1 18.6c0 .3.4.7.6.4.3-.4.8-.3 1.1-.7s.2-1.5.3-2c0-.7.2-1.3.3-2l.9-7.2c.6-5.2 1-10.4 1.3-15.6.6-10.2.8-20.5-1-30.6l-.4.5c4.6 0 6.2-4.8 6.3-8.7 0-.2-.1-.3-.3-.4-1.6-.3-2.9 1.4-3.8 2.5-1.1 1.3-2.1 2.8-2.9 4.4h.7c-.6-3-1.2-6.1-1.6-9.2l-.3.4c2-.4 2.9-2.2 4-3.8s2.7-3.5 2.5-5.6c-.2-1.7-1.5-1-2.3-.2s-1.4 1.7-2.1 2.6c-.7 1-1.6 2.9-2.8 3.2l.5.4-.6-5.4c0-.9-.2-1.9-.2-2.8 0-.8-.3-1.8-.2-2.6s1-1.4 1.5-1.9c.6-.6 1.1-1.3 1.7-1.9.9-1.1 1.5-2.3 1.9-3.6.3-.9.8-2.1.4-3-.3-.8-1.2-1-1.9-.8-1.1.3-1.5 1.5-1.9 2.5-.3.8-.7 1.6-1 2.3s-.6 2.1-1.5 2.5l.6.3c-.1-2.3-.2-4.7-.3-7s-.3-4.6 0-6.8c.6-4.1 1.5-8.1 2.8-12 2.5-7.8 6.6-15.1 12.1-21.2 3-3.3 6.5-6.3 10.3-8.6h-.5c1.4 1.4 11.3 1.7 10.8-.3l-.4.5c1.8-.2 4.7-.4 5.8-2.1s-1-2.2-2.2-2.1c-.5 0-.5.8 0 .8.4 0 1.1 0 1.4.2 1 .7-.5 1.5-1.1 1.7-1.2.5-2.6.7-3.8.8-.2 0-.4.2-.4.5 0 .2-4.8.5-5.5.4-1.2 0-3.1 0-4-1-.1-.1-.3-.1-.5 0-14.3 8.7-22.6 24.6-25.3 40.7-.8 5.1-.2 10.5 0 15.6 0 .3.3.4.6.3.8-.4 1.1-1.2 1.5-2.1.5-1.2 1-2.5 1.6-3.7.1-.3.3-.6.5-.8.2-.4.6-.7 1.1-.7l.6 1.2c0 .5-.3 1.2-.5 1.7-.5 1.5-1.3 2.8-2.3 4-.8.9-1.8 1.8-2.6 2.7-.6.8-.2 2.1 0 3q.3 4.35.9 8.7c0 .2.2.4.5.4 1.1-.3 1.7-1.5 2.3-2.3l1.5-2.1c.3-.4.6-.8.9-1.1.4-.4.5-.8 1.1-.6 1.2.6-1.3 3.9-1.8 4.7-1 1.5-1.9 3.4-3.8 3.8-.1 0-.3.2-.3.4.4 3.2 1 6.3 1.6 9.5 0 .3.5.4.7 0 .5-1.1 1.2-2.1 1.9-3.1s2.6-3.7 4-3.5l-.3-.4c0 3.4-1.4 7.9-5.6 7.9-.3 0-.4.2-.4.5 1.8 9.7 1.6 19.8 1.1 29.6-.3 4.9-.7 9.9-1.2 14.8-.3 2.4-.5 4.8-.9 7.1-.2 1.3-.4 2.6-.5 3.9 0 .3 0 .7-.2 1 0 .3-.2.6-.5.6 0 0-.3.2-.4.3l.6.4c1.5-10.5 2.6-21.1 3-31.7.2-5.4.3-10.8 0-16.2-.3-5.1-1.5-10.1-2.3-15.1-.3-1.5-.5-3-.7-4.5 0-.4 0-1.3-.3-1.6-.3-.4-1-.6-1.4-1-1-1-1.9-2.2-2.7-3.3-.9-1.2-1.8-2.6-1.8-4.2l-.3.4c2.3-.4 4 3.2 5 4.7.2.3.7.2.7-.2-.3-3.3-.6-6.5-.9-9.8 0-.2-.1-.3-.3-.4-1-.1-1.7-1-2.4-1.7-.6-.5-1.1-1.1-1.7-1.7-1.2-1.3-2.5-3-3-4.7v-.8c.5-.6.9-.5 1.1.1.2.2.4.5.5.7.5.6.9 1.2 1.4 1.7 1 1.1 2.2 2.1 3.4 2.9.2.1.6 0 .6-.3-.2-3.5-.3-6.9-.5-10.4 0-.3-.4-.5-.6-.3l-.2.2.6.3c0-.4.2-.9 0-1.3-.2-.6-1.3-1.2-1.8-1.6-1.4-1.2-2.7-2.5-4.1-3.8s-2.8-2.6-4.2-3.8c-.8-.7-1.5-1.4-2.3-2.1-.4-.4-.8-1-1.4-1.2h-.8c-.5 0-1-.2-1.4-.3s-.8-.3-1.1-.4c-.8-.3-1.1-.7-1.8-1.1-.9-.5-2-.8-3-1.3s-2-1.1-2.6-1.9 0-1.7 1-2 2.2.2 3.1.7c.4.2.7-.3.5-.6-.9-1.1-1.9-2.2-2.5-3.4s-.4-.7-.4-1l.8-1.3.8.2c.7.4 1.1 1.1 1.5 1.7.2.3.8.1.7-.3s-.2-.8-.2-1.3c0-.7-.2-.8.5-1.2.8-.5.9 0 1.4.6.2.2.3.5.4.7.6 1.2 1 2.6 1.4 3.9.4 1.2.8 2.2 1.1 3.4.1.7.2 1.3.3 2 0 .6 0 1.5.3 2.1.2.4.7.7 1 1 .6.5 1.1 1 1.7 1.6 1.1 1 2.3 2.1 3.4 3.1l7.2 6.6c.2.2.7 0 .6-.3-.1-6.1-.2-12.3 0-18.4 0-.4-.5-.5-.7-.2l.7.3c.3-1.6.2-3.3.3-4.9 0-.2-.1-.3-.3-.4-1.2-.5-2.4-1.4-3.4-2.4-.7-.7-2.3-2-2.2-3.1.1-2.1 2.7.5 3.2 1 .9.9 1.6 1.9 2.2 3 .2.4.7.2.7-.2.7-7 2.1-14 3.4-20.9s2.7-13.9 4.1-20.8c0-.3-.2-.6-.5-.4-.9.4-2.5-1.4-3-2-.7-.9-1.3-1.9-1.8-2.9-.2-.5-.5-1-.6-1.5 0-.3-.2-.6-.2-.8-.2-.4-.2-.6.3-.5 1.4-.5 3.2 2.8 3.7 3.8.6 1.2 1.3 2.4 1.7 3.7 0 .3.7.4.7 0 .8-4.2 1.7-8.5 2.5-12.7.7-3.5-.9-7.5-2.9-10.3-1.1-1.5-2.5-2.4-3.7-3.7-1.5-1.5-2.7-3.5-3.9-5.2-.6-.9-1.2-1.8-1.8-2.8-.4-.7-.5-.6-1.3-.8-1.5-.3-2.9-1.1-4.2-1.9-.2-.2-.6-.3-.8-.5s-.2-.5-.4-.7c-.6-.8-1.8-1.3-2.5-1.9-.9-.7-1.8-1.5-2.4-2.5-.5-.9.2-1.6 1.1-1.5.6 0 1.2.3 1.7.5.4.2.7-.2.5-.6-.4-.5-2.7-3-1-3.4 1-.2 2.3 1.5 2.8 2.1.3.3.7 0 .6-.4 0-.1-.2-1.3 0-1.5l1.2-.4c.2.2.4.5.6.8.4.7.8 1.4 1.1 2.1.7 1.4 1.5 2.7 2 4.2.6 1.6 1.3 3.4 1.3 5.2s-.1.7.3 1.3c.5.8 1 1.6 1.5 2.3.9 1.4 1.9 2.8 2.9 4.2.9 1.2 2 2.1 3.1 3 2.4 2.2 3.8 5.2 4.5 8.3 0 .4.7.4.7 0 .7-3.7 1.5-7.4 2.2-11.1.7-3.4 1.2-6.8 1-10.3-.5-6.7-3.3-13-6.6-18.7-.1-.2-.4-.3-.6 0 .2 0 .4.1.6.2-.1-.6-.7-1.2-1-1.7-.4-.7-.8-1.3-1.2-2-.9-1.5-1.9-3-2.9-4.4-.9-1.3-1.9-2.7-2.9-3.9-.5-.6-1.2-1.8-1.8-2.2-.4-.2-1-.2-1.5-.2-1.6-.3-3.2-1-4.4-2.1-.5-.4-.8-1.2-1.2-1.6s-1.4-.7-2-1c-1.6-.9-3.2-1.8-4.5-3.1-.2-.2-.6-.6-.8-.9-.8-1.8.5-1.8 1.3-1.6s1.4.7 2.1 1.1c.3.2.7-.2.5-.5-.4-.5-.7-1-1.1-1.5l-.6-.9-.3-.7c-.3-.6-.2-.9.4-1 .6-.3.8-.2 1.3.2.3.2.6.4.8.7.5.5.9 1 1.3 1.5.2.3.7 0 .6-.4-.3-.9-.6-1.9-.7-2.9 0-.5 0-1.5.8-1.4.3 0 .7.5 1 .8 1.3 1.4 2.2 3.2 3 4.9.3.6.6 1.4 1 1.9.6.8 1.3 1.4 1.8 2.2.9 1.4 2.5 4.7 1.4 6.2v.4c2.9 3.5 5.5 7.1 7.9 10.9.2.4.8.1.7-.3-.5-3.5-.5-7.1-.3-10.6 0-.8.1-1.6.2-2.4 0-.6.4-1.5.2-2-.1-.4-.6-.7-.8-1-.4-.6-.7-1.2-.9-1.9-.5-1.3-.8-2.8-1-4.2 0-.5-.2-1-.2-1.5 0 .2.2-.6.2-.7 0-.4-.4-.7-.6-1.1-1-1.4-1.9-3.2-2-4.9v-1.3c.2-.6.2-.8.9-.9s.8.1 1.2.7c.2.3.4.7.5 1.1s.7.2.7-.2c0-.6 0-5.6 1.7-4.1.5.5.5 2 .5 2.7v2.5c0 .4.5.5.7.2.5-1.1 1.1-2.2 1.9-3.1.3-.4.7-.8 1.1-1.1 1-.6 1.7.6 1.6 1.5 0 1.2-.4 2.4-.8 3.5s-1.2 2.5-1.3 3.7.1 2.5 0 3.8c-.1 1.4-.6 2.8-1.2 4-.4.8-.8 2.1-1.8 2.3-.2 0-.3.2-.3.4-.4 3-.5 6.1-.4 9.2q0 2.1.3 4.2c0 .7.2 1.3.3 2 0 .3.6 2.1.6 2.1v.4c3.4 6.1 6.4 12.8 6.5 19.8 0 .4.6.5.7 0 .7-2.7 2.1-5.1 3.8-7.2.1-.1.1-.3 0-.4-.6-1.1-.2-3-.1-4.2 0-1 0-4.1 1.3-4.4q.15 0 .3-.3c.5-1.9 1-3.9 1.9-5.6.2-.5.9-2 1.6-1.9l1.1.7v.8c0 .4 0 .7-.1 1.1 0 .4.5.7.7.3.4-.6.8-1.2 1.4-1.6.4-.2 1.2-.3 1.5.1.2.4-.2 1.3-.3 1.6-.5 1.3-1.3 2.4-2 3.5-.2.3.2.7.5.5.6-.5 1.3-.9 2-1.2.2 0 1-.4 1.3-.3l.6 1.3c-.1.2-.3.4-.4.6-.9 1.2-2.1 2.2-3.2 3.1-.5.4-1.2.8-1.7 1.3s-.6 1-1.1 1.5q-1.2 1.05-2.4 1.8c-.6.4-1.8 1.5-2.6 1.3-.2 0-.3 0-.4.2-.6 1.2-1.2 2.5-1.8 3.7-.8 1.6-1.7 3.1-2.3 4.8-.4 1.1-.3 2.6-.5 3.8-.3 2.1-.7 4.2-1.1 6.3-.8 4.3-1.7 8.6-2.5 12.9 0 .4.4.6.7.3 2.1-2.8 4.5-5.3 6.9-7.7l3.3-3.3c.3-.3 1-.7 1.1-1.2.1-.4 0-1.1 0-1.5 0-1.6.2-3.2.7-4.7.3-.8.8-1.4 1-2.2l.6-2.1c.5-1.5 1.1-3.4 2.5-4.3.7-.4 1.8-.7 2.2.5.1.4 0 .9 0 1.3-.1.6-.3 1.1-.5 1.7-.2.4.5.6.7.3.4-.6.8-1.1 1.3-1.6.3-.2.6-.6 1-.7.3-.3.6-.1.7.4.4.2.5.6.3.9-.2 1.2-1.4 2.5-2 3.4-.2.3.2.7.5.5.5-.4 1.2-1 1.8-1 1.6 0-.4 2.5-.7 2.9-.9 1.1-2 2.1-3 3.2q-1.2 1.2-2.7 2.1c-1 .6-3.2 1.4-4.2.7h-.5c-3.4 3.3-6.8 6.5-9.8 10.2-.6.8-1.3 1.6-1.8 2.5s-.6 2-.8 3c-.5 2.4-1 4.9-1.5 7.3-2 10-4 20.1-5.8 30.2-1 5.4-2 10.8-2.3 16.3 0 .4.6.5.7 0 1.9-5.3 5.1-10.1 8.7-14.4l2.7-3c.7-.7 1.2-1 1.3-2v-3.3c0-.9-.7-4.5.5-4.8.2 0 .3-.2.3-.4 0-1.6.1-3.2.6-4.7.2-.6.4-1.4.9-1.8l.4-.3 1 .7c.2.3.1 1.3.1 1.8s.6.5.7 0c.2-.5.5-1.1.8-1.6.5-.8.6-1.1 1.5-1 .7-.2 1 0 .8.8 0 .4 0 .8-.2 1.2-.1.6-.3 1.1-.5 1.7-.1.3.4.7.6.4.4-.6 1.3-1.7 2-1.8s1.2.6 1.1 1.3c0 .5-.3 1-.5 1.5-.7 1.6-1.9 3.1-3.2 4.3-.6.6-.5.8-.9 1.6-.5.8-1.2 1.4-1.9 2.1s-1.5 1.2-2.2 1.8c-.3.2-1.5 1.4-1.8 1.2h-.5c-4.6 4.7-8.8 10.3-11.3 16.4-.6 1.5-1.2 3.1-1.5 4.7s-.4 3.3-.5 5q-.15 5.85 0 11.7c0 .4.7.5.7 0 3-15.4 11.5-30.6 25.5-38.6.2 0 .2-.3.1-.5-.5-.9 1-2.4 1.5-3 .4-.4 1.8-2.5 2.5-2.2h.4c1.1-1.1 2.2-2.2 3.5-3.1.6-.4 1.2-.8 2-1 .4-.1.8-.2 1.2 0l.8 1.3c0 .4-.7 1.2-.9 1.4-.3.3 0 .8.5.6.8-.4 2.7-1.7 3.4-1 1 1-2.7 3.7-3.3 4.1-.3.2-.1.8.3.7l1.8-.3c.5 0 .5-.8 0-.8h-.1z"/><path fill="#fff" fill-opacity=".09" d="M40.77 100.502c.2-1.2.5-2.5 1.6-3.1h-.5c.4.4.4 1.2.4 1.8 0 .8 0 1.6-.2 2.3 0 .4-.2.8.3 1 .3 0 .7.001.9-.199s.2-.6.3-.9c.1-.4.3-.7.4-1.1.2-.4.3-.8.5-1.1.3-.6.7-1.3 1.1-1.9 0-.1.2-.2.3-.3.3.3 0 1.4 0 1.8-.1.7-.3 1.4-.5 2.1 0 .3-.2.7-.3 1 0 .3-.3.7-.3 1s.3.5.7.5c.6 0 .7-.401 1-.801.6-.9 1.3-1.9 2.2-2.6.1 0 .4-.3.5-.2s0 .6 0 .8c-.1.8-.4 1.501-.8 2.201-.7 1.4-1.7 2.699-2.9 3.799l.6.301c0-.2-.1-.301-.3-.401-.5 0-1 .001-1.4.401-.2.2-.5.4-.7.5l-.4.199.3-.4c.4-.4.9-.8 1-1.5 0-.5 0-1-.6-1.2-.5-.2-1.1.001-1.5.401-.3.3-.5.599-.8.799-.2.2-.5.5-.8.4-.1 0-.2-.3-.2-.4 0-.3-.2-.599-.2-.899-.1-.4 0-.901 0-1.301 0-.9.1-1.9.3-2.8 0-.5-.6-.7-.7-.2-.2.9-.3 1.801-.3 2.801v1.399c0 .3.2.7.3 1 .1.5.4 1.101 1 1.201.8 0 1.4-.801 1.8-1.301.2-.2.9-.899 1-.199 0 .4-.3.8-.6 1-.4.4-.9.9-.7 1.5s1 .399 1.4.199 1-1 1.6-.9l-.3-.399c0 .3.4.499.6.299 1.1-1 2-2.2 2.7-3.4.6-1 1.2-2.3 1.2-3.6 0-1-.9-1.3-1.6-.8-.9.701-1.7 1.601-2.3 2.501-.2.3-.5.599-.5.899.1.2.2.2.2 0 0 0 .1-.4.2-.5.3-.8.5-1.599.7-2.4s.8-2.6 0-3.3c-1.1-1-2.4 1.8-2.7 2.5-.2.5-.5 1-.7 1.5-.2.4-.3.8-.4 1.2 0 0-.2.5 0 .3v-.699c.1-.9.2-1.8.2-2.7 0-.7-.1-1.3-.6-1.8-.1-.1-.3-.1-.5 0-1.3.8-1.7 2.2-1.9 3.6 0 .5.6.699.7.199zM50.27 57.502v-2.8c0-.4.2-.9.3-1.3.1-.5.3-.9.4-1.4.5-1.3 1-2.8 2-3.9.4-.4 1.1-.8 1.4 0 .2.6 0 1.4-.2 1.9-.2.7-.5 1.4-.8 2-.2.4-.3.7-.5 1.1-.2.3-.6.8-.6 1.2s.5.6.9.5c.6-.1.9-1.1 1.2-1.5.5-.8 1-1.6 1.6-2.3.5-.6 1-1.3 1.7-1.7.6-.3.4.2.3.6-.1.5-.3.9-.6 1.4-.4.8-1 1.6-1.5 2.3-.3.4-.5.8-.8 1.1-.2.2-.5.5-.6.8 0 .5.4.7.8.6.4 0 .6-.4.8-.6.3-.3.7-.6 1-.9s.7-.5 1-.8c.3-.2.8-.6.7 0-.2.9-.9 1.7-1.5 2.4-.7.8-1.5 1.6-2.2 2.3h.5c-.5-.3-.9-.2-1.3 0-.3.2-.6.3-.9.5s-.5.6-.8.7c-.6.2-.8-.3-.6-.7.1-.4.4-.7.6-1 .4-.6.6-1.1.4-1.8 0-.2-.3-.3-.5-.3-.6 0-1.1.4-1.5.8-.2.2-.3.4-.4.7 0 0 0 .4-.1.4l-.3-.2v-.4c0-.5-.7-.5-.8 0 0 .7.2 1.8 1.2 1.5.4-.2.5-.5.6-.8.2-.7.7-1.1 1.4-1.2l-.5-.3c.2.9-.8 1.6-1 2.5-.1.5 0 1.1.4 1.4.4.4 1 .3 1.4 0 .5-.3 1.5-1.5 2.3-1.2h.5c1-.9 2-1.9 2.8-3 .5-.7 1.4-1.8 1.1-2.7s-1.3-.5-1.8-.2c-.3.2-2.7 2.2-2.7 2.2v.4c.1-.2.5-.5.6-.7.2-.3.5-.6.7-.9.5-.7 1-1.4 1.4-2.1.4-.8 1.4-2.4.9-3.3-1.1-1.9-4.5 3.4-5 4.1l-.6.9c.1-.2-.2.3-.2.2 0 .6.4-.2.4-.2.4-.7.7-1.4 1-2.1.4-1 .8-2 .9-3.1 0-.8-.4-1.8-1.3-1.8s-1.7.8-2.1 1.5c-.8 1.2-1.3 2.6-1.8 3.9l-.3 1.2c-.1.4-.3.8-.3 1.3v2.8c0 .5.7.5.8 0zM48.27 29.103c.2-.6.5-1.1.8-1.7.2-.3.5-1.1.9-.7.3.3.3 1.1.2 1.5 0 .6-.2 1.2-.3 1.7l-.6 1.8c-.1.3-.5.8-.3 1.2.3.5 1.1.1 1.3-.3.5-1 .9-2 1.4-3 .3-.5.6-.9.9-1.3.2-.2.4-.5.6-.5.4-.2.5.1.5.5-.2 1.1-.8 2.2-1.4 3.2l-.9 1.5c-.2.3-.6.7-.7 1.2 0 .1 0 .3.2.3.8.4 1.5-.6 2-1q.75-.6 1.5-.9c.3-.2 1-.5 1.4-.2 1.2.8-4.1 5-4.8 5.5l.6.2c-.1-.7-.7-1-1.3-.7-.3.2-.5.6-.8.8-.8.7-.5-.4-.3-.8.3-.7.8-1.6.5-2.4-.2-.6-.9-.7-1.5-.4s-.9 1-1.1 1.6c0 .2-.2 1-.4.6v-2.2c0-.3-.2-.5-.2-.8s.2-.7.2-.9.1-.5.2-.7c.3-1.1.7-2.1 1.1-3.2.2-.4-.5-.6-.7-.2-.4 1-.8 2.1-1.1 3.2-.2.5-.3 1.1-.4 1.6s.1.7.2 1.1v2.5c.3.5 1.1.3 1.4 0 .2-.3.3-.7.4-1 0-.3.5-1.3 1-1.1.6.2-.6 2.2-.7 2.7 0 .6.2 1.2.9 1.2s.6-.1.8-.3c.2-.1.3-.3.4-.5.2-.2.5-.6.5-.1 0 .3.4.3.6.2 1.2-.9 2.4-1.9 3.5-3 .7-.7 2.1-2.1 1.6-3.2-.3-.8-1.4-.8-2.1-.5-.7.2-1.3.6-1.8 1-.3.2-.5.4-.8.6-.2.1-.3.3-.5.4 0 0-.3 0-.2.1l.2.3s.3-.4.4-.5c.1-.2.3-.4.4-.7l.9-1.5c.5-.9 1-1.8 1.2-2.8.1-.6 0-1.6-.7-1.7-.8-.1-1.4.7-1.8 1.2-.6.7-1 1.6-1.4 2.4-.2.4-.4.9-.6 1.3 0 .1 0 .3-.2.4l-.2.3h.1c0 .3.1.3.2.2 0 0 .1-.3.2-.4.4-1.1.8-2.2 1-3.3.1-.8.2-1.7-.3-2.4-1.2-2-2.8 1.7-3.1 2.5-.2.4.5.6.7.2zM20.57 10.802c-.9.4-2.5-2.6-3.3-.8-.7 1.6 2.1 1.9 1.7 3.2l.4-.3c-.5 0-1 0-1.5-.4-.3-.2-.6-.6-1-.8-.6-.2-1 .2-1.1.8l.6-.3c-1.3-.6-2.5-1.3-3.7-2.1-1-.7-2.2-1.4-2.8-2.5-.4-.7-.2-1.7.8-1.3.6.2 1.2.6 1.7 1s1.5 1.7 2.3 1.1c0 0 .1-.2 0-.4-.1-.3-.4-.6-.7-.9-.4-.5-.7-1-1.1-1.5-.5-.7-1-1.4-1.3-2.3 0-.2-.2-.9.1-.9.2 0 .6.3.7.4q.6.45 1.2 1.2c.3.4.7.8 1 1.2.2.3.4.7.7.9s1 .2 1-.3c0-.4-.2-.9-.4-1.2-.2-.5-.3-1.1-.4-1.6s-.2-1.1-.2-1.6v-.8c.1-.2.1 0 .3 0 .1 0 .2.2.3.3.8.9 1.4 2 2 3.1.7 1.1 1.2 2.3 1.8 3.5v-.5q-.6.6-.3 1.5c.1.4.3.8.4 1.2 0 .2.4 1.1.2 1.3-.3.4.2.9.5.5s.2-.9.1-1.3c0-.3-.2-.7-.3-1s-.6-1.2-.3-1.5c.2-.1.2-.3.1-.5-.7-1.4-1.4-2.8-2.2-4.1-.6-1.1-1.4-2.6-2.5-3.2-1.2-.7-1.3 1.3-1.3 2s.1 1.3.3 2c0 .4.2.8.3 1.2 0 .3.4.8.3 1.1l.2-.3s-1.2-1.6-1.4-1.7c-.3-.4-.7-.8-1-1.1-.5-.5-1.4-1.3-2.1-.9-1 .5-.4 2.1 0 2.8.3.6.7 1.1 1 1.6.3.4.5.7.8 1.1.2.3.7.6.8.9v-.4c.2 0-1.4-1.2-1.6-1.4-.6-.4-1.2-.8-1.9-.9-1.2-.3-2 .9-1.6 2 .4 1.2 1.5 2 2.5 2.7 1.4 1 2.9 1.9 4.5 2.6q.45.15.6-.3c0-.2.6.4.7.4.2.2.4.3.7.4q.75.3 1.5.3c.2 0 .3-.1.4-.3.4-1.2-.7-1.7-1.4-2.4 0 0-.3-.3-.3-.4h.6c0-.1.2 0 .2 0l.6.6c.4.3 1 .6 1.5.4.4-.2.2-.9-.2-.7zM31.97 3.302c0 .2.1.5.2.7v.5l-.5-.2c-.2-.3-.2-.8-.3-1.1-.1-.2-.3-.5-.5-.6s-.5-.2-.5-.2l.2.4c0-.2 0-.4-.2-.6-.2-.3-.5-.7-.7-1-.5-.7-.8-1.4-1.2-2.2-.6-1.5-.9-3.2.2-4.6h-.7s.3.2.4.3c.3.2.5.5.7.8.4.6.6 1.2.9 1.8.1.4.2.9.6 1 .3 0 .8 0 .9-.3.2-.4 0-1.2 0-1.6v-2.4c0-.2.3-1.9.6-1.8.1 0 .2.7.2.8 0 .4.2.9.2 1.3v3.5c0 .3-.1.6 0 .9.2.3.6.2.9.1.5-.2.7-1.1.9-1.6.6-1.2 1.2-2.4 2.1-3.4.3-.4.9-1 1.2-.3.2.5 0 1.1 0 1.7-.2 1.8-.8 3.6-1.5 5.2-.1.4-.2.7-.5 1-.2.2-.3.3-.5.6-.3.5-.4 1.8-1.2 1.7l.4.3c-.2-.8 0-2.1-1.1-2.4-.9-.3-1.3.6-1.2 1.4 0 .5.8.5.8 0 0-.2 0-.9.5-.5.2.1.2.5.2.7 0 .3 0 .7.1 1 0 .2.2.2.4.3 1.5.2 1.3-1.8 2.1-2.5.2-.2.3-.2.4-.5.1-.4.3-.7.4-1.1.3-.8.6-1.7.9-2.5.4-1.3.8-2.9.6-4.3-.2-.9-1-1.6-1.9-1-1 .6-1.7 1.9-2.2 2.9-.4.7-.7 1.4-1.1 2.2v.2c-.3.1-.2.2 0 .2v-2c0-.9 0-1.7-.2-2.6 0-.6-.2-1.3-.5-1.8-.2-.3-.5-.6-1-.5-.5.2-.7 1-.8 1.4-.2.8-.3 1.6-.3 2.5v1.9c0 .2 0 .3.1.4.1 0 0-.3 0-.3 0-.2-.2-.4-.2-.6-.1-.3-.3-.7-.4-1-.2-.3-.4-.7-.6-1 0 0-.2-.2-.2-.3 0 0-.5-.5-.5-.3 0-.3-.5-.3-.7 0-1 1.3-.9 2.8-.5 4.3.2.8.5 1.6.9 2.3.2.4.5.8.7 1.2 0 .2.2.3.3.4 0 0 .3.6.4.3 0 .2 0 .3.2.4s.5.1.6.3c.2.3.3.8.4 1.1.1.4.4.9.9.9q.6 0 .9-.6c.3-.5 0-1.1 0-1.7 0-.5-.8-.3-.7.2zM21.07 47.002c-.9.1-1.6-.8-2.5-.8-.7 0-1.2.6-.8 1.2.2.3.4.5.7.7.2.1.5.3.5.6 0 .4-.6.3-.7.2-.3-.2-.5-.5-.9-.6q-.6-.15-.9.3h.5c-.9-.7-1.8-1.4-2.7-2.2-.8-.7-1.7-1.4-2.1-2.4-.5-1.5 2-.3 2.4 0 .5.3 1.3 1 1.9.4 0 0 .1-.2 0-.4 0-.3-.4-.5-.6-.7-.3-.3-.6-.7-.8-1-.4-.5-.8-.9-1-1.5 0-.2-.3-.7 0-.9h.4c.4.2.7.5 1 .8l1.2 1.2c.4.4.6.9 1.3.8.6-.2.4-.7.3-1.2 0-.4 0-.8-.1-1.2 0-.3 0-1 .2-1.3h-.5c.4.3.6.8.8 1.1.3.4.5.9.8 1.3.5.9 1 1.9 1.4 2.9v-.5c-1.1.7.4 2.4 0 3.4-.2.4.4.8.7.4s.2-.9.2-1.4c0-.3-.5-1.6-.2-1.8.2-.1.2-.3.1-.5-.5-1.1-1-2.2-1.5-3.2-.4-.8-.9-1.8-1.7-2.3h-.5c-.5.5-.4 1.4-.4 2.1 0 .4 0 .8.1 1.3v.4c.2-.1.2-.2 0-.2 0-.2-.2-.3-.3-.4-.7-.8-1.6-1.8-2.5-2.3s-1.7.3-1.5 1.3c.2.7.6 1.2 1 1.8.2.3.4.5.6.8.2.2.3.4.5.5l.5.5v-.4s-1.2-.8-1.4-.8c-.5-.2-1-.4-1.6-.5-.9 0-1.7.6-1.5 1.5.2 1.1 1.2 1.9 2 2.7 1 .9 2 1.7 3.1 2.5h.5c.2-.2.8.4 1 .5.3.1.6.2.9.1.6-.1 1-.7.8-1.3 0-.3-.3-.5-.6-.7-.2-.1-.3-.2-.5-.4s-.4-.4 0-.4.8.4 1.2.6.7.3 1.1.2c.5 0 .5-.8 0-.8zM9.97 140.202c.2 0-.6-1.099-.7-1.199-.2-.2-.5-.501-.9-.401-.9.2-.6 1.201-.3 1.801.2.4.5.8.8 1.1.1.2.9.9.3 1-.2 0-.6-.4-.7-.5-.7-.6-1.6-.901-2.6-.901-.2 0-.3.201-.4.401v.4l.5-.4c-1.5-.6-3.5-1.3-4.6-2.7-.4-.5-.6-1.401.2-1.701.5-.2 1.2 0 1.7.1.8.2 1.5.701 2.3 1.101.3.2 1 .299 1.2-.101.2-.5-.6-1.099-.9-1.299-.7-.8-1.4-1.6-2-2.5-.3-.5-.6-1-.8-1.6 0-.3-.4-1.2 0-1.3.5-.2 1.5 1.299 1.7 1.599.6.8 1.1 1.801 1.6 2.701.2.4.5.599 1 .399.7-.3 0-1.199 0-1.699-.3-.8-.5-1.7-.7-2.5 0-.3-.4-1.601 0-1.801.4-.3 2.2 4.201 2.3 4.601s.3.899.4 1.299c0 0 .2.301.2.401v.8q0 .75.3 1.5c.2.5.5 1.1.3 1.6-.1.5.6.699.7.199.2-.6 0-1.199-.3-1.799-.1-.3-.2-.7-.3-1v-1.201c0-.6-.3-1.199-.5-1.699-.2-.8-.5-1.501-.8-2.301-.4-.9-.8-2.099-1.6-2.799-.7-.6-1.3-.2-1.5.6-.1 1 .2 2.2.5 3.1 0 .3.2.7.3 1 0 0 .3 1.099.4 1.099.4 0-.2-.799-.2-.799-.2-.4-.4-.701-.6-1.101-.6-.9-1.4-2.399-2.5-2.799-.7-.3-1.3.1-1.3.9 0 .9.4 1.8.8 2.6.4.7.9 1.4 1.4 2 .3.3.5.7.8 1 0 .1.2.199.3.299s.5.401.5.601v-.4l-1.8-.9c-.5-.2-1-.4-1.6-.5-.8-.1-1.9 0-2.2.9-.5 1.2.4 2.199 1.3 2.799 1.2.9 2.7 1.601 4.1 2.101.2 0 .5-.1.5-.4v-.4l-.4.4c.6 0 1.2.1 1.8.5.4.3.8.7 1.3.9.7.3 1.3-.2 1.3-1 0-.5-.4-.801-.7-1.101-.2-.2-.3-.4-.5-.6-.1-.2-.4-.499-.4-.699 0-.7.4.099.5.299l.3.601c.2.3.5.3.8.2.4-.2 0-.9-.4-.7zM66.271 110.102c-.7 1.2-2.6 1.4-3.8 1.6-.2 0-.6.2-.8.1-.1 0-.3-.2-.4-.3-.3-.2-.7-.4-1-.6-1-.3-2-.3-3-.2l.4.5c.3-.8 1.5-1 1.3-2.1-.1-.8-1-1-1.7-.7-.4.2-.7.5-1 .9-.2.2-.5.5-.7.5-.4 0-.1-.4 0-.7.5-.8 1.2-1.4.9-2.4v.4c.9-1 1.9-2 3-2.9.8-.6 2.1-1.8 3.2-1.5.8.3 0 1.4-.2 1.9-.3.5-.8.9-1.2 1.4-.3.2-.5.5-.8.7-.2.2-.5.3-.5.5v.4q.6.45 1.2 0c.7-.5 1.3-.9 2-1.4.6-.4 1.2-.7 1.9-1.1.2-.1 1.2-.7 1.1 0-.2.7-.8 1.4-1.3 1.9s-1.1 1-1.7 1.5l-.9.6c-.3.2-.7.3-1 .4-.1 0-.2.2-.2.3 0 .5.5.6.9.5.5 0 1-.3 1.5-.4.3 0 .7-.2 1-.2.4 0 .8-.1 1.2-.1s.8 0 .6.5c-.2.4.4.8.7.4.5-1-.2-1.6-1.2-1.6-.5 0-.9 0-1.4.1-.3 0-.7.1-1 .2-.3 0-.6.1-.9.2-.1 0-.3 0-.4.1-.2 0-.3 0-.2.3l-.2.3c.3-.2.7-.3 1.1-.5s.7-.4 1-.7c.6-.4 1.1-.9 1.6-1.5.6-.6 1.3-1.4 1.5-2.3 0-.4 0-.8-.3-1-.5-.3-1.1 0-1.6.2-.8.3-1.5.8-2.2 1.2-.2.2-2.2 1.6-2.3 1.5v.4c0 .1.4-.1.4-.2.2-.2.4-.3.6-.5l.9-.9c.4-.4.7-.8 1-1.3.4-.7.7-1.9-.2-2.4-1.2-.7-2.7.4-3.6 1.1-1.3 1-2.5 2.2-3.7 3.4 0 0-.1.2 0 .4.3.9-.9 1.6-1.1 2.5-.2.7.3 1.2 1 1.1.4 0 .7-.3 1-.5.3-.3.6-.8 1-.9.5-.1.6.4.3.7-.1.1-.3.2-.4.3-.3.3-.5.5-.7.9 0 .2.1.5.4.5 1.1 0 2.3-.2 3.3.5.4.3.5.7 1.1.6.5 0 1-.1 1.4-.2 1.4-.2 3.1-.6 3.9-1.9.2-.4-.4-.8-.7-.4z"/></svg>