<svg width="108" height="265" viewBox="0 0 108 265" fill="none" xmlns="http://www.w3.org/2000/svg">
<path d="M71.9554 6.49615C73.6675 6.49615 75.0555 5.1082 75.0555 3.39612C75.0555 1.68404 73.6675 0.296143 71.9554 0.296143C70.2434 0.296143 68.8555 1.68404 68.8555 3.39612C68.8555 5.1082 70.2434 6.49615 71.9554 6.49615Z" fill="#346E3C" fill-opacity="0.32"/>
<path d="M74.7553 3.39616C74.7553 4.49616 74.0553 5.5962 72.9553 5.9962C71.8553 6.3962 70.6553 5.99615 69.8553 5.19615C69.0553 4.39615 69.0553 2.99618 69.6553 2.09618C70.2553 1.19618 71.3553 0.596189 72.4553 0.796189C73.7553 0.996189 74.6553 2.1962 74.6553 3.4962C74.6553 3.9962 75.4553 3.9962 75.4553 3.4962C75.4553 1.9962 74.5553 0.696152 73.1553 0.196152C71.7553 -0.303848 70.1553 0.196152 69.2553 1.19615C68.3553 2.19615 68.1553 3.99615 68.9553 5.19615C69.7553 6.39615 71.1553 7.09619 72.6553 6.79619C74.2553 6.49619 75.4553 4.99616 75.4553 3.39616C75.4553 2.89616 74.7553 2.89616 74.6553 3.39616H74.7553Z" fill="#346E3C" fill-opacity="0.32"/>
<path d="M75.8549 17.1962C77.5669 17.1962 78.9548 15.8083 78.9548 14.0962C78.9548 12.3841 77.5669 10.9962 75.8549 10.9962C74.1428 10.9962 72.7549 12.3841 72.7549 14.0962C72.7549 15.8083 74.1428 17.1962 75.8549 17.1962Z" fill="#346E3C" fill-opacity="0.32"/>
<path d="M78.5551 14.0961C78.5551 15.1961 77.8551 16.2961 76.7551 16.6961C75.6551 17.0961 74.4551 16.6961 73.6551 15.8961C72.8551 15.0961 72.855 13.6961 73.455 12.7961C74.055 11.8961 75.1551 11.2961 76.2551 11.4961C77.5551 11.6961 78.455 12.8961 78.455 14.1961C78.455 14.6961 79.2551 14.6961 79.2551 14.1961C79.2551 12.6961 78.355 11.3961 76.955 10.8961C75.555 10.3961 73.9551 10.8961 73.0551 11.8961C72.1551 12.8961 71.9551 14.6961 72.7551 15.8961C73.5551 17.0961 74.955 17.7961 76.455 17.4961C78.055 17.1961 79.2551 15.6961 79.2551 14.0961C79.2551 13.5961 78.555 13.5961 78.455 14.0961H78.5551Z" fill="#346E3C" fill-opacity="0.32"/>
<path d="M58.3549 9.59613C60.0669 9.59613 61.4548 8.20824 61.4548 6.49615C61.4548 4.78407 60.0669 3.39612 58.3549 3.39612C56.6428 3.39612 55.2549 4.78407 55.2549 6.49615C55.2549 8.20824 56.6428 9.59613 58.3549 9.59613Z" fill="#346E3C" fill-opacity="0.32"/>
<path d="M61.0551 6.49614C61.0551 7.59614 60.3551 8.69612 59.2551 9.09612C58.1551 9.49612 56.9551 9.09613 56.1551 8.29613C55.3551 7.49613 55.355 6.09609 55.955 5.19609C56.555 4.29609 57.6551 3.6961 58.7551 3.8961C60.0551 4.0961 60.955 5.29612 60.955 6.59612C60.955 7.09612 61.7551 7.09612 61.7551 6.59612C61.7551 5.09612 60.855 3.79613 59.455 3.29613C58.055 2.79613 56.4551 3.29613 55.5551 4.29613C54.6551 5.29613 54.4551 7.09613 55.2551 8.29613C56.0551 9.49613 57.455 10.1961 58.955 9.8961C60.555 9.5961 61.7551 8.09614 61.7551 6.49614C61.7551 5.99614 61.055 5.99614 60.955 6.49614H61.0551Z" fill="#346E3C" fill-opacity="0.32"/>
<path d="M53.4545 20.9962C55.1666 20.9962 56.5546 19.6082 56.5546 17.8961C56.5546 16.184 55.1666 14.7961 53.4545 14.7961C51.7424 14.7961 50.3545 16.184 50.3545 17.8961C50.3545 19.6082 51.7424 20.9962 53.4545 20.9962Z" fill="#346E3C" fill-opacity="0.32"/>
<path d="M56.1547 17.8962C56.1547 18.9962 55.4547 20.0962 54.3547 20.4962C53.2547 20.8962 52.0547 20.4962 51.2547 19.6962C50.4547 18.8962 50.4547 17.4962 51.0547 16.5962C51.6547 15.6962 52.7547 15.0962 53.8547 15.2962C55.1547 15.4962 56.0547 16.6962 56.0547 17.9962C56.0547 18.4962 56.8547 18.4962 56.8547 17.9962C56.8547 16.4962 55.9547 15.1962 54.5547 14.6962C53.1547 14.1962 51.5547 14.6962 50.6547 15.6962C49.7547 16.6962 49.5547 18.4962 50.3547 19.6962C51.1547 20.8962 52.5547 21.5962 54.0547 21.2962C55.6547 20.9962 56.8547 19.4962 56.8547 17.8962C56.8547 17.3962 56.1547 17.3962 56.0547 17.8962H56.1547Z" fill="#346E3C" fill-opacity="0.32"/>
<path d="M72.7552 27.9962C74.4673 27.9962 75.8552 26.6082 75.8552 24.8961C75.8552 23.184 74.4673 21.7961 72.7552 21.7961C71.0432 21.7961 69.6553 23.184 69.6553 24.8961C69.6553 26.6082 71.0432 27.9962 72.7552 27.9962Z" fill="#346E3C" fill-opacity="0.32"/>
<path d="M75.4554 24.8962C75.4554 25.9962 74.7555 27.0962 73.6555 27.4962C72.5555 27.8962 71.3555 27.4962 70.5555 26.6962C69.7555 25.8962 69.7554 24.4962 70.3554 23.5962C70.9554 22.6962 72.0555 22.0962 73.1555 22.2962C74.4555 22.4962 75.3554 23.6962 75.3554 24.9962C75.3554 25.4962 76.1555 25.4962 76.1555 24.9962C76.1555 23.4962 75.2554 22.1962 73.8554 21.6962C72.4554 21.1962 70.8554 21.6962 69.9554 22.6962C69.0554 23.6962 68.8555 25.4962 69.6555 26.6962C70.4555 27.8962 71.8554 28.5962 73.3554 28.2962C74.9554 27.9962 76.1555 26.4962 76.1555 24.8962C76.1555 24.3962 75.4554 24.3962 75.3554 24.8962H75.4554Z" fill="#346E3C" fill-opacity="0.32"/>
<path d="M66.4554 39.5961C68.1675 39.5961 69.5555 38.2082 69.5555 36.4962C69.5555 34.7841 68.1675 33.3961 66.4554 33.3961C64.7434 33.3961 63.3555 34.7841 63.3555 36.4962C63.3555 38.2082 64.7434 39.5961 66.4554 39.5961Z" fill="#346E3C" fill-opacity="0.32"/>
<path d="M69.2553 36.4961C69.2553 37.5961 68.5553 38.6961 67.4553 39.0961C66.3553 39.4961 65.1553 39.0961 64.3553 38.2961C63.5553 37.4961 63.5553 36.0961 64.1553 35.1961C64.7553 34.2961 65.8553 33.6961 66.9553 33.8961C68.2553 34.0961 69.1553 35.2961 69.1553 36.5961C69.1553 37.0961 69.9553 37.0961 69.9553 36.5961C69.9553 35.0961 69.0553 33.7961 67.6553 33.2961C66.2553 32.7961 64.6553 33.2961 63.7553 34.2961C62.8553 35.2961 62.6553 37.0961 63.4553 38.2961C64.2553 39.4961 65.6553 40.1961 67.1553 39.8961C68.7553 39.5961 69.9553 38.0961 69.9553 36.4961C69.9553 35.9961 69.2553 35.9961 69.1553 36.4961H69.2553Z" fill="#346E3C" fill-opacity="0.32"/>
<path d="M48.3549 33.2962C50.0669 33.2962 51.4548 31.9082 51.4548 30.1962C51.4548 28.4841 50.0669 27.0962 48.3549 27.0962C46.6428 27.0962 45.2549 28.4841 45.2549 30.1962C45.2549 31.9082 46.6428 33.2962 48.3549 33.2962Z" fill="#346E3C" fill-opacity="0.32"/>
<path d="M51.1547 30.1962C51.1547 31.2962 50.4547 32.3962 49.3547 32.7962C48.2547 33.1962 47.0547 32.7962 46.2547 31.9962C45.4547 31.1962 45.4547 29.7962 46.0547 28.8962C46.6547 27.9962 47.7547 27.3962 48.8547 27.5962C50.1547 27.7962 51.0547 28.9962 51.0547 30.2962C51.0547 30.7962 51.8547 30.7962 51.8547 30.2962C51.8547 28.7962 50.9547 27.4962 49.5547 26.9962C48.1547 26.4962 46.5547 26.9962 45.6547 27.9962C44.7547 28.9962 44.5547 30.7962 45.3547 31.9962C46.1547 33.1962 47.5547 33.8962 49.0547 33.5962C50.6547 33.2962 51.8547 31.7962 51.8547 30.1962C51.8547 29.6962 51.1547 29.6962 51.0547 30.1962H51.1547Z" fill="#346E3C" fill-opacity="0.32"/>
<path d="M44.1556 46.2962C45.8677 46.2962 47.2556 44.9082 47.2556 43.1962C47.2556 41.4841 45.8677 40.0962 44.1556 40.0962C42.4436 40.0962 41.0557 41.4841 41.0557 43.1962C41.0557 44.9082 42.4436 46.2962 44.1556 46.2962Z" fill="#346E3C" fill-opacity="0.32"/>
<path d="M46.9554 43.1962C46.9554 44.2962 46.2555 45.3962 45.1555 45.7962C44.0555 46.1962 42.8555 45.7962 42.0555 44.9962C41.2555 44.1962 41.2554 42.7962 41.8554 41.8962C42.4554 40.9962 43.5555 40.3962 44.6555 40.5962C45.9555 40.7962 46.8554 41.9962 46.8554 43.2962C46.8554 43.7962 47.6555 43.7962 47.6555 43.2962C47.6555 41.7962 46.7554 40.4962 45.3554 39.9962C43.9554 39.4962 42.3554 39.9962 41.4554 40.9962C40.5554 41.9962 40.3555 43.7962 41.1555 44.9962C41.9555 46.1962 43.3554 46.8962 44.8554 46.5962C46.4554 46.2962 47.6555 44.7962 47.6555 43.1962C47.6555 42.6962 46.9554 42.6962 46.8554 43.1962H46.9554Z" fill="#346E3C" fill-opacity="0.32"/>
<path d="M64.5552 53.1962C66.2673 53.1962 67.6552 51.8083 67.6552 50.0962C67.6552 48.3841 66.2673 46.9962 64.5552 46.9962C62.8431 46.9962 61.4551 48.3841 61.4551 50.0962C61.4551 51.8083 62.8431 53.1962 64.5552 53.1962Z" fill="#346E3C" fill-opacity="0.32"/>
<path d="M67.2553 50.0962C67.2553 51.1962 66.5553 52.2962 65.4553 52.6962C64.3553 53.0962 63.1553 52.6962 62.3553 51.8962C61.5553 51.0962 61.5553 49.6962 62.1553 48.7963C62.7553 47.8963 63.8553 47.2963 64.9553 47.4963C66.2553 47.6963 67.1553 48.8962 67.1553 50.1962C67.1553 50.6962 67.9553 50.6962 67.9553 50.1962C67.9553 48.6962 67.0553 47.3962 65.6553 46.8962C64.2553 46.3962 62.6553 46.8962 61.7553 47.8962C60.8553 48.8962 60.6553 50.6962 61.4553 51.8962C62.2553 53.0962 63.6553 53.7963 65.1553 53.4963C66.7553 53.1963 67.9553 51.6962 67.9553 50.0962C67.9553 49.5962 67.2553 49.5962 67.1553 50.0962H67.2553Z" fill="#346E3C" fill-opacity="0.32"/>
<path d="M62.6556 65.4962C64.3677 65.4962 65.7556 64.1082 65.7556 62.3961C65.7556 60.684 64.3677 59.2961 62.6556 59.2961C60.9436 59.2961 59.5557 60.684 59.5557 62.3961C59.5557 64.1082 60.9436 65.4962 62.6556 65.4962Z" fill="#346E3C" fill-opacity="0.32"/>
<path d="M65.4554 62.3962C65.4554 63.4962 64.7555 64.5962 63.6555 64.9962C62.5555 65.3962 61.3555 64.9962 60.5555 64.1962C59.7555 63.3962 59.7554 61.9962 60.3554 61.0962C60.9554 60.1962 62.0555 59.5962 63.1555 59.7962C64.4555 59.9962 65.3554 61.1962 65.3554 62.4962C65.3554 62.9962 66.1555 62.9962 66.1555 62.4962C66.1555 60.9962 65.2554 59.6962 63.8554 59.1962C62.4554 58.6962 60.8554 59.1962 59.9554 60.1962C59.0554 61.1962 58.8555 62.9962 59.6555 64.1962C60.4555 65.3962 61.8554 66.0962 63.3554 65.7962C64.9554 65.4962 66.1555 63.9962 66.1555 62.3962C66.1555 61.8962 65.4554 61.8962 65.3554 62.3962H65.4554Z" fill="#346E3C" fill-opacity="0.32"/>
<path d="M41.4545 60.0963C43.1666 60.0963 44.5546 58.7084 44.5546 56.9963C44.5546 55.2842 43.1666 53.8962 41.4545 53.8962C39.7424 53.8962 38.3545 55.2842 38.3545 56.9963C38.3545 58.7084 39.7424 60.0963 41.4545 60.0963Z" fill="#346E3C" fill-opacity="0.32"/>
<path d="M44.1547 56.9963C44.1547 58.0963 43.4547 59.1962 42.3547 59.5962C41.2547 59.9962 40.0547 59.5963 39.2547 58.7962C38.4547 57.9962 38.4547 56.5962 39.0547 55.6962C39.6547 54.7962 40.7547 54.1962 41.8547 54.3962C43.1547 54.5962 44.0547 55.7962 44.0547 57.0962C44.0547 57.5962 44.8547 57.5962 44.8547 57.0962C44.8547 55.5962 43.9547 54.2963 42.5547 53.7963C41.1547 53.2963 39.5547 53.7963 38.6547 54.7963C37.7547 55.7963 37.5547 57.5962 38.3547 58.7962C39.1547 59.9963 40.5547 60.6962 42.0547 60.3962C43.6547 60.0962 44.8547 58.5963 44.8547 56.9963C44.8547 56.4963 44.1547 56.4963 44.0547 56.9963H44.1547Z" fill="#346E3C" fill-opacity="0.32"/>
<path d="M42.1547 70.6962C43.8667 70.6962 45.2546 69.3083 45.2546 67.5962C45.2546 65.8841 43.8667 64.4962 42.1547 64.4962C40.4426 64.4962 39.0547 65.8841 39.0547 67.5962C39.0547 69.3083 40.4426 70.6962 42.1547 70.6962Z" fill="#346E3C" fill-opacity="0.32"/>
<path d="M44.8548 67.5961C44.8548 68.6961 44.1549 69.7961 43.0549 70.1961C41.9549 70.5961 40.7548 70.1961 39.9548 69.3961C39.1548 68.5961 39.1549 67.1961 39.7549 66.2961C40.3549 65.3961 41.4549 64.7961 42.5549 64.9961C43.8549 65.1961 44.7549 66.3961 44.7549 67.6961C44.7549 68.1961 45.5549 68.1961 45.5549 67.6961C45.5549 66.1961 44.6549 64.8961 43.2549 64.3961C41.8549 63.8961 40.2548 64.3961 39.3548 65.3961C38.4548 66.3961 38.2549 68.1961 39.0549 69.3961C39.8549 70.5961 41.2549 71.2961 42.7549 70.9961C44.3549 70.6961 45.5549 69.1961 45.5549 67.5961C45.5549 67.0961 44.8549 67.0961 44.7549 67.5961H44.8548Z" fill="#346E3C" fill-opacity="0.32"/>
<path d="M41.4545 82.5963C43.1666 82.5963 44.5546 81.2084 44.5546 79.4963C44.5546 77.7842 43.1666 76.3962 41.4545 76.3962C39.7424 76.3962 38.3545 77.7842 38.3545 79.4963C38.3545 81.2084 39.7424 82.5963 41.4545 82.5963Z" fill="#346E3C" fill-opacity="0.32"/>
<path d="M44.1547 79.4963C44.1547 80.5963 43.4547 81.6962 42.3547 82.0962C41.2547 82.4962 40.0547 82.0963 39.2547 81.2962C38.4547 80.4962 38.4547 79.0962 39.0547 78.1962C39.6547 77.2962 40.7547 76.6962 41.8547 76.8962C43.1547 77.0962 44.0547 78.2962 44.0547 79.5962C44.0547 80.0962 44.8547 80.0962 44.8547 79.5962C44.8547 78.0962 43.9547 76.7963 42.5547 76.2963C41.1547 75.7963 39.5547 76.2963 38.6547 77.2963C37.7547 78.2963 37.5547 80.0962 38.3547 81.2962C39.1547 82.4963 40.5547 83.1962 42.0547 82.8962C43.6547 82.5962 44.8547 81.0963 44.8547 79.4963C44.8547 78.9963 44.1547 78.9963 44.0547 79.4963H44.1547Z" fill="#346E3C" fill-opacity="0.32"/>
<path d="M56.4545 87.6962C58.1666 87.6962 59.5546 86.3083 59.5546 84.5962C59.5546 82.8841 58.1666 81.4962 56.4545 81.4962C54.7424 81.4962 53.3545 82.8841 53.3545 84.5962C53.3545 86.3083 54.7424 87.6962 56.4545 87.6962Z" fill="#346E3C" fill-opacity="0.32"/>
<path d="M59.1547 84.5962C59.1547 85.6962 58.4547 86.7962 57.3547 87.1962C56.2547 87.5962 55.0547 87.1962 54.2547 86.3962C53.4547 85.5962 53.4547 84.1962 54.0547 83.2963C54.6547 82.3963 55.7547 81.7963 56.8547 81.9963C58.1547 82.1963 59.0547 83.3962 59.0547 84.6962C59.0547 85.1962 59.8547 85.1962 59.8547 84.6962C59.8547 83.1962 58.9547 81.8962 57.5547 81.3962C56.1547 80.8962 54.5547 81.3962 53.6547 82.3962C52.7547 83.3962 52.5547 85.1962 53.3547 86.3962C54.1547 87.5962 55.5547 88.2963 57.0547 87.9963C58.6547 87.6963 59.8547 86.1962 59.8547 84.5962C59.8547 84.0962 59.1547 84.0962 59.0547 84.5962H59.1547Z" fill="#346E3C" fill-opacity="0.32"/>
<path d="M58.3549 74.2962C60.0669 74.2962 61.4548 72.9082 61.4548 71.1962C61.4548 69.4841 60.0669 68.0962 58.3549 68.0962C56.6428 68.0962 55.2549 69.4841 55.2549 71.1962C55.2549 72.9082 56.6428 74.2962 58.3549 74.2962Z" fill="#346E3C" fill-opacity="0.32"/>
<path d="M61.0551 71.1962C61.0551 72.2962 60.3551 73.3962 59.2551 73.7962C58.1551 74.1962 56.9551 73.7962 56.1551 72.9962C55.3551 72.1962 55.355 70.7962 55.955 69.8962C56.555 68.9962 57.6551 68.3962 58.7551 68.5962C60.0551 68.7962 60.955 69.9962 60.955 71.2962C60.955 71.7962 61.7551 71.7962 61.7551 71.2962C61.7551 69.7962 60.855 68.4962 59.455 67.9962C58.055 67.4962 56.4551 67.9962 55.5551 68.9962C54.6551 69.9962 54.4551 71.7962 55.2551 72.9962C56.0551 74.1962 57.455 74.8962 58.955 74.5962C60.555 74.2962 61.7551 72.7962 61.7551 71.1962C61.7551 70.6962 61.055 70.6962 60.955 71.1962H61.0551Z" fill="#346E3C" fill-opacity="0.32"/>
<path d="M107.455 116.696C107.455 116.696 106.255 116.596 106.055 116.596C102.055 116.396 98.0552 117.096 94.3552 118.596C86.7552 121.796 80.4552 127.496 75.2552 133.896C69.4552 141.096 64.9552 149.196 61.2552 157.696C58.2552 164.496 55.7552 171.596 54.3552 178.896C53.2552 184.596 51.9552 190.296 49.9552 195.696C49.1552 197.796 48.3552 199.896 47.2552 201.796C46.8552 196.496 46.4553 191.196 46.1553 185.896C45.4553 175.596 44.9553 165.396 44.5553 155.096C44.1553 145.196 43.9553 135.296 44.0553 125.496C44.0553 116.996 44.3553 108.396 45.1553 99.8961C45.5553 95.2961 46.2553 90.7961 47.1553 86.2961C47.3553 86.2961 47.4553 86.2961 47.6553 86.0961C48.9553 85.6961 50.3552 85.3961 51.7552 85.0961C53.0552 84.7961 54.6552 84.4961 55.9552 84.7961C56.2552 84.7961 56.7552 84.0961 56.9552 84.1961C55.7552 83.8961 54.5552 84.1961 53.3552 84.3961C51.9552 84.5961 50.4553 84.9961 49.0553 85.3961C48.5553 85.4961 48.1553 85.6961 47.6553 85.7961C47.6553 85.7961 47.2553 85.9962 47.1553 85.9962C48.0553 81.4962 49.0553 76.8961 50.1553 72.3961C51.4553 72.3961 52.8553 72.1961 54.1553 72.0961C55.3553 72.0961 56.5552 71.8961 57.7552 71.7961C58.1553 71.7961 58.4552 71.1961 58.7552 71.1961C56.2552 71.3961 53.6553 71.5961 51.1553 71.6961C50.8553 71.6961 50.4552 71.7961 50.2552 71.6961C50.2552 71.5961 50.2552 71.3961 50.2552 71.2961C50.7552 69.0961 51.2552 66.8961 51.7552 64.6961C52.0552 63.4961 52.2553 62.3961 52.5553 61.1961C54.4553 60.7961 56.4552 60.8961 58.3552 61.1961C59.5552 61.3961 60.7552 61.6962 61.9552 61.9962C61.9552 61.9962 62.3552 61.7961 62.4552 61.6961C62.4552 61.6961 62.8552 61.3961 62.9552 61.3961C61.7552 60.9961 60.5552 60.7961 59.3552 60.5961C57.1552 60.2961 54.7553 60.0961 52.5553 60.7961C53.3553 57.2961 54.2553 53.7961 55.1553 50.2961C55.4553 50.2961 55.8553 50.2961 56.1553 50.2961H63.8552C64.1552 50.2961 64.5552 49.6961 64.8552 49.6961H55.6553C55.5553 49.6961 55.4552 49.6961 55.3552 49.6961C56.3552 45.5961 57.4553 41.5962 58.5553 37.4962C60.6553 37.2962 62.6553 36.9961 64.7552 36.7961C65.0552 36.7961 65.4552 36.7961 65.7552 36.6961C65.9552 36.6961 66.1553 36.4961 66.2552 36.3961C66.3552 36.3961 66.6553 36.0961 66.7552 36.0961C64.3552 36.3961 61.9553 36.5961 59.6553 36.8961C59.3553 36.8961 59.0552 36.8961 58.7552 36.8961C59.3552 34.7961 59.9553 32.6961 60.5553 30.6961C61.1553 28.6961 61.7552 26.6961 62.4552 24.6961C64.8552 24.7961 67.3552 24.8962 69.7552 24.9962C70.1553 24.9962 70.5552 24.9962 70.9552 24.9962C71.0552 24.9962 71.3552 24.7961 71.4552 24.6961C71.5552 24.5961 71.8552 24.3961 71.9552 24.3961C69.2552 24.2961 66.5553 24.1962 63.7552 23.9962H62.5553C63.3553 21.3962 64.2552 18.8961 65.2552 16.3961C65.8552 14.7961 66.5553 13.1961 67.2552 11.5961C69.5553 12.2961 71.7553 13.0961 74.0553 13.7961C74.3553 13.8961 74.7553 13.9961 75.1553 14.0961C75.1553 14.0961 75.5553 13.8961 75.6553 13.7961C75.6553 13.7961 76.0553 13.4962 76.1553 13.4962L68.7552 11.0961C68.4552 10.9961 68.0553 10.8961 67.6553 10.7961C68.2553 9.59614 68.8553 8.39614 69.6553 7.29614C70.2553 6.39614 70.8553 5.49614 71.6553 4.79614C71.3553 5.09614 70.8553 5.09612 70.6553 5.39612C68.8553 6.99612 67.7553 9.29615 66.6553 11.4962C66.6553 11.6962 66.4552 11.7962 66.4552 11.9962C65.9552 12.9962 65.5553 14.0961 65.0553 15.0961C63.3553 12.4961 61.6552 9.79611 59.8552 7.19611C59.5552 6.79611 59.3553 6.39615 59.0553 5.99615L58.0553 6.59613C59.9553 9.49613 61.8552 12.3961 63.7552 15.1961C64.0552 15.5961 64.2553 15.9961 64.5553 16.3961C63.6553 18.7961 62.7552 21.1961 61.9552 23.6961C61.9552 23.9961 61.7553 24.2961 61.6553 24.5961L61.2552 25.8961C59.2552 23.4961 57.3552 20.9961 55.3552 18.5961C55.0552 18.1961 54.7552 17.7962 54.4552 17.4962L53.4552 18.0961C55.6552 20.7961 57.7552 23.4961 59.9552 26.0961C60.2552 26.4961 60.5552 26.8961 60.8552 27.1961C59.7552 30.5961 58.7552 33.9962 57.7552 37.4962C57.6553 37.9962 57.4552 38.4962 57.3552 38.9962L50.4552 30.9962C50.0552 30.5962 49.7552 30.1961 49.3552 29.7961L48.3552 30.3961C50.8552 33.2961 53.2552 36.0962 55.7552 38.9962C56.1553 39.3962 56.4552 39.7961 56.8552 40.1961C56.8552 40.1961 56.9553 40.1961 57.1553 40.0961C56.3553 43.0961 55.5552 46.0961 54.7552 49.1961C54.4552 48.9961 54.1552 48.6962 53.9552 48.4962C52.3552 47.3962 50.7553 46.2961 49.1553 45.0961L45.7552 42.6961C45.6553 42.6961 44.8552 43.3961 44.7552 43.2961C47.3552 45.0961 49.8552 46.8961 52.4552 48.6961C53.0552 49.0961 53.5553 49.4961 54.1553 49.8961C54.2553 49.8961 54.4553 50.0961 54.5553 50.0961C53.6553 53.4961 52.8553 56.9961 52.0553 60.3961C52.0553 60.6961 51.9552 60.9961 51.8552 61.2961C51.6552 62.1961 51.4552 63.0961 51.2552 63.8961C48.5552 61.6961 45.9552 59.4961 43.2552 57.3961C42.8552 57.0961 42.4553 56.6961 42.0553 56.3961C41.9553 56.3961 41.1553 57.0962 41.0553 56.9962C43.9553 59.3962 46.8552 61.7961 49.7552 64.1961C50.1553 64.4961 50.5552 64.8961 50.9552 65.1961C50.4552 67.1961 50.0553 69.1961 49.5553 71.1961C48.2553 70.3961 47.0552 69.6961 45.7552 68.8961C44.7552 68.2961 43.7553 67.6961 42.6553 67.0961C42.4553 67.0961 41.7553 67.7961 41.6553 67.6961C43.8553 68.9961 46.0552 70.2961 48.2552 71.6961C48.5552 71.8961 48.9552 72.1961 49.2552 72.2961C48.3552 76.2961 47.4553 80.2961 46.5553 84.3961C46.3553 84.0961 46.2553 83.7962 46.0553 83.4962C45.6553 82.7962 45.0552 82.0962 44.4552 81.4962C43.6552 80.6962 42.8552 79.7961 41.9552 79.1961C41.8552 79.1961 41.0552 79.8961 40.9552 79.7961C42.9552 81.2961 45.0552 83.4961 45.9552 85.8961C46.0552 86.1961 45.9553 86.3962 46.1553 86.4962C45.5553 89.3962 45.0553 92.2961 44.6553 95.2961C43.6553 103.296 43.2553 111.296 43.1553 119.396C42.9553 128.996 43.1552 138.696 43.3552 148.296C43.3552 150.996 43.5553 153.596 43.6553 156.296C42.2553 152.996 40.8552 149.696 39.4552 146.396C37.8552 142.596 36.3552 138.896 34.8552 135.096C33.6552 131.996 32.6553 128.796 31.1553 125.896C28.5553 120.596 24.8552 115.896 21.2552 111.296C17.3552 106.496 13.2553 101.796 9.0553 97.2961C7.5553 95.6961 6.0552 94.0962 4.4552 92.4962C3.9552 91.9962 3.4552 91.4962 2.9552 90.9962C2.7552 90.7962 2.45527 90.2961 2.15527 90.1961C2.15527 90.1961 1.35527 90.5961 1.15527 90.6961C1.55527 94.7961 2.4553 98.8961 3.5553 102.796C4.5553 106.296 5.75522 109.796 7.35522 113.096C8.15522 114.796 9.05527 116.396 10.1553 117.896C11.2553 119.496 12.5552 120.896 13.7552 122.396C19.3552 129.196 24.2552 136.696 27.8552 144.696C29.3552 148.096 30.6553 151.796 31.1553 155.496C31.3553 157.196 31.2553 158.896 31.6553 160.496C32.0553 162.296 32.7553 163.896 33.5553 165.496C36.2553 170.496 40.2553 174.896 44.5553 178.396C44.5553 178.396 44.7552 178.496 44.7552 178.596C44.7552 178.696 44.7552 178.896 44.7552 178.996C45.2552 187.096 45.8552 195.196 46.4552 203.396C46.5552 205.196 46.7552 207.096 46.8552 208.896C47.0552 212.096 47.3553 215.196 47.6553 218.396C48.1553 223.896 48.5553 229.296 49.0553 234.796C49.0553 234.996 49.0553 235.196 49.0553 235.496C49.6553 241.596 50.2552 247.696 50.8552 253.796C51.0552 255.796 51.2552 257.796 51.4552 259.796C51.6552 261.796 51.4552 261.996 51.7552 262.896C51.7552 262.996 51.7552 263.196 51.7552 263.296C51.7552 263.096 52.8552 262.896 52.7552 262.696C52.5552 260.596 52.2553 258.496 52.0553 256.496C51.4553 250.896 50.8552 245.296 50.3552 239.696C50.1552 238.096 50.0552 236.496 49.9552 234.896C52.9552 232.596 55.3552 229.696 57.3552 226.496C59.7552 222.796 61.6552 218.696 63.3552 214.596C67.1552 205.396 69.6552 195.796 71.8552 186.096C73.7552 177.696 75.2553 169.096 76.6553 160.596C76.9553 158.896 77.1552 157.296 77.4552 155.596C77.9552 153.396 78.6553 151.396 79.5553 149.396C81.5553 144.996 84.3552 140.896 87.2552 137.096C92.3552 130.596 98.2552 124.596 104.455 119.196C105.155 118.596 105.855 117.896 106.655 117.296C106.655 117.296 107.155 116.996 107.155 116.896L107.455 116.696ZM6.5553 96.3961C10.6553 100.796 14.7553 105.296 18.5553 109.896C22.4553 114.596 26.2553 119.396 29.1553 124.696C30.5553 127.296 31.5553 129.996 32.5553 132.696C34.0553 136.496 35.5553 140.296 37.1553 144.096C38.5553 147.396 39.9552 150.696 41.3552 153.896C41.8552 154.996 42.3552 156.096 42.8552 157.296C43.1552 157.896 43.3553 158.596 43.6553 159.096C43.6553 159.096 43.6553 159.296 43.7552 159.296C43.7552 161.396 43.9553 163.396 44.0553 165.496C42.4553 162.396 40.8552 159.296 39.3552 156.296C37.7552 153.096 36.2552 149.996 34.7552 146.796C33.5552 144.196 32.5552 141.596 31.4552 138.996C28.5552 132.696 24.8553 126.796 21.0553 120.996C19.2553 118.096 17.3552 115.296 15.3552 112.496C13.8552 110.396 12.2552 108.396 10.7552 106.296C7.95525 102.096 5.5552 97.5962 3.4552 92.9962C4.5552 94.0962 5.55527 95.1961 6.65527 96.2961L6.5553 96.3961ZM35.8552 167.196C33.9552 164.196 32.3553 160.796 32.1553 157.196C32.0553 153.596 31.1552 150.196 29.8552 146.796C26.7552 138.596 21.8553 130.996 16.5553 124.096C14.1553 120.996 11.4553 118.196 9.5553 114.796C7.6553 111.496 6.25527 107.996 5.15527 104.396C4.25527 101.396 3.45522 98.2961 2.85522 95.1961C2.85522 94.7961 2.75527 94.4961 2.65527 94.0961C4.35527 97.6961 6.25522 101.296 8.35522 104.696C9.85522 107.096 11.5553 109.196 13.1553 111.496C15.0553 114.096 16.7553 116.696 18.5553 119.396C22.4553 125.396 26.2552 131.396 29.4552 137.796C30.6552 140.296 31.6552 142.796 32.7552 145.296C34.1553 148.396 35.5553 151.496 37.0553 154.596C38.4553 157.496 39.9552 160.396 41.3552 163.296C42.1552 164.896 42.9552 166.596 43.8552 168.196C43.8552 168.196 43.8552 168.396 43.9552 168.396C44.1552 171.296 44.2552 174.196 44.4552 177.196C41.0552 174.396 38.0553 170.996 35.6553 167.296L35.8552 167.196ZM49.1553 199.596C50.8553 195.996 52.1553 192.096 53.1553 188.196C54.4553 183.496 55.1552 178.696 56.3552 173.896C57.2552 170.396 58.4553 166.896 59.6553 163.396C62.7553 155.096 66.7553 146.996 71.5553 139.596C76.3553 132.396 82.2552 125.296 89.7552 120.796C93.0553 118.796 96.9552 117.496 100.855 117.196C101.855 117.196 102.855 117.096 103.855 117.096C104.055 117.096 105.155 117.096 105.755 117.096C98.8552 119.496 92.7552 123.996 87.7552 129.096C81.5553 135.296 76.6552 142.696 72.3552 150.396C68.4552 157.496 65.1552 164.896 62.4552 172.396C61.4552 175.196 60.5552 178.096 59.7552 181.096C58.4552 185.996 57.1553 190.796 55.6553 195.596C53.4553 202.496 50.9552 209.296 48.3552 215.996C48.3552 215.596 48.3552 215.296 48.3552 214.896C48.0552 210.796 47.6552 206.696 47.3552 202.696C48.0552 201.696 48.6553 200.596 49.1553 199.496V199.596ZM105.355 118.196C99.8552 122.896 94.6552 127.996 89.9552 133.396C86.7552 137.096 83.8552 140.896 81.3552 145.096C79.0552 148.896 77.1552 152.996 76.4552 157.396C75.1552 165.196 73.9552 172.896 72.3552 180.596C70.4552 190.196 68.0552 199.796 64.8552 209.096C62.0552 217.096 58.5552 225.496 52.8552 231.996C52.0552 232.896 51.0553 233.796 50.1553 234.596C49.6553 228.996 49.1553 223.396 48.6553 217.896C51.0553 211.996 53.2552 205.996 55.2552 199.996C56.9552 194.896 58.6552 189.696 59.9552 184.496C60.7552 181.496 61.4552 178.496 62.4552 175.496C64.7552 168.396 67.6552 161.496 70.9552 154.896C74.7552 147.296 79.2552 139.896 84.7552 133.396C89.9552 127.196 96.1553 121.296 103.755 118.396C104.655 118.096 105.455 117.796 106.355 117.496C106.355 117.596 105.355 118.296 105.255 118.396L105.355 118.196Z" fill="#346E3C" fill-opacity="0.32"/>
<path d="M107.355 116.396C107.555 116.396 107.655 116.396 107.355 116.396C107.155 116.396 106.955 116.396 106.855 116.396C106.255 116.396 105.755 116.396 105.155 116.396C103.255 116.396 101.255 116.596 99.3552 116.896C95.7552 117.596 92.4552 119.096 89.3552 120.996C83.4552 124.496 78.5552 129.496 74.3552 134.996C69.8552 140.896 66.0552 147.296 62.8552 153.996C59.6552 160.696 56.6551 168.196 54.9551 175.796C52.8551 184.696 51.5552 193.896 47.1552 201.996L47.8552 202.196C46.5552 185.496 45.5551 168.696 44.9551 151.896C44.3551 135.196 44.0551 118.396 45.4551 101.696C45.8551 97.0961 46.4552 92.5961 47.3552 88.0961C47.3552 87.7961 47.3552 87.0961 47.6552 86.7961C47.9552 86.4961 48.8552 86.4961 49.2552 86.3961C50.2552 86.0961 51.3552 85.8961 52.3552 85.6961C52.8552 85.6961 53.4551 85.4961 53.9551 85.3961C54.6551 85.3961 55.3551 85.4961 55.9551 85.3961C56.5551 85.3961 56.6552 84.8961 57.1552 84.7961C57.4552 84.7961 57.5552 84.0961 57.1552 84.0961C53.9552 83.4961 50.2552 84.8961 47.1552 85.7961L47.6552 86.2961C48.5552 81.6961 49.5552 77.1961 50.6552 72.6961L50.2552 72.9962C52.0552 72.8962 53.8552 72.6961 55.6552 72.5961C56.3552 72.5961 57.2551 72.5961 57.9551 72.3961C58.4551 72.2961 58.6552 71.9961 59.0552 71.7961C59.4552 71.6961 59.4552 70.9961 59.0552 71.0961C57.5552 71.1961 56.0551 71.2961 54.4551 71.3961C53.7551 71.3961 53.1551 71.3961 52.4551 71.5961C52.0551 71.5961 51.0552 71.8961 50.5552 71.7961L50.8552 72.2961C51.3552 69.9961 51.9551 67.5961 52.4551 65.2961L52.0552 65.5961C52.3552 65.5961 52.5552 65.1962 52.3552 64.9962C52.5552 65.1962 52.8551 63.4961 52.9551 63.3961C53.1551 62.3961 53.1552 62.0962 54.3552 61.9962C55.7552 61.8962 57.2552 61.9961 58.6552 62.1961C59.2552 62.1961 59.8551 62.3962 60.4551 62.4962C60.9551 62.5962 61.7552 62.9962 62.2552 62.9962C62.7552 62.9962 63.0551 62.5961 63.4551 62.3961C63.7551 62.2961 63.8551 61.7961 63.4551 61.6961C61.5551 61.0961 59.6552 60.7961 57.6552 60.5961C56.1552 60.4961 54.1552 60.3961 52.7552 61.0961L53.3552 61.4962C54.1552 57.9962 55.0551 54.4962 55.9551 50.9962L55.5552 51.2961C57.4552 51.2961 59.4552 51.2961 61.3552 51.2961C63.2552 51.2961 63.3552 51.4961 64.1552 51.2961C64.5552 51.1961 64.8552 50.7961 65.2552 50.6961C65.6552 50.5961 65.5552 49.9962 65.2552 49.9962H60.6552C59.0552 49.9962 57.3552 50.1962 55.8552 49.9962L56.1552 50.4962C57.1552 46.3962 58.2552 42.3961 59.3552 38.2961L58.9551 38.5961C60.7551 38.3961 62.5552 38.1962 64.3552 37.9962C64.9552 37.9962 65.6552 37.9961 66.1552 37.7961C66.5552 37.6961 66.9552 37.3961 67.3552 37.1961C67.7552 36.9961 67.5552 36.4962 67.1552 36.4962C64.4552 36.7962 61.7552 37.0961 59.0552 37.3961L59.4551 37.8961C60.6551 33.7961 61.8552 29.6961 63.1552 25.6961L62.7552 25.9962C64.7552 25.9962 66.8552 26.1961 68.8552 26.2961C69.5552 26.2961 70.6552 26.5961 71.2552 26.2961C71.6552 26.2961 71.9552 25.7961 72.3552 25.6961C72.7552 25.5961 72.6552 24.9962 72.3552 24.9962C70.5552 24.9962 68.7552 24.7961 67.0552 24.7961C66.2552 24.7961 65.3551 24.7961 64.4551 24.6961C64.0551 24.6961 63.3551 24.4961 62.9551 24.6961L63.4551 25.1961C64.8551 21.0961 66.2552 16.9962 68.0552 12.9962L67.6552 13.1961C69.6552 13.8961 71.6552 14.4961 73.7552 15.1961C74.2552 15.3961 75.1552 15.7961 75.6552 15.7961C76.0552 15.7961 76.3552 15.2961 76.7552 15.1961C77.0552 15.0961 77.1552 14.5962 76.7552 14.4962L71.6552 12.8961C70.8552 12.6961 70.0552 12.3961 69.3552 12.1961C69.0552 12.0961 68.4552 11.7961 68.0552 11.8961L68.4551 12.3961C69.5551 10.2961 70.6552 8.09612 72.3552 6.39612C72.6552 6.09612 72.3551 5.59614 71.9551 5.79614C71.4551 6.09614 70.9552 6.29614 70.5552 6.79614C70.0552 7.29614 69.6552 7.79614 69.2552 8.29614C68.7552 8.89614 68.3551 9.59614 67.9551 10.2961C67.7551 10.6961 67.5552 11.0961 67.3552 11.3961C67.3552 11.4961 66.9552 12.3961 67.0552 12.3961C66.6552 12.3961 66.7552 12.9961 67.0552 13.0961C67.0552 12.8961 66.8552 12.6961 66.8552 12.5961C66.2552 13.7961 65.7552 15.0961 65.1552 16.2961H65.8552C63.8552 13.1961 61.8552 10.0961 59.8552 7.09613C59.8552 6.99613 59.5551 6.89612 59.4551 6.89612C59.0551 7.09612 58.7552 7.29615 58.3552 7.49615C58.1552 7.49615 58.1552 7.79615 58.2552 7.99615C60.4552 11.2962 62.5552 14.5961 64.7552 17.8961C64.7552 17.9961 65.0552 18.0961 65.1552 18.0961C64.9552 17.8961 64.8552 17.7961 64.6552 17.5961C64.1552 18.8961 63.6552 20.2961 63.1552 21.6961C62.9552 22.2961 62.7552 22.8962 62.5552 23.4962C62.5552 23.5962 61.9552 25.4962 62.0552 25.4962C61.6552 25.5962 61.7552 26.1961 62.0552 26.1961C61.9552 25.9961 61.8552 25.8961 61.6552 25.6961L61.2552 26.9962L61.8552 26.7961C59.5552 23.9961 57.2552 21.1961 55.0552 18.2961C55.0552 18.2961 54.8552 18.1961 54.6552 18.2961C54.2552 18.2961 53.9552 18.7961 53.6552 18.8961C53.3552 18.8961 53.3551 19.2962 53.4551 19.4962C55.9551 22.5962 58.3552 25.5961 60.8552 28.6961C60.8552 28.7961 61.0552 28.7961 61.2552 28.6961C61.0552 28.4961 60.9552 28.3961 60.7552 28.1961C60.2552 29.8961 59.6552 31.5961 59.1552 33.2961C58.9552 34.0961 58.6551 34.8961 58.4551 35.7961C58.4551 35.9961 57.8552 38.2961 57.8552 38.2961C57.4552 38.3961 57.5552 39.0962 57.8552 38.9962C57.7552 38.7962 57.6551 38.6962 57.4551 38.4962C57.3551 38.9962 57.1552 39.4962 57.0552 39.9962L57.6552 39.7961C54.9552 36.6961 52.3552 33.5962 49.6552 30.4962C49.6552 30.4962 49.4552 30.3962 49.2552 30.4962C48.8552 30.4962 48.5552 30.9961 48.2552 31.0961C47.9552 31.0961 47.9552 31.4961 48.0552 31.6961C50.8552 34.9961 53.6552 38.2961 56.5552 41.5961C56.5552 41.5961 56.7551 41.6961 56.9551 41.5961C57.0551 41.5961 57.1552 41.5961 57.2552 41.3961L56.6552 40.9962C55.8552 43.9962 55.0552 46.9961 54.2552 50.0961L54.8552 49.8961C52.8552 48.2961 50.6552 46.8961 48.5552 45.3961L47.0552 44.2961C46.6552 43.9961 46.1552 43.3961 45.6552 43.2961C45.1552 43.2961 44.9552 43.7961 44.5552 43.8961C44.1552 43.8961 44.0552 44.3961 44.3552 44.5961C46.0552 45.7961 47.7551 46.9961 49.4551 48.1961C50.9551 49.2961 52.5552 50.5962 54.1552 51.4962L53.9551 51.0961C53.4551 52.9961 53.0552 54.8961 52.5552 56.7961C52.3552 57.6961 52.1552 58.5962 51.8552 59.4962C51.7552 59.9962 51.6551 60.4962 51.4551 60.9962C51.4551 61.0962 51.2552 62.1961 51.2552 62.1961C50.8552 62.3961 51.1552 62.9961 51.5552 62.8961C51.3552 62.6961 51.2552 62.5961 51.0552 62.3961C50.8552 63.2961 50.6551 64.1962 50.4551 64.9962L51.0552 64.7961C48.7552 62.8961 46.4552 60.9961 44.0552 59.0961C43.5552 58.6961 43.0552 58.2961 42.5552 57.8961C42.2552 57.6961 41.9552 57.1961 41.6552 57.1961C41.1552 57.1961 40.8551 57.6961 40.4551 57.7961C40.1551 57.7961 40.0552 58.2961 40.2552 58.3961C42.2552 59.9961 44.1552 61.5961 46.1552 63.2961C47.0552 64.0961 47.9551 64.7961 48.9551 65.5961C49.2551 65.8961 49.9551 66.6961 50.4551 66.6961L50.0552 66.1961C49.5552 68.1961 49.1552 70.1961 48.6552 72.1961L49.2552 71.9962C47.4552 70.8962 45.5552 69.7961 43.7552 68.6961C43.3552 68.4961 42.6552 67.7961 42.1552 67.8961C41.7552 67.8961 41.5552 68.4962 41.2552 68.4962C40.8552 68.4962 40.7552 68.9961 41.0552 69.1961C42.5552 70.0961 44.1552 70.9962 45.6552 71.9962C46.3552 72.3962 47.0552 72.7961 47.7552 73.2961C48.0552 73.4961 48.4552 73.7961 48.8552 73.7961L48.4551 73.2961C47.5551 77.2961 46.6552 81.2961 45.7552 85.3961H46.4551C45.6551 83.5961 44.3551 82.1961 42.9551 80.8961C42.6551 80.5961 41.9551 79.7961 41.4551 79.7961C40.9551 79.7961 40.8551 80.2961 40.4551 80.3961C40.0551 80.3961 39.9552 80.8961 40.2552 81.0961C42.1552 82.5961 44.0551 84.3961 44.9551 86.6961C45.3551 87.5961 45.1551 87.8961 44.9551 88.8961C44.7551 90.1961 44.4552 91.4961 44.2552 92.7961C43.4552 97.8961 43.0552 102.996 42.6552 108.096C42.0552 118.496 41.9552 128.996 42.1552 139.396C42.1552 145.396 42.4552 151.296 42.6552 157.196L43.3552 156.996C41.0552 151.796 38.8552 146.596 36.7552 141.296C34.8552 136.596 33.2552 131.596 31.0552 126.996C28.9552 122.596 26.1552 118.696 23.1552 114.796C19.9552 110.696 16.5552 106.696 13.0552 102.796C9.35524 98.5961 5.55521 94.5961 1.65521 90.5961C1.55521 90.4961 1.35519 90.4961 1.25519 90.5961C0.755187 90.7961 0.255236 90.9962 0.0552358 91.4962C-0.144764 91.9962 0.255163 93.4962 0.355163 93.9962C0.455163 94.9962 0.655163 95.9961 0.855163 96.8961C1.55516 100.596 2.55519 104.196 3.75519 107.696C4.85519 110.996 6.25524 114.296 8.05524 117.296C9.85524 120.296 12.1552 122.596 14.1552 125.296C18.6552 130.996 22.6552 137.096 25.7552 143.596C27.2552 146.796 28.6551 150.096 29.4551 153.596C30.2551 157.096 29.9552 160.596 31.2552 163.996C32.5552 167.396 34.6551 170.396 36.9551 173.096C38.1551 174.596 39.5551 175.896 40.9551 177.196C41.5551 177.796 42.2551 178.396 42.9551 178.896C43.2551 179.096 43.7552 179.796 44.1552 179.796L43.7552 179.396C43.9552 183.496 44.2552 187.596 44.5552 191.696C44.6552 193.696 44.8551 195.796 44.9551 197.796C44.9551 198.796 45.1552 199.796 45.1552 200.796C45.1552 201.296 45.1552 201.796 45.2552 202.296C45.2552 202.596 45.5551 203.696 45.4551 203.896C45.1551 204.296 45.7552 204.596 46.0552 204.396C45.8552 204.396 45.6551 204.196 45.4551 204.096C45.6551 206.596 45.8552 209.096 46.0552 211.596C46.0552 212.796 46.2552 213.896 46.3552 215.096C46.3552 215.796 46.4552 216.396 46.5552 217.096C46.5552 217.496 46.8552 218.596 46.7552 218.996C46.5552 219.396 47.1552 219.596 47.3552 219.396C47.1552 219.396 46.9552 219.196 46.7552 219.096C46.9552 221.996 47.2552 224.896 47.5552 227.796C47.6552 229.196 47.7551 230.496 47.9551 231.896C47.9551 232.696 48.0552 233.396 48.1552 234.196C48.1552 234.396 48.3551 235.996 48.4551 235.896C48.1551 236.196 48.4552 236.696 48.8552 236.496C48.6552 236.396 48.4552 236.296 48.2552 236.196C49.1552 245.496 50.0552 254.696 51.0552 263.996C51.0552 264.396 51.5552 264.496 51.7552 264.196C51.9552 263.896 52.5552 263.996 52.8552 263.596C53.0552 263.296 52.8552 262.596 52.8552 262.296C52.8552 261.596 52.6552 260.896 52.6552 260.096C52.3552 257.296 52.0552 254.396 51.7552 251.596C51.4552 248.596 51.1552 245.696 50.8552 242.696C50.7552 241.396 50.5551 240.096 50.4551 238.696C50.4551 238.096 50.3552 237.396 50.2552 236.796C50.2552 235.796 50.4552 235.596 51.1552 234.896C54.8552 231.696 57.6551 227.396 59.9551 223.096C62.4551 218.396 64.4552 213.396 66.1552 208.396C69.8552 197.696 72.2552 186.596 74.3552 175.496C75.4552 169.796 76.2552 164.196 77.2552 158.496C78.2552 152.796 80.4551 148.196 83.4551 143.596C89.7551 133.796 98.2552 125.096 107.255 117.796C107.455 117.596 107.255 117.296 107.055 117.196C107.055 117.396 107.055 117.696 107.055 117.896C107.455 117.696 107.055 116.996 106.655 117.196C106.355 117.396 106.455 117.796 106.655 117.896C106.655 117.696 106.555 117.496 106.455 117.296C98.5551 123.696 91.2552 131.096 85.2552 139.296C82.1552 143.396 79.4552 147.896 77.6552 152.696C76.6552 155.296 76.2552 157.996 75.8552 160.796C75.4552 163.596 74.9551 166.496 74.4551 169.296C72.5551 180.496 70.2551 191.696 66.9551 202.596C65.3551 208.096 63.4552 213.496 61.0552 218.696C58.8552 223.496 56.2552 228.296 52.6552 232.196C51.7552 233.196 50.7552 234.196 49.6552 234.996C49.3552 235.196 49.1552 235.296 49.0552 235.696C48.8552 236.296 49.2552 237.496 49.2552 238.096C49.5552 241.296 49.8552 244.396 50.1552 247.596C50.4552 250.796 50.8552 254.196 51.1552 257.496C51.3552 258.996 51.4552 260.496 51.6552 262.096C51.6552 262.396 51.8552 262.796 51.7552 263.096C51.6552 263.596 51.7552 263.296 51.3552 263.596C51.1552 263.796 50.9552 263.796 50.8552 263.996L51.5552 264.196C50.4552 254.996 49.5552 245.696 48.7552 236.396C48.7552 236.096 48.4552 235.896 48.1552 236.096C48.3552 236.296 48.4552 236.496 48.5552 236.696C48.9552 236.396 48.5551 234.396 48.4551 233.996C48.2551 232.396 48.1552 230.796 48.0552 229.196C47.7552 225.996 47.4552 222.696 47.2552 219.496C47.2552 219.196 46.8552 218.996 46.6552 219.196C46.8552 219.296 47.0552 219.396 47.2552 219.596C47.3552 219.296 47.2552 218.796 47.2552 218.496C47.2552 217.796 47.1552 217.196 47.0552 216.496C46.9552 215.196 46.8552 213.796 46.7552 212.496C46.5552 209.796 46.3552 207.196 46.1552 204.496C46.1552 204.196 45.7552 203.996 45.5552 204.196C45.7552 204.396 45.9552 204.496 46.1552 204.696C46.4552 204.196 46.1552 202.996 46.1552 202.496C46.1552 201.496 45.9551 200.496 45.9551 199.496C45.7551 197.296 45.6551 195.096 45.4551 192.896C45.1551 188.496 44.8552 184.196 44.6552 179.796C44.6552 179.596 44.4552 179.396 44.2552 179.396C44.0552 179.396 43.0552 178.196 42.7552 177.996C42.1552 177.496 41.5551 176.896 40.9551 176.396C39.7551 175.296 38.6552 174.096 37.6552 172.896C35.5552 170.496 33.7551 167.796 32.4551 164.896C31.7551 163.296 31.2552 161.596 31.0552 159.896C30.8552 158.296 30.8552 156.696 30.5552 155.196C29.9552 151.996 28.8552 148.896 27.5552 145.896C24.8552 139.896 21.4552 134.196 17.6552 128.896C15.7552 126.296 13.7552 123.896 11.7552 121.396C9.55519 118.696 7.75516 115.796 6.35516 112.696C4.75516 109.096 3.55524 105.196 2.55524 101.396C2.05524 99.5961 1.65516 97.6961 1.35516 95.7961C1.15516 94.6961 1.05516 93.5962 0.855163 92.4962C0.855163 91.7962 1.05521 91.6962 1.65521 91.4962H1.25519C8.35519 98.4962 15.0552 105.996 21.2552 113.796C24.4552 117.796 27.4552 121.896 29.8552 126.396C32.2552 131.096 33.8552 136.196 35.7552 141.096C38.0552 146.596 40.3552 152.196 42.7552 157.596C42.9552 157.896 43.4551 157.796 43.4551 157.396C43.0551 146.496 42.7551 135.496 42.9551 124.596C43.1551 113.696 43.3552 102.696 45.2552 91.8961C45.3552 91.1961 45.5552 90.3961 45.6552 89.6961C45.7552 89.0961 46.0552 88.2961 46.0552 87.6961C46.0552 87.1961 45.6552 86.3961 45.3552 85.8961C44.3552 83.6961 42.5552 81.9961 40.6552 80.5961L40.4551 81.2961C40.7551 81.2961 40.8552 80.9962 41.1552 80.9962C41.5552 80.7962 41.4552 80.7961 41.8552 81.1961C42.1552 81.4961 42.5552 81.7961 42.8552 82.0961C44.0552 83.1961 45.0552 84.3961 45.7552 85.8961C45.8552 86.1961 46.3551 86.0961 46.4551 85.8961C47.3551 81.8961 48.2552 77.8961 49.1552 73.7961C49.1552 73.5961 49.0552 73.2961 48.7552 73.2961C48.3552 73.2961 47.6552 72.5961 47.2552 72.2961L45.2552 71.0961L41.3552 68.6961L41.1552 69.3961C41.4552 69.3961 41.5552 69.1961 41.8552 69.0961C42.2552 68.8961 42.1552 68.8961 42.6552 69.0961C43.1552 69.2961 43.5551 69.5961 43.9551 69.8961C45.5551 70.8961 47.2552 71.8961 48.8552 72.7961C49.0552 72.8961 49.3551 72.7961 49.4551 72.5961C49.9551 70.5961 50.3552 68.5961 50.8552 66.5961C50.8552 66.3961 50.7551 66.0961 50.4551 66.0961C50.2551 66.0961 48.6551 64.5961 48.4551 64.3961C47.5551 63.6961 46.7552 62.9961 45.8552 62.2961C44.1552 60.8961 42.4552 59.4961 40.7552 58.0961L40.5552 58.6961C41.2552 58.6961 41.1552 57.8962 41.8552 58.4962C42.6552 59.1962 43.5551 59.8961 44.4551 60.6961C46.4551 62.2961 48.4551 63.9961 50.4551 65.5961C50.6551 65.7961 51.0552 65.6961 51.0552 65.3961C51.2552 64.4961 51.4552 63.5961 51.6552 62.7961C51.6552 62.4961 51.4552 62.2961 51.1552 62.2961C51.1552 62.4961 51.3551 62.7962 51.4551 62.9962C51.8551 62.7962 51.8551 61.6961 51.9551 61.3961C52.2551 60.2961 52.4552 59.2961 52.7552 58.1961C53.2552 55.9961 53.8552 53.7962 54.3552 51.4962C54.3552 51.2962 54.3552 51.1961 54.1552 51.0961C52.4552 50.1961 50.9551 48.8961 49.4551 47.7961C47.7551 46.5961 46.0552 45.3961 44.3552 44.1961L44.1552 44.8961C44.3552 44.8961 44.4552 44.8961 44.5552 44.6961C45.0552 44.4961 44.8552 44.2962 45.3552 44.4962C46.2552 44.7962 47.2551 45.7961 47.9551 46.3961C49.9551 47.7961 51.9552 49.0961 53.8552 50.5961C54.0552 50.7961 54.4551 50.6961 54.4551 50.3961C55.2551 47.3961 56.0552 44.2961 56.8552 41.2961C56.8552 40.9961 56.5552 40.6961 56.2552 40.8961C56.2552 40.8961 52.6552 36.6961 52.3552 36.2961C50.8552 34.5961 49.4551 32.8961 47.9551 31.1961L47.7552 31.7961C47.9552 31.7961 48.0552 31.5962 48.2552 31.4962C48.7552 31.2962 48.5551 31.1961 48.9551 31.6961C49.6551 32.6961 50.5552 33.4961 51.2552 34.3961C52.9552 36.3961 54.6552 38.3961 56.3552 40.2961C56.5552 40.4961 56.9551 40.2961 56.9551 40.0961C57.0551 39.5961 57.2552 39.0961 57.3552 38.5961C57.3552 38.3961 57.2551 38.0961 56.9551 38.0961C56.9551 38.2961 56.9551 38.5961 56.9551 38.8961C57.3551 38.6961 57.3552 38.2961 57.5552 37.8961C57.8552 36.7961 58.1551 35.7961 58.4551 34.6961C59.0551 32.5961 59.7552 30.4961 60.3552 28.3961C60.3552 28.0961 60.1552 27.8961 59.8552 27.8961C60.0552 27.8961 58.5552 25.8961 58.3552 25.6961C57.7552 24.8961 57.1551 24.1961 56.4551 23.3961C55.2551 21.8961 53.9552 20.2961 52.7552 18.7961L52.5552 19.3961C52.7552 19.3961 52.8552 19.1961 53.0552 19.0961C53.0552 19.0961 53.2552 18.9961 53.3552 18.8961C53.4552 18.7961 53.5552 18.8961 53.5552 19.0961C53.9552 19.2961 54.3552 20.0961 54.6552 20.3961C55.0552 20.8961 55.3552 21.2961 55.7552 21.6961C57.1552 23.4961 58.6552 25.2961 60.1552 27.0961C60.3552 27.2961 60.7552 27.0961 60.7552 26.8961L61.1552 25.5961C61.1552 25.3961 61.0552 25.0961 60.7552 25.0961C60.7552 25.2961 60.7552 25.5961 60.7552 25.7961C61.0552 25.7961 61.0552 25.2961 61.1552 25.0961C61.4552 24.2961 61.7551 23.3961 61.9551 22.5961C62.5551 20.7961 63.1552 19.0961 63.8552 17.3961C63.8552 17.0961 63.6552 16.7961 63.3552 16.8961C63.4552 16.8961 63.6552 16.9961 63.7552 17.0961C61.5552 13.7961 59.4552 10.4961 57.2552 7.19611V7.69611C57.4552 7.49611 57.7552 7.29613 58.0552 7.09613L57.6552 6.89612C59.6552 9.89612 61.6552 12.9962 63.6552 15.9962C63.8552 16.2962 64.2552 16.1962 64.3552 15.9962C64.8552 14.7962 65.3551 13.5962 65.9551 12.4962C66.0551 12.2962 65.9552 11.9962 65.7552 11.9962V12.6961C66.0552 12.6961 66.2552 11.9961 66.3552 11.7961C66.6552 11.0961 67.0551 10.3961 67.4551 9.69611C67.9551 8.89611 68.4551 8.19615 68.9551 7.49615C69.4551 6.79615 70.1552 6.49615 70.7552 5.99615L70.3552 5.39612C68.5552 7.09612 67.4552 9.29615 66.3552 11.4962C66.2552 11.7962 66.3552 12.1962 66.7552 11.9962C66.9552 11.9962 68.0552 12.4961 68.3552 12.5961L70.6552 13.2961L75.0552 14.6961V13.9962C74.7552 14.0962 74.4552 14.3962 74.0552 14.4962C73.3552 14.4962 72.3552 13.9961 71.6552 13.7961C69.8552 13.1961 68.0552 12.6961 66.3552 12.0961C66.2552 12.0961 65.9551 12.0961 65.9551 12.2961C64.1551 16.2961 62.6552 20.4961 61.2552 24.6961C61.2552 24.9961 61.4552 25.1961 61.7552 25.1961C62.2552 25.0961 63.0552 25.1961 63.5552 25.1961C64.3552 25.1961 65.2552 25.1961 66.1552 25.2961C67.7552 25.2961 69.3551 25.3962 70.9551 25.4962V24.7961C70.3551 24.9961 70.1552 25.2961 69.5552 25.3961C68.7552 25.3961 67.8552 25.3961 67.0552 25.2961C65.1552 25.2961 63.2551 25.0961 61.4551 25.0961C61.2551 25.0961 61.1552 25.1961 61.0552 25.3961C59.7552 29.3961 58.5552 33.4961 57.3552 37.5961C57.3552 37.7961 57.4552 38.0961 57.7552 38.0961C60.4552 37.7961 63.1552 37.4961 65.8552 37.1961L65.6552 36.4962C65.1552 36.6962 64.8552 36.9961 64.3552 37.0961C63.6552 37.1961 62.9552 37.2961 62.2552 37.2961C60.7552 37.4961 59.1552 37.5961 57.6552 37.7961C57.4552 37.7961 57.3552 37.7961 57.2552 38.0961C56.1552 42.0961 55.0552 46.1961 54.0552 50.2961C54.0552 50.4961 54.0552 50.6961 54.3552 50.7961C55.8552 50.9961 57.3552 50.7961 58.8552 50.7961H63.9551V50.0961C63.2551 50.2961 62.8552 50.5961 62.2552 50.6961C61.4552 50.6961 60.4552 50.6961 59.6552 50.6961C57.8552 50.6961 56.0552 50.6961 54.3552 50.6961C54.1552 50.6961 54.0551 50.7962 53.9551 50.9962C53.0551 54.4962 52.2552 57.9962 51.3552 61.4962C51.3552 61.7962 51.6551 62.0961 51.9551 61.8961C53.3551 61.1961 55.4551 61.3962 56.9551 61.4962C58.6551 61.6962 60.3552 61.9962 62.0552 62.4962V61.7961C61.2552 62.0961 61.2552 62.2961 60.3552 62.0961C59.3552 61.8961 58.3552 61.5962 57.3552 61.4962C55.4552 61.1962 53.4552 61.0962 51.5552 61.4962C51.4552 61.4962 51.3552 61.5961 51.2552 61.7961C50.9552 62.9961 50.7551 64.0961 50.4551 65.2961C50.4551 65.3961 50.4551 65.5961 50.4551 65.6961C50.4551 65.4961 50.6552 65.2961 50.7552 65.0961C50.5552 65.0961 50.4552 65.1961 50.3552 65.3961C49.7552 67.6961 49.2552 70.0961 48.7552 72.3961C48.7552 72.5961 48.7552 72.7961 49.0552 72.8961C49.3552 72.9961 49.7552 72.8961 50.1552 72.8961C50.9552 72.8961 51.8552 72.7961 52.6552 72.6961C54.3552 72.5961 56.0552 72.4961 57.7552 72.2961V71.5961C57.1552 71.7961 56.8552 72.0961 56.2552 72.1961C55.5552 72.2961 54.7551 72.2961 53.9551 72.3961C52.3551 72.4961 50.6552 72.5961 49.0552 72.7961C48.8552 72.7961 48.7552 72.8961 48.6552 73.0961C47.6552 77.5961 46.5552 82.1961 45.6552 86.6961C45.6552 86.9961 45.8552 87.1961 46.1552 87.1961C47.5552 86.7961 48.9551 86.3962 50.4551 85.9962C52.1551 85.5962 54.0552 85.0961 55.7552 85.3961V84.6961C55.0552 84.8961 54.7551 85.1961 53.9551 85.1961C53.1551 85.1961 52.2551 85.1961 51.4551 85.3961C49.5551 85.6961 47.6552 86.1961 45.8552 86.6961C45.7552 86.6961 45.6552 86.7962 45.5552 86.9962C42.7552 101.696 42.3551 116.596 42.4551 131.496C42.4551 146.696 43.1552 161.896 44.0552 177.096C44.5552 185.596 45.1552 194.196 45.7552 202.696C45.7552 202.996 46.2551 203.196 46.4551 202.896C50.0551 196.296 51.8552 188.596 53.3552 181.296C54.9552 173.496 57.2552 165.996 60.5552 158.796C66.2552 145.896 73.9552 132.596 85.6552 124.196C88.9552 121.896 92.5551 119.896 96.4551 118.796C98.5551 118.196 100.755 117.896 102.955 117.796C103.755 117.796 104.555 117.796 105.355 117.796C105.555 117.796 106.155 117.996 106.355 117.796C106.755 117.596 106.555 116.896 106.155 117.096H106.055L107.355 116.396Z" fill="#346E3C" fill-opacity="0.32"/>
<path d="M6.35489 96.6962C12.9549 103.696 19.455 110.896 25.055 118.796C27.855 122.796 30.0549 126.996 31.8549 131.596C33.6549 136.196 35.4549 140.696 37.2549 145.196C39.2549 149.996 41.3549 154.896 43.4549 159.696C43.5549 159.896 43.855 159.896 44.055 159.696C43.855 159.696 43.6549 159.496 43.4549 159.396C43.4549 161.496 43.6549 163.496 43.7549 165.596L44.4549 165.396C41.8549 160.396 39.3549 155.396 36.9549 150.296C34.5549 145.196 32.7549 140.296 30.2549 135.496C25.3549 125.996 19.2549 116.896 12.8549 108.296C9.25489 103.496 6.45486 98.1962 3.95486 92.7962L3.35489 93.2962C4.45489 94.3962 5.45496 95.4962 6.55496 96.5962C6.85496 96.8962 7.45496 96.3962 7.05496 96.0962C5.95496 94.9962 4.95489 93.8962 3.85489 92.7962C3.55489 92.4962 3.05491 92.7962 3.25491 93.2962C5.45491 98.0962 7.95486 102.796 10.9549 107.096C13.9549 111.396 17.3549 115.896 20.3549 120.496C23.3549 125.096 26.1549 129.496 28.6549 134.296C31.1549 139.096 33.0549 143.996 35.3549 148.796C38.0549 154.496 40.8549 160.196 43.7549 165.796C43.9549 166.096 44.4549 165.996 44.4549 165.596C44.4549 163.596 44.2549 161.496 44.1549 159.396C44.1549 159.096 43.755 158.896 43.555 159.096C43.755 159.096 43.9549 159.096 44.1549 159.096C40.1549 149.996 36.2549 140.896 32.7549 131.596C31.0549 127.196 29.155 123.196 26.555 119.296C23.955 115.396 21.055 111.896 18.055 108.296C14.455 103.996 10.7549 99.8962 6.95486 95.8962C6.65486 95.5962 6.05486 96.0962 6.45486 96.3962L6.35489 96.6962Z" fill="#346E3C" fill-opacity="0.32"/>
<path d="M36.1547 167.096C34.6547 164.796 33.4546 162.396 32.8546 159.796C32.2546 157.196 32.4546 154.696 31.8546 152.196C30.7546 147.196 28.5547 142.496 26.1547 138.096C23.6547 133.396 20.6546 128.996 17.4546 124.796C14.2546 120.596 10.7546 116.796 8.45459 111.996C5.75459 106.396 4.05469 100.296 3.05469 94.1962L2.35461 94.4962C4.75461 99.3962 7.25469 104.296 10.5547 108.696C13.8547 113.096 16.9546 117.696 19.9546 122.296C22.9546 126.896 25.9547 131.796 28.5547 136.796C31.1547 141.796 32.9546 146.896 35.3546 151.796C38.0546 157.496 40.8546 163.096 43.7546 168.596C43.7546 168.796 44.0546 168.796 44.2546 168.696L43.6547 168.296C43.8547 171.196 43.9547 174.196 44.1547 177.096L44.7546 176.796C41.4546 173.896 38.4547 170.696 36.0547 166.996C35.7547 166.596 35.1546 166.996 35.3546 167.396C37.8546 171.096 40.7547 174.496 44.1547 177.396C44.3547 177.596 44.8546 177.396 44.7546 177.096C44.5546 174.196 44.4546 171.296 44.2546 168.296C44.2546 167.996 43.9547 167.796 43.6547 167.996L44.1547 168.196C41.5547 163.296 39.0547 158.296 36.6547 153.296C34.2547 148.296 32.2546 143.196 29.8546 138.196C27.4546 133.196 24.4546 128.296 21.4546 123.596C18.4546 118.896 15.4547 114.296 12.1547 109.796C8.45466 104.796 5.35464 99.4962 2.75464 93.8962C2.55464 93.4962 2.05469 93.8962 2.05469 94.1962C2.85469 99.5962 4.45469 104.996 6.55469 109.996C7.55469 112.296 8.65469 114.596 10.0547 116.696C11.4547 118.796 13.1546 120.796 14.7546 122.796C18.1546 126.996 21.2546 131.496 23.9546 136.096C26.6546 140.696 29.1546 145.696 30.4546 150.896C30.8546 152.396 31.1546 153.996 31.3546 155.596C31.4546 156.896 31.4546 158.296 31.7546 159.596C32.3546 162.396 33.6547 164.896 35.1547 167.296C35.4547 167.696 36.0546 167.296 35.8546 166.896L36.1547 167.096Z" fill="#346E3C" fill-opacity="0.32"/>
<path d="M49.5547 199.796C52.6547 193.296 54.1547 186.296 55.6547 179.296C57.1547 171.996 59.4547 164.896 62.3547 158.096C65.1547 151.596 68.4547 145.396 72.3547 139.496C75.9547 134.096 80.0547 128.896 85.1547 124.696C91.0547 119.796 98.2547 116.896 106.055 117.496V116.796C92.2547 121.596 82.3547 133.596 75.0547 145.596C71.0547 152.196 67.6547 159.096 64.7547 166.296C63.2547 170.096 61.8547 173.896 60.6547 177.796C59.4547 181.696 58.5547 185.796 57.3547 189.696C54.8547 198.596 51.6547 207.396 48.2547 215.996H48.9546C48.7546 213.296 48.4547 210.496 48.2547 207.696C48.1547 206.296 47.8546 204.896 47.9546 203.496C47.9546 202.296 49.1547 200.896 49.6547 199.696C49.8547 199.296 49.2546 198.896 48.9546 199.296C48.6546 199.896 48.3547 200.496 48.0547 201.096C47.8547 201.596 47.2547 202.096 47.1547 202.596C47.0547 203.096 47.1547 203.896 47.2547 204.396C47.2547 205.196 47.3546 205.996 47.4546 206.896C47.6546 209.996 47.9547 212.996 48.1547 216.096C48.1547 216.496 48.7547 216.596 48.8547 216.096C51.7547 208.596 54.5546 200.996 56.9546 193.296C59.3546 185.596 60.9547 178.096 63.7547 170.696C68.9547 156.596 76.2546 142.396 86.4546 131.196C91.9546 125.196 98.4547 120.096 106.155 117.396C106.555 117.296 106.455 116.696 106.155 116.696C99.5547 116.196 93.2547 118.096 87.8547 121.796C82.4547 125.496 78.0547 130.396 74.2547 135.596C65.8547 147.096 59.4547 160.796 56.0547 174.596C54.0547 182.896 52.7547 191.396 49.0547 199.296C48.8547 199.696 49.4547 200.096 49.7547 199.696L49.5547 199.796Z" fill="#346E3C" fill-opacity="0.32"/>
<path d="M105.055 117.996C98.4553 123.496 92.3552 129.696 86.9552 136.296C81.5552 142.896 77.1552 149.896 75.8552 158.096C72.8552 175.896 69.8552 193.796 63.7552 210.796C60.6552 219.296 56.7552 228.296 49.7552 234.296L50.3552 234.596C49.9552 229.896 49.4553 225.296 49.0553 220.596C48.9553 219.396 48.7553 218.296 49.1553 217.096C49.5553 215.896 50.0552 214.796 50.4552 213.696C51.2552 211.596 52.0552 209.396 52.8552 207.296C55.9552 198.696 58.6552 190.096 60.9552 181.296C63.2552 172.496 66.6552 163.896 70.7552 155.796C74.5552 148.096 79.0553 140.696 84.5553 133.996C87.3553 130.596 90.4552 127.296 93.8552 124.496C95.6552 123.096 97.4552 121.796 99.4552 120.696C100.455 120.196 101.355 119.696 102.455 119.196C103.055 118.896 103.755 118.696 104.355 118.396C104.555 118.396 104.755 118.196 105.055 118.196C105.055 118.196 106.155 117.796 106.055 117.696V117.196C105.755 117.496 105.255 117.696 104.955 117.996C104.555 118.296 104.955 118.896 105.355 118.696C105.755 118.496 106.355 118.096 106.555 117.696C106.555 117.496 106.555 117.296 106.455 117.196C106.055 116.996 105.255 117.396 104.855 117.596C103.855 117.896 102.855 118.296 101.955 118.796C100.055 119.596 98.2553 120.696 96.5553 121.796C93.2553 123.996 90.2553 126.696 87.5553 129.596C81.6553 135.896 76.8552 143.096 72.7552 150.596C68.3552 158.696 64.6552 167.196 61.8552 175.996C60.4552 180.496 59.3553 185.196 58.0553 189.796C56.7553 194.396 55.2553 198.796 53.6553 203.296C52.7553 205.896 51.7552 208.496 50.8552 211.096C50.3552 212.296 49.9552 213.496 49.4552 214.796C49.0552 215.896 48.2553 217.196 48.1553 218.296C48.1553 219.596 48.3552 220.996 48.4552 222.196C48.5552 223.596 48.6552 224.996 48.8552 226.396C49.0552 229.196 49.3553 231.996 49.6553 234.796C49.6553 235.096 50.0552 235.296 50.2552 235.096C56.1552 229.996 59.8553 222.896 62.6553 215.796C65.9553 207.696 68.3552 199.196 70.4552 190.696C72.5552 182.196 74.1553 172.896 75.6553 163.896C76.3553 159.496 76.9552 155.096 78.7552 150.896C80.4552 147.096 82.6553 143.496 85.1553 140.096C90.9553 132.196 98.0552 125.096 105.455 118.796C105.855 118.496 105.255 117.996 104.955 118.296L105.055 117.996Z" fill="#346E3C" fill-opacity="0.32"/>
</svg>
