<svg xmlns="http://www.w3.org/2000/svg" width="264" height="142" fill="none" viewBox="0 0 264 142"><path fill="#346e3c" fill-opacity=".55" d="M.69 58.755c-.5-.2-.7.5-.2.7s.7-.5.2-.7-.7.5-.2.7.7-.5.2-.7"/><path fill="#346e3c" fill-opacity=".55" d="M19.49 67.055c3.7-.2 7.4-.5 11-.9 3.9-.5 7.7-1.1 11.5-2.1 3.7-.9 7.3-2.1 10.8-3.7 3.2-1.5 6.3-3.3 8.9-5.7 2.5-2.2 4.5-5 5.7-8 1.4-3.4 1.7-7.2 1.4-10.9-.5-4.9-2.1-9.6-4.2-14.1-.6-1.3-1.2-2.6-1.9-3.9 0-.2-.2-.3-.3-.5s-.2-.4-.3-.5c.6 1.6.9 3.3 1.1 4.9.5 3.8.3 7.8-.7 11.5-1.5 5.2-4.6 9.7-8.7 13.2-6.5 5.4-14.8 8.3-22.9 10-6.1 1.3-12.4 2-18.6 2.3-1.8 0-3.7.2-5.5.2h-5.1c-.2 0-.7-.1-.9 0h-.1v7.8c.8 0 2.1.2 2.9.2 2.2.1 4.3.2 6.5.2 3.1 0 6.3 0 9.4-.1zm42.6-49.8s0-.2-.1-.3c0 0 0 .2.1.3m-61 44.4v-1.2c0-.4-.1-.4.3-.5h6.1c6.7-.1 13.3-.6 19.9-1.7 8.7-1.5 17.7-4 25-9.3 4.5-3.3 8.2-7.7 10.1-13 1.3-3.8 1.8-7.9 1.4-12-.2-1.9-.5-3.9-1.2-5.7 2.2 4.3 4 8.9 5 13.6.7 3.8.8 7.8-.2 11.5-.9 3.2-2.6 6.2-4.8 8.6-2.3 2.5-5.2 4.5-8.2 6.1-3.3 1.8-6.8 3.1-10.4 4.1q-5.7 1.65-11.4 2.4c-3.7.6-7.5.9-11.2 1.1q-4.95.3-9.9.3c-3.3 0-4.9 0-7.3-.2-1 0-2.1-.2-3.1-.2v-4.2z"/><path fill="#346e3c" fill-opacity=".55" d="M19.49 67.455c11.8-.5 24.4-2 35.1-7.5 4.7-2.4 9-5.7 11.7-10.3s3.4-10.4 2.5-15.8c-1-6.2-3.7-11.6-6.5-17.2-.2-.4-.8-.1-.7.3 2.3 6.5 1.8 14.4-1.3 20.6-2.9 5.7-7.9 10-13.5 13s-12.2 4.8-18.6 6c-7.1 1.3-14.4 1.9-21.6 2-1.8 0-3.5.1-5.3 0-.7 0-1.1 0-1.2.7-.2 1.6 0 3.5 0 5.1 0 .8-.2 1.9.1 2.6 0 .1.2.2.3.2 6.3.5 12.6.5 18.8.3.5 0 .5-.8 0-.8q-6.45.3-12.9 0c-1 0-2 0-3-.1-.7 0-1.8.1-2.4-.2-.3-.1-.1 0-.2-.4v-6.7h6.6c4.2-.1 8.5-.3 12.7-.8 14-1.5 30.8-5.2 39.2-17.7 4.7-6.9 5.9-16.2 3.1-24.1l-.7.3c2.3 4.7 4.7 9.2 5.9 14.3 1.3 5.6 1.3 11.6-1.3 16.8-5 9.8-16.8 14-26.9 16.1-6.5 1.4-13.2 2.1-19.8 2.4-.5 0-.5.8 0 .8z"/><path fill="#346e3c" fill-opacity=".55" d="M62.49 17.055s0-.2-.1-.2l-.7.3s0 .2.1.3v.1c0 .1 0 0 .1 0h.3s.2-.1.2-.2v-.3s0-.2-.1-.3v-.1c0-.1 0 0-.1 0h-.2v.7c0 .1 0 0 .1 0h.3s.2-.1.2-.2v-.3zM1.49 61.655c0-.2-.1-1 0-1.2.2-.4-.4 0 .3-.1.6-.1 1.3 0 2 0h5.2c3.2 0 6.5-.3 9.8-.6 6-.6 12.1-1.5 18-3.1 10.4-2.9 21.1-8.6 25.6-19 2.5-5.9 3-13.4.8-19.4l-.7.3c2.9 5.7 5.3 12 5.4 18.5s-2.5 12.4-7.3 16.6-11 6.8-17.1 8.5c-6.6 1.8-13.4 2.8-20.1 3.3-3.8.3-7.5.4-11.3.4s-7.2-.3-10.9-.4l.4.4v-4.1c0-.5-.8-.5-.8 0v4.1c0 .2.2.4.4.4 3.5 0 6.9.4 10.4.4s7.2-.1 10.8-.4c7-.5 14.1-1.4 20.8-3.3 6.1-1.7 12.3-4.1 17.2-8.2 4.7-3.9 7.6-9.3 8.1-15.4.6-7.4-2.2-14.7-5.5-21.2-.2-.4-.8-.1-.7.3 2.1 5.8 1.7 12.9-.6 18.6-2.2 5.3-6.2 9.5-10.9 12.7-10 6.6-22.7 8.7-34.5 9.6-3.6.3-7.2.4-10.8.4h-2.5c-.5 0-1.2-.2-1.7 0-.9.3-.5 1.2-.5 2s.8.5.8 0z"/><path fill="#346e3c" fill-opacity=".55" d="M29.725 60.894c13.69 5.288 27.225 11.665 39.232 20.247 8.076 5.699 15.487 12.515 21.089 20.688 3.946 5.614 6.902 11.794 8.26 18.554a45.5 45.5 0 0 1 .71 13.435c-.199 1.386-.396 2.772-.68 4.044-.084.594-.48 1.245-.565 1.839-.014.099.552 1.089.453 1.075l1.358-1.019a21.6 21.6 0 0 0 3.139-2.885c1.414-1.414 2.644-2.956 3.789-4.611 1.287-1.937 2.39-4.002 3.21-6.209a26 26 0 0 0 1.413-7.778c.028-3.026-.538-6.138-1.542-9.008-1.288-3.72-3.126-7.113-5.389-10.366-2.943-4.157-6.563-7.806-10.424-11.185-5.205-4.582-11.004-8.54-16.958-12.118-7.892-4.864-16.18-9.077-24.623-12.91-2.362-1.144-4.837-2.205-7.213-3.251.297.042.156 1.032.453 1.075 8.938 3.902 17.636 8.073 26.15 12.824 6.45 3.648 12.658 7.564 18.47 12.132 4.371 3.35 8.388 7.056 12.037 11.213 2.687 3.111 5.021 6.576 6.606 10.337 0 0 .07.212.155.325l.212.637c.142.424.283.848.439 1.174.198.735.481 1.583.58 2.305a33 33 0 0 1 .594 4.327 20.45 20.45 0 0 1-1.102 7.722c-.721 2.22-1.64 4.412-2.926 6.35-1.061 1.768-2.291 3.31-3.62 4.837-1.075 1.16-2.136 2.221-3.281 3.168l-1.81 1.358.453 1.075c.07-.495.325-.863.395-1.358.382-1.259.552-2.447.736-3.733.268-1.881.353-3.89.324-5.813a46 46 0 0 0-.75-7.481c-.58-3.012-1.387-5.855-2.391-8.725-1.33-3.423-2.787-6.661-4.668-9.758-2.193-3.747-4.838-7.155-7.709-10.394-3.48-3.93-7.425-7.423-11.513-10.633-4.992-3.945-10.452-7.452-15.953-10.662-6.817-3.902-13.917-7.239-21.172-10.194-2.008-.791-4.101-1.696-6.124-2.39.297.043.156 1.033.453 1.076z"/><path fill="#346e3c" fill-opacity=".55" d="M29.57 61.276c14.552 5.613 28.836 12.4 41.325 21.86 11.583 8.724 22.177 20.136 26.21 34.348 1.188 4.412 1.839 9.051 1.599 13.562-.127 2.305-.353 4.596-.975 6.831-.085.594-.608 1.428-.594 2.036-.057.396.396.764.438 1.174-.042.297.354.354.566.283 6.067-4.286 10.973-11.06 12.415-18.33s-.751-14.552-4.5-20.845c-3.904-6.618-9.674-12.19-15.756-16.997-6.081-4.807-13.026-9.233-20.04-13.164-8.33-4.624-16.845-8.667-25.585-12.541-.297-.043-.75.297-.481.537.438.467.17.934.82 1.33 1.217.678 2.66 1.187 3.989 1.781 2.56 1.173 5.12 2.347 7.665 3.62 5.007 2.431 10 4.962 14.864 7.677 9.434 5.387 18.768 11.467 26.35 19.216 4.143 4.228 7.722 8.881 10.084 14.269.241.438.891.127.75-.297l.014-.099c-.241-.439-.891-.128-.75.297 2.193 5.868 2.378 12.36.031 18.186-2.178 5.346-6.109 10.24-10.818 13.507-.113.085-.14.283-.07.495l.453 1.075c.155.325.565.283.692.099 2.404-6.93 1.851-15.09.026-22.118-1.825-7.029-5.276-13.986-9.59-19.855-9.053-12.302-21.796-21.394-35.104-28.648-7.878-4.256-16.052-7.847-24.382-11.056-.297-.043-.75.297-.481.537.268.24.184.834.452 1.075.354.353.92-.07.566-.424-.269-.24-.184-.835-.453-1.075l-.48.537c14.17 5.458 27.988 11.976 40.236 20.997 11.895 8.668 22.12 19.825 27.086 33.867 2.9 7.99 4.146 17.663 1.36 25.852l.694.099-.439-1.174-.07.495c4.836-3.451 9.021-8.712 11.227-14.256 2.262-5.94 2.077-12.432-.101-18.399l-.75.297-.014.099.75-.297c-4.216-9.39-11.754-16.73-19.873-22.838-8.84-6.716-18.456-12.23-28.37-17.08-2.928-1.428-5.856-2.856-8.797-4.185-1.429-.608-2.843-1.315-4.173-1.909-.664-.297-1.74-.551-2.262-1.131-.255-.34-.213-.636-.566-.99l-.481.537C58.73 66.45 73.17 73.561 85.985 82.865c6.039 4.398 11.88 9.474 16.477 15.484s7.921 13.151 7.667 20.59c-.324 8.641-5.641 16.872-12.612 21.837l.566.283c.056-.396-.312-.651-.368-.962-.127-.523.41-1.457.48-1.952q.722-2.927.848-5.939c.268-4.003-.071-7.991-.92-11.95-1.514-7.085-4.81-13.718-9.025-19.572-8.94-12.388-21.682-21.48-34.991-28.733-7.962-4.369-16.236-7.974-24.764-11.212-.48-.17-.778.495-.297.665z"/><path fill="#346e3c" fill-opacity=".55" d="M50.973 57.57q12.268.987 24.712.485 10.62-.414 21.118-2.353c6.07-1.1 11.988-2.62 17.841-4.45a104.5 104.5 0 0 0 14.703-6.027c4.165-2.028 8.155-4.278 11.992-6.949 3.272-2.133 6.379-4.587 9.299-7.164 2.465-2.127 4.755-4.476 6.945-6.837 1.723-1.811 3.271-3.845 4.719-5.89.97-1.396 1.939-2.793 2.821-4.3.38-.66.858-1.309 1.139-1.98l-.48-1.064c.041.508.082 1.017.012 1.612-.063 1.403-.139 2.904-.501 4.271-.257 2.185-.899 4.224-1.553 6.363-.91 2.611-2.119 5.188-3.515 7.642-1.752 2.915-3.79 5.697-6.202 8.233a57.3 57.3 0 0 1-9.515 8.145c-4.27 2.922-8.879 5.301-13.651 7.359-6.035 2.513-12.297 4.396-18.612 5.87-7.974 1.882-16.065 3.047-24.197 3.703-10.177.92-20.371 1.132-30.606.836-2.816-.029-5.62-.156-8.425-.284.199.023.281 1.04.48 1.063 10.708.552 21.475.609 32.225-.042 8.616-.499 17.192-1.506 25.739-3.12 6.8-1.316 13.448-3.053 19.868-5.42a89 89 0 0 0 14.72-7.031 59 59 0 0 0 10.508-8.03c2.611-2.512 4.947-5.258 6.909-8.25 1.595-2.43 3.014-5.083 4.036-7.783a41.6 41.6 0 0 0 1.996-6.713c.286-1.577.584-3.254.571-4.866.082-.695.187-1.59-.029-2.32l.011-.099c.024-.198-.602-.876-.479-1.063l-.771 1.42c-.759 1.32-1.506 2.542-2.353 3.751-1.338 1.957-2.751 3.704-4.275 5.54a100 100 0 0 1-6.314 6.608c-2.722 2.6-5.718 4.967-8.692 7.135-3.528 2.607-7.319 4.88-11.197 7.042a118 118 0 0 1-14.031 6.307c-5.579 2.063-11.199 3.619-16.982 4.853-6.713 1.427-13.477 2.445-20.383 2.943-7.921.58-15.785.663-23.7.338-2.098-.146-4.306-.204-6.404-.35.199.024.28 1.04.48 1.064z"/><path fill="#346e3c" fill-opacity=".55" d="M50.926 57.967c17.97 1.304 36.163.722 53.682-3.564s32.859-11.446 45.972-22.794a81.7 81.7 0 0 0 9.97-10.308c1.536-1.934 3.084-3.967 4.334-6.036.49-.748.992-1.595 1.384-2.355.403-.858.128-1.092-.164-2.033-.152-.42-.783-.192-.731.217.259 4.662-.909 9.458-2.625 13.788-1.717 4.329-3.983 8.191-6.909 11.674-5.642 6.889-13.206 12.142-21.215 16.035-16.537 7.925-35.307 10.856-53.446 11.848-10.75.65-21.405.507-32.225.042-.397-.047-.555.438-.28.672.274.234.105.818.479 1.063.187.123.695.082.894.105.695.082 1.501.076 2.208.058 2.606.105 5.211.21 7.829.214 5.123.099 10.159.086 15.218-.126 10.305-.3 20.482-1.22 30.676-3.144 18.419-3.375 38.141-10.12 50.546-24.875 3.504-4.12 6.272-8.829 7.983-13.964.899-2.512 1.5-5.06 1.815-7.741.152-1.291.303-2.582.245-3.798.035-.297.081-.695-.082-1.016-.065-.31-.427-.654-.392-.952.047-.398-.538-.567-.684-.181-1.833 3.61-4.339 6.941-6.92 10.061-2.582 3.12-5.66 6.183-8.814 9.034-6.285 5.505-13.37 10.11-20.859 13.862-15.176 7.481-31.93 11.253-48.69 12.507-9.856.756-19.706.606-29.485-.14-.398-.046-.555.439-.28.673.274.233.105.817.479 1.063.362.344.84-.304.467-.55-.275-.233-.205-.83-.48-1.063l-.28.672c17.562 1.358 35.357.729 52.543-3.295 17.186-4.023 32.071-10.733 45.102-21.386 3.574-3.003 6.974-6.229 9.999-9.7s5.876-7.163 7.966-11.248l-.695-.081c-.047.397.327.642.468 1.162.292.94.006 2.518-.11 3.511a47.4 47.4 0 0 1-1.471 7.38c-1.454 4.661-3.667 8.933-6.54 12.824-5.613 7.496-13.323 13.136-21.665 17.291-17.214 8.551-36.977 11.366-56.022 12.351-5.679.34-11.322.383-16.954.325-2.816-.028-5.532-.045-8.336-.173a768 768 0 0 0-4.108-.18c-.198-.023-.706.017-.794-.093 0 0 .035-.298-.152-.421-.175-.222-.152-.42-.339-.543l-.28.672c19.43.872 39.1.563 58.262-3.127 17.514-3.38 35.996-9.87 48.186-23.642 3.259-3.745 5.969-7.958 7.919-12.562s3.164-9.798 2.941-14.758l-.73.216c.076.21.426.655.391.952-.046.398-.525 1.046-.77 1.42-.514.947-1.116 1.782-1.717 2.618-1.215 1.77-2.418 3.441-3.82 5.09a77 77 0 0 1-8.825 9.132 93.6 93.6 0 0 1-20.883 14.061c-15.298 7.668-32.274 11.615-49.333 12.834-9.855.756-19.804.595-29.683-.163-.497-.058-.59.737-.094.795z"/><path fill="#346e3c" fill-opacity=".55" d="M67.138 66.233c14.632.511 29.2 2.524 43.216 6.79 10.901 3.319 21.45 8.006 31.038 14.097 7.424 4.744 14.362 10.24 20.505 16.554 4.243 4.392 8.155 9.051 11.416 14.14 1.469 2.174 2.895 4.747 3.957 6.977-.011.099.011-.1-.078-.21-.011.099.177.221.155.42-.409-1.756-1.128-3.445-1.847-5.134-1.913-4.538-4.057-8.8-6.721-12.917a90.5 90.5 0 0 0-13.559-16.59 105.7 105.7 0 0 0-22.89-16.818c-10.715-5.914-22.224-10.104-34.075-13.024a797 797 0 0 0-5.103-1.168c.199.022.288 1.038.486 1.06 12.094 2.544 23.935 6.47 34.892 12.007 8.572 4.369 16.636 9.687 23.884 16.022 5.491 4.933 10.419 10.408 14.685 16.413 2.863 4.14 5.582 8.666 7.594 13.215.807 1.8 1.482 3.886 2.179 5.774l.155.42c-.885-2.009-1.979-3.941-3.184-5.785-2.984-4.857-6.52-9.273-10.277-13.511-5.746-6.27-12.176-11.81-19.191-16.61-9.169-6.246-19.288-11.187-29.847-14.87-13.574-4.62-27.777-7.196-42.068-8.072-1.998-.12-3.997-.241-6.007-.262.199.022.277 1.137.486 1.06z"/><path fill="#346e3c" fill-opacity=".55" d="M67.105 66.531c17.548.532 35.13 3.482 51.654 9.635 15.651 5.856 30.056 14.793 41.923 26.669 3.16 3.267 6.21 6.623 8.929 10.243 2.718 3.621 5.084 7.706 7.35 11.779.254.431.894.099.64-.331 0 0 .011-.1-.077-.21l-.641.332c-.011.099.177.22.155.419.155.42.784.188.729-.221-.919-3.522-2.456-6.912-4.103-10.213a93 93 0 0 0-5.228-9.13c-3.968-5.972-8.587-11.513-13.879-16.424-10.563-10.022-23.311-17.569-36.897-22.995a152.4 152.4 0 0 0-24.354-7.22c-.397-.044-.552.442-.275.674.176.22.122.718.298.939.266.33.873.297 1.26.44 2.065.43 4.02.948 6.074 1.477 3.623.904 7.223 2.006 10.813 3.208 7.08 2.392 14.094 5.381 20.633 9.022 12.803 7.05 24.437 16.486 33.189 28.319 2.542 3.4 4.852 7.076 6.853 10.819.917 1.711 1.824 3.521 2.532 5.31.707 1.789 1.194 3.754 2.001 5.554.155.419.895.099.641-.332-3.483-7.629-8.953-14.572-14.721-20.643-5.768-6.07-12.032-11.29-18.859-15.97-14.229-9.621-30.543-15.852-47.363-19.321-9.841-1.994-19.88-3.104-29.907-3.408-.398-.044-.552.442-.276.674s.111.817.487 1.06c.364.342.839-.31.463-.552-.276-.232-.21-.829-.486-1.06l-.276.674c17.548.531 35.042 3.371 51.455 9.613 15.552 5.844 30.067 14.693 41.846 26.459 6.618 6.567 13.005 14.316 16.886 22.894l.64-.332c-.74-1.49-1.061-3.135-1.692-4.714a51 51 0 0 0-2.432-5.299 80.5 80.5 0 0 0-5.703-9.384c-4.167-5.994-9.095-11.47-14.487-16.391-10.982-9.867-24.149-17.259-37.978-22.31-3.965-1.444-7.953-2.69-12.05-3.847-1.955-.518-4.01-1.047-5.964-1.565-.497-.055-.884-.198-1.37-.352-.486-.155-1.391-.154-1.756-.497-.166-.32-.133-.618-.398-.949l-.276.674c28.108 6.025 55.48 19.616 72.566 43.438 2.354 3.278 4.487 6.734 6.3 10.355s3.781 7.662 4.843 11.703l.729-.221c.011-.1-.066-.309-.155-.42-.254-.43-.894-.099-.64.332 0 0-.011.099.077.21l.641-.332c-1.935-3.433-3.77-6.856-6.135-10.035a97 97 0 0 0-8.166-9.857 110.5 110.5 0 0 0-18.572-15.837c-14.229-9.622-30.432-15.941-47.143-19.5-10.028-2.114-20.266-3.246-30.492-3.572-.497-.055-.585.74-.088.795z"/><path fill="#346e3c" fill-opacity=".55" d="m96.15 58.417 5.279.481c4.381.4 8.863.808 13.236 1.307 5.676.518 11.443 1.144 17.11 1.76 5.668.618 11.444 1.144 17.111 1.761l13.046 1.19c1.983.28 4.065.57 6.165.662 8.701.391 17.428 1.589 25.956 3.872a109 109 0 0 1 21.075 7.846c5.757 2.935 11.27 6.35 16.43 10.334 4.408 3.414 8.49 7.1 12.237 11.157 3.114 3.296 5.902 6.864 8.472 10.613a90 90 0 0 1 5.158 8.403c.516.951 1.032 1.901 1.448 2.843 0 0-.009.1.082.208l.081.208.244.625c.154.516-.018.199-.398-.036-1.711-1.06-3.53-2.029-5.259-2.889-3.468-1.622-7.052-3.053-10.664-4.186-4.681-1.531-9.425-2.365-14.259-3.308-8.293-1.559-16.259-4.494-23.881-7.9-8.772-4.013-17.164-8.895-24.777-14.61-3.856-2.862-7.377-6.095-10.898-9.328-2.969-2.68-6.282-4.89-9.83-6.72-6.817-3.433-14.276-5.318-21.809-6.406-5.151-.771-10.447-1.053-15.771-1.036-.797-.073-2.318.09-3.024.126.1.009 1.114 1.005 1.213 1.014 5.46-.406 11.045.003 16.505.701 10.52 1.36 21.401 4.26 30.055 10.673 2.444 1.83 4.562 3.93 6.789 5.94a124 124 0 0 0 7.847 6.44 140 140 0 0 0 17.191 10.805c5.648 3.025 11.542 5.571 17.571 7.727 5.449 1.902 10.954 3.207 16.576 4.322 6.319 1.179 12.574 3.054 18.576 5.509 2.997 1.278 5.884 2.646 8.636 4.403.1.009.29.126.381.235-.652-1.666-1.503-3.35-2.353-5.034-1.964-3.794-4.244-7.416-6.742-10.857-3.747-5.162-7.929-9.961-12.554-14.299-5.829-5.451-12.32-10.26-19.389-14.219-8.501-4.791-17.716-8.342-27.249-10.617-5.504-1.305-11.235-2.33-16.912-2.847-3.087-.282-6.192-.364-9.18-.636l-12.946-1.18c.009-.1-22.081-2.314-22.081-2.314-7.27-.663-14.531-1.425-21.891-2.197-4.183-.38-8.365-.762-12.539-1.243l-.598-.054c.2.018.308 1.032.507 1.05z"/><path fill="#346e3c" fill-opacity=".55" d="M96.114 58.816c12.24 1.216 24.48 2.432 36.612 3.738 5.975.545 12.041 1.199 18.007 1.843s11.923 1.388 17.926 1.634c23.883 1.273 47.275 9.029 65.75 24.47 5.033 4.274 9.721 9.02 13.866 14.217 4.146 5.198 7.684 10.441 10.363 16.308.163.417.896.082.634-.344l-.734.335c.172.317.344.634.407 1.041l.245-.479s-2.182-1.404-2.562-1.64c-1.05-.597-2.109-1.096-3.168-1.594a109 109 0 0 0-7.251-3.071c-4.961-1.757-9.977-2.918-15.101-3.987-5.124-1.07-10.438-2.257-15.598-4.033-4.771-1.64-9.505-3.678-14.122-5.906-9.134-4.448-17.779-9.855-25.518-16.384-3.82-3.26-7.305-6.892-11.469-9.681-4.164-2.79-8.6-4.8-13.289-6.233-10.338-3.352-21.764-4.695-32.673-3.982-.399-.036-.354.57-.064.697.48.245.724.87 1.114 1.005l.796.073c.906-.018 1.811-.036 2.825-.144 2.716-.054 5.314.082 8.003.328 5.079.463 10.14 1.125 15.047 2.375 4.617 1.124 9.098 2.637 13.316 4.83 4.608 2.327 8.346 5.379 12.148 8.838 7.504 6.91 16.004 12.806 25.002 17.643s19.055 9.067 29.385 11.415c5.703 1.323 11.443 2.248 17.11 3.969 5.658 1.821 11.47 4.159 16.503 7.329.281.226.715-.136.543-.453-1.927-5.297-5.085-10.304-8.289-14.814-3.466-4.935-7.268-9.499-11.504-13.7-8.191-8.178-17.832-14.78-28.333-19.654-11.08-5.127-23.039-8.326-35.261-9.74-3.087-.282-6.174-.564-9.171-.736l-9.859-.9c-6.374-.58-12.738-1.26-19.202-1.95-14.332-1.407-28.555-2.904-42.886-4.311-.399-.037-.544.452-.263.679.28.226.127.814.507 1.05.371.335.833-.326.453-.561-.28-.227-.226-.824-.507-1.05l-.263.678c12.44 1.235 24.978 2.478 37.508 3.821 6.175.563 12.44 1.234 18.605 1.897 6.165.662 12.629 1.352 18.921 1.725 24.074 1.39 47.765 10.278 65.768 26.48 4.825 4.355 9.305 9.182 13.242 14.461s7.639 10.939 9.991 17.078l.543-.453c-8.626-5.606-18.901-8.551-28.969-10.473-10.755-2.085-20.966-5.727-30.761-10.636-9.795-4.91-18.222-10.498-26.034-17.335-3.82-3.26-7.214-6.783-11.604-9.292-4.001-2.373-8.455-4.185-12.855-5.49-5.187-1.477-10.52-2.465-15.988-3.064-3.087-.281-6.174-.562-9.189-.536-1.304-.019-2.617.063-4.02.035-.806.027-.896-.082-1.457-.534-.191-.118-.281-.227-.471-.345l-.064.698c10.104-.686 20.543.466 30.229 3.257 4.889 1.45 9.633 3.389 14.005 6.097s7.766 6.23 11.486 9.482c7.45 6.402 15.796 11.782 24.523 16.293 9.016 4.638 18.612 8.424 28.561 10.536 5.912 1.242 11.842 2.285 17.581 4.314 2.725.951 5.341 1.993 7.939 3.234a34 34 0 0 1 4.219 2.192c.479.245 1.584 1.35 2.1 1.196.208-.082.326-.272.244-.48-.072-.308-.244-.625-.407-1.041-.163-.417-.896-.082-.634.344l.734-.335c-2.353-5.035-5.43-9.834-8.742-14.253-3.584-4.745-7.504-9.118-11.857-13.13a101.6 101.6 0 0 0-29.103-18.92c-11.017-4.72-22.813-7.502-34.755-8.691-3.087-.282-6.093-.355-9.18-.636l-9.062-.826c-6.175-.563-12.34-1.226-18.406-1.879-14.032-1.38-28.056-2.859-41.99-4.23-.497-.044-.57.752-.072.797z"/><path fill="#346e3c" fill-opacity=".55" d="M259.05 120.984c-3.291-4.428-7.238-8.433-11.097-12.325-8.465-8.279-18.031-15.785-28.669-21.104-5.318-2.66-11.043-4.462-16.632-6.55a399 399 0 0 1-14.124-5.64c-9.976-4.13-19.963-8.162-30.269-11.225-12.927-3.883-26.245-6.203-39.607-7.32-1.986-.24-5.794-.4-7.792-.541.1.012 2.001.947 2.211.872 13.995.891 27.857 2.874 41.403 6.631 10.529 2.889 20.826 6.857 30.901 11 4.696 1.979 9.491 3.97 14.211 5.751 2.41.897 4.807 1.893 7.229 2.69 2.807.945 5.613 1.89 8.285 3.12 11.293 4.894 21.479 12.274 30.44 20.613 4.892 4.521 9.536 9.416 13.637 14.648l.174.222c-.174-.222-.126-.62-.4-.854z"/><path fill="#346e3c" fill-opacity=".55" d="M259.45 121.382c-6.392-8.287-14.29-15.742-22.512-22.127-4.161-3.198-8.543-6.22-13.182-8.769-4.638-2.548-9.433-4.612-14.45-6.5-21.27-7.588-41.768-17.503-63.967-22.28-11.497-2.433-23.021-3.763-34.724-4.41-.397-.045-.577.639-.08.696.497.058 1.058.424 1.532.68.772.29 1.578.283 2.484.287 2.793.222 5.685.455 8.478.676 5.662.654 11.325 1.307 16.942 2.358 11.233 2.102 22.24 5.285 33.057 9.25 10.618 3.944 20.957 8.56 31.686 12.415 5.127 1.8 10.167 3.489 15.027 5.862 4.86 2.372 9.177 5.085 13.361 8.085 9.766 6.965 18.863 15.363 26.222 24.87.263.332.794.091.653-.428-.164-.321-.241-.531-.405-.852-.252-.432-.894-.103-.642.328.164.321.241.531.405.852l.653-.427c-6.491-8.299-14.476-15.865-22.786-22.36-8.223-6.385-17.19-11.547-27.059-15.001-10.939-3.78-21.488-8.318-32.282-12.483-10.507-4.031-21.171-7.577-32.171-9.954a206 206 0 0 0-18.97-3.095c-3.179-.367-6.457-.745-9.758-.925-1.292-.15-2.828.076-4.096-.272-.684-.18-1.234-.645-1.918-.825l-.081.696c10.003.55 20.06 1.51 30.001 3.462 11.134 2.09 21.932 5.35 32.45 9.281s20.759 8.536 31.399 12.28c5.128 1.8 10.267 3.5 15.016 5.961s9.166 5.185 13.449 8.196c4.746 3.367 9.147 7.096 13.415 11.111 4.455 4.138 8.677 8.552 12.444 13.416.252.431.917-.096.554-.44z"/></svg>