<svg width="264" height="137" viewBox="0 0 264 137" fill="none" xmlns="http://www.w3.org/2000/svg">
<path d="M0.689356 58.7548C0.189355 58.5548 -0.0106567 59.2548 0.489343 59.4548C0.989343 59.6548 1.18936 58.9548 0.689356 58.7548C0.189355 58.5548 -0.0106567 59.2548 0.489343 59.4548C0.989343 59.6548 1.18936 58.9548 0.689356 58.7548Z" fill="#346E3C" fill-opacity="0.55"/>
<path d="M19.4894 67.0549C23.1894 66.8549 26.8894 66.5549 30.4894 66.1549C34.3894 65.6549 38.1894 65.0549 41.9894 64.0549C45.6894 63.1549 49.2893 61.9549 52.7893 60.3549C55.9893 58.8549 59.0894 57.0549 61.6894 54.6549C64.1894 52.4549 66.1894 49.6549 67.3894 46.6549C68.7894 43.2549 69.0893 39.4549 68.7893 35.7549C68.2893 30.8549 66.6894 26.1549 64.5894 21.6549C63.9894 20.3549 63.3894 19.0549 62.6894 17.7549C62.6894 17.5549 62.4894 17.4549 62.3894 17.2549C62.2894 17.0549 62.1894 16.8549 62.0894 16.7549C62.6894 18.3549 62.9894 20.0549 63.1894 21.6549C63.6894 25.4549 63.4894 29.4549 62.4894 33.1549C60.9894 38.3549 57.8893 42.8549 53.7893 46.3549C47.2893 51.7549 38.9894 54.6549 30.8894 56.3549C24.7894 57.6549 18.4893 58.3549 12.2893 58.6549C10.4893 58.6549 8.58934 58.8549 6.78934 58.8549C5.88934 58.8549 4.98936 58.8549 3.98936 58.8549L1.68937 58.8549C1.48937 58.8549 0.989342 58.7549 0.789345 58.8549C0.789345 58.8549 0.789368 58.8549 0.689369 58.8549C0.689369 58.8549 0.689369 59.1549 0.689369 59.2549V63.8549C0.689369 64.4549 0.689369 66.6549 0.689369 66.6549C1.48937 66.6549 2.78939 66.8549 3.58939 66.8549C5.78939 66.9549 7.88939 67.0549 10.0894 67.0549C13.1894 67.0549 16.3894 67.0549 19.4894 66.9549V67.0549ZM62.0894 17.2549C62.0894 17.2549 62.0894 17.0549 61.9894 16.9549C61.9894 16.9549 61.9894 17.1549 62.0894 17.2549ZM1.08939 61.6549V60.4549C1.08939 60.0549 0.98938 60.0549 1.38938 59.9549C1.88938 59.9549 2.48936 59.9549 2.98936 59.9549L4.48936 59.9549C5.48936 59.9549 6.48935 59.9549 7.48935 59.9549C14.1894 59.8549 20.7894 59.3549 27.3894 58.2549C36.0894 56.7549 45.0894 54.2549 52.3894 48.9549C56.8894 45.6549 60.5894 41.2549 62.4894 35.9549C63.7894 32.1549 64.2894 28.0549 63.8894 23.9549C63.6894 22.0549 63.3894 20.0549 62.6894 18.2549C64.8894 22.5549 66.6894 27.1549 67.6894 31.8549C68.3894 35.6549 68.4894 39.6549 67.4894 43.3549C66.5894 46.5549 64.8894 49.5549 62.6894 51.9549C60.3894 54.4549 57.4894 56.4549 54.4894 58.0549C51.1894 59.8549 47.6894 61.1549 44.0894 62.1549C40.2894 63.2549 36.4894 64.0549 32.6894 64.5549C28.9894 65.1549 25.1894 65.4549 21.4894 65.6549C18.1894 65.8549 14.8894 65.9549 11.5894 65.9549C8.28939 65.9549 6.68935 65.9549 4.28934 65.7549C3.28934 65.7549 2.18937 65.5549 1.18937 65.5549V61.3549L1.08939 61.6549Z" fill="#346E3C" fill-opacity="0.55"/>
<path d="M19.4893 67.4547C31.2893 66.9547 43.8894 65.4547 54.5894 59.9547C59.2894 57.5547 63.5893 54.2547 66.2893 49.6547C68.9893 45.0547 69.6893 39.2547 68.7893 33.8547C67.7893 27.6547 65.0893 22.2547 62.2893 16.6547C62.0893 16.2547 61.4894 16.5547 61.5894 16.9547C63.8894 23.4547 63.3893 31.3547 60.2893 37.5547C57.3893 43.2547 52.3893 47.5547 46.7893 50.5547C41.1893 53.5547 34.5894 55.3547 28.1894 56.5547C21.0894 57.8547 13.7894 58.4547 6.58937 58.5547C4.78938 58.5547 3.08932 58.6547 1.28932 58.5547C0.589325 58.5547 0.189369 58.5547 0.0893707 59.2547C-0.110626 60.8547 0.0893707 62.7547 0.0893707 64.3547C0.0893707 65.1547 -0.110657 66.2547 0.189346 66.9547C0.189346 67.0547 0.389336 67.1547 0.489334 67.1547C6.78933 67.6547 13.0893 67.6547 19.2893 67.4547C19.7893 67.4547 19.7893 66.6547 19.2893 66.6547C14.9893 66.8547 10.6894 66.8547 6.38936 66.6547C5.38936 66.6547 4.38936 66.6547 3.38936 66.5547C2.68936 66.5547 1.58933 66.6547 0.989334 66.3547C0.689331 66.2547 0.88932 66.3547 0.789322 65.9547C0.789322 65.6547 0.789322 65.3547 0.789322 65.1547V60.2547C0.789322 60.0547 0.789322 59.1547 0.789322 59.2547C0.789322 59.2547 1.28937 59.2547 1.58937 59.2547C3.48937 59.2547 5.48936 59.2547 7.38936 59.2547C11.5894 59.1547 15.8894 58.9547 20.0894 58.4547C34.0894 56.9547 50.8893 53.2547 59.2893 40.7547C63.9893 33.8547 65.1894 24.5547 62.3894 16.6547L61.6894 16.9547C63.9894 21.6547 66.3894 26.1547 67.5894 31.2547C68.8894 36.8547 68.8893 42.8547 66.2893 48.0547C61.2893 57.8547 49.4894 62.0547 39.3894 64.1547C32.8894 65.5547 26.1894 66.2547 19.5894 66.5547C19.0894 66.5547 19.0894 67.3547 19.5894 67.3547L19.4893 67.4547Z" fill="#346E3C" fill-opacity="0.55"/>
<path d="M62.4893 17.0548C62.4893 17.0548 62.4894 16.8548 62.3894 16.8548L61.6894 17.1548C61.6894 17.1548 61.6893 17.3548 61.7893 17.4548C61.7893 17.4548 61.7893 17.4548 61.7893 17.5548C61.7893 17.6548 61.7894 17.5548 61.8894 17.5548C61.8894 17.5548 61.8894 17.5548 62.0894 17.5548C62.0894 17.5548 62.0894 17.5548 62.1894 17.5548C62.1894 17.5548 62.3894 17.4548 62.3894 17.3548V17.2548C62.3894 17.2548 62.3894 17.1548 62.3894 17.0548C62.3894 17.0548 62.3893 16.8548 62.2893 16.7548C62.2893 16.7548 62.2893 16.7548 62.2893 16.6548C62.2893 16.5548 62.2894 16.6548 62.1894 16.6548C62.0894 16.6548 61.9893 16.6548 61.9893 16.6548C61.9893 16.6548 61.9893 16.6548 61.9893 16.7548C61.9893 16.7548 61.9893 16.8548 61.9893 16.9548C61.9893 16.9548 61.9893 17.0548 61.9893 17.1548C61.9893 17.1548 61.9893 17.1548 61.9893 17.2548C61.9893 17.2548 61.9893 17.2548 61.9893 17.3548C61.9893 17.4548 61.9894 17.3548 62.0894 17.3548C62.0894 17.3548 62.0893 17.3548 62.2893 17.3548C62.2893 17.3548 62.2894 17.3548 62.3894 17.3548C62.3894 17.3548 62.5894 17.2548 62.5894 17.1548V17.0548C62.5894 17.0548 62.5894 16.9548 62.5894 16.8548L62.4893 17.0548Z" fill="#346E3C" fill-opacity="0.55"/>
<path d="M1.48943 61.6547C1.48943 61.4547 1.38943 60.6547 1.48943 60.4547C1.68942 60.0547 1.08942 60.4547 1.78941 60.3547C2.38941 60.2547 3.08942 60.3547 3.78941 60.3547C5.48941 60.3547 7.28943 60.3547 8.98943 60.3547C12.1894 60.3547 15.4894 60.0547 18.7894 59.7547C24.7894 59.1547 30.8894 58.2547 36.7894 56.6547C47.1894 53.7547 57.8895 48.0547 62.3895 37.6547C64.8895 31.7547 65.3894 24.2547 63.1894 18.2547L62.4894 18.5547C65.3894 24.2547 67.7895 30.5547 67.8895 37.0547C67.9895 43.5547 65.3895 49.4547 60.5895 53.6547C55.7895 57.8547 49.5894 60.4547 43.4894 62.1547C36.8894 63.9547 30.0895 64.9547 23.3895 65.4547C19.5895 65.7547 15.8895 65.8547 12.0895 65.8547C8.28947 65.8547 4.88944 65.5547 1.18944 65.4547L1.58946 65.8547V61.7547C1.58946 61.2547 0.789413 61.2547 0.789413 61.7547V65.8547C0.789413 66.0547 0.989441 66.2547 1.18944 66.2547C4.68944 66.2547 8.08947 66.6547 11.5895 66.6547C15.0895 66.6547 18.7895 66.5547 22.3895 66.2547C29.3895 65.7547 36.4894 64.8547 43.1894 62.9547C49.2894 61.2547 55.4895 58.8547 60.3895 54.7547C65.0895 50.8547 67.9894 45.4547 68.4894 39.3547C69.0894 31.9547 66.2894 24.6547 62.9894 18.1547C62.7894 17.7547 62.1894 18.0547 62.2894 18.4547C64.3894 24.2547 63.9894 31.3547 61.6894 37.0547C59.4894 42.3547 55.4894 46.5547 50.7894 49.7547C40.7894 56.3547 28.0894 58.4547 16.2894 59.3547C12.6894 59.6547 9.08943 59.7547 5.48943 59.7547C4.68943 59.7547 3.78943 59.7547 2.98943 59.7547C2.48943 59.7547 1.78941 59.5547 1.28941 59.7547C0.389412 60.0547 0.789413 60.9547 0.789413 61.7547C0.789413 62.5547 1.58946 62.2547 1.58946 61.7547L1.48943 61.6547Z" fill="#346E3C" fill-opacity="0.55"/>
<path d="M24.5893 66.7548C38.8893 70.0548 53.1893 74.4548 66.2893 81.2548C75.0893 85.7548 83.3893 91.4548 90.0893 98.7548C94.7893 103.755 98.5893 109.455 100.889 115.955C102.389 120.155 103.289 124.655 103.489 129.155C103.489 130.555 103.489 131.955 103.389 133.255C103.389 133.855 103.089 134.555 103.089 135.155C103.089 135.255 103.789 136.155 103.689 136.155C104.089 135.755 104.489 135.355 104.889 134.955C105.889 133.955 106.789 132.855 107.589 131.655C108.789 130.055 109.789 128.355 110.689 126.555C111.689 124.455 112.489 122.255 112.989 119.955C113.489 117.355 113.589 114.755 113.289 112.055C112.889 109.055 111.889 106.055 110.489 103.355C108.689 99.8548 106.389 96.7548 103.689 93.8548C100.189 90.1548 96.0893 87.0548 91.7893 84.2548C85.9893 80.4548 79.6893 77.3548 73.2893 74.6548C64.7893 70.9548 55.9893 67.9548 47.0893 65.3548C44.5893 64.5548 41.9893 63.8548 39.4893 63.1548C39.7893 63.1548 39.7893 64.1548 40.0893 64.1548C49.4893 66.7548 58.6893 69.6548 67.7893 73.1548C74.6893 75.8548 81.3893 78.8548 87.7893 82.5548C92.5893 85.2548 97.0893 88.3548 101.289 91.9548C104.389 94.6548 107.189 97.7548 109.289 101.255C109.289 101.255 109.389 101.455 109.489 101.555C109.589 101.755 109.689 101.955 109.789 102.155C109.989 102.555 110.189 102.955 110.389 103.255C110.689 103.955 111.089 104.755 111.289 105.455C111.789 106.855 112.189 108.255 112.489 109.655C112.989 112.255 112.989 114.855 112.489 117.455C112.089 119.755 111.489 122.055 110.489 124.155C109.689 126.055 108.689 127.755 107.589 129.455C106.689 130.755 105.789 131.955 104.789 133.055C104.289 133.555 103.689 134.155 103.189 134.655L103.789 135.655C103.789 135.155 103.989 134.755 103.989 134.255C104.189 132.955 104.189 131.755 104.189 130.455C104.189 128.555 103.989 126.555 103.689 124.655C103.289 122.155 102.689 119.755 101.889 117.355C100.889 114.455 99.6893 111.755 98.2893 109.055C96.4893 105.855 94.5893 102.855 92.2893 100.055C89.5893 96.6548 86.4893 93.6548 83.1893 90.8548C79.1893 87.4548 74.7893 84.5548 70.2893 81.9548C64.7893 78.7548 58.8893 76.0548 52.9893 73.6548C45.6893 70.7548 38.1893 68.4548 30.5893 66.5548C28.4893 66.0548 26.2893 65.4548 24.1893 65.0548C24.4893 65.0548 24.4893 66.0548 24.7893 66.0548L24.5893 66.7548Z" fill="#346E3C" fill-opacity="0.55"/>
<path d="M24.4893 67.1549C39.6893 70.6549 54.7893 75.3549 68.4893 82.9549C81.1893 89.9549 93.2892 99.7549 99.2892 113.255C101.089 117.455 102.389 121.955 102.789 126.455C102.989 128.755 103.089 131.055 102.789 133.355C102.789 133.955 102.389 134.855 102.489 135.455C102.489 135.855 102.989 136.155 103.089 136.555C103.089 136.855 103.489 136.855 103.689 136.755C109.089 131.655 112.989 124.255 113.389 116.855C113.789 109.455 110.589 102.555 105.989 96.8549C101.189 90.8549 94.6893 86.1549 87.9893 82.2549C81.2893 78.3549 73.7892 74.9549 66.2892 72.0549C57.3892 68.6549 48.3893 65.8549 39.1893 63.2549C38.8893 63.2549 38.4892 63.6549 38.7892 63.8549C39.2892 64.2549 39.0892 64.7549 39.7892 65.0549C41.0892 65.5549 42.5893 65.8549 43.9893 66.2549C46.6893 67.0549 49.3893 67.8549 52.0893 68.7549C57.3893 70.4549 62.6893 72.2549 67.8893 74.2549C77.9893 78.2549 88.0893 82.9549 96.6893 89.5549C101.389 93.1549 105.589 97.2549 108.689 102.255C108.989 102.655 109.589 102.255 109.389 101.855C109.389 101.855 109.389 101.855 109.389 101.755C109.089 101.355 108.489 101.755 108.689 102.155C111.689 107.655 112.789 114.055 111.289 120.155C109.889 125.755 106.689 131.155 102.489 135.055C102.389 135.155 102.389 135.355 102.489 135.555L103.089 136.555C103.289 136.855 103.689 136.755 103.789 136.555C105.189 129.355 103.489 121.355 100.689 114.655C97.8893 107.955 93.4893 101.555 88.3893 96.3549C77.6893 85.4549 63.7893 78.2549 49.5893 72.9549C41.1893 69.8549 32.5893 67.4549 23.8893 65.4549C23.5893 65.4549 23.1893 65.8549 23.4893 66.0549C23.7893 66.2549 23.7893 66.8549 24.0893 67.0549C24.4893 67.3549 24.9893 66.8549 24.5893 66.5549C24.2893 66.3549 24.2893 65.7549 23.9893 65.5549L23.5893 66.1549C38.3893 69.5549 52.9893 74.0549 66.3893 81.2549C79.3893 88.1549 91.0893 97.7549 97.9893 110.955C101.989 118.455 104.589 127.855 102.989 136.355H103.689L103.089 135.255V135.755C107.389 131.655 110.789 125.855 112.189 120.055C113.589 113.855 112.489 107.455 109.489 101.855L108.789 102.255C108.789 102.255 108.789 102.255 108.789 102.355L109.489 101.955C103.989 93.2549 95.4893 87.0549 86.5893 82.1549C76.8893 76.7549 66.5893 72.6549 56.0893 69.2549C52.9893 68.2549 49.8892 67.2549 46.7892 66.3549C45.2892 65.9549 43.7893 65.4549 42.3893 65.0549C41.6893 64.8549 40.5893 64.7549 39.9893 64.2549C39.6893 63.9549 39.6892 63.6549 39.2892 63.3549L38.8893 63.9549C54.0893 68.1549 69.3893 73.1549 83.3893 80.5549C89.9893 84.0549 96.4893 88.2549 101.889 93.5549C107.289 98.8549 111.589 105.455 112.389 112.855C113.289 121.455 109.189 130.355 102.989 136.255L103.589 136.455C103.589 136.055 103.189 135.855 103.089 135.555C102.889 135.055 103.289 134.055 103.289 133.555C103.489 131.555 103.489 129.555 103.289 127.555C102.989 123.555 102.089 119.655 100.689 115.855C98.1893 109.055 93.9893 102.955 88.9893 97.7549C78.3893 86.7549 64.4892 79.5549 50.2892 74.2549C41.7892 71.0549 33.0893 68.6549 24.1893 66.6549C23.6893 66.5549 23.4893 67.2549 23.9893 67.3549L24.4893 67.1549Z" fill="#346E3C" fill-opacity="0.55"/>
<path d="M53.5893 60.0546C61.7893 59.7546 69.9893 58.9546 78.1893 57.6546C85.1893 56.5546 92.0893 54.9546 98.8893 52.8546C104.789 51.0546 110.489 48.8546 116.089 46.3546C120.889 44.1546 125.589 41.5546 129.989 38.6546C133.889 36.1546 137.589 33.4546 141.089 30.3546C144.089 27.8546 146.889 25.0546 149.489 22.1546C151.689 19.7546 153.689 17.1546 155.589 14.5546C157.089 12.5546 158.389 10.3546 159.589 8.1546C160.389 6.6546 161.189 5.1546 161.889 3.5546C162.189 2.8546 162.589 2.15459 162.789 1.45459L162.189 0.45459C162.289 0.95459 162.389 1.4546 162.389 2.0546C162.489 3.4546 162.589 4.95458 162.389 6.35458C162.389 8.55458 161.989 10.6546 161.589 12.8546C160.989 15.5546 160.089 18.2546 158.989 20.8546C157.589 23.9546 155.889 26.9546 153.789 29.7546C151.289 33.1546 148.389 36.2546 145.289 38.9546C141.389 42.3546 137.089 45.2546 132.589 47.8546C126.889 51.0546 120.889 53.6546 114.789 55.8546C107.089 58.6546 99.1893 60.7546 91.1893 62.3546C81.1893 64.4546 71.0893 65.8546 60.8893 66.7546C58.0893 67.0546 55.2893 67.2546 52.4893 67.4546C52.6893 67.4546 52.8893 68.4546 53.0893 68.4546C63.7893 67.7546 74.4893 66.5546 85.0893 64.6546C93.5893 63.1546 101.989 61.1546 110.289 58.5546C116.889 56.4546 123.289 53.9546 129.389 50.8546C134.289 48.3546 138.889 45.4546 143.189 42.1546C146.689 39.4546 149.889 36.3546 152.689 32.9546C154.989 30.1546 156.989 27.1546 158.589 23.9546C159.889 21.3546 160.989 18.5546 161.689 15.7546C162.289 13.4546 162.689 11.1546 162.889 8.85458C162.989 7.25458 163.089 5.55459 162.889 3.95459C162.889 3.25459 162.889 2.3546 162.589 1.6546C162.589 1.6546 162.589 1.6546 162.589 1.5546C162.589 1.3546 161.889 0.754596 161.989 0.554596C161.789 1.0546 161.589 1.5546 161.389 2.0546C160.789 3.4546 160.189 4.7546 159.489 6.0546C158.389 8.1546 157.189 10.0546 155.889 12.0546C154.189 14.5546 152.289 17.0546 150.389 19.3546C147.989 22.2546 145.289 24.9546 142.589 27.4546C139.389 30.4546 135.889 33.1546 132.289 35.7546C128.089 38.6546 123.589 41.3546 119.089 43.6546C113.789 46.3546 108.389 48.5546 102.789 50.4546C96.2893 52.6546 89.6893 54.4546 82.8893 55.7546C75.0893 57.2546 67.2893 58.2546 59.3893 58.8546C57.2893 58.9546 55.0893 59.1546 52.9893 59.2546C53.1893 59.2546 53.3893 60.2546 53.5893 60.2546V60.0546Z" fill="#346E3C" fill-opacity="0.55"/>
<path d="M53.5893 60.4547C71.5893 59.6547 89.5893 56.9547 106.489 50.6547C123.389 44.3547 137.789 35.4547 149.489 22.6547C152.689 19.1547 155.589 15.3546 158.189 11.2546C159.489 9.15464 160.789 6.95464 161.789 4.75464C162.189 3.95464 162.589 3.05464 162.889 2.25464C163.189 1.35464 162.889 1.15464 162.489 0.254637C162.289 -0.145363 161.689 0.154656 161.789 0.554656C162.589 5.15466 161.989 10.0547 160.789 14.5547C159.589 19.0547 157.789 23.1546 155.289 26.9546C150.489 34.4547 143.589 40.5546 136.089 45.3546C120.589 55.1546 102.289 60.2546 84.3893 63.3546C73.7893 65.2546 63.1893 66.3547 52.3893 67.1547C51.9893 67.1547 51.8893 67.6546 52.1893 67.8546C52.4893 68.0546 52.3893 68.6546 52.7893 68.8546C52.9893 68.9546 53.4893 68.8546 53.6893 68.8546C54.3893 68.8546 55.1893 68.7547 55.8893 68.6547C58.4893 68.4547 61.0893 68.2547 63.6893 67.9547C68.7893 67.4547 73.7893 66.8547 78.7893 66.0547C88.9893 64.5547 98.9893 62.4546 108.889 59.3546C126.789 53.8546 145.589 44.8546 156.189 28.7546C159.189 24.2546 161.389 19.2547 162.489 13.9546C163.089 11.3547 163.389 8.75466 163.389 6.05466C163.389 4.75466 163.389 3.45464 163.189 2.25464C163.189 1.95464 163.189 1.55464 162.989 1.25464C162.889 0.954637 162.489 0.654643 162.489 0.354643C162.489 -0.0453566 161.889 -0.145363 161.789 0.254637C160.389 4.05464 158.289 7.65466 156.089 11.0547C153.889 14.4547 151.189 17.8547 148.389 21.0547C142.789 27.2547 136.289 32.6546 129.289 37.2546C115.089 46.4546 98.8893 52.1546 82.3893 55.3546C72.6893 57.2546 62.8893 58.2547 53.0893 58.6547C52.6893 58.6547 52.5893 59.1546 52.8893 59.3546C53.1893 59.5546 53.0893 60.1546 53.4893 60.3546C53.8893 60.6546 54.2893 59.9546 53.8893 59.7546C53.5893 59.5546 53.5893 58.9546 53.2893 58.7546L53.0893 59.4547C70.6893 58.7547 88.2893 56.0547 104.889 50.0547C121.489 44.0547 135.489 35.6547 147.189 23.5547C150.389 20.1547 153.389 16.5546 155.989 12.7546C158.589 8.95464 160.989 4.95466 162.589 0.654662L161.889 0.654662C161.889 1.05466 162.289 1.25464 162.489 1.75464C162.889 2.65464 162.789 4.25464 162.789 5.25464C162.789 7.75464 162.589 10.2546 162.189 12.7546C161.289 17.5546 159.589 22.0546 157.189 26.2546C152.489 34.3546 145.489 40.8547 137.689 45.9547C121.589 56.4547 102.289 61.5546 83.4893 64.7546C77.8893 65.7546 72.2893 66.4547 66.6893 67.0547C63.8893 67.3547 61.1893 67.6546 58.3893 67.8546C56.9893 67.9546 55.5893 68.0547 54.2893 68.1547C54.0893 68.1547 53.5893 68.2547 53.4893 68.1547C53.4893 68.1547 53.4893 67.8546 53.2893 67.7546C53.0893 67.5546 53.0893 67.3546 52.8893 67.2546L52.6893 67.9547C72.0893 66.5546 91.5893 63.9547 110.189 58.0547C127.189 52.6547 144.789 44.0546 155.289 28.9546C158.089 24.8546 160.289 20.3547 161.689 15.5547C163.089 10.7547 163.689 5.45466 162.889 0.554656L162.189 0.854643C162.289 1.05464 162.689 1.45464 162.689 1.75464C162.689 2.15464 162.289 2.85464 162.089 3.25464C161.689 4.25464 161.189 5.15466 160.689 6.05466C159.689 7.95466 158.689 9.75466 157.489 11.5547C155.189 15.1547 152.589 18.5547 149.789 21.6547C144.189 27.9547 137.789 33.4547 130.689 38.0547C116.389 47.4547 99.9893 53.3547 83.1893 56.5547C73.4893 58.4547 63.5893 59.4546 53.6893 59.8546C53.1893 59.8546 53.1893 60.6547 53.6893 60.6547L53.5893 60.4547Z" fill="#346E3C" fill-opacity="0.55"/>
<path d="M64.7893 72.4549C79.3893 71.3549 94.0893 71.7549 108.489 74.4549C119.689 76.5549 130.689 80.0549 140.889 85.0549C148.789 88.9549 156.289 93.6549 163.089 99.2549C167.789 103.155 172.189 107.355 175.989 112.055C177.689 114.055 179.389 116.455 180.689 118.555C180.689 118.655 180.689 118.455 180.589 118.355C180.589 118.455 180.789 118.555 180.789 118.755C180.189 117.055 179.289 115.455 178.389 113.855C175.989 109.555 173.389 105.555 170.289 101.755C165.789 96.1549 160.689 91.1549 154.989 86.7549C147.489 80.9549 139.189 76.1549 130.389 72.5549C119.089 67.8549 107.189 64.9549 95.0894 63.3549C93.3894 63.1549 91.6893 62.9549 89.8893 62.7549C90.0893 62.7549 90.2893 63.7549 90.4893 63.7549C102.789 64.9549 114.989 67.5549 126.489 71.8549C135.489 75.2549 144.089 79.6549 151.989 85.1549C157.989 89.4549 163.489 94.3549 168.389 99.8549C171.689 103.655 174.889 107.855 177.389 112.155C178.389 113.855 179.289 115.855 180.189 117.655L180.389 118.055C179.289 116.155 177.989 114.355 176.589 112.655C173.089 108.155 169.089 104.155 164.889 100.355C158.489 94.7549 151.489 89.9549 143.989 85.9549C134.189 80.7549 123.589 76.9549 112.689 74.4549C98.6893 71.3549 84.2893 70.3549 69.9893 71.0549C67.9893 71.1549 65.9893 71.2549 63.9893 71.4549C64.1893 71.4549 64.3894 72.5549 64.5894 72.4549H64.7893Z" fill="#346E3C" fill-opacity="0.55"/>
<path d="M64.7893 72.7549C82.2893 71.3549 100.089 72.3549 117.189 76.6549C133.389 80.7549 148.689 88.0549 161.789 98.5549C165.289 101.455 168.689 104.455 171.789 107.755C174.889 111.055 177.689 114.855 180.389 118.655C180.689 119.055 181.289 118.655 180.989 118.255C180.989 118.255 180.989 118.155 180.889 118.055L180.289 118.455C180.289 118.555 180.489 118.655 180.489 118.855C180.689 119.255 181.289 118.955 181.189 118.555C179.889 115.155 177.989 111.955 175.989 108.855C173.989 105.755 171.989 103.055 169.789 100.355C165.189 94.8549 159.989 89.8549 154.189 85.5549C142.589 76.7549 129.089 70.6549 114.989 66.7549C106.789 64.5549 98.3893 63.0549 89.9893 62.2549C89.5893 62.2549 89.4893 62.7549 89.7893 62.9549C89.9893 63.1549 89.9893 63.6549 90.1893 63.8549C90.4893 64.1549 91.0893 64.0549 91.4893 64.1549C93.5893 64.3549 95.5893 64.6549 97.6893 64.9549C101.389 65.4549 105.089 66.1549 108.789 66.9549C116.089 68.5549 123.389 70.7549 130.289 73.6549C143.789 79.2549 156.389 87.3549 166.389 98.1549C169.289 101.255 171.989 104.655 174.389 108.155C175.489 109.755 176.589 111.455 177.489 113.155C178.389 114.855 179.089 116.755 180.089 118.455C180.289 118.855 180.989 118.455 180.689 118.055C176.389 110.855 170.189 104.555 163.789 99.1549C157.389 93.7549 150.589 89.2549 143.289 85.3549C128.089 77.3549 111.189 72.9549 94.0893 71.3549C84.0893 70.4549 73.9893 70.4549 63.9893 71.2549C63.5893 71.2549 63.4893 71.7549 63.7893 71.9549C64.0893 72.1549 63.9893 72.7549 64.3893 72.9549C64.7893 73.2549 65.1893 72.5549 64.7893 72.3549C64.4893 72.1549 64.4893 71.5549 64.1893 71.3549L63.9893 72.0549C81.4893 70.6549 99.1893 71.5549 116.189 75.9549C132.289 80.0549 147.689 87.2549 160.689 97.6549C167.989 103.455 175.189 110.455 179.989 118.555L180.589 118.155C179.689 116.755 179.189 115.155 178.389 113.655C177.489 111.955 176.489 110.255 175.389 108.655C173.389 105.655 171.089 102.655 168.689 99.9549C163.889 94.4549 158.389 89.5549 152.489 85.2549C140.489 76.6549 126.589 70.7549 112.289 67.2549C108.189 66.2549 104.089 65.4549 99.8893 64.7549C97.8893 64.4549 95.7893 64.1549 93.7893 63.8549C93.2893 63.8549 92.8893 63.7549 92.3893 63.6549C91.8893 63.5549 90.9893 63.6549 90.5893 63.3549C90.3893 63.0549 90.3893 62.7549 90.0893 62.4549L89.8893 63.1549C118.489 66.0549 147.189 76.5549 166.789 98.3549C169.489 101.355 171.989 104.555 174.189 107.955C176.389 111.355 178.789 115.155 180.289 119.055L180.989 118.755C180.989 118.655 180.889 118.455 180.789 118.355C180.489 117.955 179.889 118.355 180.189 118.755C180.189 118.755 180.189 118.855 180.289 118.955L180.889 118.555C178.589 115.355 176.389 112.155 173.689 109.255C170.789 106.055 167.789 103.155 164.489 100.355C158.289 95.0549 151.489 90.4549 144.289 86.6549C129.089 78.6549 112.289 74.1549 95.2893 72.4549C85.0893 71.4549 74.7893 71.4549 64.5893 72.2549C64.0893 72.2549 64.0893 73.0549 64.5893 73.0549L64.7893 72.7549Z" fill="#346E3C" fill-opacity="0.55"/>
<path d="M93.5894 62.9549C95.3894 62.9549 97.1894 62.9549 98.8894 62.9549C103.289 62.9549 107.789 62.9549 112.189 63.0549C117.889 63.0549 123.689 63.1549 129.389 63.2549C135.089 63.3549 140.889 63.3549 146.589 63.4549L159.689 63.4549C161.689 63.5549 163.789 63.6549 165.889 63.5549C174.589 63.1549 183.389 63.5549 192.089 65.0549C199.489 66.2549 206.789 68.2549 213.789 70.9549C219.789 73.3549 225.589 76.2549 231.089 79.7549C235.789 82.7549 240.189 86.0549 244.289 89.7549C247.689 92.7549 250.789 96.0549 253.689 99.5549C255.789 102.055 257.789 104.755 259.589 107.455C260.189 108.355 260.789 109.255 261.289 110.155C261.289 110.155 261.289 110.255 261.389 110.355C261.389 110.355 261.389 110.355 261.489 110.555C261.589 110.755 261.689 110.955 261.789 111.155C261.989 111.655 261.789 111.355 261.389 111.155C259.589 110.255 257.689 109.455 255.889 108.755C252.289 107.455 248.589 106.355 244.889 105.555C240.089 104.455 235.289 104.055 230.389 103.555C221.989 102.755 213.789 100.555 205.889 97.8549C196.789 94.6549 187.989 90.5549 179.889 85.5549C175.789 83.0549 171.989 80.1549 168.189 77.2549C164.989 74.8549 161.489 72.9549 157.789 71.4549C150.689 68.6549 143.089 67.4549 135.489 67.0549C130.289 66.7549 124.989 66.9549 119.689 67.4549C118.889 67.4549 117.389 67.7549 116.689 67.8549C116.789 67.8549 117.889 68.7549 117.989 68.7549C123.389 67.8549 128.989 67.7549 134.489 67.9549C145.089 68.3549 156.189 70.2549 165.389 75.8549C167.989 77.4549 170.289 79.3549 172.689 81.1549C175.389 83.1549 178.189 85.0549 181.089 86.8549C186.889 90.3549 192.989 93.4549 199.189 96.0549C205.089 98.5549 211.189 100.555 217.389 102.155C222.989 103.555 228.589 104.355 234.289 104.955C240.689 105.555 247.089 106.855 253.289 108.755C256.389 109.755 259.389 110.855 262.289 112.355C262.389 112.355 262.589 112.455 262.689 112.555C261.889 110.955 260.889 109.355 259.889 107.755C257.589 104.155 254.989 100.755 252.189 97.5549C247.989 92.7549 243.389 88.3549 238.389 84.4549C232.089 79.5549 225.189 75.3549 217.789 72.0549C208.889 68.0549 199.389 65.3549 189.689 63.9549C184.089 63.1549 178.289 62.6549 172.589 62.6549C169.489 62.6549 166.389 62.8549 163.389 62.8549L150.389 62.8549C150.389 62.7549 128.189 62.5549 128.189 62.5549C120.889 62.5549 113.589 62.4549 106.189 62.3549C101.989 62.3549 97.7894 62.3549 93.5894 62.2549H92.9893C93.1893 62.2549 93.3894 63.2549 93.5894 63.2549V62.9549Z" fill="#346E3C" fill-opacity="0.55"/>
<path d="M93.5894 63.3549C105.889 63.4549 118.189 63.5549 130.389 63.7549C136.389 63.7549 142.489 63.8549 148.489 63.9549C154.489 64.0549 160.489 64.2549 166.489 63.9549C190.389 63.0549 214.389 68.6549 234.189 82.3549C239.589 86.1549 244.689 90.4549 249.289 95.2549C253.889 100.055 257.889 104.955 261.089 110.555C261.289 110.955 261.989 110.555 261.689 110.155L260.989 110.555C261.189 110.855 261.389 111.155 261.489 111.555L261.689 111.055C261.689 111.055 259.389 109.855 258.989 109.655C257.889 109.155 256.789 108.755 255.689 108.355C253.189 107.455 250.689 106.655 248.189 105.955C243.089 104.655 237.989 103.955 232.789 103.355C227.589 102.755 222.189 102.055 216.889 100.755C211.989 99.5549 207.089 97.9549 202.289 96.1549C192.789 92.5549 183.689 87.9549 175.389 82.1549C171.289 79.2549 167.489 75.9549 163.089 73.5549C158.689 71.1549 154.089 69.5549 149.289 68.5549C138.689 66.1549 127.189 65.8549 116.389 67.5549C115.989 67.5549 116.089 68.1549 116.389 68.2549C116.889 68.4549 117.189 69.0549 117.589 69.1549C117.789 69.1549 118.089 69.1549 118.389 69.1549C119.289 69.0549 120.189 68.9549 121.189 68.7549C123.889 68.4549 126.489 68.3549 129.189 68.3549C134.289 68.3549 139.389 68.5549 144.389 69.3549C149.089 70.0549 153.689 71.1549 158.089 72.9549C162.889 74.8549 166.889 77.5549 170.989 80.6549C179.089 86.8549 188.089 91.9549 197.489 95.9549C206.889 99.9549 217.289 103.255 227.789 104.655C233.589 105.455 239.389 105.855 245.189 107.055C250.989 108.355 256.989 110.155 262.289 112.855C262.589 113.055 262.989 112.655 262.789 112.355C260.389 107.255 256.789 102.555 253.189 98.3549C249.289 93.7549 245.089 89.5549 240.489 85.7549C231.589 78.3549 221.389 72.6549 210.489 68.7549C198.989 64.6549 186.789 62.5549 174.489 62.2549C171.389 62.2549 168.289 62.2549 165.289 62.3549C161.989 62.3549 158.689 62.3549 155.389 62.3549C148.989 62.3549 142.589 62.2549 136.089 62.1549C121.689 62.0549 107.389 61.8549 92.9893 61.7549C92.5893 61.7549 92.4893 62.2549 92.7893 62.4549C93.0893 62.6549 92.9893 63.2549 93.3893 63.4549C93.7893 63.7549 94.1893 63.0549 93.7893 62.8549C93.4893 62.6549 93.4893 62.0549 93.1893 61.8549L92.9893 62.5549C105.489 62.6549 118.089 62.7549 130.689 62.9549C136.889 62.9549 143.189 63.0549 149.389 63.1549C155.589 63.2549 162.089 63.3549 168.389 63.1549C192.489 62.3549 216.889 69.0549 236.289 83.5549C241.489 87.4549 246.389 91.8549 250.789 96.7549C255.189 101.655 259.389 106.955 262.289 112.855L262.789 112.355C253.689 107.555 243.189 105.555 232.989 104.555C222.089 103.455 211.589 100.755 201.389 96.7549C191.189 92.7549 182.289 87.9549 173.889 81.8549C169.789 78.9549 166.089 75.7549 161.489 73.6549C157.289 71.6549 152.689 70.2549 148.189 69.3549C142.889 68.3549 137.489 67.8549 131.989 67.7549C128.889 67.7549 125.789 67.7549 122.789 68.0549C121.489 68.1549 120.189 68.3549 118.789 68.4549C117.989 68.5549 117.889 68.4549 117.289 68.0549C117.089 67.9549 116.989 67.8549 116.789 67.7549V68.4549C126.789 66.8549 137.289 67.0549 147.189 68.9549C152.189 69.9549 157.089 71.4549 161.689 73.7549C166.289 76.0549 169.989 79.2549 173.989 82.1549C181.989 87.8549 190.789 92.4549 199.889 96.1549C209.289 99.9549 219.189 102.855 229.289 104.055C235.289 104.755 241.289 105.255 247.189 106.755C249.989 107.455 252.689 108.255 255.389 109.255C256.889 109.755 258.389 110.355 259.789 111.055C260.289 111.255 261.489 112.255 261.989 112.055C262.189 111.955 262.289 111.755 262.189 111.555C262.089 111.255 261.889 110.955 261.689 110.555C261.489 110.155 260.789 110.555 261.089 110.955L261.789 110.555C258.989 105.755 255.489 101.255 251.789 97.1549C247.789 92.7549 243.489 88.7549 238.789 85.1549C229.589 78.0549 219.189 72.5549 208.089 68.9549C196.689 65.2549 184.689 63.5549 172.689 63.4549C169.589 63.4549 166.589 63.6549 163.489 63.6549C160.389 63.6549 157.389 63.6549 154.389 63.6549C148.189 63.6549 141.989 63.5549 135.889 63.4549C121.789 63.3549 107.689 63.1549 93.6893 63.0549C93.1893 63.0549 93.1893 63.8549 93.6893 63.8549L93.5894 63.3549Z" fill="#346E3C" fill-opacity="0.55"/>
<path d="M262.389 111.855C258.589 107.855 254.189 104.355 249.889 100.955C240.489 93.7547 230.089 87.4547 218.889 83.4547C213.289 81.4547 207.389 80.3547 201.589 78.9547C196.689 77.7547 191.789 76.4547 186.889 75.0547C176.489 72.1547 166.089 69.3547 155.489 67.5547C142.189 65.2547 128.689 64.5547 115.289 65.0547C113.289 65.0547 109.489 65.3547 107.489 65.4547C107.589 65.4547 109.589 66.1547 109.789 66.0547C123.789 65.2547 137.789 65.5547 151.689 67.6547C162.489 69.2547 173.189 71.9547 183.689 74.8547C188.589 76.2547 193.589 77.6547 198.489 78.8547C200.989 79.4547 203.489 80.1547 205.989 80.6547C208.889 81.2547 211.789 81.8546 214.589 82.7546C226.389 86.2546 237.389 92.3547 247.289 99.5547C252.689 103.455 257.889 107.755 262.589 112.455L262.789 112.655C262.589 112.455 262.589 112.055 262.289 111.855H262.389Z" fill="#346E3C" fill-opacity="0.55"/>
<path d="M262.589 111.655C255.289 104.155 246.589 97.6547 237.689 92.2547C233.189 89.5547 228.489 87.0547 223.589 85.0547C218.689 83.0547 213.689 81.5547 208.489 80.2547C186.489 75.1547 164.989 67.6547 142.389 65.4547C130.689 64.3547 119.089 64.3547 107.389 65.0547C106.989 65.0547 106.889 65.7547 107.389 65.7547C107.889 65.7547 108.489 66.0547 108.989 66.2547C109.789 66.4547 110.589 66.3547 111.489 66.2547C114.289 66.1547 117.189 66.0547 119.989 65.9547C125.689 65.9547 131.389 65.9547 137.089 66.3547C148.489 67.1547 159.789 69.0547 170.989 71.7547C181.989 74.4547 192.789 77.8547 203.889 80.4547C209.189 81.6547 214.389 82.7547 219.489 84.5547C224.589 86.3547 229.189 88.5547 233.689 91.0547C244.189 96.8547 254.189 104.155 262.589 112.755C262.889 113.055 263.389 112.755 263.189 112.255C262.989 111.955 262.889 111.755 262.689 111.455C262.389 111.055 261.789 111.455 262.089 111.855C262.289 112.155 262.389 112.355 262.589 112.655L263.189 112.155C255.789 104.655 246.989 98.0547 237.989 92.5547C229.089 87.1547 219.589 83.0547 209.389 80.7547C198.089 78.2547 187.089 74.9547 175.889 72.0547C164.989 69.2547 153.989 66.9547 142.789 65.8547C136.389 65.2547 129.989 64.9547 123.589 64.9547C120.389 64.9547 117.089 64.9547 113.789 65.1547C112.489 65.1547 110.989 65.5547 109.689 65.3547C108.989 65.2547 108.389 64.8547 107.689 64.7547V65.4547C117.689 64.8547 127.789 64.6547 137.889 65.4547C149.189 66.2547 160.289 68.2547 171.189 70.9547C182.089 73.6547 192.789 77.0547 203.789 79.5547C209.089 80.7547 214.389 81.8547 219.389 83.7547C224.389 85.6547 229.089 87.8547 233.689 90.3547C238.789 93.1547 243.589 96.3547 248.289 99.8547C253.189 103.455 257.889 107.355 262.189 111.755C262.489 112.155 263.089 111.555 262.689 111.255L262.589 111.655Z" fill="#346E3C" fill-opacity="0.55"/>
</svg>
