<svg xmlns="http://www.w3.org/2000/svg" width="530" height="262" fill="none" viewBox="0 0 530 262"><g fill="#346e3c" fill-opacity=".55" opacity=".12"><path d="M674.112 152.729c-70.037-8.49-140.33-16.085-210.623-20.553-44.639-2.905-89.791-4.245-134.43-2.458-33.35 1.341-66.445 4.915-99.539 9.607-19.497 2.68-38.995 6.032-58.749 8.712-30.785 4.022-62.34 6.256-93.638 3.798-14.88-1.117-30.273-3.351-44.383-8.042-1.539-.447-3.078-1.117-4.617-1.788-.514-.223-1.54-.893-2.053-.893-1.026 0-2.052.67-3.078 1.117l-13.597 5.808-8.21 3.575s1.54 2.457 1.796 2.457c7.44-3.127 14.88-6.478 22.32-9.606 2.822-1.117 2.308-.894 4.874 0 10.518 4.468 22.32 6.479 33.864 8.043 52.078 7.149 104.413-1.564 155.722-9.16 32.582-4.915 65.163-8.936 98-10.724 42.587-2.457 85.43-1.563 128.016.671 66.702 3.574 133.147 10.5 199.335 18.096 10.262 1.117 20.78 2.457 31.042 3.797-.513 0-1.026-2.457-1.539-2.457z"/><path d="M674.368 152.059c-44.639-5.362-89.278-10.5-133.917-14.522-44.895-4.021-89.79-7.595-134.942-8.712-45.152-1.341-90.304-.001-135.199 4.691-44.639 4.915-88.508 14.075-133.403 17.426-22.32 1.563-44.639 1.787-66.702-.224-10.775-1.117-21.293-2.681-31.555-5.585-2.309-.67-4.618-1.34-6.926-2.234-1.54-.67-3.849-2.234-5.645-2.234-1.282 0-2.308.447-3.335 1.117l-7.696 3.351-14.623 6.255c-.513 0-.513.671-.256 1.118.77.893 1.026 1.787 1.795 2.68.257.224.77.224 1.027 0l14.622-6.255c2.31-1.117 4.618-2.011 6.927-2.904 1.54-.671 2.31-.894 4.105-.447 1.283.447 2.565 1.117 3.848 1.564 9.236 3.351 18.984 5.138 28.99 6.702 21.293 2.904 42.843 3.351 64.392 2.234 43.87-2.458 87.226-10.947 130.582-16.309 44.382-5.585 89.277-7.595 134.172-6.925 44.639.67 89.278 3.798 133.917 7.596 44.895 4.021 89.79 8.936 134.686 14.074l16.162 2.011c1.026 0 1.796-.894.77-1.564-.77-.447-.513-1.787-1.54-2.457-1.026-.671-2.052.893-1.026 1.563.77.447.77 1.788 1.539 2.458l.77-1.564c-44.382-5.362-88.764-10.5-133.403-14.521s-90.047-7.596-135.199-8.937-90.304 0-135.456 4.692c-44.382 4.915-88.251 13.628-132.89 17.202-22.319 1.787-44.639 2.234-66.958 0-10.775-1.117-21.55-2.681-31.812-5.585-2.565-.67-5.13-1.564-7.696-2.458-1.54-.446-3.078-1.563-4.618-1.787-1.026 0-2.052.224-2.822.67a131 131 0 0 0-8.21 3.575l-14.622 6.255h1.026c-.513-.446-1.026-1.563-1.54-2.234v1.117c4.619-2.01 9.236-4.244 14.11-6.255 2.31-.894 4.619-2.011 6.927-2.904 1.027-.447 1.796-.894 3.079-.894 1.54 0 2.565.894 3.848 1.34 9.236 3.575 19.241 5.586 29.246 7.149 21.037 3.128 42.843 3.575 64.136 2.458 44.126-2.011 87.482-10.947 131.095-16.309 44.382-5.361 89.021-7.819 133.916-6.925 44.895.67 89.791 3.798 134.429 7.595 44.639 3.798 90.048 8.937 134.943 14.075 5.387.67 11.031 1.341 16.419 2.011 1.282 0 1.796-1.564.513-1.564z"/><path d="M412.693 225.336c7.439-3.798 14.623-7.373 22.062-11.171 1.283-.67 2.053-.893 2.822-2.01a68 68 0 0 1 3.592-5.585c11.288-17.426 25.398-34.405 42.586-48.033 11.288-8.936 24.372-16.308 39.252-19.436 0 0-1.539-2.234-1.539-2.458-8.723-10.723-17.189-21.447-25.912-32.17-1.282-1.564-2.565-2.904-3.591-4.468.513.67 1.026 1.787 1.539 2.457 8.723 10.724 17.189 21.447 25.911 32.171 1.283 1.564 2.566 2.904 3.592 4.468l-1.539-2.458c-26.425 5.586-46.948 24.128-62.854 42.224-6.414 7.373-12.314 15.192-17.702 23.234-1.539 2.234-2.822 4.469-4.361 6.703-.513.893-.769 1.563-1.539 2.01-1.539.894-3.335 1.787-5.131 2.681l-7.953 4.021-10.775 5.362z"/><path d="M413.205 226.006c4.874-2.458 9.492-4.915 14.366-7.149 2.309-1.117 4.875-2.458 7.184-3.575 1.282-.67 2.565-1.117 3.335-2.234 2.822-3.574 4.874-7.596 7.44-11.393 2.565-3.798 5.13-7.149 7.952-10.724 11.032-14.298 24.372-28.149 40.534-38.426 8.723-5.585 18.472-10.053 29.247-12.287.769 0 1.026-.894.513-1.341-.77-.67-1.027-1.563-1.54-2.234-1.282-1.787-2.822-3.574-4.361-5.361-2.822-3.351-5.387-6.926-8.209-10.277-5.644-6.926-11.288-14.075-16.932-21-.77-.894-2.309 0-1.54.893 4.618 6.703 10.262 12.958 15.393 19.437 5.131 6.478 10.519 13.181 15.906 19.66.77.893 2.309-.001 1.539-.894l-1.539-2.458c0-.446-.77-.446-1.026-.446-17.958 3.797-33.094 13.404-45.922 24.798-13.853 12.287-25.654 26.585-35.403 41.553-1.539 2.458-3.078 5.809-5.131 7.819-1.796 1.788-4.874 2.681-7.183 3.798-5.387 2.681-11.031 5.586-16.675 8.49-.513.223-.513.67-.257 1.117.513.893 1.026 1.787 1.539 2.457.77.894 2.309 0 1.54-.893-.514-.894-1.283-1.564-1.54-2.458v1.117c4.362-2.457 8.979-4.691 13.854-7.149 2.052-1.117 4.104-2.01 6.157-3.127 1.796-.894 3.591-1.564 4.618-2.905 2.822-3.798 5.131-8.266 7.952-12.287 2.822-4.021 5.644-7.819 8.723-11.617 11.031-13.851 23.602-27.256 39.508-37.086 8.722-5.361 18.215-9.606 28.733-11.84l-1.026-.447 1.539 2.458 1.539-.894c-5.387-6.479-10.518-13.181-15.906-19.66-5.387-6.479-10.774-12.734-15.392-19.436l-1.54.893c5.901 7.373 11.802 14.522 17.702 21.894 2.822 3.575 5.644 7.149 8.723 10.724 1.282 1.564 2.565 2.904 3.591 4.468.513.67.77 1.564 1.54 2.234l.513-1.341c-18.215 4.022-33.608 14.075-46.692 25.469-13.853 12.064-25.141 26.362-34.89 41.106-1.539 2.235-2.565 4.915-4.361 6.926-1.539 2.011-4.874 2.904-7.44 4.245l-16.932 8.713c-1.026.446 0 2.01 1.027 1.563zM168.459 148.484c-22.063 25.915-51.565 46.692-82.607 63.671-11.545 6.255-23.346 12.287-35.66 17.649-5.9 2.68-12.057 4.915-17.958 7.372-.513 0-.513.223-1.026.67a47 47 0 0 0-4.874 4.915c-3.592 3.351-7.184 6.926-10.775 10.277 0 0 1.795 2.234 1.795 2.457 3.079-2.904 6.158-5.808 9.236-8.936l5.644-5.362c.513-.447 1.026-1.117 1.54-1.34 1.282-.67 3.078-1.117 4.617-1.787 3.592-1.341 6.927-2.905 10.518-4.245 27.194-11.617 52.849-25.915 76.451-42.447 16.675-11.841 32.324-25.245 45.152-40.437.256-.223-1.796-2.234-1.54-2.457z"/><path d="M167.434 148.037c-16.162 18.766-36.173 35.075-57.722 48.926-21.55 13.851-46.435 26.809-71.833 37.085-3.078 1.117-6.157 2.234-8.466 4.245l-7.696 7.372-4.105 4.022c-.77.67-2.822 2.234-3.078 3.127-.514 1.341 1.539 1.788 1.539 2.905 0 .67 1.026 1.117 1.539.67 4.874-4.692 10.005-9.383 14.623-14.075 2.053-2.01 4.874-2.681 7.44-3.574 3.335-1.341 6.67-2.681 10.005-4.245 12.314-5.362 24.372-11.17 36.173-17.649 22.832-12.511 44.639-26.809 63.623-43.564 5.387-4.692 10.518-9.607 15.136-14.745 1.026-1.117 2.309-2.458 3.335-3.575.513-.67 2.566-2.457 2.822-3.351.257-1.34-1.539-1.787-1.539-2.904s-2.052-1.117-2.052 0 1.539 1.787 1.282 2.681c-.256 1.117-2.822 3.128-3.591 4.021-1.026 1.117-2.053 2.234-3.335 3.351a341 341 0 0 1-13.341 12.958c-9.235 8.266-18.984 15.638-29.502 22.787-21.294 14.745-44.64 27.256-69.01 37.979-3.336 1.341-6.671 2.905-10.006 4.245-2.565 1.117-5.9 1.787-7.953 3.351-5.644 4.692-10.518 10.053-15.65 15.192l1.54.67c0-.447 0-.67-.513-1.117 0-.223-.513-.447-.77-.894-.256-.893-.256 0 0-.893.513-1.117 2.31-2.234 3.335-3.128l4.105-4.021c2.053-2.011 4.105-4.245 6.414-6.256 2.309-2.234 6.157-3.127 9.235-4.468 13.084-5.138 25.655-11.17 37.969-17.649 22.32-11.617 43.613-25.021 62.34-40.66 10.519-8.489 20.011-17.872 28.733-27.925.77-.894-1.026-1.788-1.539-.894zM49.424 174.623c4.361-2.234 8.466-4.468 12.57-6.926 3.079-2.01 6.414-4.021 9.236-6.255 1.796-1.341 5.13-3.575 5.644-5.809 0-1.117-1.283-2.457-2.052-3.351l-3.335-4.468-11.032-14.745c-2.565-3.351-5.13-6.925-7.696-10.276.513.67 1.026 1.787 1.54 2.457 6.67 8.713 13.083 17.649 19.753 26.362 1.026 1.34 1.796 2.457 2.822 3.798l-1.54-2.458c-.769 2.458-3.334 4.245-5.387 6.032-2.822 2.235-5.9 4.245-9.235 6.256-4.105 2.457-8.466 4.915-13.084 7.149 0 0 1.54 2.457 1.796 2.457z"/><path d="M49.936 175.293c6.414-3.128 12.57-6.702 18.471-10.5 2.822-2.011 10.262-6.032 9.493-9.83-.514-2.011-3.08-4.245-4.362-6.032l-6.157-8.489c-4.618-6.032-8.979-12.064-13.597-18.096-.77-.894-2.309 0-1.795.894 7.44 11.17 15.905 21.67 24.115 32.393.77.894 2.309 0 1.796-.893l-1.54-2.458c-.513-.67-1.54-.447-1.796 0-2.052 4.468-8.209 7.819-12.314 10.5-4.618 2.905-9.748 5.585-14.623 8.266-.513.224-.513.671-.256 1.117.513.894 1.026 1.788 1.795 2.458.77.894 2.31 0 1.796-.894-.513-.67-1.026-1.564-1.796-2.457v1.117c5.644-2.904 11.545-6.256 16.932-9.83 4.105-2.681 8.98-5.585 10.775-9.83h-1.796l1.54 2.681 1.796-.894c-8.21-10.723-16.42-21.447-24.116-32.394l-1.795.894c7.44 9.83 14.623 19.66 22.062 29.49 1.027 1.117 1.796 2.234 1.54 3.798-.257 1.117-2.053 2.234-2.822 2.904-2.053 1.787-4.362 3.351-6.67 4.915-5.388 3.574-11.032 6.702-16.932 9.606-1.027.447 0 2.011 1.026 1.564z"/><path d="M59.432 180.878c4.617-2.234 8.979-4.915 13.34-7.372 6.927-4.022 14.366-8.713 19.497-14.522.77-.67 2.31-2.457 2.053-3.351 0-.67-1.283-2.01-1.796-2.457-.77-1.117-1.796-2.234-2.822-3.128-4.618-5.138-8.98-10.277-13.34-15.415l-10.006-11.394c.77.671 1.026 1.788 1.796 2.458 7.696 8.713 15.393 17.425 23.09 26.362l3.334 3.798-1.796-2.458c-.77 2.458-2.822 4.468-4.874 6.256-2.565 2.457-5.644 4.468-8.466 6.702-5.644 3.798-11.544 7.372-17.701 10.5-1.283.67-2.566 1.34-4.105 2.01 0 0 1.539 2.458 1.795 2.458z"/><path d="M59.944 181.548c7.44-3.798 14.623-7.819 21.293-12.287 3.079-2.011 5.9-4.021 8.21-6.255 2.052-1.788 4.617-4.022 5.644-6.479.77-2.011-1.283-3.798-2.566-5.138-2.822-3.128-5.387-6.256-8.21-9.16a4907 4907 0 0 0-17.188-19.66c-.77-.894-2.309 0-1.795.894 8.465 11.394 18.47 21.894 27.963 32.617.77.894 2.309 0 1.796-.894l-1.796-2.457c-.513-.67-1.54-.447-1.796 0-2.822 6.032-10.518 10.723-16.162 14.521s-12.058 7.149-18.472 10.5c-.513.224-.513.671-.256 1.117.513.894 1.026 1.788 1.796 2.458.77.894 2.309 0 1.796-.894-.514-.893-1.027-1.563-1.796-2.457v1.117c6.927-3.798 13.853-7.596 20.523-12.064 5.644-3.798 12.058-8.043 14.623-13.851h-1.795l1.795 2.681 1.796-.894c-9.492-10.723-19.497-21.224-27.963-32.617l-1.796.893c4.874 5.586 10.005 11.394 14.88 16.979l7.183 8.043c1.283 1.34 2.309 2.681 3.592 4.021.77.67 2.308 2.234 2.052 3.351-.257 1.117-1.796 2.458-2.566 3.351-1.282 1.341-2.565 2.458-3.848 3.798-2.565 2.234-5.644 4.245-8.466 6.256-6.413 4.021-12.827 7.819-19.497 11.17-1.026.447 0 2.011 1.026 1.564z"/><path d="M87.904 174.623c4.105-2.458 8.21-5.139 12.314-7.819 3.079-2.011 5.9-4.245 8.466-6.926 1.026-.894 2.052-2.011 2.565-3.128.77-1.34.77-1.564 0-2.904-1.795-2.458-3.848-4.915-5.644-7.372-3.848-4.692-7.44-9.383-11.288-14.298-2.565-3.128-5.13-6.256-7.696-9.607.513.67 1.026 1.787 1.796 2.458 6.927 8.712 13.853 17.425 21.037 26.138 1.026 1.341 2.052 2.458 3.078 3.798l-1.796-2.457c-.769 2.234-2.822 4.244-4.874 6.032-2.566 2.234-5.387 4.244-7.953 6.255-3.592 2.457-7.183 4.915-11.031 7.149l1.796 2.457z"/><path d="M88.418 175.293c5.644-3.351 11.288-6.926 16.419-10.947 2.565-2.011 9.236-6.702 7.44-10.277-1.283-2.68-3.592-4.914-5.644-7.372-2.053-2.681-4.105-5.138-6.157-7.819-4.362-5.585-8.723-11.171-13.34-16.532-.77-.894-2.31 0-1.796.893 7.952 11.171 16.931 21.671 25.654 32.394.77.894 2.309 0 1.796-.893l-1.796-2.458c-.513-.67-1.539-.447-1.796 0-1.796 4.245-6.67 7.596-10.518 10.277-4.105 2.904-8.466 5.808-13.084 8.489-.257 0-.513.671-.513.894.513.894 1.283 1.787 1.796 2.681.513.893 2.309 0 1.796-.894-.513-.67-1.283-1.564-1.54-2.234l-.513.894c4.875-2.905 9.749-6.032 14.11-9.383 3.848-2.905 8.21-6.256 10.262-10.5h-1.796l1.796 2.68 1.796-.893c-8.466-10.724-17.702-21.447-25.655-32.394l-1.796.894c7.184 9.159 14.624 18.319 21.807 27.255 1.796 2.234 4.105 4.468 2.052 7.149-1.796 2.234-4.105 4.021-6.413 5.809-4.875 3.798-10.006 7.149-15.65 10.5-1.026.67 0 2.01 1.026 1.564zM7.095 121.229c5.9 6.478 11.8 12.957 17.445 19.659l2.565 2.681c-.77-.67-1.026-1.787-1.796-2.457-5.9-6.479-11.8-12.958-17.445-19.66L5.3 118.771c.77.671 1.026 1.787 1.796 2.458"/><path d="M6.582 121.676c6.67 7.372 13.34 14.968 20.01 22.34.77.67 2.053-.223 1.54-1.117-.77-.894-1.026-1.787-1.796-2.681l-3.078-3.351c-2.053-2.234-3.848-4.245-5.9-6.479-3.849-4.244-7.44-8.489-11.289-12.51-.77-.671-2.052.223-1.54 1.117.514.893 1.027 1.787 1.797 2.457.77.894 2.309 0 1.796-.893-.514-.894-1.027-1.788-1.796-2.458l-1.54 1.117 10.775 12.064c1.796 2.011 3.849 4.245 5.644 6.255 1.027 1.117 1.796 2.011 2.822 3.128.77.894 1.283 2.011 2.31 3.128l1.538-1.117c-6.67-7.373-13.34-14.969-20.01-22.341-.77-.894-2.052.447-1.283 1.117z"/><path d="M24.796 116.537c9.236 10.277 18.472 20.554 27.45 30.83 1.283 1.564 2.566 2.905 3.849 4.468l-1.796-2.457c-2.566 2.681-5.644 4.468-8.98 6.479-4.104 2.457-8.209 4.468-12.313 6.702a487 487 0 0 1-15.65 7.149s1.54 2.457 1.796 2.457c5.388-2.234 10.519-4.691 15.65-7.149 4.104-2.01 8.465-4.244 12.314-6.702 3.078-1.787 6.413-3.798 8.979-6.479 0 0-1.54-2.234-1.796-2.457-9.236-10.277-18.471-20.554-27.45-30.83-1.283-1.564-2.566-2.904-3.849-4.468.77.67 1.027 1.787 1.796 2.457"/><path d="M24.026 117.207c10.518 11.618 21.037 23.458 31.298 35.075.77.67 2.053 0 1.54-1.117l-1.796-2.457c-.257-.447-1.026-.671-1.54 0-4.617 4.691-11.287 8.042-17.444 11.17-6.158 3.128-12.828 6.255-19.498 8.936-.513 0-.513.894-.256 1.117.77.894 1.026 1.788 1.796 2.681.256.224.77.224 1.026 0 8.21-3.351 16.419-7.149 24.115-11.394 3.335-1.787 6.67-3.797 9.749-6.032 1.539-1.117 4.104-2.457 3.335-4.468-1.027-2.457-3.592-4.468-5.388-6.478-3.078-3.575-6.157-6.926-9.492-10.501-5.9-6.702-12.058-13.404-17.958-20.106-.77-.67-2.053 0-1.54 1.117.514 1.117 1.027 1.787 1.796 2.457.77.894 2.31 0 1.796-.893-.513-.894-1.026-1.787-1.796-2.458l-1.539 1.117c5.131 5.809 10.519 11.617 15.65 17.426 5.13 5.809 11.03 11.617 15.905 17.873 0 .223.77.893.77 1.117 0 .67 0 .223-.257.893-1.026 1.341-3.335 2.681-4.618 3.351-3.078 2.011-6.413 3.798-9.748 5.585a303 303 0 0 1-21.55 10.054h1.026c-.77-.447-1.026-1.564-1.54-2.234v1.117c6.671-2.905 13.598-6.032 20.268-9.607 5.9-3.128 12.314-6.255 16.675-10.723h-1.539l1.796 2.234 1.54-1.117c-10.52-11.617-21.037-23.458-31.3-35.075-.769-.894-2.052.447-1.282 1.117zM124.591 166.58c4.105-4.245 8.466-8.266 12.571-12.511 0 0-1.539-2.234-1.539-2.457-7.44-8.49-14.623-16.756-22.063-25.245-1.026-1.117-2.052-2.457-3.079-3.574.77.67 1.027 1.787 1.796 2.457 7.44 8.489 14.623 16.755 22.063 25.245 1.026 1.117 2.052 2.457 3.079 3.574l-1.54-2.457c-4.104 4.245-8.466 8.266-12.57 12.511 0 .223 1.795 2.234 1.795 2.457z"/><path d="m125.105 167.25 6.157-6.255 3.079-2.904c1.026-.894 2.822-2.234 3.335-3.351 1.026-2.011-3.335-5.585-4.618-6.926l-22.319-25.468c-.77-.894-2.309 0-1.796.893 4.105 5.586 8.722 10.5 13.34 15.862s8.979 10.5 13.597 15.639c.77.893 2.309 0 1.539-.894l-1.539-2.457c-.257-.447-1.026-.671-1.539 0-3.592 3.574-7.184 7.149-10.775 10.946-.77.671-2.053 1.564-1.796 2.681 0 .67 1.539 1.788 1.539 2.011 0 1.117 2.053 1.117 2.053 0s-.513-1.117-1.027-1.564c0 0-.256-.447-.513-.67-.256-.224 0-.447 0-.223.257-.671 1.796-1.788 2.309-2.235l9.492-9.606h-1.539l1.539 2.234 1.54-.894c-4.618-5.138-8.979-10.5-13.597-15.638s-9.236-10.277-13.34-15.862l-1.796.894c6.67 7.596 13.34 15.415 20.01 23.011 1.539 2.01 3.592 3.798 5.131 5.808.257.447.513.67.77 1.117 0 0 .513.447.513.67 0 .671 0 0-.513.671-3.592 4.021-7.697 7.819-11.545 11.617-.769.893.513 2.01 1.283 1.117zM134.855 129.271l20.01 20.107c1.026.893 1.796 2.011 2.822 2.904-.769-.67-1.026-1.787-1.539-2.457l-20.011-20.107c-1.026-.894-1.795-2.011-2.822-2.904.77.67 1.027 1.787 1.54 2.457"/><path d="M134.084 129.942c7.697 7.595 15.137 15.191 22.833 23.01.769.671 2.309-.223 1.539-1.117-.77-.893-1.026-1.787-1.796-2.681-1.026-1.117-2.309-2.234-3.335-3.351-2.309-2.234-4.361-4.468-6.67-6.702-4.361-4.468-8.722-8.713-13.084-13.181-.769-.67-2.309.224-1.539 1.117.77.894 1.026 1.788 1.539 2.458.77.893 2.309 0 1.54-.894-.77-.67-1.027-1.787-1.54-2.457l-1.539 1.117c4.105 4.244 8.466 8.489 12.571 12.734 2.052 2.01 4.104 4.245 6.157 6.255 1.026 1.117 2.052 2.234 3.078 3.128 1.027.893 1.283 2.01 2.309 3.128l1.539-1.118c-7.696-7.595-15.136-15.191-22.832-23.01-.77-.894-2.052.447-1.283 1.117zM154.349 129.271c10.262 5.362 20.78 10.947 31.042 16.309l4.361 2.234-1.539-2.457c-4.875 6.702-9.749 13.404-14.367 20.33-.256.446 2.053 2.234 1.54 2.457 4.874-6.702 9.748-13.404 14.366-20.33l-1.539-2.457c-10.262-5.362-20.78-10.947-31.042-16.309-1.539-.67-3.079-1.564-4.361-2.234.769.447.769 2.01 1.539 2.457"/><path d="m153.837 130.165 35.404 18.766c.769.447 1.795-.447 1.282-1.117l-1.539-2.457c-.257-.447-1.283-.447-1.539 0-3.592 4.914-6.927 9.829-10.519 14.744l-2.565 3.575c-.513.67-1.539 1.564-1.539 2.457 0 1.117 1.795 1.788 1.539 2.458 0 .893 1.283 1.117 1.796.447 3.848-5.139 7.44-10.5 11.288-15.639 1.026-1.34 1.796-2.457 2.822-3.798.513-.67.769-.893.513-1.564-.257-.893-1.283-2.01-2.053-2.68-1.026-.894-3.078-1.564-4.361-2.235l-4.361-2.234-8.723-4.691c-5.9-3.128-12.057-6.255-17.958-9.383-1.026-.447-2.052.67-1.026 1.34s.77 1.788 1.539 2.458c1.027.67 2.309-.447 1.283-1.117-.77-.67-.77-1.788-1.539-2.458l-1.026 1.341c10.518 5.585 21.036 11.17 31.555 16.532 1.539.67 4.874 1.787 4.874 3.798 0 .446-1.283 1.787-1.796 2.457l-2.309 3.128c-3.335 4.691-6.926 9.606-10.262 14.298l1.796.447c0-1.117-1.539-1.564-1.282-2.458s1.539-2.234 2.052-3.127l2.565-3.575c3.079-4.468 6.414-8.936 9.493-13.181h-1.54l1.54 2.457 1.282-1.117-35.403-18.766c-1.026-.447-2.052.894-1.026 1.564zM21.718 214.612c9.492 4.915 18.984 9.606 28.476 14.521l4.105 2.011-1.796-2.457c.77 7.372 1.283 14.744 2.053 22.117 0 .893 1.539 1.564 1.796 2.457-.257-3.798-.77-7.596-1.027-11.393l-.77-7.82c0-.893 0-2.234-.256-3.127-1.283-2.905-4.618-3.798-7.44-5.362-5.387-2.681-10.518-5.362-15.905-8.043-3.592-1.787-7.184-3.798-10.775-5.585.77.447.77 2.011 1.796 2.458z"/><path d="M21.204 215.282c10.775 5.585 21.807 11.17 32.581 16.756.77.446 1.796-.447 1.283-1.117l-1.796-2.458c-.513-.67-1.795-.447-1.795.447.513 4.692.77 9.16 1.282 13.851l.513 6.479c0 .67 0 1.564.513 2.457.514.894 1.283 1.117 1.54 2.011.256.894 2.052.67 1.795 0l-1.539-16.755c0-2.011 0-4.245-.77-6.256-.769-1.34-2.052-2.457-3.591-3.351-4.618-2.681-9.749-4.915-14.367-7.149a575 575 0 0 1-16.418-8.489c-1.026-.447-2.053.67-1.026 1.34s.77 1.787 1.795 2.458c.77.67 2.31-.447 1.283-1.117-.77-.671-.77-1.788-1.796-2.458l-1.026 1.341c9.492 4.915 18.984 10.053 28.733 14.521 1.796.894 3.848 1.787 4.874 3.574 1.026 2.011.77 4.915.77 7.149.513 5.139 1.026 10.054 1.283 15.192h1.795c0-.67-.513-.894-.77-1.34-.769-1.117-1.025-2.234-1.025-3.575l-.513-6.479c-.514-4.468-.77-8.712-1.283-12.957l-1.796.447 1.796 2.457 1.283-1.117c-10.775-5.585-21.807-11.17-32.582-16.755-1.026-.447-2.052.893-1.026 1.564z"/><path d="M34.032 209.25c10.005 4.468 19.754 9.16 29.76 13.628l4.36 2.011-1.795-2.458v23.681c0 .894 1.796 1.787 1.796 2.458v-23.681c0-.447-1.283-2.235-1.796-2.458-10.005-4.468-19.754-9.16-29.76-13.628l-4.36-2.01c.769.446.769 2.234 1.795 2.457"/><path d="M33.52 209.92c11.287 5.139 22.575 10.277 33.863 15.639.77.447 1.796-.447 1.283-1.117l-1.796-2.458c-.513-.67-1.796-.447-1.796.447v24.351c.257.671 1.283 1.117 1.54 2.011 0 .894 1.795.67 1.795 0v-17.202c0-3.128 1.026-7.373-2.052-9.83-1.026-.894-2.822-1.34-4.105-1.787l-4.105-1.788-8.722-4.021c-5.644-2.681-11.288-5.138-17.189-7.819-1.026-.447-2.052.67-1.026 1.34 1.026.671.77 1.788 1.796 2.458s2.309-.447 1.283-1.117c-.77-.67-.77-1.787-1.796-2.458l-1.026 1.341 30.785 14.074c1.796.894 3.848 1.341 4.361 3.351.257 1.117 0 2.905 0 4.022v19.66h1.796c0-.671-.513-1.118-.77-1.564-.77-1.117-.77-1.788-.77-3.128v-21.67l-1.795.446 1.796 2.458 1.283-1.117c-11.288-5.139-22.576-10.277-33.864-15.639-1.026-.446-2.053.894-1.026 1.564z"/><path d="M47.884 203.218c10.261 4.021 20.78 8.043 31.042 12.064l4.36 1.787-1.795-2.457c-.513 9.159-1.283 18.319-2.052 27.479v4.021c-.257.894 1.539 1.787 1.282 2.458.513-9.16 1.283-18.32 2.053-27.479v-4.022c.256-.446-1.026-2.457-1.283-2.457-10.262-4.022-20.78-8.043-31.042-12.064l-4.361-1.787c.77.223.77 2.234 1.796 2.457"/><path d="M47.371 203.888c11.801 4.692 23.602 9.16 35.403 13.852.77.446 1.796-.447 1.283-1.117l-1.796-2.458c-.513-.67-1.796-.447-1.796.447-.513 6.479-.77 12.957-1.282 19.436l-.514 9.16c0 1.117-.513 2.234 0 3.351.257.894 1.283 1.34 1.54 2.234 0 .894 1.796.67 1.796 0 .513-6.479.77-12.957 1.282-19.436l.513-9.16c0-2.011.257-3.351-1.026-4.915s-3.848-2.234-5.9-2.904l-10.005-3.798c-6.927-2.681-13.597-5.362-20.268-7.819-.77-.447-2.052.67-1.026 1.34s.77 1.787 1.796 2.458c1.026.67 2.309-.447 1.283-1.117-.77-.671-.77-1.788-1.796-2.458l-1.026 1.341c5.9 2.234 11.8 4.691 17.958 6.925l8.979 3.575 4.618 1.787c1.282.447 3.335 1.117 4.361 2.011 1.54 1.563.513 4.468.513 6.255l-.513 8.489c-.513 6.032-.77 12.064-1.283 17.873h1.796c0-.894-.77-1.117-1.026-1.787-.77-1.341-.257-3.128 0-4.692l.513-8.936c.513-6.255.77-12.288 1.283-18.543l-1.796.447 1.796 2.457 1.282-1.117c-11.8-4.691-23.602-9.159-35.403-13.851-1.026-.447-2.052 1.117-1.026 1.564z"/><path d="M69.434 201.208c10.005 2.01 20.267 4.244 30.528 6.255l-1.796-2.457c-1.026 10.276-2.308 20.553-3.335 31.053l-.513 4.468c0 .67 1.796 1.787 1.796 2.458 1.026-10.277 2.31-20.554 3.335-31.054l.513-4.468c0-.223-1.539-2.457-1.796-2.457-10.005-2.011-20.266-4.245-30.528-6.256.77 0 .77 2.234 1.795 2.458"/><path d="M69.178 202.101c10.005 2.011 20.267 4.245 30.529 6.256.77 0 1.539-.671 1.026-1.117l-1.796-2.458c-.513-.67-1.796-.447-1.796.447l-2.308 21.447-1.027 10.277c0 1.117-.513 2.68-.256 4.021 0 1.117 1.54 1.564 1.796 2.457.256.894 1.795.671 1.795 0 .77-6.255 1.283-12.734 2.053-18.989l1.026-8.936.513-4.468c0-.894.513-2.235 0-3.352 0-.893-1.026-2.234-1.796-2.68-1.026-.671-2.822-.671-3.848-.894l-5.387-1.117c-7.184-1.564-14.367-2.904-21.55-4.468-1.026 0-1.54 1.117-.77 1.564.77.446.513 2.01 1.796 2.457s2.052-.893 1.026-1.564c-.77-.447-.77-2.01-1.795-2.457l-.77 1.564 19.24 4.021 9.236 2.011c1.283.223 1.796.223 2.31 1.34.512 1.117.256 1.787 0 2.904-1.284 11.171-2.31 22.117-3.592 33.288h1.795c0-1.117-.77-1.341-1.282-2.011-.77-1.34 0-3.574 0-4.915l1.026-10.277c.77-6.925 1.54-13.851 2.309-20.553l-1.796.447 1.796 2.457 1.026-1.117c-10.005-2.01-20.267-4.244-30.529-6.255-1.283-.223-1.796 1.34-.513 1.564z"/><path d="M76.873 187.133c10.262 3.798 20.267 7.596 30.529 11.394 1.539.446 2.822 1.117 4.361 1.563l-1.796-2.457c-.256 9.83-.769 19.66-1.026 29.713v4.245c0 .893 1.539 1.787 1.539 2.457.257-9.83.77-19.66 1.027-29.713v-4.245c0-.446-1.283-2.457-1.54-2.457-10.262-3.798-20.267-7.596-30.529-11.394-1.539-.447-2.822-1.117-4.36-1.564.769.224.769 2.235 1.795 2.458"/><path d="M76.36 187.803c11.545 4.245 23.346 8.713 34.89 12.958.77.223 1.796-.447 1.283-1.117l-1.796-2.458c-.513-.67-1.795-.446-1.795.447 0 6.926-.514 13.628-.77 20.554v10.053c-.513 1.117-.77 2.457-.513 3.574 0 1.117 1.282 1.564 1.796 2.458.513.893 1.795.67 1.795 0 0-6.703.513-13.405.77-20.107v-9.606c.513-2.011 1.026-4.022 0-5.809s-2.822-2.234-4.874-2.904l-10.775-4.022c-6.927-2.457-13.854-5.138-20.78-7.595-.77-.447-2.053.67-1.026 1.34.77.67.77 1.787 1.795 2.458 1.026.67 2.31-.447 1.283-1.117-.77-.671-.77-1.788-1.796-2.458l-1.026 1.341c5.9 2.234 12.058 4.468 18.215 6.702 3.335 1.117 6.413 2.457 9.748 3.574 2.309.894 6.927 1.788 7.953 3.798 1.026 2.011.257 5.139 0 7.373v9.159c-.513 6.032-.769 12.064-1.026 18.096h1.796c0-.893-.77-1.117-1.026-1.787-.77-1.341-.513-3.351-.513-4.915V217.74c.513-6.479.769-12.958 1.026-19.66l-1.796.447 1.796 2.457 1.283-1.117c-11.545-4.245-23.346-8.713-34.89-12.957-1.027-.447-2.053 1.117-1.027 1.563z"/><path d="m94.575 179.761 32.325 10.053-1.796-2.458c-1.026 9.383-2.309 18.767-3.335 28.15l-.513 4.021c0 .67 1.796 1.787 1.796 2.457 1.026-9.383 2.308-18.766 3.335-28.149l.513-4.021c0-.223-1.283-2.458-1.796-2.458l-32.325-10.053c.77.224.77 2.234 1.796 2.458"/><path d="m94.32 180.654 32.324 10.053c.77.224 1.54-.67 1.026-1.117l-1.795-2.457c-.513-.67-1.796-.447-1.796.447-.77 6.702-1.539 13.181-2.309 19.883l-1.026 9.607c0 1.117-.513 2.457 0 3.351.256.893 1.539 1.34 1.539 2.234 0 1.117 1.796.67 1.796 0 .77-6.256 1.539-12.288 2.309-18.543l1.026-9.607c0-1.787.77-3.797 0-5.361s-1.796-1.788-3.592-2.458c-3.335-1.117-6.67-2.01-10.005-3.127-6.927-2.234-13.597-4.245-20.523-6.479-1.027-.447-1.54 1.117-.77 1.564.77.446.77 1.787 1.796 2.457s2.052-.894 1.026-1.564c-.77-.447-.77-1.787-1.796-2.457l-.77 1.564c5.901 1.787 12.058 3.798 17.959 5.585 3.078.893 5.9 1.787 8.979 2.904 2.052.67 5.131.894 5.9 2.904.77 1.788-.256 5.139-.513 7.149l-1.026 8.266-2.052 17.203h1.795c0-.894-.769-1.117-1.026-1.788-.769-1.34 0-3.351 0-4.691l1.026-9.16c.77-6.255 1.54-12.734 2.309-18.989l-1.796.446 1.796 2.458 1.026-1.117-32.324-10.053c-1.026-.447-1.796 1.34-.513 1.564z"/><path d="M114.072 174.622c8.21 2.011 16.419 4.245 24.372 6.256l-1.539-2.458v22.341c0 .893 1.539 1.787 1.539 2.457v-22.34c0-.224-1.283-2.458-1.539-2.458-8.209-2.01-16.419-4.244-24.372-6.255 0 0 .77 1.117.77 1.34 0 0 .513 1.117.769 1.341z"/><path d="M113.816 175.293c8.209 2.01 16.418 4.244 24.371 6.255.77 0 1.54-.67 1.027-1.117l-1.54-2.458c-.513-.67-1.796-.446-1.796.447v21c0 .671 0 1.564.257 2.234.256.671 1.283 1.117 1.283 1.788 0 .893 1.796.67 1.796 0v-20.554c0-1.564-.001-2.457-1.027-3.797-.769-1.341-1.539-1.341-3.078-1.788-2.566-.67-4.875-1.34-7.44-2.01l-15.393-4.022c-.769 0-1.796.894-1.026 1.341.77.67.77 1.787 1.796 2.457s2.309-.447 1.283-1.117c-.77-.67-.77-1.787-1.796-2.457l-1.026 1.34c4.617 1.117 8.979 2.234 13.597 3.575 2.052.446 4.361 1.117 6.413 1.563 1.026.224 2.309.447 3.335.894.77.223 1.026.447 1.54 1.117.769 1.34.513 2.904.513 4.468v18.543h1.795c0-.67-.513-1.117-.769-1.564-.77-.894-.77-1.564-.77-2.681v-20.553l-1.796.447 1.54 2.457 1.026-1.117c-8.21-2.011-16.419-4.245-24.372-6.255-1.283-.224-1.796 1.34-.513 1.564zM34.03 260.634c3.592-7.596 6.927-15.192 10.519-22.564l1.54-3.128s-1.54-2.458-1.797-2.458c-9.748-.893-19.497-1.787-28.989-2.681-1.283 0-2.822-.223-4.105-.446.513 0 1.026 2.457 1.796 2.457 9.749.894 19.497 1.787 28.99 2.681 1.282 0 2.822.224 4.104.447l-1.796-2.458c-3.591 7.596-6.926 15.192-10.518 22.564l-1.54 3.128c0 .447 1.797 2.011 1.797 2.458"/><path d="M35.056 260.857c2.566-5.362 5.131-10.724 7.44-16.309l3.592-8.042c.256-.671 1.026-1.564.77-2.234 0-.671-.77-1.117-1.027-1.788 0-.446-.513-.893-1.026-1.117-1.026-.446-2.822-.447-4.105-.447-3.335-.223-6.67-.67-10.005-.893-6.67-.67-13.34-1.117-19.754-1.787-1.026 0-1.283 1.117-.513 1.563.513 0 .513 1.564 1.026 2.011.513.67 1.026.67 1.796.67 3.592.447 7.44.671 11.031 1.117l21.55 2.011c.77 0 1.026-.67.77-1.34l-1.796-2.458c-.513-.67-1.54-.447-1.796 0-2.565 5.585-5.13 11.17-7.953 16.756l-3.591 8.042c-.257.67-.77 1.341-.257 2.011 0 .447 1.54 1.34 1.54 1.787 0 1.117 1.795 1.117 2.052 0q0-.67-.77-1.34c0-.224-.77-.67-1.026-1.117 0-.447.513-1.117.77-1.564l3.591-8.043c2.566-5.361 5.131-10.723 7.44-16.308h-1.796l1.796 2.68.77-1.34c-6.927-.67-13.597-1.117-20.524-1.787-3.335-.224-6.67-.67-10.005-.894-.513 0-2.053 0-2.566-.223 0 0-.256-.67-.513-.894 0-.447-.513-1.117-1.026-1.564l-.513 1.564c5.9.447 11.801 1.117 17.702 1.564 5.9.447 5.9.447 8.979.894l4.617.446c1.027 0 1.283 0 2.053.447.513.67.77.894.77 1.564 0 .894-1.027 2.234-1.54 3.351l-3.592 7.596c-2.308 4.915-4.617 9.606-6.67 14.521-.513 1.117 1.283 1.341 1.796.447zM200.016 164.793l20.78-21.447s-1.539-2.234-1.539-2.458c-12.058-7.819-24.115-15.861-36.173-23.681-1.796-1.117-3.335-2.234-5.131-3.351.77.447.77 2.011 1.539 2.458 12.058 7.819 24.116 15.862 36.173 23.681 1.796 1.117 3.335 2.234 5.131 3.351l-1.539-2.458-20.78 21.448c-.257.223 1.796 2.234 1.539 2.457"/><path d="M200.529 165.463c5.388-5.585 11.032-11.17 16.419-16.755 1.283-1.341 2.822-2.681 4.105-4.245.513-.67.513-.67.513-1.34 0-1.341-1.796-2.681-3.079-3.575-13.34-8.936-26.937-17.649-40.277-26.585-1.026-.671-1.796.67-1.026 1.34 1.026 1.117 1.026 2.011 2.309 2.904 1.795 1.341 4.104 2.681 5.9 4.022 3.848 2.457 7.697 5.138 11.545 7.596 7.696 5.138 15.392 10.053 23.089 15.191.769.447 1.796-.447 1.282-1.117l-1.539-2.457c-.256-.447-1.026-.671-1.539 0-5.131 5.138-10.262 10.5-15.393 15.638l-3.591 3.798c-.513.67-2.053 1.564-2.053 2.458 0 1.117 1.54 1.787 1.54 2.68 0 1.117 2.052 1.117 2.052 0 0-.893-1.796-1.787-1.539-2.457 0 0 1.539-1.117 1.539-1.341l1.796-2.01 3.335-3.351 13.853-14.075h-1.539l1.539 2.234 1.283-1.117c-7.44-4.915-14.88-9.83-22.319-14.521-3.592-2.458-7.44-4.915-11.032-7.373-1.796-1.117-3.592-2.457-5.644-3.574-1.796-1.117-2.565-2.458-3.848-3.798l-1.026 1.34c11.801 7.82 23.345 15.415 35.146 23.235 1.796 1.117 6.414 3.127 6.927 5.361 0 .671-1.283 1.788-2.052 2.458l-3.592 3.798c-4.874 4.915-9.749 10.053-14.623 14.968-.77.894.513 2.011 1.283 1.117zM224.9 168.367l22.32-25.468c1.026-1.117 2.052-2.457 3.335-3.575.256-.223-1.796-2.234-1.539-2.457l-22.32 25.468c-1.026 1.117-2.052 2.458-3.335 3.575-.256.223 1.796 2.234 1.539 2.457"/><path d="M225.67 168.814c5.387-6.255 10.775-12.287 16.162-18.319l7.696-8.713c.77-.894 2.053-1.787 1.54-2.904 0-.447-.513-.67-.77-.894 0-.223-.77-1.117-.77-.67 0-.894-1.026-1.34-1.795-.67-5.388 6.255-10.775 12.287-16.163 18.319l-7.696 8.713c-.77.893-2.052 1.787-1.539 2.904 0 .447.513.67.769.894 0 .223.77 1.117.77.67 0 1.117 1.539 1.564 1.796.447 0-.67-.257-1.117-.77-1.787-.256-.447-.77-.671-.77-.894 0-.447 1.283-1.341 1.796-1.787 2.566-2.905 5.131-5.809 7.697-8.937 5.387-6.032 10.518-11.84 15.649-17.872l-1.796-.67c0 .67.257 1.117.77 1.787.256.447.769.67.769.894 0 .446-1.282 1.34-1.796 1.787-2.565 2.904-5.13 5.808-7.696 8.936-5.387 6.032-10.518 11.841-15.649 17.873-.77.893 1.026 1.787 1.539.893zM210.535 121.899c8.21 5.585 16.419 10.947 24.629 16.532l3.591 2.234c-.769-.447-.769-2.011-1.539-2.457-8.209-5.586-16.419-10.947-24.628-16.532l-3.592-2.235c.77.447.77 2.011 1.539 2.458"/><path d="m210.021 122.793 27.964 18.766c.769.67 2.052-.671 1.026-1.341-.77-.67-.77-1.564-1.539-2.234-1.026-.893-2.566-1.787-3.592-2.457-2.822-1.787-5.644-3.798-8.209-5.585-5.388-3.798-11.032-7.373-16.419-11.171-.77-.67-2.053.67-1.026 1.341s.769 1.787 1.539 2.457c1.026.67 2.309-.447 1.283-1.117-.77-.67-.77-1.787-1.54-2.457l-1.026 1.34c5.388 3.575 10.775 7.149 15.906 10.724 2.565 1.787 5.131 3.574 7.953 5.361l2.052 1.341c.77.447 1.539.893 2.053 1.564.513.67.513 1.563 1.282 2.234l1.026-1.341-27.963-18.766c-1.026-.67-2.052.894-1.026 1.564zM220.794 113.186c11.545 7.149 23.089 14.521 34.377 21.67l4.874 3.128c-.769-.447-.769-2.01-1.539-2.457-11.544-7.149-23.089-14.522-34.377-21.671l-4.874-3.127c.77.446.769 2.01 1.539 2.457"/><path d="M220.282 114.08c13.084 8.266 26.168 16.532 39.508 24.798 1.026.447 1.796-.671 1.026-1.341-1.026-.893-1.026-2.01-2.309-2.904-1.796-1.117-3.848-2.457-5.644-3.574-3.848-2.458-7.44-4.692-11.288-7.149-7.44-4.692-14.879-9.384-22.319-13.852-1.026-.446-1.796.671-1.026 1.341.769.67.769 1.787 1.539 2.457s2.309-.447 1.283-1.117c-.77-.67-.77-1.787-1.54-2.457l-1.026 1.34 21.55 13.405c3.592 2.234 7.183 4.468 10.518 6.702l5.644 3.574c1.026.67 1.54 1.341 2.309 2.234.257.447.513.894.77 1.117l1.026-1.34c-13.084-8.266-26.168-16.532-39.508-24.798-1.026-.67-2.052.893-1.026 1.564zM250.555 162.112c6.157-7.372 12.057-14.745 18.214-22.117.77-1.117 1.796-2.234 2.566-3.128.256-.447-1.796-2.234-1.539-2.457-6.158 7.372-12.058 14.744-18.215 22.117-.77 1.117-1.796 2.234-2.566 3.128-.256.446 1.796 2.234 1.54 2.457"/><path d="m251.325 162.559 13.597-16.756c2.052-2.68 4.361-5.138 6.414-7.819.513-.67 1.026-1.117.513-2.011 0-.446-.513-.67-.77-.893 0 0 0-.224-.256-.447-.257-.223 0-.447-.257 0 0-.894-1.026-1.34-1.796-.67l-13.597 16.755c-2.052 2.681-4.361 5.139-6.413 7.82-.513.67-1.026 1.117-.513 2.01 0 .447.513.67.769.894 0 0 0 .223.257.447.256.223 0 .446.256 0-.256 1.117 1.54 1.564 1.796.446 0-.67-.256-1.117-.513-1.563-.256-.224-.769-.671-.769-.894 0 0 .513-.67.769-.67 2.053-2.681 4.361-5.139 6.414-7.819 4.361-5.362 8.979-10.724 13.34-16.309l-1.796-.67c0 .67.257 1.117.513 1.563.257.224.77.671.77.894 0 0-.513.67-.77.67-2.052 2.681-4.361 5.139-6.413 7.82-4.362 5.361-8.979 10.723-13.341 16.308-.769.894 1.027 1.787 1.54.894z"/><path d="M260.817 166.58c8.723-9.383 17.189-18.543 25.911-27.702l3.849-4.022s-1.54-2.234-1.54-2.457c-7.439-5.362-14.623-10.5-22.063-15.862.77.447.77 2.011 1.54 2.458 7.44 5.361 14.623 10.5 22.063 15.861l-1.54-2.457c-8.722 9.383-17.188 18.543-25.911 27.702l-3.848 4.022c-.256.223 1.796 2.234 1.539 2.457"/><path d="M261.587 167.25c9.492-10.276 19.241-20.553 28.733-30.83 1.283-1.34 1.539-1.563.513-3.127-1.282-2.011-3.335-3.128-5.131-4.468-6.157-4.245-12.057-8.713-18.214-12.958-1.026-.67-2.053.447-1.283 1.117.513.67.77 1.34 1.283 2.011.769.893 2.052 1.563 3.078 2.234 2.053 1.564 4.105 2.904 6.157 4.468 4.362 3.128 8.723 6.255 13.341 9.606.769.67 2.052 0 1.539-1.117l-1.539-2.457c-.257-.447-1.027-.67-1.54 0-6.67 7.149-13.083 14.074-19.754 21.223-3.078 3.351-6.157 6.702-9.235 9.83-.77.67-1.026.894-.77 1.788 0 .67 1.539 1.34 1.539 2.01 0 1.117 2.053 1.117 2.053 0 0-.67-.513-1.117-1.026-1.564 0 0-.257-.446-.513-.446-.257-.224-.257-.447 0-.447 0-.671 1.539-1.564 1.795-2.011l8.723-9.383c6.157-6.479 12.314-13.181 18.215-19.66h-1.54l1.54 2.234 1.539-1.117a2849 2849 0 0 1-13.341-9.606c-2.052-1.564-4.104-2.904-6.157-4.468-1.282-.894-2.565-1.788-3.335-3.128-.256-.447-.513-.894-1.026-1.34l-1.283 1.117c5.388 3.797 10.519 7.595 15.906 11.393 2.309 1.564 5.131 3.128 6.67 5.139 0 0 .513.67.513.893 0 .67 0 0-.256.67-.77 1.117-1.796 2.011-2.822 2.905-8.723 9.383-17.189 18.542-25.911 27.702-.77.894.513 2.011 1.283 1.117zM300.582 168.367c6.157-10.5 12.057-20.776 18.214-31.277.77-1.563 1.796-2.904 2.566-4.468.256-.446-2.053-2.01-1.539-2.457-6.158 10.5-12.058 20.777-18.215 31.277-.77 1.564-1.796 2.904-2.566 4.468-.256.447 2.053 2.011 1.54 2.457"/><path d="M301.351 168.814c4.361-7.372 8.723-14.968 13.084-22.34l6.157-10.724c.513-.894 1.796-2.234 1.539-3.351 0-.67-1.539-1.564-1.539-2.011 0-.893-1.283-1.117-1.796-.446-4.361 7.372-8.722 14.968-13.084 22.34l-6.157 10.724c-.513.893-1.796 2.234-1.539 3.351 0 .67 1.539 1.564 1.539 2.01 0 1.117 1.796 1.117 2.053 0 0-.893-.77-1.117-1.027-1.787-.513-.894 0-1.117.513-2.234l1.54-2.457 5.9-10.277c4.105-6.926 8.21-14.075 12.314-21l-1.795-.447c0 .894.769 1.117 1.026 1.787.513.894 0 1.117-.513 2.234l-1.54 2.458-5.9 10.276c-4.105 6.926-8.21 14.075-12.314 21.001-.513.893 1.026 1.787 1.539.893M321.361 155.41c4.874-6.702 9.492-13.628 14.366-20.33.77-.894 1.283-2.011 2.052-2.904 0 0-.769-1.117-.769-1.341s-1.026-1.117-.77-1.34c-4.874 6.702-9.492 13.627-14.366 20.33-.77.893-1.283 2.01-2.053 2.904 0 0 .77 1.117.77 1.34s1.026 1.117.77 1.341"/><path d="M322.387 155.857c3.591-5.362 7.44-10.5 11.288-15.862l2.822-4.022 1.283-1.787c.256-.447 1.026-1.117 1.282-1.787 0-.67 0-1.117-.513-1.787 0 0-.256-.447-.513-.447 0 0-.513-1.117-.513-.67 0-.67-1.283-1.117-1.796-.447-3.591 5.362-7.44 10.5-11.288 15.862l-2.822 4.021-1.283 1.787c-.256.447-1.026 1.117-1.282 1.788 0 .67 0 1.117.513 1.787 0 0 .256.447.513.447 0 0 .513 1.117.513.67 0 1.117 2.052 1.117 2.052 0 0-.67-.513-1.117-.769-1.564 0 0-.257-.447-.513-.67 0 0-.257-.224-.257-.447h.257c.513-.223 1.026-1.564 1.282-1.787l1.283-1.788 2.822-4.021c3.592-5.138 7.183-10.053 10.775-15.191l-1.796-.447c0 .67.513 1.117.77 1.564 0 0 .256.446.513.67 0 0 .256.223.256.447h-.256c-.513.223-1.026 1.563-1.283 1.787l-1.283 1.787-2.822 4.021c-3.591 5.139-7.183 10.054-10.774 15.192-.514.894 1.026 1.787 1.539.894"/><path d="M335.985 155.41c8.723-6.926 17.189-13.851 25.911-20.777l3.592-2.904-1.539-2.458c-25.398-4.691-50.283-12.287-73.372-23.234-18.215-8.49-35.147-18.99-50.539-31.053a236.6 236.6 0 0 1-30.786-29.266c-3.078-3.575-5.9-7.15-8.722-10.947l-1.54-2.011c0-.223-.256-.447-.513-.894 0-.223-.256-.446 0-.223 0 0 0-.224-.256-.447 0-.223-.257-.67-.513-.893-.257-.224-.257-.447-.513-.894-.513-.894-1.027-1.787-1.796-2.457-.513-.447-1.539-.894-2.309-1.341-6.157-4.021-12.058-7.82-18.215-11.617l-1.539-.894c.77.447.77 2.01 1.539 2.458 7.44 4.691 14.623 9.383 22.063 14.074l-1.539-2.457c1.796 3.127 4.104 6.255 6.157 9.383 4.874 6.925 10.518 13.404 16.419 19.66 9.235 9.606 19.241 18.542 30.272 26.585 14.11 10.276 29.246 19.213 45.665 26.809 19.754 8.936 40.791 15.861 62.34 20.553 3.079.67 6.157 1.34 9.236 1.787l-1.539-2.457c-8.723 6.925-17.189 13.851-25.911 20.777l-3.592 2.904s1.796 2.457 1.539 2.457z"/><path d="M336.755 155.857c10.005-8.043 19.754-15.862 29.759-23.905.256-.223.256-.67 0-1.117-.513-.894-1.026-2.011-1.796-2.681-.77-.447-1.796-.447-2.822-.67-1.796-.447-3.848-.67-5.644-1.117-6.927-1.564-13.853-3.128-20.78-5.138-13.597-3.798-26.937-8.49-39.764-14.298-25.142-11.17-48.231-25.915-67.472-43.788-10.775-9.83-20.78-20.777-28.733-32.617-.513-.894-2.309 0-1.539.893.513.894 2.309 0 1.539-.893-1.026-1.564-1.539-3.128-2.822-4.468-1.539-1.788-4.361-3.128-6.413-4.468-5.388-3.575-10.775-6.926-16.163-10.5-1.026-.67-1.795.67-1.026 1.34 1.283 1.34 1.283 2.234 2.822 3.351 2.309 1.564 4.618 2.904 6.927 4.468 4.618 2.905 9.236 6.032 14.11 8.937.77.446 1.796-.447 1.283-1.117l-1.54-2.458c-.513-.894-2.309 0-1.539.893 12.571 21.67 32.325 40.66 53.618 56.299 21.037 15.415 44.895 27.702 70.55 36.638 15.136 5.139 30.528 9.384 46.434 12.288.77 0 1.54-.67 1.026-1.117l-1.539-2.458c-.256-.447-1.026-.447-1.539 0-6.67 5.585-13.597 10.947-20.267 16.309l-4.618 3.798c-1.283.893-4.105 2.681-4.874 4.021-.77 1.341 1.282 2.011 1.539 3.128s2.052.67 1.796-.447c0-.447-.513-.894-1.026-1.34-.257-.447-.513-.447-.257-.894l2.052-1.564 8.723-7.149c6.157-4.915 12.058-9.606 17.958-14.521h-1.539l1.539 2.234 1.026-1.117c-54.644-10.277-105.183-34.181-142.382-70.82-10.262-10.277-20.01-21.447-27.194-33.734l-1.539.893 1.539 2.458 1.283-1.117-13.084-8.49c-2.052-1.34-4.105-2.68-5.9-3.797-1.796-1.118-2.822-2.681-4.362-4.245l-1.026 1.34c4.618 3.128 9.492 6.032 14.11 9.16 2.309 1.563 4.875 2.904 6.927 4.468 1.796 1.34 2.565 3.351 3.592 5.138 27.963 41.107 75.68 71.937 126.733 88.246 7.439 2.234 14.623 4.468 22.319 6.255 3.848.894 7.44 1.787 11.288 2.458 1.283.223 4.618.446 5.644 1.34.513.447.77 1.34 1.283 1.787v-1.117c-9.749 8.043-19.498 15.862-29.503 23.905-1.026.67.513 2.01 1.283 1.117"/><path d="m365.487 155.41 25.397-20.777c1.283-1.117 2.566-2.01 3.592-2.904 0 0-1.539-2.234-1.539-2.458-7.953-6.702-15.906-13.18-23.859-19.883l-3.335-2.904c.77.67 1.026 1.787 1.539 2.458 7.953 6.702 15.906 13.181 23.859 19.883l3.335 2.904-1.539-2.458-25.398 20.777c-1.283 1.117-2.566 2.011-3.592 2.905 0 0 1.796 2.457 1.54 2.457"/><path d="M366.257 155.857c9.748-8.043 19.497-15.862 29.246-23.905.256 0 .256-.446.256-.893-.256-1.117-1.282-2.234-2.309-3.128-2.821-2.681-6.157-5.138-9.235-7.596l-17.702-14.745c-.769-.67-2.309 0-1.539 1.117s1.026 1.788 1.539 2.458c1.026 1.117 2.309 1.787 3.335 2.904 2.822 2.234 5.644 4.692 8.21 6.926 5.131 4.468 10.518 8.713 15.649 13.181.77.67 2.052 0 1.539-1.117l-1.539-2.458c-.256-.447-1.026-.447-1.539 0-6.67 5.585-13.341 10.947-20.267 16.532l-4.875 4.022c-1.026.893-3.591 2.234-4.104 3.351-.77 1.34 1.282 2.01 1.539 3.127 0 1.117 2.052.671 1.796-.446 0-.447-.513-1.118-1.026-1.341 0 0-.77-.67-.77-.894 0 .447 2.052-1.34 2.052-1.117a132 132 0 0 1 8.979-7.149c6.157-4.915 12.058-9.829 18.215-14.744h-1.539l1.539 2.234 1.539-1.117c-4.874-4.245-10.005-8.266-14.879-12.511-2.566-2.011-5.131-4.245-7.44-6.255l-3.848-3.352c-1.026-.893-1.54-2.01-2.309-2.904l-1.539 1.117c4.874 4.022 9.748 8.043 14.623 12.288l7.953 6.702c2.052 1.564 4.104 3.127 5.643 5.138.514.894.514.67-.513 1.34-1.282.894-2.565 2.235-3.848 3.128-2.565 2.234-5.131 4.245-7.696 6.479-5.388 4.468-10.775 8.713-15.906 13.181-1.026.67.513 2.011 1.283 1.117zM398.583 159.208c7.183-7.819 14.11-15.639 21.293-23.234l3.079-3.351s-1.54-2.234-1.54-2.458c-5.644-5.585-11.544-10.947-17.188-16.308.77.67 1.026 1.787 1.539 2.457 5.644 5.585 11.545 10.947 17.189 16.309l-1.54-2.458c-7.183 7.819-14.109 15.639-21.293 23.234l-3.078 3.352c-.257.223 1.796 2.234 1.539 2.457"/><path d="M399.352 159.878c4.104-4.468 8.466-9.16 12.57-13.851l6.157-6.702 3.079-3.575c.77-.67 2.309-1.787 2.565-2.904.77-2.234-4.104-5.585-5.387-6.702-4.618-4.468-9.236-8.713-13.853-13.181-.77-.67-2.053.223-1.54 1.117 1.027 1.34 1.796 2.681 3.079 4.021 1.796 1.564 3.335 3.351 5.131 4.915l10.775 10.053c.769.671 2.052 0 1.539-1.117l-1.539-2.457c-.257-.447-1.027-.67-1.54 0-5.387 6.032-11.031 12.064-16.418 17.872l-4.105 4.469c-1.026 1.117-3.079 2.68-3.592 4.021 0 .447-.256.67 0 1.117 0 .67 1.539 1.564 1.539 2.011 0 1.117 2.053 1.117 2.053 0 0-.671-.513-1.118-.77-1.564 0 0-.769-.894-.769-1.117l1.539-1.341c2.565-2.681 4.874-5.362 7.44-8.042 5.131-5.586 10.005-11.171 15.136-16.533h-1.54l1.54 2.235 1.539-1.118c-3.335-3.127-6.67-6.255-10.005-9.606-1.54-1.564-3.079-3.128-4.875-4.691-.769-.894-2.052-1.564-2.565-2.681-.513-.671-.77-1.341-1.283-2.011l-1.539 1.117c3.848 3.798 7.696 7.372 11.801 11.17 1.796 1.788 3.848 3.351 5.644 5.362.257.447 1.026 1.117 1.026 1.564s-1.026 1.34-1.539 2.011c-7.44 8.042-14.88 16.085-22.319 24.351-.77.893.513 2.011 1.282 1.117zM422.95 155.41c6.927-6.255 13.854-12.734 20.781-18.99l3.078-2.68s-1.796-2.234-1.539-2.458c-6.927 6.255-13.854 12.734-20.78 18.99l-3.079 2.681s1.796 2.234 1.539 2.457"/><path d="M423.721 155.857c5.388-4.915 10.519-9.607 15.906-14.522 2.566-2.234 5.388-4.468 7.697-7.149.513-.67.513-1.117 0-1.787 0-.223-.514-.67-.77-.894 0 0-.257-.446-.513-.446-.257-.224 0-.447 0 0 0-.67-1.026-1.564-1.539-.894-5.388 4.915-10.519 9.607-15.906 14.521-2.566 2.235-5.388 4.469-7.697 7.15-.513.67-.513 1.117 0 1.787 0 .223.514.67.77.893 0 0 .257.447.513.447 0 .447.257.224 0 0-.256 1.117 1.539 1.564 1.796.447 0-.67-.257-1.117-.513-1.564-.257-.223-.513-.67-.77-.893 0 0-.256-.224-.256-.447 0 .447 0 .447.513 0 .769-.447 1.283-1.117 1.796-1.788l1.795-1.787 4.105-3.574c5.131-4.692 10.262-9.383 15.393-13.852l-1.539-.893c0 .67.256 1.117.513 1.564.256.223.513.67.769.893 0 0 .257.224.257.447 0-.447 0-.447-.513 0-.77.447-1.283 1.117-1.796 1.787l-1.796 1.788-4.105 3.574c-5.13 4.692-10.261 9.383-15.392 13.851-.77.671.513 2.011 1.282 1.117zM175.131 30.75c3.335-.224 6.413-.448 9.748-.671l7.44-.447h2.566c.513-.223 1.282 0 2.052-.447.77-.446.257-.223.513-.893l.513-4.022 1.539-12.51c.257-2.681.514-5.586 1.027-8.49 0-.223-.513-.893-.77-1.34s-.77-.894-.77-1.34c-.769 6.478-1.539 13.18-2.309 19.66l-.513 4.69v1.564h-3.591l-6.927.67c-3.848.224-7.696.448-11.545.894.514 0 1.027 2.458 1.54 2.458z"/><path d="M175.129 31.643c5.388-.447 10.775-.894 16.162-1.117 1.283 0 2.822 0 4.105-.224.77 0 1.539 0 2.309-.446.513-.224.513-.67.513-1.118 0-1.116 0-2.233.257-3.35.513-4.692 1.026-9.384 1.539-14.299l.77-6.702c0-.893 0-1.34-.257-2.234-.257-.447-1.026-1.117-1.283-1.564-.256-.893-1.796-.67-1.796 0-1.026 7.82-1.795 15.416-2.565 23.235v2.01h-1.539l-5.901.447c-4.618.447-9.235.67-13.597.894-1.026 0-1.282 1.34-.256 1.563-.513 0 0 .447 0 .67s.256.671.513.894c.256.447.513.894 1.026.894 1.283.447 1.796-1.34.513-1.564.513 0 0-.447 0-.67s-.256-.67-.513-.893c-.256-.447-.513-.894-1.026-.894v1.563c4.618-.446 9.749-.67 14.623-1.116 2.309 0 4.361-.224 6.414-.447 1.282 0 1.539-.67 1.539-1.564.769-8.49 1.796-16.756 2.822-25.245h-1.796c0 .67.513 1.117.77 1.564.513.67.769 1.117.513 2.01 0 2.011-.513 4.022-.77 5.809l-1.539 12.734v2.904c-.513.67-.513 1.118-.513 1.788v.67c0 .447 0 .447-.257.224h-6.67c-4.874.67-9.749.893-14.366 1.34a.896.896 0 0 0 0 1.787z"/><path d="M184.625 47.728h23.089c.513 0 2.565 0 3.078-.223.513-.447 0-2.681 0-3.351v-6.926c.257 0 1.283-16.979 1.283-16.979 0-3.574.256-7.149.513-10.723 0-.894-1.796-1.788-1.539-2.458-.513 8.713-.77 17.202-1.283 25.915v7.373c-.513 1.34 0 3.127-.513 4.244-.257.67-.513.447-1.539.447h-7.953c-5.388 0-11.032.224-16.419.447.513 0 1.026 2.458 1.539 2.458z"/><path d="M184.624 48.398c7.696 0 15.393-.447 23.089-.447 1.283 0 3.078.447 3.848-.67s0-4.021.257-5.361c.256-6.48.513-12.958 1.026-19.437l.513-9.383c0-1.34.513-2.904 0-4.021 0-1.117-1.539-1.564-1.539-2.458 0-.893-1.796-.67-1.796 0-.513 10.054-1.026 20.33-1.539 30.384 0 2.01.256 4.244 0 6.032-.257 1.34-2.309.67-3.592.893h-4.105c-5.9 0-11.801.224-17.701.447-1.027 0-1.283 1.117-.513 1.564.769.223.513 2.01 1.539 2.457s2.052-.893 1.026-1.564c-.77-.446-.513-2.01-1.539-2.457l-.513 1.564c6.67 0 13.34 0 20.01-.224h6.157c1.539-.893 1.026-3.35 1.026-4.468 0-5.361.513-10.947.77-16.308.257-6.032.513-11.84.77-17.873h-1.796c0 .894.769 1.34 1.026 1.787.77 1.34.513 3.128.257 4.468l-.514 8.267-.769 17.425c0 2.234-.257 4.468 0 6.479 0 1.117 0 1.34-1.539 1.34h-3.592c-6.67 0-13.597 0-20.267.224a.896.896 0 0 0 0 1.787zM203.864 66.047c3.591 0 7.183-.446 11.031-.446l7.696-.447h4.618c.513 0 .257-.67.257-1.117v-4.692l1.026-13.627.513-9.384c0-.893-1.796-1.787-1.539-2.457l-1.027 21.447v5.362c-.256.223 0 1.787-.256 2.01-.257.447-2.822 0-3.335 0l-7.44.447c-4.361 0-8.723.447-13.084.67.513 0 1.026 2.458 1.54 2.458z"/><path d="M203.864 66.941c5.9-.223 12.057-.67 17.958-.894h5.9c.513 0 .77-.893.77-1.563v-3.798l.769-15.192v-7.372c.514-.894.514-1.788.257-2.458s-1.283-1.34-1.539-2.01c0-.894-1.796-.67-1.796 0-.513 8.712-1.026 17.425-1.283 26.138v1.787c0 .67-.256.447-1.283.447h-6.157c-5.13.223-10.261.447-15.649.67-1.026 0-1.283 1.34-.256 1.564-.257 0 .256 1.117.513 1.564.256.447.513.67 1.026.894 1.283.446 1.539-1.34.513-1.564.513 0 0-.67 0-.894s0-.447-.257-.67c-.256-.447-.513-.67-1.026-.894v1.564c5.644-.223 11.288-.67 17.189-.894h5.644c1.282 0 1.796-.67 1.796-1.787 0-9.383.769-18.542 1.282-27.925h-1.796c0 .67.514 1.117.77 1.563.77.894.77 1.564.77 2.681V44.6c-.257 0-1.026 13.628-1.026 13.628v2.904c0 .447 0 2.681-.257 2.905h-6.67c-5.388.447-10.518.67-15.906 1.117a.896.896 0 0 0 0 1.787zM212.328 83.026h36.943c-.513 0-1.026-2.457-1.54-2.457h-36.942c.513 0 1.026 2.457 1.539 2.457"/><path d="M212.329 83.92h36.943c.769 0 1.539-1.117.513-1.564-.513 0-.77-1.564-1.026-2.01-.77-.67-1.54-.67-2.566-.67H210.79c-.77 0-1.539 1.116-.513 1.563.256 0 .513 1.34.769 1.787.257.447.514.67 1.027.894 1.026.447 1.539-1.117.513-1.564 0 0-.257-1.117-.513-1.564 0-.447-.513-.67-.77-.893l-.513 1.564h33.864c.513 0 2.309-.224 2.822 0 0 0 .256.67.513.893.256.447.513 1.117 1.026 1.34l.513-1.563h-36.942a.896.896 0 0 0 0 1.787zM241.577 76.994l2.309-30.83v-4.468c.513-.893-1.283-1.787-1.283-2.457l-2.309 30.83v4.468c-.513.893 1.283 1.787 1.283 2.457"/><path d="M242.603 76.994c.513-6.925 1.026-14.074 1.539-21l.77-10.5c0-1.34.513-2.904 0-4.245-.256-.893-1.539-1.34-1.539-2.234s-1.796-.67-1.796 0c-.513 6.926-1.026 14.075-1.539 21l-.77 10.5c0 1.34-.513 2.905 0 4.245.257.894 1.539 1.34 1.539 2.234 0 1.117 2.053.67 1.796-.447 0-.893-1.026-1.34-1.539-2.01-.257-.67 0-1.787 0-2.458v-2.904l1.026-9.83 1.539-20.106h-1.795c0 1.117 1.026 1.564 1.539 2.234.256.67 0 1.787 0 2.457v2.904l-1.026 9.83-1.54 20.107c0 1.117 1.796 1.117 2.053 0zM262.869 92.186v-32.84c0-.894-1.539-1.788-1.539-2.458v32.84c0 .894 1.539 1.788 1.539 2.458"/><path d="M263.894 92.186V62.92c0-1.117.257-2.681 0-4.022-.256-.893-1.282-1.34-1.539-2.234 0-.893-1.796-.67-1.796 0V85.93c0 1.118-.256 2.681 0 4.022.257.894 1.283 1.34 1.54 2.234 0 1.117 2.052.67 1.795-.447 0-.894-1.026-1.34-1.539-2.01-.513-1.341 0-3.575 0-4.915V56.888h-1.796c0 1.117 1.027 1.564 1.54 2.234.513 1.34 0 3.574 0 4.915v27.926c0 1.117 2.052 1.117 2.052 0zM240.549 100.675h36.942c-.513 0-1.026-2.457-1.539-2.457H239.01c.513 0 1.026 2.457 1.539 2.457"/><path d="M240.55 101.569h36.942c.77 0 1.54-1.117.513-1.564-.513 0-.769-1.564-1.026-2.01-.769-.67-1.539-.67-2.565-.67h-35.403c-.77 0-1.54 1.116-.513 1.563.256 0 .513 1.341.769 1.787.257.447.513.671 1.026.894 1.027.447 1.54-1.117.513-1.564 0 0-.256-1.117-.513-1.564 0-.447-.513-.67-.769-.893l-.513 1.564h33.864c.513 0 2.308-.224 2.565 0 0 0 .256.67.513.893.257.447.513 1.117 1.026 1.341l.513-1.564H240.55a.896.896 0 0 0 0 1.787"/><path d="M286.473 78.558c.77 7.82 1.54 15.862 2.053 23.681 0 .447.513 2.234 0 2.681-.257.447-2.822.447-3.335.67-5.388.894-10.519 2.011-15.906 2.905-4.105.67-8.21 1.563-12.314 2.234.256 0 1.282 2.681 1.539 2.457 8.979-1.787 17.958-3.351 26.681-4.915l2.822-.447c.513 0 1.282 0 1.795-.223.514-.223 0-.894 0-1.564l-1.282-13.404c-.257-3.798-.77-7.596-1.026-11.394 0-.894-1.54-1.564-1.54-2.457z"/><path d="M285.446 78.558c.513 4.915 1.026 9.83 1.283 14.968l.513 7.149c0 .671 0 1.564.256 2.458v1.564c-.513.223-1.539 0-2.309.223-1.026 0-2.308.447-3.335.67l-8.209 1.564c-5.644 1.117-11.288 2.011-16.932 3.128-.77 0-1.026 1.117 0 1.564-.257 0 0 .446.257.67 0 .223.256.67.513.894.256.446.513.893 1.026 1.117 1.026.223 3.078-.447 4.361-.671 1.796-.446 3.592-.67 5.387-1.117 6.927-1.34 14.11-2.457 21.037-3.798 2.566-.446 1.796-2.457 1.539-4.244l-.769-9.383-.77-9.383c0-1.564 0-2.905-.513-4.468 0-1.118-1.283-1.564-1.539-2.681-.257-1.117-2.309-.67-1.796.446.257.894 1.026 1.117 1.539 2.011.77 1.117.513 3.351.513 4.692l.77 8.042.77 8.266c0 1.341 0 2.681.256 4.021v.447c.257.447 0 .671-.513.447h-1.283c-6.157 1.117-12.057 2.234-18.214 3.351-3.079.447-6.157.894-9.236 1.787-1.026.224-.513.447-1.026 0 0-.223-.257-.67-.513-.893 0-.447-.513-.894-1.026-1.117v1.564c5.9-1.117 12.057-2.234 18.214-3.351l8.723-1.564c1.283-.224 3.591 0 4.618-.894 1.026-.67.256-2.234 0-3.128-.257-2.457-.513-5.138-.77-7.595-.513-5.362-1.026-10.724-1.539-16.31 0-1.116-2.053-1.116-2.053 0zM328.032 120.112l-16.163-21.447-2.308-3.128c.513.67 1.026 1.787 1.539 2.457l16.162 21.448 2.309 3.127c-.513-.67-1.026-1.787-1.539-2.457"/><path d="M328.802 119.665c-6.157-8.266-12.314-16.309-18.728-24.575-.769-.893-2.309 0-1.539.894 6.414 9.16 13.34 18.096 20.267 27.032.77.894 2.309 0 1.539-.894-.513-.67-1.026-1.563-1.539-2.457-.77-.894-2.309 0-1.539.894.513.67 1.026 1.563 1.539 2.457l1.539-.894c-6.67-8.936-13.853-17.872-20.267-27.032l-1.539.894c6.157 8.266 12.314 16.309 18.728 24.575.769.893 2.309 0 1.539-.894M364.204 129.048c-5.644-7.819-11.032-15.862-16.676-23.681l-2.309-3.351.257.447c.256.67.769 1.117 1.026 1.787 5.644 7.819 11.031 15.862 16.675 23.681l2.309 3.351-.256-.447c-.257-.67-.77-1.117-1.026-1.787"/><path d="M364.974 128.601c-6.414-9.159-12.571-18.319-18.984-27.255-.514-.671-2.309-.224-1.796.67 1.026 2.011 2.565 3.798 3.848 5.809 1.796 2.68 3.848 5.361 5.644 8.266 3.592 5.361 7.44 10.723 11.031 15.861.513.671 2.309.224 1.796-.67-.513-.893-1.026-1.787-1.539-2.457-.513-.894-2.309 0-1.539.893.513.671 1.026 1.564 1.539 2.011l1.796-.67-10.775-15.415-5.644-7.819c-1.283-2.011-3.335-4.022-4.105-6.032l-1.796.67c6.414 8.936 12.828 18.319 18.985 27.255.513.894 2.309 0 1.539-.893zM402.942 112.516h36.173c1.026 0 1.026.223 1.539-.67l6.157-12.734c1.796-4.022 3.592-7.82 5.644-11.617.257-.447-1.795-2.011-1.539-2.458-3.848 7.82-7.44 15.862-11.288 23.681 0 .224-.256 1.117-.513 1.117h-.513c-1.539.224-3.592 0-5.131 0h-31.555c.513 0 1.026 2.458 1.539 2.458z"/><path d="M402.942 113.41h33.094c1.539 0 4.105.67 5.131-.447.769-.894 1.026-2.011 1.539-2.905l2.309-4.691 4.105-8.713c1.282-2.68 3.078-5.362 3.848-8.266 0-.67.256-.894 0-1.564-.257-.447-1.283-1.117-1.283-1.564 0-1.117-1.539-1.117-1.796 0-2.309 4.692-4.361 9.16-6.67 13.852l-3.335 7.149c-.257.893-.77 2.68-1.539 3.127l-.257.224c-.513.223-1.796 0-2.309 0-11.288-.671-22.832 0-34.12 0-1.026 0-1.283 1.117-.513 1.564.769.446.513 2.01 1.539 2.457s2.052-.894 1.026-1.564c-.769-.447-.513-2.011-1.539-2.457l-.513 1.564h29.246c2.309 0 5.131.446 7.44 0 1.539 0 1.539-.671 2.052-2.011 1.026-2.681 2.566-5.362 3.848-7.819 2.566-5.362 4.875-10.5 7.44-15.862h-1.796c0 .893 1.54 1.564 1.54 2.457 0 1.117-1.283 2.904-1.796 3.798l-1.54 3.575c-2.308 5.138-4.874 10.276-7.439 15.415 0 .446-.257.893-.77 1.117s-1.539 0-2.309 0h-34.12a.896.896 0 0 0 0 1.787zM440.911 70.292c-5.131 6.926-10.518 13.851-15.649 20.777-.513.447-1.026 2.01-1.796 2.457-.513.224-2.565 0-3.078 0h-30.016c.513 0 1.026 2.458 1.539 2.458h33.095c.513 0 1.026-1.117 1.282-1.564l8.979-11.84c2.566-3.352 4.875-6.48 7.44-9.83.257-.447-2.052-2.234-1.539-2.458z"/><path d="M440.141 69.845c-3.078 4.022-6.157 8.266-9.235 12.288l-4.875 6.255c-.769 1.117-2.309 4.021-3.848 4.245h-32.068c-1.026 0-1.283 1.117-.513 1.564.513 0 .513 1.563 1.026 1.787.257.447.513.67 1.283.67 1.796.447 4.361 0 6.157 0h23.858c1.027 0 2.309.224 3.336 0 .769-.223 1.026-.894 1.539-1.564l3.078-4.021 6.67-8.936 3.336-4.468 1.795-2.235c.513-.67 1.54-1.563 1.796-2.234V72.08c0-.446-1.539-1.34-1.539-1.787 0-1.117-1.796-1.117-2.052 0 0 .447 0 .67.513 1.117 0 .224.769.894 1.026 1.117v.67c-.513 1.34-2.309 2.905-3.079 4.245l-2.822 3.798-5.644 7.373-3.078 4.02c-.77 1.118-1.283 2.235-2.566 2.682-1.282.223-3.078 0-4.361 0h-26.167c-1.54 0-1.283-.224-1.796-1.34-.257-.448-.513-.894-1.026-1.118l-.514 1.564h27.707c1.54 0 4.362.447 5.901 0 1.283-.447 1.796-1.787 2.309-2.68 1.539-2.235 3.335-4.469 5.131-6.703 3.591-4.692 7.183-9.383 10.518-14.075.77-.893-1.026-1.787-1.539-.893zM380.111 78.782h32.837c.77 0 .77 0 1.283-.447 3.079-3.128 6.157-6.479 8.979-9.607 2.822-2.904 5.644-6.032 8.466-8.936.257-.223-1.796-2.234-1.539-2.457L413.205 75.43c-.513.446-.77.893-1.283 1.117-1.283.223-3.078 0-4.361 0h-28.99c.513 0 1.026 2.457 1.54 2.457z"/><path d="M380.111 79.452h30.785c2.822 0 3.335 0 5.388-1.787 4.105-4.245 7.953-8.713 12.057-12.958l3.336-3.574c.513-.447 1.539-1.117 1.539-2.011 0-1.117-1.539-1.787-1.539-2.458 0-.67-1.027-1.117-1.54-.67-3.335 3.575-6.413 6.926-9.748 10.5l-5.131 5.585c-1.54 1.788-2.822 3.128-5.644 2.905-10.006-.447-20.267 0-30.529 0s-1.283 1.117-.513 1.564c.769.446.513 2.01 1.539 2.457s2.052-.893 1.026-1.564c-.769-.447-.513-2.01-1.539-2.457l-.513 1.564h25.398c2.309 0 5.131.446 7.44 0 1.795 0 2.308-1.117 3.335-2.234 1.795-1.788 3.591-3.798 5.131-5.586 3.591-4.02 7.439-7.819 11.031-11.84l-1.539-.67c0 .893 1.539 1.563 1.539 2.457s-1.796 1.787-2.309 2.234l-2.822 3.128c-3.592 3.798-6.927 7.819-10.775 11.617-1.026.894-1.283 1.34-2.822 1.564h-32.068a.896.896 0 0 0 0 1.787zM374.723 60.686h30.529c.77-.224 1.539-1.787 2.309-2.234l4.618-4.692c2.565-2.68 5.131-5.138 7.439-7.819.257-.223-1.795-2.234-1.539-2.457-2.052 2.234-4.104 4.468-6.413 6.478l-4.618 4.915c-1.026.894-1.796 2.458-3.079 3.128-.513.223-.769 0-1.282 0H373.44c.514 0 1.027 2.457 1.54 2.457z"/><path d="M374.723 61.58h26.937c1.54 0 3.592.446 4.875-.67 1.795-1.565 3.078-3.352 4.874-5.14l5.901-6.031c1.026-1.117 3.591-2.681 3.591-4.021 0-.447-.513-.894-.769-1.117 0-.224-.514-.447-.514-.67 0 0-.256-.67-.256-.447 0-.67-1.026-1.117-1.539-.67-2.822 2.904-5.901 6.031-8.723 8.936-1.026 1.117-2.309 2.234-3.335 3.574-.77.894-1.283 1.787-2.822 2.01h-29.246c-1.026 0-1.283 1.118-.513 1.564.769.224.513 2.011 1.539 2.458s2.052-.894 1.026-1.564c-.769-.447-.513-2.01-1.539-2.457l-.513 1.563h28.733c3.592 0 4.874-2.904 6.927-5.138 3.078-3.35 6.413-6.478 9.492-9.83l-1.539-.67c0 .894 1.026 1.34 1.282 2.01v.448c0 .446-1.026.893-1.026 1.117l-2.565 2.68-4.875 5.139c-.769.893-1.796 1.787-2.565 2.68-.513.67-1.026 1.564-1.539 2.011-1.283.894-4.875.447-6.414.447h-24.115a.896.896 0 0 0 0 1.787z"/><path d="M365.488 40.803c8.723 2.68 17.702 5.138 26.681 7.819l6.67 2.01c.513 0 2.052.894 2.565.67.77 0 1.796-1.786 2.309-2.233l5.644-5.362c3.335-3.128 6.67-6.255 10.006-9.607 0 0-1.796-2.234-1.54-2.457-2.822 2.68-5.644 5.362-8.209 7.82l-6.157 5.808-2.309 2.01c-.257.224-1.026 1.117-1.283 1.34-.513 0-1.283 0-1.796-.446l-5.9-1.787-16.932-4.915-11.545-3.351c.77 0 .77 2.234 1.54 2.457z"/><path d="M365.23 41.696c7.183 2.234 14.367 4.245 21.55 6.256l10.262 3.127c1.539.447 3.591 1.788 5.131.894 1.539-.894 3.078-3.128 4.361-4.245 2.565-2.457 4.874-4.691 7.44-7.149l3.848-3.798c.513-.67 2.309-1.564 2.309-2.457.256-1.117-1.539-2.01-1.539-2.681 0-.67-1.027-1.117-1.54-.67-3.335 3.35-6.926 6.479-10.262 9.83-1.795 1.787-3.591 3.35-5.387 5.138-.77.67-1.026 1.564-2.309 1.564-.77 0-2.309-.67-3.078-.894-10.519-3.128-21.037-6.255-31.812-9.383-.77-.223-1.796.894-1.026 1.34 1.026.67.77 2.011 1.796 2.681s2.052-.893 1.026-1.564c-.77-.446-.513-1.787-1.539-2.457l-1.027 1.34c11.545 3.352 23.089 6.926 34.377 10.277 1.54.447 2.053.447 3.079-.447l5.387-5.361c3.849-3.798 7.697-7.373 11.801-11.17l-1.539-.671c0 .894 1.796 1.787 1.539 2.458 0 0-1.282.893-1.539 1.117L415 36.11l-3.079 3.128c-2.052 2.01-4.361 4.021-6.413 6.032-1.026.893-2.053 2.01-3.079 2.904-.513.67-1.026 1.564-1.796 1.564-.769 0-2.309-.67-3.078-.894-1.539-.447-2.822-.893-4.361-1.34l-8.979-2.681c-6.414-1.787-12.571-3.798-18.985-5.585-1.283-.447-1.539 1.34-.513 1.564z"/><path d="M369.85 22.037c6.67 3.797 13.596 7.595 20.267 11.393l4.874 2.905c.256 0 1.283 1.117 1.796.893.513 0 2.052-2.01 2.565-2.457l4.874-4.692c2.822-2.68 5.644-5.362 8.466-8.266 0 0-1.795-2.234-1.539-2.457-2.309 2.234-4.874 4.468-7.183 6.925l-5.131 4.915-2.052 1.787c-.257.447-.77 1.117-1.283 1.34s-.513 0-1.283-.223l-4.361-2.457c-4.361-2.457-8.466-4.915-12.827-7.15-3.079-1.786-5.901-3.35-8.979-4.914.769.447.769 2.01 1.539 2.457z"/><path d="M369.336 22.707c5.644 3.127 11.031 6.255 16.675 9.383 2.822 1.563 5.901 3.127 8.723 4.915 1.026.67 2.052 1.563 3.335.67 1.539-1.117 2.822-2.904 4.361-4.245 2.052-2.01 4.361-4.021 6.414-6.255l3.078-2.905c.513-.446 1.796-1.34 2.052-2.234 0-.446-.256-.893-.513-1.34 0-.223-.513-.447-.513-.67 0 0-.513-.894-.513-.447 0-.67-1.026-1.117-1.539-.67-3.335 3.127-6.414 6.255-9.749 9.383-1.539 1.34-2.822 2.68-4.361 4.245 0 0-1.026 1.34-1.283 1.34s-2.052-1.117-2.565-1.34l-23.859-13.405c-1.026-.447-2.052.67-1.026 1.34s.77 1.788 1.539 2.458c1.026.67 2.309-.447 1.283-1.117-.77-.67-.77-1.787-1.539-2.457l-1.026 1.34c4.617 2.457 8.979 5.138 13.596 7.596l6.414 3.574c2.052 1.117 4.361 2.681 6.414 3.798 1.026.447 1.539 0 2.309-.447 1.539-1.117 2.822-2.68 4.104-4.021 3.592-3.575 7.44-7.149 11.032-10.723l-1.54-.67c0 .893 1.54 1.787 1.54 2.457 0 .446-2.053 1.787-2.566 2.234l-2.822 2.68c-1.796 1.788-3.591 3.575-5.644 5.363-.769.67-1.539 1.563-2.309 2.234-.256.447-1.026 1.34-1.539 1.563h-.256s-.77-.447-1.027-.67c-1.026-.67-2.309-1.34-3.591-2.01l-6.927-3.798c-4.874-2.681-10.005-5.585-14.88-8.49-1.026-.67-2.052.894-1.026 1.564z"/><path d="M376.775 9.972c5.131 2.458 10.262 5.139 15.393 7.596l-1.54-2.457c2.053 12.287 5.901 24.351 10.262 35.968 4.105 10.947 9.236 21.447 15.649 31.5 6.67 10.724 14.367 21.001 23.859 29.714 11.545 10.723 25.398 18.989 41.56 23.457-.769 0-.769-2.234-1.539-2.457-15.649-4.245-29.503-12.511-40.791-22.788-11.288-10.276-20.267-22.787-27.193-35.745-5.644-10.947-10.262-22.34-14.11-33.734-2.309-6.926-4.105-13.851-5.388-21-.256-1.788-.513-3.128-1.796-4.468-1.026-1.117-3.591-2.01-5.13-2.681l-8.723-4.245-1.796-.894c.77.447.77 2.011 1.539 2.458z"/><path d="M376.262 10.866c5.131 2.458 10.262 5.139 15.393 7.596.77.447 1.796-.447 1.283-1.117l-1.539-2.457c-.513-.894-1.796-.224-1.796.67 3.335 20.776 11.288 41.553 21.55 60.32 9.748 17.425 22.319 34.404 40.021 46.691 9.235 6.256 19.497 11.171 30.528 14.298.77.224 1.54-.893 1.027-1.34-1.283-.894-.77-2.234-2.566-2.905-2.822-1.117-6.157-1.787-8.979-2.904-5.644-2.234-10.775-4.915-15.649-7.819-10.519-6.479-19.498-14.745-26.937-23.904-15.65-18.99-25.142-41.554-31.299-64.118-1.026-3.574-1.796-6.926-2.565-10.5-.513-2.458-.513-5.138-2.053-7.149-1.282-2.01-3.848-2.68-6.157-3.798-3.591-1.564-6.926-3.574-10.518-5.138-1.026-.447-2.052.67-1.026 1.34s.769 1.787 1.539 2.457 2.309-.446 1.283-1.117c-.77-.67-.77-1.787-1.54-2.457l-1.026 1.34c2.822 1.564 5.901 2.905 8.723 4.469 2.822 1.34 6.67 2.234 7.696 5.138 1.026 2.68 1.283 5.585 1.796 8.266.77 2.904 1.539 6.032 2.309 8.936 3.335 11.617 7.696 23.234 13.084 34.181 9.492 19.66 22.832 38.203 42.33 51.384 4.874 3.351 10.261 6.255 16.162 8.936 2.822 1.117 5.387 2.234 8.466 3.128 1.539.447 4.104.893 5.131 2.234.513.447.513 1.117 1.026 1.564l1.026-1.341c-43.356-12.064-67.728-50.713-81.068-86.011-4.105-11.17-7.696-22.34-9.492-33.958l-1.796.67 1.539 2.458 1.283-1.117c-5.131-2.458-10.262-5.138-15.393-7.596-1.026-.447-2.052.894-1.026 1.564z"/><path d="M399.097 6.398c-2.566 2.458-5.131 5.139-7.697 7.596l-1.026 1.117s.77 1.117.77 1.34 1.026 1.117.769 1.34c2.566-2.457 5.131-5.137 7.697-7.595l1.026-1.117s-.77-1.117-.77-1.34-1.026-1.118-.769-1.34"/><path d="M398.326 5.951c-2.566 2.458-5.131 5.139-7.697 7.596-.513.447-1.282 1.117-1.282 1.787s.256.894.513 1.117c0 0 .256.447.513.67l.256.447v.224c0 .67 1.027 1.117 1.54.67 2.565-2.457 5.131-5.139 7.696-7.596.513-.447 1.283-1.117 1.283-1.787s-.257-.894-.513-1.117c0 0-.257-.447-.513-.67l-.257-.447V6.62c0-1.117-1.796-1.117-2.052 0 0 .447.513 1.117 1.026 1.564 0 0 0 .224.256.447 0 0 0 .224.257.447v-.447q0-.335 0 0l-.77.447-1.026.893-2.309 2.234c-1.539 1.564-2.822 2.905-4.361 4.469l1.539.67c0-.447-.513-1.117-1.026-1.564 0 0 0-.223-.257-.447 0 0 0-.223-.256-.447v.447q0 .336 0 0l.77-.447 1.026-.893 2.309-2.234c1.539-1.564 2.822-2.905 4.361-4.468.77-.894-.513-2.011-1.283-1.117zM494.787 134.41a1058 1058 0 0 0-23.345-23.011c-1.027-1.117-2.309-2.234-3.336-3.351.77.67 1.027 1.787 1.54 2.457a1054 1054 0 0 0 23.345 23.011c1.026 1.117 2.309 2.234 3.335 3.351-.769-.67-1.026-1.787-1.539-2.457"/><path d="M495.557 133.739c-8.979-8.712-17.702-17.649-26.681-26.361-.77-.671-2.309.223-1.539 1.117.769.893 1.282 2.01 2.052 2.904 1.283 1.34 2.565 2.681 3.848 3.798 2.566 2.457 5.131 4.915 7.44 7.372 4.874 4.915 10.005 9.83 14.88 14.745.769.67 2.309-.223 1.539-1.117s-1.026-1.787-1.539-2.458c-.77-.893-2.309.001-1.54.894.77.67 1.027 1.787 1.54 2.458l1.539-1.117c-4.874-4.915-9.749-9.607-14.623-14.298-2.309-2.234-4.874-4.692-7.183-7.149-1.283-1.117-2.566-2.458-3.592-3.575-.513-.67-1.283-1.117-1.796-2.011-.256-.446-.513-1.117-1.026-1.563l-1.539 1.117c8.979 8.712 17.701 17.649 26.68 26.362.77.893 2.309-.447 1.283-1.118zM438.345 231.144c-.513-5.362-.77-10.723-1.283-15.862v-2.234c0-.447-.769-.893-1.026-1.34-.256-.447-.769-.894-.769-1.341.513 5.362.769 10.724 1.282 15.862v2.234c0 .447.77.894 1.026 1.341.257.446.77.893.77 1.34"/><path d="M439.115 231.144c-.257-4.021-.513-7.819-1.026-11.84 0-1.788-.257-3.798-.513-5.586 0-.67 0-1.117-.513-1.787-.257-.447-1.027-1.117-1.283-1.564-.257-.893-2.053-.67-1.796 0 .257 4.022.513 7.82 1.026 11.841l.513 5.585c0 .67 0 1.117.513 1.787.257.447 1.027 1.117 1.283 1.564.257 1.117 2.052.67 1.796-.447 0-.447-.513-.893-1.026-1.564-.513-.67-.77-1.117-.77-2.01l-.513-5.585c-.257-3.798-.513-7.596-1.026-11.394h-1.796c0 .67.513 1.117 1.026 1.787s.77 1.117.77 2.011c0 1.787.256 3.798.513 5.585.256 3.798.513 7.596 1.026 11.394 0 1.117 2.052 1.117 2.052 0zM458.101 223.995v-40.436c0-.894-1.539-1.788-1.539-2.458v40.437c0 .893 1.539 1.787 1.539 2.457"/><path d="M458.87 223.995v-34.628c0-1.787.256-4.021 0-5.808 0-1.117-1.283-1.788-1.796-2.681-.257-.894-1.796-.671-1.796 0v34.628c0 1.787-.256 4.021 0 5.808 0 1.117 1.283 1.787 1.796 2.681s2.052.67 1.796-.447c0-.447-.257-.67-.513-1.117-.513-.893-1.027-1.787-1.027-2.904v-38.873h-1.795c0 .67.256.894.513 1.341.513.893 1.026 1.787 1.026 2.904v38.873c0 1.117 1.796 1.117 1.796 0zM406.021 203.665h36.429c-.513 0-1.026-2.457-1.539-2.457h-36.43c.514 0 1.027 2.457 1.54 2.457"/><path d="M406.022 204.559h36.429c.77 0 1.539-1.117.513-1.564-.513 0-.769-1.564-1.026-2.011-.77-.67-1.539-.67-2.565-.67h-35.147c-7.953 0-1.539 1.117-.513 1.564.256 0 .513 1.34.769 1.787.257.447.514.67 1.027.894 1.026.447 1.539-1.117.513-1.564 0 0-.257-1.117-.513-1.564 0-.447-.513-.67-.77-.893l-.513 1.563h35.66c.513 0 .513.447.769.894.257.447.513 1.117 1.026 1.34l.514-1.563h-36.43a.896.896 0 0 0 0 1.787zM412.693 192.048c11.031.223 22.062.447 33.094.894h4.874c-.513 0-1.026-2.458-1.539-2.458-11.032-.223-22.063-.447-33.094-.893h-4.875c.513 0 1.026 2.457 1.54 2.457"/><path d="M412.692 192.942c12.571.223 25.141.67 37.712.893 1.026 0 1.283-1.117.513-1.564-.513 0-.77-1.563-1.026-2.01-.77-.67-1.539-.67-2.822-.67-4.105 0-8.21 0-12.058-.224-7.953 0-15.905-.447-24.115-.67-1.026 0-1.283 1.117-.513 1.564.257 0 .513 1.34.77 1.787.256.447.513.67 1.026.894 1.026.446 1.539-1.117.513-1.564 0 0-.257-1.117-.513-1.564 0-.447-.513-.67-1.026-.894l-.513 1.564c7.696 0 15.136.447 22.832.447 3.848 0 7.953 0 11.801.223h2.309c.513 0 .513.447.77.894.256.447.513 1.117 1.026 1.564l.513-1.564c-12.571-.223-25.141-.67-37.712-.894-1.283 0-1.283 1.564 0 1.788zM427.571 179.314h34.12c-.513 0-1.026-2.457-1.539-2.457h-34.121c.513 0 1.026 2.457 1.54 2.457"/><path d="M427.571 179.985h34.121c1.282 0 1.282-1.341.256-1.564.513 0 0-.67 0-.894s-.256-.67-.513-.893c-.513-.671-1.026-.671-2.052-.671h-33.351c-1.026 0-1.283 1.341-.257 1.564-.513 0 0 .67 0 .894s0 .447.257.67c.256.447.513.67 1.026.894 1.026.446 1.539-1.341.513-1.564.257 0 0-.67 0-.894s0-.447-.256-.67c-.257-.447-.513-.67-1.027-.894v1.564h33.608c.256.224.256.894.513 1.117.256.447.513.894 1.283 1.117v-1.564h-33.864a.896.896 0 0 0 0 1.788z"/><path d="M442.709 165.239c10.518.224 21.293.447 31.812.67l-1.54-2.457v37.532c0 .894 1.54 1.787 1.54 2.458v-37.533c0-.223-1.54-2.457-1.54-2.457-10.518-.223-21.293-.447-31.811-.67.513 0 1.026 2.457 1.539 2.457"/><path d="M442.709 166.133c10.518.223 21.293.447 31.811.67.77 0 1.283-.67.77-1.34l-1.54-2.458c-.513-.67-1.795-.447-1.795.447v32.841c0 1.564-.257 3.574 0 4.915 0 1.117 1.282 1.564 1.539 2.457.256.894 1.796.67 1.796 0v-33.511c0-1.34.256-2.904 0-4.244 0-.894-1.026-2.458-2.053-2.905s-2.822 0-3.848-.223h-5.644c-7.696 0-15.392-.447-22.832-.447-1.026 0-1.283 1.117-.513 1.564.769.223.513 2.011 1.539 2.457 1.026.447 2.052-.893 1.026-1.564-.77-.446-.513-2.01-1.539-2.457l-.513 1.564c6.926 0 13.853.447 20.523.447 3.335 0 6.67 0 9.749.223h1.026s.513.894.77 1.117c.513 1.117.256 2.234.256 3.351v34.852h1.796c-.256-1.341-1.539-2.011-1.539-3.352v-36.638l-1.796.447 1.539 2.457.77-1.34c-10.518-.224-21.293-.447-31.812-.671-1.282 0-1.282 1.564 0 1.788zM501.967 186.24c-2.566-10.053-5.388-20.107-7.953-30.16l-1.283-4.468c0-.447-1.282-2.457-1.539-2.457-10.518-2.681-21.037-5.586-31.298-8.266.769 0 .769 2.234 1.539 2.457 10.518 2.681 21.036 5.585 31.298 8.266l-1.539-2.457c2.565 10.053 5.387 20.106 7.953 30.159.256 1.564.769 2.905 1.283 4.469 0 .893 1.282 1.563 1.539 2.457"/><path d="M502.994 186.017c-1.539-6.032-3.078-12.064-4.874-18.096l-2.309-9.16c-.77-2.457-1.026-5.362-2.052-7.819-.514-1.117-1.027-2.234-2.053-2.681-1.539-.67-3.848-.894-5.387-1.34l-4.875-1.341c-6.926-1.787-14.11-3.798-21.036-5.585-1.026-.223-1.539 1.117-.77 1.564.513.223.513 1.34.77 1.787.513.67.769.67 1.539.894 3.335 1.117 6.927 1.787 10.262 2.681 6.927 1.787 13.853 3.574 20.523 5.361.77 0 1.54-.67 1.027-1.117l-1.54-2.457c-.513-.894-2.052-.224-1.795.67 1.795 6.479 3.335 12.958 5.13 19.436.77 3.128 1.54 6.256 2.566 9.383.513 1.564.769 3.128 1.283 4.915.513 1.341 1.282 2.011 1.795 3.351.514.894 2.309.447 1.796-.446-.513-1.117-1.539-2.011-1.796-3.351-.513-1.341-.769-2.905-1.282-4.469-.77-3.351-1.796-6.702-2.566-10.053-1.796-6.479-3.335-12.957-5.131-19.436l-1.795.67 1.539 2.458 1.026-1.118c-6.414-1.787-13.084-3.351-19.497-5.138-3.079-.893-6.158-1.564-9.236-2.457-.513 0-2.052-.224-2.309-.671-.257-.223-.256-.893-.513-1.117-.257-.446-.513-.893-1.026-1.117l-.77 1.564c6.157 1.564 12.314 3.351 18.728 4.915 3.335.894 6.414 1.787 9.749 2.681 1.282.447 2.308.447 3.078 1.34.77.671.77 1.788 1.026 2.681 2.822 11.171 5.901 22.118 8.723 33.288.256 1.117 2.052.67 1.796-.447zM516.848 159.208c5.387-5.585 10.518-11.17 15.905-16.756.77-.893 1.54-1.563 2.309-2.457.257-.223-1.796-2.234-1.539-2.458-5.387 5.586-10.518 11.171-15.906 16.756-.769.894-1.539 1.564-2.309 2.457-.256.224 1.796 2.234 1.54 2.458"/><path d="M517.361 159.878c4.105-4.468 8.466-8.936 12.571-13.404l3.078-3.351 1.539-1.564c.257-.447 1.027-.894 1.283-1.341.257-.447 0-1.117-.513-1.564 0-.223-.513-.67-.77-.893 0 0 0-.224-.256-.447-.257-.223 0-.447 0 0 .256-.67-1.026-1.564-1.539-.894-4.105 4.468-8.466 8.937-12.571 13.405l-3.079 3.351-1.539 1.564c-.257.446-1.026.893-1.283 1.34s0 1.117.513 1.564c0 .223.513.67.77.894 0 0 0 .223.257.446 0 .447.256.224 0 0-.257 1.117 1.539 1.564 1.795.447 0-.447 0-1.117-.513-1.564 0-.223-.513-.447-.769-.67 0 0 0-.223-.257-.447 0 .447.513-.446.513-.446l.513-.671 1.54-1.564 3.078-3.351c4.105-4.244 8.21-8.489 12.058-12.734l-1.54-.893c0 .446 0 1.117.514 1.563 0 .224.513.447.769.671 0 0 0 .223.257.446 0-.446-.513.447-.513.447l-.513.67-1.54 1.564-3.078 3.351c-4.105 4.245-8.21 8.49-12.058 12.735-.77.893.513 2.01 1.283 1.117z"/><path d="M535.061 157.197c6.413-5.138 12.827-10.053 18.984-15.191 0 0-1.539-2.234-1.539-2.458-7.44-6.925-14.88-14.074-22.063-21-1.026-1.117-2.053-2.011-3.079-2.904.77.67 1.026 1.787 1.54 2.457 7.439 6.926 14.879 14.075 22.062 21 1.027 1.117 2.053 2.011 3.079 2.905l-1.539-2.458c-6.414 5.139-12.828 10.053-18.985 15.192 0 0 1.796 2.457 1.54 2.457"/><path d="M535.575 157.644c6.414-5.138 12.827-10.053 18.984-15.192.257 0 .257-.446.257-.893-.257-1.341-1.54-2.458-2.566-3.351-2.822-2.681-5.387-5.139-8.209-7.82-5.388-5.138-11.032-10.5-16.419-15.638-.77-.67-2.052.223-1.539 1.117.769.894 1.026 1.787 1.796 2.681 1.026 1.117 2.308 2.234 3.591 3.351 2.566 2.234 4.875 4.692 7.183 6.926 4.875 4.691 9.749 9.159 14.623 13.851.77.67 2.053 0 1.54-1.117l-1.54-2.458c-.256-.446-1.026-.446-1.539 0-4.874 4.022-10.005 7.82-14.879 11.841-1.283.893-2.309 1.787-3.592 2.904-.513.447-1.026.67-1.026 1.341 0 .446.513.893.769 1.34 0 .223.514.447.514.67 0 0 .256.67.256.447 0 1.117 2.052 1.117 2.052 0 0-.894-1.026-1.564-1.539-2.234 0 0 1.026-.67 1.283-1.117l3.592-2.904c4.361-3.575 8.979-7.149 13.34-10.724h-1.539l1.539 2.234 1.539-1.117c-4.618-4.468-9.236-8.936-13.853-13.181l-6.927-6.702c-1.026-1.117-2.052-2.011-3.079-2.904-1.282-1.117-1.795-2.234-2.822-3.575l-1.539 1.117c5.131 4.915 10.005 9.607 15.136 14.522 2.566 2.457 5.131 4.915 7.697 7.149 1.282 1.117 3.591 2.904 3.848 4.468v-.894c-6.157 5.139-12.571 10.053-18.728 15.192-1.026.67.513 2.01 1.283 1.117z"/></g></svg>