<svg width="24" height="24" viewBox="0 0 24 24" fill="none" xmlns="http://www.w3.org/2000/svg">
<path d="M21 11.9997C21 11.9997 21 11.9997 21 11.9997C21 11.5566 20.8052 11.1617 20.6416 10.8904C20.4615 10.5915 20.223 10.289 19.9682 10.0005C19.4564 9.42136 18.7931 8.8041 18.1556 8.2506C17.5132 7.69279 16.8736 7.17977 16.3965 6.80743C16.1597 6.62267 15.7411 6.30648 15.5967 6.19743L15.593 6.19462C15.1483 5.86712 14.5223 5.96212 14.1948 6.40682C13.8673 6.85149 13.9623 7.47744 14.4069 7.80496C14.5401 7.90552 14.9364 8.20491 15.166 8.38413C15.6264 8.7434 16.2369 9.23333 16.8444 9.76081C17.323 10.1763 17.7858 10.6031 18.1684 10.9998L4 10.9998C3.44772 10.9998 3 11.4475 3 11.9998C3 12.552 3.44772 12.9998 4 12.9998L18.1684 12.9998C17.7858 13.3964 17.323 13.8232 16.8444 14.2387C16.2369 14.7662 15.6264 15.2561 15.166 15.6154C14.9364 15.7946 14.5401 16.094 14.4069 16.1945C13.9623 16.5221 13.8673 17.148 14.1948 17.5927C14.5223 18.0374 15.1483 18.1324 15.593 17.8049L15.597 17.8019C15.7414 17.6928 16.1597 17.3768 16.3965 17.1921C16.8736 16.8197 17.5132 16.3067 18.1556 15.7489C18.7931 15.1954 19.4564 14.5782 19.9682 13.999C20.223 13.7105 20.4615 13.408 20.6416 13.1092C20.8052 12.8378 21 12.4429 21 11.9997Z" fill="#346E3C"/>
</svg>
