<svg width="24" height="24" viewBox="0 0 24 24" fill="none" xmlns="http://www.w3.org/2000/svg">
<path fill-rule="evenodd" clip-rule="evenodd" d="M5.64518 6.62483L4.16008 6.62483C3.66787 6.62477 3.21941 6.62472 2.86046 6.67719C2.4658 6.73489 2.04541 6.87288 1.73214 7.25538C1.42229 7.63371 1.36453 8.07199 1.37598 8.47049C1.38655 8.83864 1.46213 9.28922 1.54626 9.79076L2.76585 17.0659C2.9585 18.2153 3.11433 19.1449 3.32877 19.8718C3.55156 20.627 3.86147 21.253 4.4192 21.7362C4.97919 22.2213 5.63826 22.432 6.40806 22.5306C7.14456 22.6249 8.06499 22.6249 9.19614 22.6248L14.0531 22.6248C14.477 22.6248 14.8714 22.6248 15.2376 22.6199C15.1642 22.3846 15.1246 22.1343 15.1246 21.8748L15.1246 20.3748L13.6246 20.3748C12.2439 20.3748 11.1246 19.2555 11.1246 17.8748C11.1246 16.4941 12.2439 15.3748 13.6246 15.3748L15.1246 15.3748L15.1246 13.8748C15.1246 12.4941 16.2439 11.3748 17.6246 11.3748C19.0054 11.3748 20.1246 12.4941 20.1246 13.8748L20.1246 15.3748L20.7669 15.3748L21.703 9.79073C21.7872 9.2892 21.8627 8.83863 21.8733 8.47049C21.8848 8.07199 21.827 7.63371 21.5171 7.25538C21.2039 6.87288 20.7835 6.73489 20.3888 6.67719C20.0299 6.62472 19.5814 6.62477 19.0892 6.62483L17.6041 6.62483C17.35 3.54506 14.77 1.12483 11.6246 1.12483C8.47931 1.12483 5.89926 3.54506 5.64518 6.62483ZM7.65559 6.62483L15.5937 6.62483C15.3477 4.65167 13.6645 3.12483 11.6246 3.12483C9.58484 3.12483 7.90164 4.65167 7.65559 6.62483Z" fill="#346E3C"/>
<path d="M17.6246 12.8748C18.1769 12.8748 18.6246 13.3225 18.6246 13.8748L18.6246 16.8748L21.6246 16.8748C22.1769 16.8748 22.6246 17.3225 22.6246 17.8748C22.6246 18.4271 22.1769 18.8748 21.6246 18.8748L18.6246 18.8748L18.6246 21.8748C18.6246 22.4271 18.1769 22.8748 17.6246 22.8748C17.0724 22.8748 16.6246 22.4271 16.6246 21.8748L16.6246 18.8748L13.6246 18.8748C13.0724 18.8748 12.6246 18.4271 12.6246 17.8748C12.6246 17.3225 13.0724 16.8748 13.6246 16.8748L16.6246 16.8748L16.6246 13.8748C16.6246 13.3225 17.0724 12.8748 17.6246 12.8748Z" fill="#346E3C"/>
</svg>
