<svg width="20" height="20" viewBox="0 0 20 20" fill="none" xmlns="http://www.w3.org/2000/svg">
<path d="M3.33434 12.4159C2.71524 11.7833 2.2482 11.0181 1.96861 10.1782C1.68901 9.3384 1.60419 8.44594 1.72056 7.56846C1.83693 6.69099 2.15145 5.8515 2.64029 5.11359C3.12913 4.37568 3.77946 3.7587 4.54205 3.30938C5.30463 2.86007 6.15945 2.5902 7.04177 2.52021C7.92408 2.45023 8.81076 2.58197 9.63462 2.90546C10.4585 3.22895 11.1979 3.73569 11.797 4.38732C12.396 5.03894 12.8389 5.81836 13.0921 6.66652H14.5837C15.3883 6.66643 16.1715 6.92513 16.8177 7.40441C17.464 7.88369 17.9389 8.55813 18.1725 9.3281C18.406 10.0981 18.3857 10.9228 18.1146 11.6803C17.8435 12.4379 17.3359 13.0881 16.6669 13.5351M6.6672 12.4998H6.67553M6.6672 15.8332H6.67553M10.0003 14.1665H10.0087M10.0003 17.5H10.0087M13.3335 12.4998H13.3418M13.3335 15.8332H13.3418" stroke="#6366F1" stroke-width="2" stroke-linecap="round"/>
</svg>
