<svg width="24" height="24" viewBox="0 0 24 24" fill="none" xmlns="http://www.w3.org/2000/svg">
<path fill-rule="evenodd" clip-rule="evenodd" d="M4.1449 3.35479C7.12587 1.52626 9.8001 2.255 11.4156 3.46824C11.6814 3.66784 11.8638 3.80443 11.9996 3.89668C12.1354 3.80443 12.3178 3.66784 12.5836 3.46824C14.1991 2.255 16.8734 1.52626 19.8543 3.35479C21.9156 4.61915 23.0754 7.26023 22.6684 10.2947C22.2595 13.3439 20.2859 16.7925 16.1063 19.8861C16.0713 19.912 16.0366 19.9377 16.0022 19.9632C14.5509 21.0381 13.5897 21.7499 11.9996 21.7499C10.4095 21.7499 9.44836 21.0381 7.99698 19.9632C7.96258 19.9377 7.92791 19.912 7.89294 19.8861C3.71334 16.7925 1.73976 13.3439 1.33081 10.2947C0.923824 7.26023 2.08365 4.61915 4.1449 3.35479ZM11.8429 3.99333C11.8397 3.99478 11.8402 3.9943 11.8443 3.99268C11.8437 3.99293 11.8433 3.99314 11.8429 3.99333ZM12.155 3.99268C12.159 3.9943 12.1596 3.99478 12.1564 3.99333C12.1559 3.99314 12.1555 3.99292 12.155 3.99268ZM10.5149 4.66768C9.31836 3.76911 7.31152 3.17209 4.9292 4.63341C3.47107 5.52782 2.47304 7.52709 2.8175 10.0954C3.15998 12.649 4.84713 15.7655 8.78534 18.6805C10.3675 19.8515 10.945 20.2499 11.9996 20.2499C13.0542 20.2499 13.6317 19.8515 15.2139 18.6805C19.1521 15.7655 20.8392 12.649 21.1817 10.0954C21.5262 7.52709 20.5281 5.52782 19.07 4.63341C16.6877 3.17209 14.6809 3.76911 13.4843 4.66768L13.4634 4.68339C13.193 4.88645 12.9608 5.06088 12.775 5.18251C12.6784 5.24572 12.5715 5.3101 12.4605 5.36025C12.3552 5.40784 12.1934 5.46737 11.9996 5.46737C11.8058 5.46737 11.644 5.40784 11.5387 5.36025C11.4277 5.3101 11.3208 5.24572 11.2242 5.18251C11.0384 5.06087 10.8062 4.88643 10.5358 4.68335L10.5149 4.66768Z" fill="#1F1F1F" fill-opacity="0.8"/>
</svg>
