<svg width="20" height="20" viewBox="0 0 20 20" fill="none" xmlns="http://www.w3.org/2000/svg">
<g clip-path="url(#clip0_101_3496)">
<path d="M1.66602 17.5C1.66602 14.9999 3.20777 13.0332 5.89959 12.4998C7.91637 12.0998 9.99982 10.8331 10.8332 9.9997M9.16622 16.6666C7.70285 16.6711 6.29126 16.1254 5.21142 15.1378C4.13158 14.1502 3.46237 12.7928 3.3365 11.3348C3.21064 9.87692 3.63731 8.42493 4.53191 7.26687C5.42651 6.1088 6.72369 5.32925 8.16616 5.08283C12.9164 4.16612 14.1665 3.73277 15.8333 1.66602C16.6666 3.33275 17.5 5.1495 17.5 8.33296C17.5 12.9165 13.5165 16.6666 9.16622 16.6666Z" stroke="#F97316" stroke-width="2" stroke-linecap="round"/>
</g>
<defs>
<clipPath id="clip0_101_3496">
<rect width="20" height="20" fill="white"/>
</clipPath>
</defs>
</svg>
