<svg width="16" height="16" viewBox="0 0 16 16" fill="none" xmlns="http://www.w3.org/2000/svg">
<path d="M12.8483 11.5326C13.5307 10.5957 13.9271 9.48128 13.9896 8.32397C14.0042 8.054 13.6836 7.91335 13.4542 8.05667C12.6872 8.53602 11.7803 8.74128 10.8815 8.63894C9.98279 8.5366 9.14528 8.13271 8.50567 7.49318C7.86606 6.85366 7.46211 6.01625 7.35976 5.11763C7.25741 4.21901 7.46269 3.31223 7.94211 2.54528C8.08544 2.31664 7.94411 1.99534 7.6741 2.01001C6.51666 2.0726 5.40212 2.46908 4.46522 3.1515C3.52833 3.83393 2.80918 4.77309 2.39472 5.85546C1.98025 6.93782 1.88822 8.11706 2.12974 9.25061C2.37126 10.3842 2.93599 11.4235 3.75567 12.243C4.57534 13.0625 5.61488 13.627 6.7486 13.8684C7.88232 14.1097 9.0617 14.0176 10.1442 13.6031C11.2266 13.1886 12.1658 12.4694 12.8483 11.5326Z" stroke="#6366F1" stroke-width="2" stroke-linecap="round"/>
</svg>
