<svg width="24" height="24" viewBox="0 0 24 24" fill="none" xmlns="http://www.w3.org/2000/svg">
<path d="M3.26946 3.17027C3.27304 3.10702 3.28382 2.96328 3.28382 2.96328C3.3166 2.60272 3.60322 2.31655 3.96378 2.28378C3.96378 2.28378 4.10702 2.27304 4.17027 2.26946C4.2967 2.2623 4.47674 2.25451 4.69766 2.2514C5.13823 2.24519 5.74788 2.2575 6.42282 2.33249C7.73052 2.47779 9.46095 2.87612 10.5933 4.00851C12.0586 5.47375 12.1317 7.80395 10.8127 9.35553C10.8556 9.42145 10.9032 9.49736 10.9548 9.58327C11.1612 9.92727 11.4295 10.4318 11.6955 11.0968C11.9125 11.6391 12.1275 12.2871 12.3061 13.0405C12.4111 12.8556 12.5187 12.6825 12.626 12.5216C12.9679 12.0087 13.3105 11.6143 13.5704 11.3457C13.653 11.2604 13.7276 11.1874 13.7915 11.1271C12.9344 9.77687 13.0948 7.96666 14.2728 6.78867C15.2705 5.79093 16.7855 5.44647 17.9115 5.32136C18.4955 5.25647 19.0227 5.24584 19.4035 5.25121C19.4342 5.25164 19.4668 5.25193 19.5006 5.25224C19.6774 5.25383 19.8885 5.25573 20.0406 5.27938C20.4012 5.31216 20.6878 5.59832 20.7206 5.95888C20.7378 6.14848 20.7461 6.40544 20.7488 6.59649C20.7542 6.9773 20.7435 7.50448 20.6786 8.08853C20.5535 9.21447 20.2091 10.7295 19.2113 11.7272C18.0261 12.9124 16.2009 13.0676 14.8481 12.1926C14.7951 12.2418 14.7272 12.3074 14.6483 12.3889C14.4395 12.6046 14.1571 12.929 13.874 13.3536C13.3985 14.067 12.9289 15.0503 12.7907 16.2738C16.2759 16.484 19.3851 18.0748 21.5585 20.4994C21.756 20.7197 21.8055 21.0356 21.6848 21.3058C21.5642 21.576 21.2959 21.75 21 21.75H3.00001C2.7041 21.75 2.43585 21.576 2.31519 21.3058C2.19453 21.0356 2.24403 20.7197 2.44155 20.4994C4.62014 18.069 7.73895 16.4765 11.2342 16.2723C11.1497 14.2391 10.7216 12.7007 10.3028 11.6539C10.0689 11.069 9.83717 10.636 9.66857 10.355C9.65704 10.3358 9.6458 10.3173 9.63488 10.2995C8.14502 11.0811 6.26084 10.8457 5.00851 9.59334C3.87612 8.46095 3.47779 6.73052 3.33249 5.42282C3.2575 4.74788 3.24519 4.13823 3.2514 3.69766C3.25451 3.47674 3.2623 3.2967 3.26946 3.17027Z" fill="#346E3C"/>
</svg>
