<svg width="24" height="24" viewBox="0 0 24 24" fill="none" xmlns="http://www.w3.org/2000/svg">
<path fill-rule="evenodd" clip-rule="evenodd" d="M2.2503 17.1615L2.2503 6.50023C2.2503 5.70443 2.81557 5.21619 3.26571 4.91852C3.71528 4.62122 4.35429 4.31857 5.07903 3.97531L8.19118 2.50089C9.75581 1.75873 10.8278 1.25023 12.0003 1.25023C13.1728 1.25023 14.2448 1.75873 15.8094 2.50089L18.9215 3.97527C19.6463 4.31854 20.2853 4.62121 20.7349 4.91852C21.185 5.21619 21.7503 5.70443 21.7503 6.50023L21.7503 17.1615C21.7503 18.2819 20.933 19.0271 19.927 19.6307C18.9086 20.2418 17.1992 20.9639 15.3062 21.7636C13.8872 22.3635 12.9723 22.7502 12.0003 22.7502C11.0283 22.7502 10.1135 22.3635 8.69443 21.7636C6.80133 20.9639 5.09202 20.2418 4.07363 19.6307C3.06764 19.0271 2.2503 18.2819 2.2503 17.1615ZM5.32964 11.6647C5.51489 11.2942 5.96539 11.1441 6.33587 11.3293L8.33587 12.3293C8.70636 12.5145 8.85653 12.965 8.67128 13.3355C8.48604 13.706 8.03554 13.8562 7.66505 13.6709L5.66505 12.6709C5.29457 12.4857 5.1444 12.0352 5.32964 11.6647ZM12.0004 3.16038C11.3307 3.16038 10.6851 3.44147 8.84283 4.31421L5.99465 5.6635C5.18396 6.04755 4.67607 6.29086 4.35772 6.50129C4.67607 6.71172 5.18396 6.95503 5.99465 7.33909L7.06899 7.84804L14.7152 4.10516C13.2062 3.39591 12.6134 3.16038 12.0004 3.16038ZM16.9318 5.15454L9.28558 8.89743C10.7945 9.60668 11.3873 9.8422 12.0004 9.8422C12.6701 9.8422 13.3157 9.56112 15.1579 8.68838L18.0061 7.33909C18.8168 6.95504 19.3247 6.71172 19.643 6.50129C19.3247 6.29086 18.8168 6.04755 18.0061 5.66349L16.9318 5.15454Z" fill="#346E3C"/>
</svg>
