<svg width="24" height="24" viewBox="0 0 24 24" fill="none" xmlns="http://www.w3.org/2000/svg">
<path fill-rule="evenodd" clip-rule="evenodd" d="M16.8011 1.62239C15.6024 1.12587 14.2555 1.12587 13.0568 1.62239C12.5696 1.8242 12.1382 2.13201 11.673 2.53776C11.2173 2.9352 10.6906 3.46196 10.0247 4.12784L4.12791 10.0246C3.46201 10.6905 2.93521 11.2173 2.53776 11.673C2.13201 12.1382 1.8242 12.5696 1.62239 13.0568C1.12587 14.2555 1.12587 15.6024 1.62239 16.8011C1.8242 17.2883 2.13201 17.7197 2.53776 18.1849C2.9352 18.6405 3.46199 19.1673 4.12788 19.8332L4.16671 19.872C4.83264 20.538 5.35945 21.0648 5.81512 21.4622C6.28029 21.868 6.71171 22.1758 7.19893 22.3776C8.39764 22.8741 9.7445 22.8741 10.9432 22.3776C11.4304 22.1758 11.8618 21.868 12.327 21.4622C12.7827 21.0648 13.3094 20.538 13.9753 19.8722L19.872 13.9754C20.5379 13.3096 21.0648 12.7827 21.4622 12.327C21.868 11.8618 22.1758 11.4304 22.3776 10.9432C22.8741 9.7445 22.8741 8.39764 22.3776 7.19893C22.1758 6.71171 21.868 6.28029 21.4622 5.81512C21.0648 5.35945 20.538 4.83264 19.872 4.16671L19.8332 4.12788C19.1674 3.46204 18.6405 2.93518 18.1849 2.53776C17.7197 2.13201 17.2883 1.8242 16.8011 1.62239ZM13.6308 3.00821C14.462 2.66393 15.3959 2.66393 16.227 3.00821C16.501 3.1217 16.7914 3.31273 17.1989 3.66816C17.6115 4.02803 18.1024 4.51839 18.792 5.208C19.4816 5.89761 19.972 6.38855 20.3318 6.80112C20.6873 7.2086 20.8783 7.49897 20.9918 7.77295C21.3361 8.60412 21.3361 9.53801 20.9918 10.3692C20.8783 10.6432 20.6873 10.9335 20.3318 11.341C20.2015 11.4904 20.0541 11.6501 19.8864 11.8257L18.0303 9.96967C17.7374 9.67678 17.2626 9.67678 16.9697 9.96967C16.6768 10.2626 16.6768 10.7374 16.9697 11.0303L18.8327 12.8934C18.8192 12.9069 18.8057 12.9205 18.792 12.9341L16.3934 15.3327L14.5303 13.4697C14.2374 13.1768 13.7626 13.1768 13.4697 13.4697C13.1768 13.7626 13.1768 14.2374 13.4697 14.5303L15.3327 16.3934L12.9341 18.792C12.9205 18.8057 12.9069 18.8192 12.8934 18.8327L11.0303 16.9697C10.7374 16.6768 10.2626 16.6768 9.96967 16.9697C9.67678 17.2626 9.67678 17.7374 9.96967 18.0303L11.8257 19.8864C11.6501 20.0541 11.4904 20.2015 11.341 20.3318C10.9335 20.6873 10.6432 20.8783 10.3692 20.9918C9.53801 21.3361 8.60412 21.3361 7.77295 20.9918C7.49897 20.8783 7.2086 20.6873 6.80112 20.3318C6.38855 19.972 5.89761 19.4816 5.208 18.792C4.51839 18.1024 4.02803 17.6115 3.66816 17.1989C3.31273 16.7914 3.1217 16.501 3.00821 16.227C2.66393 15.3959 2.66393 14.462 3.00821 13.6308C3.1217 13.3568 3.31273 13.0665 3.66816 12.659C4.02803 12.2464 4.51839 11.7555 5.208 11.0659L11.0659 5.208C11.7555 4.51839 12.2464 4.02803 12.659 3.66816C13.0665 3.31273 13.3568 3.1217 13.6308 3.00821Z" fill="#1F1F1F" fill-opacity="0.8"/>
</svg>
