<svg width="24" height="24" viewBox="0 0 24 24" fill="none" xmlns="http://www.w3.org/2000/svg">
<path d="M17.5444 8.17437C17.343 7.62913 16.9829 6.95467 16.5668 6.1754C15.8819 4.89226 15.0074 3.25402 14.4722 2.52561C13.931 1.78904 13.2287 1.12132 12.2072 1.12502C11.1859 1.12871 10.4881 1.80122 9.95173 2.54152C9.42122 3.2737 8.86285 4.33635 8.18602 5.62445L7.18582 7.52783C6.93558 8.00403 7.11701 8.59385 7.59104 8.84523C8.06508 9.09661 8.65222 8.91435 8.90246 8.43815L9.86492 6.60658C10.589 5.22867 11.0832 4.29348 11.5212 3.68907C11.963 3.07923 12.1583 3.0752 12.2142 3.075C12.2699 3.0748 12.4648 3.07715 12.9104 3.68361C13.3519 4.28453 14.1009 5.68223 14.8334 7.05443C15.2872 7.9049 15.5996 8.51689 15.7474 8.91707C15.3571 8.88274 14.7111 8.73185 13.8146 8.51861C13.293 8.39453 12.77 8.71873 12.6465 9.24271C12.523 9.7667 12.8457 10.2921 13.3673 10.4161C14.178 10.6091 15.0508 10.8168 15.6079 10.8622C16.1695 10.9079 16.9629 10.8606 17.454 10.1474C17.9222 9.46743 17.742 8.70958 17.5444 8.17437Z" fill="#346E3C"/>
<path d="M9.8138 13.2944L9.13314 12.215C8.77098 11.6405 8.40493 11.0599 8.08969 10.6934C7.75541 10.3049 7.26062 9.88077 6.54144 9.90065C5.82192 9.92054 5.35126 10.3717 5.0391 10.7784C4.74485 11.1618 4.44598 11.7006 4.11673 12.2941L2.65925 14.9206C2.15686 15.8259 1.72647 16.6014 1.48682 17.2413C1.23721 17.9079 1.09196 18.6914 1.53558 19.435C1.97641 20.174 2.72994 20.4216 3.4332 20.5252C4.11199 20.6251 5.00289 20.6251 6.04703 20.625L10.9558 20.625C11.4919 20.625 11.9264 20.1885 11.9264 19.65C11.9264 19.1115 11.4919 18.675 10.9558 18.675H6.12337C4.98176 18.675 4.23555 18.6725 3.71466 18.5958C3.46437 18.5589 3.26945 18.4668 3.19987 18.4315C3.20208 18.359 3.21631 18.1612 3.30367 17.9279C3.48585 17.4414 3.84177 16.7945 4.39248 15.8021L5.77815 13.305C6.15287 12.6297 6.40291 12.1956 6.59767 11.9418C6.80651 12.1846 7.08125 12.605 7.49332 13.2585L8.17398 14.3379C8.46083 14.7928 9.06044 14.928 9.51327 14.6398C9.96609 14.3517 10.1006 13.7493 9.8138 13.2944Z" fill="#346E3C"/>
<path d="M22.3868 11.4739C22.1507 11.241 21.8758 11.1598 21.635 11.1349C21.4447 11.1152 21.1907 11.1293 21.0033 11.1397C19.1211 11.2431 16.8233 11.7598 15.2876 13.0539C14.5012 13.7167 13.9054 14.5931 13.697 15.7107C13.5223 16.6478 13.6304 17.6982 14.0515 18.8636C13.6187 19.6833 13.2604 20.6124 13.0249 21.6528C12.903 22.1915 13.2408 22.727 13.7795 22.8489C14.3181 22.9708 14.8536 22.633 14.9755 22.0943C15.1283 21.4196 15.3431 20.8033 15.5999 20.2446C15.3063 20.1497 15.0048 20.0336 14.6953 19.896C14.5257 19.8206 14.3902 19.6849 14.3148 19.5153C14.2165 19.2943 14.1286 19.0769 14.0515 18.8636C14.9953 17.0762 16.2938 15.8091 17.4453 15.0412C17.9048 14.7348 18.5257 14.8589 18.8321 15.3184C19.1385 15.7779 19.0144 16.3987 18.5549 16.7051C17.5604 17.3683 16.3843 18.5378 15.5999 20.2446C16.6643 20.5886 17.6246 20.6555 18.4826 20.4639C19.5864 20.2173 20.4238 19.566 21.0392 18.737C22.2384 17.1214 22.6625 14.7463 22.7398 12.8586C22.7477 12.6691 22.7583 12.4138 22.7362 12.2233C22.7082 11.9832 22.624 11.7078 22.3868 11.4739Z" fill="#346E3C"/>
</svg>
