<svg width="81" height="13" viewBox="0 0 81 13" fill="none" xmlns="http://www.w3.org/2000/svg">
<path d="M0.723072 0.0525196C0.475936 -0.0706799 0.175719 0.0297911 0.0525196 0.276928C-0.0706799 0.524064 0.0297911 0.824281 0.276928 0.94748L0.5 0.5L0.723072 0.0525196ZM80.5969 8.05096C80.8679 7.99741 81.0441 7.7344 80.9905 7.4635L80.118 3.0489C80.0644 2.778 79.8014 2.60179 79.5305 2.65534C79.2596 2.70888 79.0834 2.97189 79.1369 3.2428L79.9125 7.16688L75.9884 7.94247C75.7176 7.99601 75.5413 8.25903 75.5949 8.52993C75.6484 8.80083 75.9114 8.97704 76.1824 8.92349L80.5969 8.05096ZM58.2998 5.4934L58.4967 5.95303L58.2998 5.4934ZM15.8552 8.15467L15.6321 8.60215L15.8552 8.15467ZM49.7911 9.13689L49.9879 9.59652L49.7911 9.13689ZM1.55653 1.58537C1.80366 1.70857 2.10388 1.6081 2.22708 1.36096C2.35028 1.11382 2.24981 0.813608 2.00267 0.690408L1.7796 1.13789L1.55653 1.58537ZM4.56186 1.96619C4.31473 1.84299 4.01451 1.94346 3.89131 2.19059C3.76811 2.43773 3.86858 2.73795 4.11572 2.86115L4.33879 2.41367L4.56186 1.96619ZM6.67492 4.13693C6.92205 4.26012 7.22227 4.15965 7.34547 3.91252C7.46867 3.66538 7.3682 3.36516 7.12106 3.24196L6.89799 3.68944L6.67492 4.13693ZM9.68025 4.51774C9.43312 4.39454 9.1329 4.49501 9.0097 4.74215C8.8865 4.98929 8.98697 5.2895 9.23411 5.4127L9.45718 4.96522L9.68025 4.51774ZM11.7933 6.68848C12.0404 6.81168 12.3407 6.71121 12.4639 6.46407C12.5871 6.21694 12.4866 5.91672 12.2395 5.79352L12.0164 6.241L11.7933 6.68848ZM14.7986 7.0693C14.5515 6.9461 14.2513 7.04657 14.1281 7.29371C14.0049 7.54084 14.1054 7.84106 14.3525 7.96426L14.5756 7.51678L14.7986 7.0693ZM16.9667 9.23767C17.2181 9.35187 17.5145 9.24063 17.6287 8.98921C17.7429 8.73779 17.6317 8.4414 17.3803 8.32719L17.1735 8.78243L16.9667 9.23767ZM20.0463 9.42387C19.7873 9.32811 19.4997 9.46045 19.4039 9.71946C19.3082 9.97847 19.4405 10.2661 19.6995 10.3618L19.8729 9.89284L20.0463 9.42387ZM22.5068 11.2858C22.7721 11.3626 23.0494 11.2098 23.1261 10.9446C23.2029 10.6793 23.0502 10.4021 22.7849 10.3253L22.6459 10.8055L22.5068 11.2858ZM25.5813 11.0264C25.3112 10.969 25.0457 11.1414 24.9882 11.4115C24.9308 11.6816 25.1032 11.9471 25.3733 12.0045L25.4773 11.5155L25.5813 11.0264ZM28.2841 12.5144C28.5577 12.5522 28.8101 12.3611 28.8479 12.0875C28.8856 11.814 28.6945 11.5616 28.421 11.5238L28.3526 12.0191L28.2841 12.5144ZM31.2893 11.8149C31.0137 11.797 30.7758 12.0058 30.7579 12.2814C30.7399 12.5569 30.9488 12.7949 31.2243 12.8128L31.2568 12.3139L31.2893 11.8149ZM34.1783 12.8983C34.4544 12.8963 34.6766 12.6709 34.6747 12.3947C34.6727 12.1186 34.4472 11.8964 34.1711 11.8983L34.1747 12.3983L34.1783 12.8983ZM37.0515 11.7736C36.7762 11.7955 36.5708 12.0364 36.5927 12.3117C36.6146 12.5869 36.8555 12.7923 37.1308 12.7704L37.0911 12.272L37.0515 11.7736ZM40.0662 12.4298C40.3392 12.3881 40.5267 12.133 40.485 11.86C40.4432 11.587 40.1881 11.3996 39.9152 11.4413L39.9907 11.9355L40.0662 12.4298ZM42.7474 10.9031C42.4781 10.9644 42.3096 11.2324 42.3709 11.5016C42.4322 11.7709 42.7002 11.9394 42.9695 11.8781L42.8584 11.3906L42.7474 10.9031ZM45.8255 11.118C46.0896 11.0374 46.2384 10.7579 46.1578 10.4938C46.0772 10.2297 45.7977 10.0809 45.5336 10.1616L45.6796 10.6398L45.8255 11.118ZM48.2586 9.22092C48.001 9.32039 47.8728 9.60986 47.9722 9.86746C48.0717 10.1251 48.3612 10.2533 48.6188 10.1538L48.4387 9.68735L48.2586 9.22092ZM51.0515 9.14109C51.3054 9.03239 51.423 8.73848 51.3143 8.48464C51.2056 8.23079 50.9117 8.11312 50.6579 8.22182L50.8547 8.68145L51.0515 9.14109ZM52.7851 7.31095C52.5312 7.41965 52.4135 7.71355 52.5222 7.9674C52.6309 8.22125 52.9248 8.33891 53.1787 8.23022L52.9819 7.77058L52.7851 7.31095ZM55.3059 7.31934C55.5597 7.21064 55.6774 6.91674 55.5687 6.66289C55.46 6.40904 55.1661 6.29138 54.9122 6.40008L55.1091 6.85971L55.3059 7.31934ZM57.0394 5.4892C56.7856 5.5979 56.6679 5.89181 56.7766 6.14565C56.8853 6.3995 57.1792 6.51717 57.4331 6.40847L57.2362 5.94884L57.0394 5.4892ZM59.8201 5.43428C60.0802 5.34153 60.2159 5.05549 60.1231 4.79539C60.0304 4.53529 59.7443 4.39962 59.4842 4.49237L59.6522 4.96332L59.8201 5.43428ZM62.3342 3.67186C62.0646 3.7316 61.8945 3.99859 61.9542 4.26819C62.0139 4.5378 62.2809 4.70792 62.5505 4.64817L62.4424 4.16002L62.3342 3.67186ZM65.3574 4.2072C65.6323 4.18139 65.8343 3.93759 65.8085 3.66266C65.7827 3.38773 65.5389 3.18577 65.2639 3.21158L65.3107 3.70939L65.3574 4.2072ZM68.2281 3.11839C67.9521 3.10991 67.7214 3.32678 67.713 3.6028C67.7045 3.87881 67.9213 4.10944 68.1974 4.11792L68.2127 3.61815L68.2281 3.11839ZM71.0266 4.38134C71.2994 4.42396 71.5551 4.23734 71.5977 3.96451C71.6404 3.69167 71.4537 3.43595 71.1809 3.39333L71.1037 3.88733L71.0266 4.38134ZM74.0769 4.03215C73.8114 3.95603 73.5346 4.1095 73.4584 4.37494C73.3823 4.64039 73.5358 4.91728 73.8012 4.9934L73.939 4.51278L74.0769 4.03215ZM76.4784 5.94499C76.7324 6.05348 77.0262 5.93558 77.1347 5.68164C77.2431 5.4277 77.1252 5.13389 76.8713 5.0254L76.6749 5.4852L76.4784 5.94499ZM79.5208 6.35796C79.2823 6.21879 78.9761 6.29931 78.8369 6.53782C78.6977 6.77633 78.7783 7.0825 79.0168 7.22167L79.2688 6.78981L79.5208 6.35796ZM0.5 0.5L0.276928 0.94748L1.55653 1.58537L1.7796 1.13789L2.00267 0.690408L0.723072 0.0525196L0.5 0.5ZM4.33879 2.41367L4.11572 2.86115L6.67492 4.13693L6.89799 3.68944L7.12106 3.24196L4.56186 1.96619L4.33879 2.41367ZM9.45718 4.96522L9.23411 5.4127L11.7933 6.68848L12.0164 6.241L12.2395 5.79352L9.68025 4.51774L9.45718 4.96522ZM14.5756 7.51678L14.3525 7.96426L15.6321 8.60215L15.8552 8.15467L16.0782 7.70719L14.7986 7.0693L14.5756 7.51678ZM15.8552 8.15467L15.6321 8.60215C16.074 8.82243 16.5189 9.03427 16.9667 9.23767L17.1735 8.78243L17.3803 8.32719C16.9434 8.12877 16.5093 7.92209 16.0782 7.70719L15.8552 8.15467ZM19.8729 9.89284L19.6995 10.3618C20.6262 10.7044 21.5627 11.0125 22.5068 11.2858L22.6459 10.8055L22.7849 10.3253C21.8638 10.0586 20.9503 9.75811 20.0463 9.42387L19.8729 9.89284ZM25.4773 11.5155L25.3733 12.0045C26.3383 12.2098 27.3092 12.3797 28.2841 12.5144L28.3526 12.0191L28.421 11.5238C27.4699 11.3924 26.5227 11.2266 25.5813 11.0264L25.4773 11.5155ZM31.2568 12.3139L31.2243 12.8128C32.2076 12.8769 33.1929 12.9054 34.1783 12.8983L34.1747 12.3983L34.1711 11.8983C33.2098 11.9052 32.2486 11.8774 31.2893 11.8149L31.2568 12.3139ZM37.0911 12.272L37.1308 12.7704C38.1118 12.6924 39.091 12.5789 40.0662 12.4298L39.9907 11.9355L39.9152 11.4413C38.9637 11.5867 38.0085 11.6974 37.0515 11.7736L37.0911 12.272ZM42.8584 11.3906L42.9695 11.8781C43.9279 11.6598 44.8805 11.4064 45.8255 11.118L45.6796 10.6398L45.5336 10.1616C44.6117 10.443 43.6824 10.6901 42.7474 10.9031L42.8584 11.3906ZM48.4387 9.68735L48.6188 10.1538C49.0776 9.97663 49.534 9.79088 49.9879 9.59652L49.7911 9.13689L49.5943 8.67726C49.1515 8.86687 48.7062 9.04809 48.2586 9.22092L48.4387 9.68735ZM49.7911 9.13689L49.9879 9.59652L51.0515 9.14109L50.8547 8.68145L50.6579 8.22182L49.5943 8.67726L49.7911 9.13689ZM52.9819 7.77058L53.1787 8.23022L55.3059 7.31934L55.1091 6.85971L54.9122 6.40008L52.7851 7.31095L52.9819 7.77058ZM57.2362 5.94884L57.4331 6.40847L58.4967 5.95303L58.2998 5.4934L58.103 5.03377L57.0394 5.4892L57.2362 5.94884ZM58.2998 5.4934L58.4967 5.95303C58.934 5.76575 59.3754 5.59285 59.8201 5.43428L59.6522 4.96332L59.4842 4.49237C59.0201 4.65787 58.5595 4.83832 58.103 5.03377L58.2998 5.4934ZM62.4424 4.16002L62.5505 4.64817C63.4795 4.44231 64.417 4.29549 65.3574 4.2072L65.3107 3.70939L65.2639 3.21158C64.2824 3.30373 63.3039 3.45697 62.3342 3.67186L62.4424 4.16002ZM68.2127 3.61815L68.1974 4.11792C69.1449 4.14704 70.0899 4.23502 71.0266 4.38134L71.1037 3.88733L71.1809 3.39333C70.2033 3.24061 69.2171 3.14878 68.2281 3.11839L68.2127 3.61815ZM73.939 4.51278L73.8012 4.9934C74.7092 5.25379 75.6034 5.57116 76.4784 5.94499L76.6749 5.4852L76.8713 5.0254C75.958 4.63519 75.0246 4.30393 74.0769 4.03215L73.939 4.51278ZM79.2688 6.78981L79.0168 7.22167C79.4246 7.45961 79.8264 7.71102 80.2217 7.97584L80.5 7.56045L80.7783 7.14505C80.3658 6.86869 79.9464 6.6063 79.5208 6.35796L79.2688 6.78981Z" fill="#346E3C"/>
</svg>
