<svg width="16" height="16" viewBox="0 0 16 16" fill="none" xmlns="http://www.w3.org/2000/svg">
<path d="M8.22644 14.6335C10.9995 13.6668 13.3326 12.0001 13.3326 8.66663V3.99982C13.3326 3.823 13.2624 3.65343 13.1374 3.5284C13.0123 3.40337 12.8428 3.33313 12.666 3.33313C11.3328 3.33313 9.67296 2.53977 8.50641 1.51974C8.36519 1.39906 8.18554 1.33276 7.99979 1.33276C7.81405 1.33276 7.6344 1.39906 7.49318 1.51974C6.33329 2.5331 4.66679 3.33313 3.33359 3.33313C3.1568 3.33313 2.98725 3.40337 2.86223 3.5284C2.73722 3.65343 2.66699 3.823 2.66699 3.99982V8.66663C2.66699 12.0001 5.00009 13.6668 7.77981 14.6268C7.92349 14.6804 8.08123 14.6827 8.22644 14.6335Z" stroke="#F59E0B" stroke-width="2" stroke-linecap="round"/>
</svg>
