<svg width="32" height="32" viewBox="0 0 32 32" fill="none" xmlns="http://www.w3.org/2000/svg">
<g clip-path="url(#clip0_101_3405)">
<path d="M16.0008 3.99976C12.7418 3.99976 12.3328 4.01401 11.0529 4.07226C9.77539 4.13076 8.9034 4.33301 8.14042 4.62976C7.35118 4.93627 6.6817 5.34627 6.01471 6.01353C5.34722 6.68054 4.93723 7.35004 4.62974 8.13905C4.33224 8.90231 4.12975 9.77457 4.07225 11.0516C4.015 12.3316 4 12.7409 4 15.9999C4 19.2589 4.0145 19.6667 4.0725 20.9467C4.13125 22.2242 4.33349 23.0962 4.62999 23.8592C4.93673 24.6485 5.34672 25.318 6.01396 25.985C6.6807 26.6525 7.35018 27.0635 8.13892 27.37C8.9024 27.6668 9.77464 27.869 11.0519 27.9275C12.3318 27.9858 12.7406 28 15.9993 28C19.2584 28 19.6662 27.9858 20.9462 27.9275C22.2236 27.869 23.0966 27.6668 23.8601 27.37C24.6491 27.0635 25.3176 26.6525 25.9843 25.985C26.6518 25.318 27.0618 24.6485 27.3693 23.8595C27.6643 23.0962 27.8668 22.224 27.9268 20.9469C27.9843 19.6669 27.9993 19.2589 27.9993 15.9999C27.9993 12.7409 27.9843 12.3318 27.9268 11.0518C27.8668 9.77432 27.6643 8.90231 27.3693 8.1393C27.0618 7.35004 26.6518 6.68054 25.9843 6.01353C25.3168 5.34602 24.6493 4.93602 23.8594 4.62976C23.0944 4.33301 22.2219 4.13076 20.9444 4.07226C19.6644 4.01401 19.2569 3.99976 15.997 3.99976H16.0008ZM14.9243 6.16228C15.2438 6.16178 15.6003 6.16228 16.0008 6.16228C19.2047 6.16228 19.5844 6.17378 20.8497 6.23128C22.0196 6.28478 22.6546 6.48028 23.0776 6.64453C23.6376 6.86204 24.0369 7.12204 24.4566 7.54204C24.8766 7.96205 25.1366 8.36205 25.3546 8.92206C25.5188 9.34456 25.7146 9.97957 25.7678 11.1496C25.8253 12.4146 25.8378 12.7946 25.8378 15.9971C25.8378 19.1997 25.8253 19.5797 25.7678 20.8447C25.7143 22.0147 25.5188 22.6497 25.3546 23.0722C25.1371 23.6322 24.8766 24.031 24.4566 24.4507C24.0366 24.8707 23.6379 25.1307 23.0776 25.3482C22.6551 25.5132 22.0196 25.7082 20.8497 25.7617C19.5847 25.8192 19.2047 25.8317 16.0008 25.8317C12.7966 25.8317 12.4168 25.8192 11.1519 25.7617C9.98188 25.7077 9.34689 25.5122 8.92365 25.348C8.36366 25.1305 7.96367 24.8705 7.54368 24.4505C7.12369 24.0305 6.86369 23.6315 6.6457 23.0712C6.48145 22.6487 6.2857 22.0137 6.23246 20.8437C6.17496 19.5787 6.16346 19.1987 6.16346 15.9941C6.16346 12.7896 6.17496 12.4116 6.23246 11.1466C6.28595 9.97657 6.48145 9.34156 6.6457 8.91856C6.86319 8.35855 7.12369 7.95855 7.54368 7.53854C7.96367 7.11854 8.36366 6.85854 8.92365 6.64053C9.34664 6.47553 9.98188 6.28053 11.1519 6.22678C12.2588 6.17678 12.6878 6.16178 14.9243 6.15928V6.16228ZM22.4061 8.1548C21.6112 8.1548 20.9662 8.79906 20.9662 9.59432C20.9662 10.3893 21.6112 11.0343 22.4061 11.0343C23.2011 11.0343 23.8461 10.3893 23.8461 9.59432C23.8461 8.79931 23.2011 8.1543 22.4061 8.1543V8.1548ZM16.0008 9.83732C12.5976 9.83732 9.83838 12.5966 9.83838 15.9999C9.83838 19.4032 12.5976 22.1612 16.0008 22.1612C19.4039 22.1612 22.1621 19.4032 22.1621 15.9999C22.1621 12.5966 19.4039 9.83732 16.0008 9.83732ZM16.0008 11.9998C18.2097 11.9998 20.0007 13.7906 20.0007 15.9999C20.0007 18.2089 18.2097 19.9999 16.0008 19.9999C13.7916 19.9999 12.0008 18.2089 12.0008 15.9999C12.0008 13.7906 13.7916 11.9998 16.0008 11.9998Z" fill="currentColor" fill-opacity="0.8"/>
</g>
<defs>
<clipPath id="clip0_101_3405">
<rect width="24" height="24" fill="white" transform="translate(4 4)"/>
</clipPath>
</defs>
</svg>
