<svg width="85" height="10" viewBox="0 0 85 10" fill="none" xmlns="http://www.w3.org/2000/svg">
<path d="M0.365492 8.6947C0.0995291 8.76899 -0.0558547 9.04482 0.0184322 9.31078C0.0927191 9.57674 0.368546 9.73212 0.634508 9.65784L0.5 9.17627L0.365492 8.6947ZM84.9625 2.08474C85.05 1.82283 84.9087 1.53957 84.6468 1.45205L80.3787 0.0258227C80.1168 -0.0616975 79.8336 0.0796703 79.746 0.341576C79.6585 0.603483 79.7999 0.886749 80.0618 0.974269L83.8556 2.24202L82.5878 6.03581C82.5003 6.29771 82.6417 6.58098 82.9036 6.6685C83.1655 6.75602 83.4488 6.61465 83.5363 6.35275L84.9625 2.08474ZM54.2786 4.97353L54.4081 4.49057L54.2786 4.97353ZM19.694 3.81514L19.8285 4.29671L19.694 3.81514ZM49.3728 3.65881L49.5022 3.17586L49.3728 3.65881ZM2.234 9.21108C2.49997 9.13679 2.65535 8.86096 2.58106 8.595C2.50678 8.32904 2.23095 8.17365 1.96499 8.24794L2.0995 8.72951L2.234 9.21108ZM5.16398 7.35442C4.89802 7.42871 4.74263 7.70453 4.81692 7.9705C4.89121 8.23646 5.16703 8.39184 5.433 8.31756L5.29849 7.83599L5.16398 7.35442ZM8.63199 7.42403C8.89795 7.34975 9.05333 7.07392 8.97905 6.80796C8.90476 6.542 8.62893 6.38661 8.36297 6.4609L8.49748 6.94247L8.63199 7.42403ZM11.562 5.56738C11.296 5.64166 11.1406 5.91749 11.2149 6.18345C11.2892 6.44942 11.565 6.6048 11.831 6.53051L11.6965 6.04894L11.562 5.56738ZM15.03 5.63699C15.2959 5.5627 15.4513 5.28688 15.377 5.02092C15.3027 4.75495 15.0269 4.59957 14.761 4.67386L14.8955 5.15542L15.03 5.63699ZM17.9599 3.78033C17.694 3.85462 17.5386 4.13045 17.6129 4.39641C17.6872 4.66237 17.963 4.81776 18.229 4.74347L18.0945 4.2619L17.9599 3.78033ZM21.2673 3.91546C21.5351 3.84831 21.6978 3.57673 21.6307 3.30887C21.5635 3.04102 21.2919 2.87833 21.0241 2.94549L21.1457 3.43048L21.2673 3.91546ZM23.9816 2.28738C23.7105 2.34014 23.5335 2.60265 23.5863 2.8737C23.6391 3.14476 23.9016 3.32172 24.1726 3.26896L24.0771 2.77817L23.9816 2.28738ZM27.1083 2.77853C27.3818 2.74032 27.5725 2.48764 27.5343 2.21415C27.4961 1.94067 27.2434 1.74994 26.9699 1.78815L27.0391 2.28334L27.1083 2.77853ZM29.9808 1.44919C29.7057 1.47275 29.5017 1.71488 29.5253 1.99002C29.5488 2.26515 29.791 2.4691 30.0661 2.44555L30.0235 1.94737L29.9808 1.44919ZM33.0374 2.27098C33.3134 2.26215 33.53 2.03125 33.5212 1.75525C33.5123 1.47925 33.2814 1.26266 33.0054 1.27149L33.0214 1.77123L33.0374 2.27098ZM36.0352 1.25553C35.7592 1.24961 35.5305 1.46862 35.5246 1.7447C35.5187 2.02078 35.7377 2.24938 36.0138 2.2553L36.0245 1.75542L36.0352 1.25553ZM38.9868 2.39856C39.2621 2.41921 39.5021 2.21273 39.5228 1.93736C39.5434 1.66199 39.3369 1.42201 39.0616 1.40136L39.0242 1.89996L38.9868 2.39856ZM42.0758 1.70858C41.802 1.67325 41.5513 1.86663 41.516 2.14051C41.4807 2.41438 41.674 2.66504 41.9479 2.70036L42.0119 2.20447L42.0758 1.70858ZM44.8886 3.15985C45.1602 3.20975 45.4208 3.03003 45.4707 2.75843C45.5206 2.48684 45.3409 2.22621 45.0693 2.17631L44.979 2.66808L44.8886 3.15985ZM48.0336 2.80322C47.765 2.73889 47.4952 2.90443 47.4308 3.17298C47.3665 3.44152 47.532 3.71137 47.8006 3.7757L47.9171 3.28946L48.0336 2.80322ZM50.4698 4.47045C50.7365 4.54193 51.0107 4.38365 51.0822 4.11692C51.1537 3.85019 50.9954 3.57602 50.7287 3.50454L50.5992 3.98749L50.4698 4.47045ZM53.1816 4.16189C52.9149 4.09041 52.6407 4.24869 52.5692 4.51542C52.4977 4.78216 52.656 5.05633 52.9227 5.12781L53.0522 4.64485L53.1816 4.16189ZM55.6729 5.8354C55.9421 5.89718 56.2103 5.72907 56.2721 5.45993C56.3339 5.19079 56.1658 4.92252 55.8966 4.86075L55.7848 5.34808L55.6729 5.8354ZM58.9086 5.43808C58.6357 5.39595 58.3803 5.58304 58.3382 5.85596C58.296 6.12887 58.4831 6.38425 58.756 6.42637L58.8323 5.93223L58.9086 5.43808ZM61.8738 6.79249C62.1491 6.81474 62.3903 6.60964 62.4125 6.33439C62.4347 6.05915 62.2296 5.81799 61.9544 5.79574L61.9141 6.29412L61.8738 6.79249ZM65.0183 5.93187C64.7421 5.92961 64.5165 6.15164 64.5142 6.42777C64.512 6.7039 64.734 6.92958 65.0101 6.93183L65.0142 6.43185L65.0183 5.93187ZM68.1482 6.84371C68.4238 6.82597 68.6328 6.58819 68.615 6.31262C68.5973 6.03705 68.3595 5.82804 68.0839 5.84578L68.1161 6.34475L68.1482 6.84371ZM71.1353 5.53799C70.8617 5.57564 70.6705 5.82792 70.7081 6.10149C70.7458 6.37505 70.998 6.5663 71.2716 6.52865L71.2034 6.03332L71.1353 5.53799ZM74.3641 5.9883C74.6342 5.93094 74.8067 5.66547 74.7493 5.39535C74.692 5.12523 74.4265 4.95275 74.1564 5.0101L74.2602 5.4992L74.3641 5.9883ZM77.1313 4.26484C76.8661 4.3416 76.7133 4.61887 76.79 4.88413C76.8668 5.14938 77.1441 5.30219 77.4093 5.22542L77.2703 4.74513L77.1313 4.26484ZM80.3912 4.24403C80.6502 4.14825 80.7825 3.86064 80.6868 3.60164C80.591 3.34264 80.3034 3.21032 80.0444 3.3061L80.2178 3.77506L80.3912 4.24403ZM82.8803 2.13889C82.629 2.25317 82.5178 2.5496 82.6321 2.80099C82.7464 3.05237 83.0428 3.16352 83.2942 3.04924L83.0873 2.59406L82.8803 2.13889ZM0.5 9.17627L0.634508 9.65784L2.234 9.21108L2.0995 8.72951L1.96499 8.24794L0.365492 8.6947L0.5 9.17627ZM5.29849 7.83599L5.433 8.31756L8.63199 7.42403L8.49748 6.94247L8.36297 6.4609L5.16398 7.35442L5.29849 7.83599ZM11.6965 6.04894L11.831 6.53051L15.03 5.63699L14.8955 5.15542L14.761 4.67386L11.562 5.56738L11.6965 6.04894ZM18.0945 4.2619L18.229 4.74347L19.8285 4.29671L19.694 3.81514L19.5594 3.33357L17.9599 3.78033L18.0945 4.2619ZM19.694 3.81514L19.8285 4.29671C20.3068 4.16311 20.7864 4.03603 21.2673 3.91546L21.1457 3.43048L21.0241 2.94549C20.5346 3.06822 20.0463 3.19758 19.5594 3.33357L19.694 3.81514ZM24.0771 2.77817L24.1726 3.26896C25.1477 3.07917 26.1266 2.91569 27.1083 2.77853L27.0391 2.28334L26.9699 1.78815C25.9706 1.92777 24.9741 2.09419 23.9816 2.28738L24.0771 2.77817ZM30.0235 1.94737L30.0661 2.44555C31.0551 2.36088 32.0459 2.30269 33.0374 2.27098L33.0214 1.77123L33.0054 1.27149C31.9962 1.30377 30.9876 1.36301 29.9808 1.44919L30.0235 1.94737ZM36.0245 1.75542L36.0138 2.2553C37.0055 2.27657 37.9969 2.32432 38.9868 2.39856L39.0242 1.89996L39.0616 1.40136C38.0539 1.32579 37.0448 1.27718 36.0352 1.25553L36.0245 1.75542ZM42.0119 2.20447L41.9479 2.70036C42.931 2.82718 43.9116 2.98033 44.8886 3.15985L44.979 2.66808L45.0693 2.17631C44.0748 1.99358 43.0766 1.83767 42.0758 1.70858L42.0119 2.20447ZM47.9171 3.28946L47.8006 3.7757C48.2827 3.8912 48.7637 4.01322 49.2433 4.14177L49.3728 3.65881L49.5022 3.17586C49.0139 3.045 48.5243 2.92079 48.0336 2.80322L47.9171 3.28946ZM49.3728 3.65881L49.2433 4.14177L50.4698 4.47045L50.5992 3.98749L50.7287 3.50454L49.5022 3.17586L49.3728 3.65881ZM53.0522 4.64485L52.9227 5.12781L54.1492 5.45649L54.2786 4.97353L54.4081 4.49057L53.1816 4.16189L53.0522 4.64485ZM54.2786 4.97353L54.1492 5.45649C54.6556 5.5922 55.1636 5.7185 55.6729 5.8354L55.7848 5.34808L55.8966 4.86075C55.3991 4.74654 54.9028 4.62316 54.4081 4.49057L54.2786 4.97353ZM58.8323 5.93223L58.756 6.42637C59.7926 6.58636 60.8325 6.70833 61.8738 6.79249L61.9141 6.29412L61.9544 5.79574C60.9371 5.71352 59.9212 5.59437 58.9086 5.43808L58.8323 5.93223ZM65.0142 6.43185L65.0101 6.93183C66.0575 6.94038 67.1042 6.91094 68.1482 6.84371L68.1161 6.34475L68.0839 5.84578C67.0641 5.91145 66.0415 5.94022 65.0183 5.93187L65.0142 6.43185ZM71.2034 6.03332L71.2716 6.52865C72.308 6.38603 73.3395 6.20584 74.3641 5.9883L74.2602 5.4992L74.1564 5.0101C73.1554 5.22263 72.1477 5.39866 71.1353 5.53799L71.2034 6.03332ZM77.2703 4.74513L77.4093 5.22542C78.4129 4.93499 79.4075 4.60779 80.3912 4.24403L80.2178 3.77506L80.0444 3.3061C79.0834 3.66147 78.1117 3.98111 77.1313 4.26484L77.2703 4.74513ZM83.0873 2.59406L83.2942 3.04924C83.7699 2.83296 84.2425 2.60776 84.7116 2.37365L84.4883 1.92627L84.265 1.47889C83.8067 1.7076 83.3451 1.92761 82.8803 2.13889L83.0873 2.59406Z" fill="#346E3C"/>
</svg>
