<svg width="32" height="32" viewBox="0 0 32 32" fill="none" xmlns="http://www.w3.org/2000/svg">
<g clip-path="url(#clip0_101_3402)">
<path d="M24.3571 7.53571C26.6071 9.78571 28 12.7321 28 15.9464C28 22.4821 22.5357 27.8393 15.9464 27.8393C13.9643 27.8393 12.0357 27.3036 10.2679 26.3929L4 28L5.66071 21.8393C4.64286 20.0714 4.05357 18.0357 4.05357 15.8929C4.05357 9.35714 9.41071 4 15.9464 4C19.1607 4 22.1607 5.28571 24.3571 7.53571ZM15.9464 25.8036C21.4107 25.8036 25.9643 21.3571 25.9643 15.9464C25.9643 13.2679 24.8393 10.8036 22.9643 8.92857C21.0893 7.05357 18.625 6.03571 16 6.03571C10.5357 6.03571 6.08929 10.4821 6.08929 15.8929C6.08929 17.7679 6.625 19.5893 7.58929 21.1964L7.85714 21.5714L6.83929 25.2143L10.5893 24.1964L10.9107 24.4107C12.4643 25.3214 14.1786 25.8036 15.9464 25.8036ZM21.4107 18.4107C21.6786 18.5714 21.8929 18.625 21.9464 18.7857C22.0536 18.8929 22.0536 19.4821 21.7857 20.1786C21.5179 20.875 20.3393 21.5179 19.8036 21.5714C18.8393 21.7321 18.0893 21.6786 16.2143 20.8214C13.2143 19.5357 11.2857 16.5357 11.125 16.375C10.9643 16.1607 9.94643 14.7679 9.94643 13.2679C9.94643 11.8214 10.6964 11.125 10.9643 10.8036C11.2321 10.4821 11.5536 10.4286 11.7679 10.4286C11.9286 10.4286 12.1429 10.4286 12.3036 10.4286C12.5179 10.4286 12.7321 10.375 13 10.9643C13.2143 11.5536 13.8571 13 13.9107 13.1607C13.9643 13.3214 14.0179 13.4821 13.9107 13.6964C13.375 14.8214 12.7321 14.7679 13.0536 15.3036C14.2321 17.2857 15.3571 17.9821 17.125 18.8393C17.3929 19 17.5536 18.9464 17.7679 18.7857C17.9286 18.5714 18.5179 17.875 18.6786 17.6071C18.8929 17.2857 19.1071 17.3393 19.375 17.4464C19.6429 17.5536 21.0893 18.25 21.4107 18.4107Z" fill="currentColor" fill-opacity="0.8"/>
</g>
<defs>
<clipPath id="clip0_101_3402">
<rect width="24" height="24" fill="white" transform="translate(4 4)"/>
</clipPath>
</defs>
</svg>
