<svg width="16" height="16" viewBox="0 0 16 16" fill="none" xmlns="http://www.w3.org/2000/svg">
<path d="M9.33381 9.69272V2.66609C9.33381 2.31247 9.1933 1.97333 8.9432 1.72329C8.69311 1.47324 8.3539 1.33276 8.00021 1.33276C7.64652 1.33276 7.30731 1.47324 7.05721 1.72329C6.80711 1.97333 6.66661 2.31247 6.66661 2.66609V9.69272C6.15813 9.98623 5.76073 10.4393 5.53604 10.9816C5.31135 11.524 5.27193 12.1253 5.42389 12.6923C5.57585 13.2593 5.91071 13.7604 6.37652 14.1177C6.84233 14.4751 7.41307 14.6688 8.00021 14.6688C8.58735 14.6688 9.15808 14.4751 9.6239 14.1177C10.0897 13.7604 10.4246 13.2593 10.5765 12.6923C10.7285 12.1253 10.6891 11.524 10.4644 10.9816C10.2397 10.4393 9.84229 9.98623 9.33381 9.69272Z" stroke="#F97316" stroke-width="2" stroke-linecap="round"/>
</svg>
