<svg width="16" height="16" viewBox="0 0 16 16" fill="none" xmlns="http://www.w3.org/2000/svg">
<path d="M8.53358 13.0662C8.70261 13.1929 8.89935 13.2777 9.10757 13.3135C9.3158 13.3494 9.52956 13.3352 9.73124 13.2722C9.93291 13.2092 10.1167 13.0992 10.2675 12.9513C10.4184 12.8033 10.5318 12.6216 10.5987 12.4212C10.6655 12.2208 10.6837 12.0074 10.6518 11.7986C10.62 11.5897 10.5389 11.3915 10.4154 11.2201C10.2918 11.0487 10.1293 10.9092 9.94127 10.8129C9.7532 10.7166 9.54493 10.6664 9.33365 10.6664H1.33301M11.6672 5.33364C11.8376 5.10638 12.0634 4.92647 12.323 4.81098C12.5825 4.69549 12.8673 4.64826 13.1503 4.67377C13.4333 4.69928 13.705 4.79669 13.9397 4.95674C14.1745 5.11679 14.3644 5.33418 14.4914 5.58825C14.6185 5.84233 14.6785 6.12466 14.6657 6.40844C14.653 6.69222 14.5678 6.96803 14.4185 7.20967C14.2691 7.45131 14.0604 7.65076 13.8123 7.78909C13.5641 7.92742 13.2847 8.00004 13.0006 8.00004H1.33301M6.53342 2.93388C6.70245 2.80713 6.89919 2.72235 7.10741 2.68654C7.31564 2.65072 7.5294 2.66489 7.73108 2.72788C7.93275 2.79087 8.11657 2.90087 8.26738 3.04882C8.4182 3.19677 8.53169 3.37843 8.5985 3.57884C8.66531 3.77925 8.68354 3.99266 8.65168 4.20149C8.61981 4.41033 8.53877 4.6086 8.41523 4.77997C8.29169 4.95135 8.12919 5.09091 7.94111 5.18718C7.75304 5.28344 7.54477 5.33364 7.33349 5.33364H1.33301" stroke="#F59E0B" stroke-width="2" stroke-linecap="round"/>
</svg>
