<svg width="16" height="16" viewBox="0 0 16 16" fill="none" xmlns="http://www.w3.org/2000/svg">
<path d="M2.31025 9.23149C2.41709 9.29856 2.54077 9.33394 2.66691 9.33351H7.33306C7.44088 9.33316 7.54718 9.35898 7.64284 9.40874C7.73849 9.45851 7.82065 9.53074 7.88227 9.61924C7.94388 9.70775 7.98311 9.80988 7.99659 9.91688C8.01007 10.0239 7.99739 10.1325 7.95965 10.2336L6.6798 14.2471C6.65975 14.32 6.66507 14.3976 6.6949 14.4671C6.72473 14.5366 6.77729 14.5938 6.84396 14.6295C6.91062 14.6652 6.98742 14.6771 7.06176 14.6633C7.1361 14.6496 7.20356 14.611 7.25306 14.5538L13.8523 7.75342C13.9318 7.65544 13.9818 7.53692 13.9966 7.41163C14.0114 7.28633 13.9904 7.15941 13.9359 7.0456C13.8815 6.9318 13.7959 6.83578 13.689 6.76871C13.5822 6.70163 13.4585 6.66626 13.3324 6.66669H8.66624C8.55841 6.66704 8.45211 6.64122 8.35646 6.59146C8.2608 6.54169 8.17864 6.46946 8.11703 6.38095C8.05541 6.29245 8.01619 6.19032 8.00271 6.08332C7.98923 5.97633 8.0019 5.86765 8.03964 5.76663L9.3195 1.75306C9.33955 1.68015 9.33422 1.6026 9.30439 1.53312C9.27456 1.46364 9.222 1.40637 9.15534 1.37071C9.08867 1.33504 9.01187 1.32311 8.93753 1.33686C8.86319 1.35061 8.79573 1.38923 8.74623 1.44638L2.14697 8.24678C2.0675 8.34476 2.01746 8.46328 2.00265 8.58857C1.98785 8.71387 2.0089 8.84079 2.06335 8.95459C2.1178 9.0684 2.20341 9.16442 2.31025 9.23149Z" stroke="#10B981" stroke-width="2" stroke-linecap="round"/>
</svg>
