<svg width="81" height="16" viewBox="0 0 81 16" fill="none" xmlns="http://www.w3.org/2000/svg">
<path d="M0.365492 6.53918C0.0995291 6.61347 -0.0558547 6.8893 0.0184322 7.15526C0.0927191 7.42122 0.368546 7.57661 0.634508 7.50232L0.5 7.02075L0.365492 6.53918ZM80.5831 15.0138C80.8554 14.9679 81.0389 14.71 80.993 14.4377L80.2455 10.0002C80.1996 9.72791 79.9417 9.54435 79.6694 9.59023C79.3971 9.6361 79.2135 9.89404 79.2594 10.1663L79.9239 14.1108L75.9795 14.7753C75.7072 14.8211 75.5236 15.0791 75.5695 15.3514C75.6153 15.6237 75.8733 15.8072 76.1456 15.7614L80.5831 15.0138ZM57.4668 3.67241L57.5962 3.18945L57.4668 3.67241ZM13.2018 3.47298L13.0672 2.99141L13.2018 3.47298ZM55.8837 3.24816L55.7543 3.73112L55.8837 3.24816ZM2.22223 7.05885C2.48819 6.98456 2.64357 6.70873 2.56929 6.44277C2.495 6.17681 2.21917 6.02143 1.95321 6.09571L2.08772 6.57728L2.22223 7.05885ZM5.12865 5.20877C4.86269 5.28306 4.7073 5.55888 4.78159 5.82485C4.85588 6.09081 5.1317 6.24619 5.39767 6.17191L5.26316 5.69034L5.12865 5.20877ZM8.5731 5.28496C8.83907 5.21068 8.99445 4.93485 8.92016 4.66889C8.84588 4.40293 8.57005 4.24754 8.30409 4.32183L8.4386 4.8034L8.5731 5.28496ZM11.4795 3.43489C11.2136 3.50917 11.0582 3.785 11.1325 4.05096C11.2068 4.31692 11.4826 4.47231 11.7485 4.39802L11.614 3.91645L11.4795 3.43489ZM14.8168 3.5562C15.0841 3.487 15.2447 3.21419 15.1755 2.94686C15.1063 2.67953 14.8335 2.51891 14.5662 2.58811L14.6915 3.07216L14.8168 3.5562ZM17.5857 1.86766C17.3159 1.92662 17.145 2.1931 17.204 2.46288C17.2629 2.73266 17.5294 2.90356 17.7992 2.84461L17.6924 2.35614L17.5857 1.86766ZM20.8064 2.24734C21.0783 2.19872 21.2592 1.93895 21.2106 1.66712C21.162 1.39529 20.9022 1.21434 20.6304 1.26296L20.7184 1.75515L20.8064 2.24734ZM23.6959 0.774862C23.4224 0.813072 23.2317 1.06575 23.2699 1.33924C23.3081 1.61272 23.5608 1.80345 23.8342 1.76524L23.7651 1.27005L23.6959 0.774862ZM26.8784 1.39899C27.1531 1.37125 27.3534 1.12603 27.3256 0.851281C27.2979 0.576537 27.0526 0.376307 26.7779 0.404056L26.8281 0.901525L26.8784 1.39899ZM29.8718 0.151102C29.5962 0.16835 29.3867 0.405752 29.404 0.681355C29.4212 0.956959 29.6586 1.1664 29.9342 1.14915L29.903 0.650126L29.8718 0.151102ZM32.9973 1.01606C33.2734 1.00934 33.4918 0.780096 33.485 0.504036C33.4783 0.227975 33.2491 0.00963306 32.973 0.016355L32.9852 0.516207L32.9973 1.01606ZM36.0771 4.29153e-06C35.801 -0.00380898 35.5741 0.216936 35.5703 0.493052C35.5665 0.769168 35.7872 0.996096 36.0633 0.999909L36.0702 0.499957L36.0771 4.29153e-06ZM39.1277 1.10072C39.4035 1.11507 39.6386 0.90314 39.653 0.62737C39.6673 0.351601 39.4554 0.116418 39.1796 0.102074L39.1537 0.601399L39.1277 1.10072ZM42.276 0.322422C42.001 0.297569 41.7579 0.500371 41.733 0.775392C41.7082 1.05041 41.911 1.29351 42.186 1.31836L42.231 0.820393L42.276 0.322422ZM45.2338 1.65252C45.5077 1.68785 45.7584 1.49447 45.7937 1.2206C45.829 0.946724 45.6356 0.696068 45.3618 0.66074L45.2978 1.15663L45.2338 1.65252ZM48.4322 1.11652C48.1599 1.07077 47.902 1.25444 47.8563 1.52677C47.8105 1.7991 47.9942 2.05695 48.2665 2.1027L48.3494 1.60961L48.4322 1.11652ZM51.2799 2.66826C51.5503 2.72436 51.815 2.55066 51.8711 2.28028C51.9272 2.00989 51.7535 1.74522 51.4831 1.68912L51.3815 2.17869L51.2799 2.66826ZM54.51 2.37771C54.242 2.31133 53.9709 2.47481 53.9045 2.74286C53.8381 3.0109 54.0016 3.28201 54.2696 3.34839L54.3898 2.86305L54.51 2.37771ZM56.1501 3.83718C56.4168 3.90866 56.691 3.75038 56.7624 3.48365C56.8339 3.21692 56.6756 2.94275 56.4089 2.87126L56.2795 3.35422L56.1501 3.83718ZM57.2004 3.08339C56.9337 3.01191 56.6595 3.17019 56.5881 3.43692C56.5166 3.70365 56.6749 3.97782 56.9416 4.0493L57.071 3.56635L57.2004 3.08339ZM58.8671 4.58364C59.1321 4.66105 59.4098 4.50892 59.4872 4.24385C59.5646 3.97878 59.4125 3.70115 59.1474 3.62374L59.0072 4.10369L58.8671 4.58364ZM62.2188 4.59548C61.9574 4.50634 61.6733 4.64594 61.5842 4.9073C61.495 5.16866 61.6346 5.4528 61.896 5.54194L62.0574 5.06871L62.2188 4.59548ZM64.8792 6.63428C65.1363 6.73499 65.4264 6.60819 65.5271 6.35106C65.6278 6.09394 65.501 5.80386 65.2439 5.70315L65.0615 6.16872L64.8792 6.63428ZM68.2165 6.94454C67.9641 6.83248 67.6687 6.94623 67.5566 7.19861C67.4446 7.45099 67.5583 7.74643 67.8107 7.8585L68.0136 7.40152L68.2165 6.94454ZM70.6848 9.21214C70.9319 9.33534 71.2321 9.23487 71.3553 8.98774C71.4785 8.7406 71.3781 8.44039 71.1309 8.31718L70.9078 8.76466L70.6848 9.21214ZM73.9812 9.81835C73.7398 9.68426 73.4354 9.77125 73.3014 10.0126C73.1673 10.254 73.2542 10.5584 73.4957 10.6925L73.7384 10.2554L73.9812 9.81835ZM76.2378 12.2967C76.4729 12.4415 76.7809 12.3681 76.9256 12.1329C77.0704 11.8977 76.997 11.5898 76.7618 11.4451L76.4998 11.8709L76.2378 12.2967ZM79.4671 13.1941C79.2387 13.039 78.9277 13.0986 78.7727 13.3271C78.6176 13.5556 78.6771 13.8665 78.9056 14.0215L79.1864 13.6078L79.4671 13.1941ZM0.5 7.02075L0.634508 7.50232L2.22223 7.05885L2.08772 6.57728L1.95321 6.09571L0.365492 6.53918L0.5 7.02075ZM5.26316 5.69034L5.39767 6.17191L8.5731 5.28496L8.4386 4.8034L8.30409 4.32183L5.12865 5.20877L5.26316 5.69034ZM11.614 3.91645L11.7485 4.39802L13.3363 3.95455L13.2018 3.47298L13.0672 2.99141L11.4795 3.43489L11.614 3.91645ZM13.2018 3.47298L13.3363 3.95455C13.8288 3.81698 14.3223 3.68419 14.8168 3.5562L14.6915 3.07216L14.5662 2.58811C14.0656 2.71769 13.5659 2.85213 13.0672 2.99141L13.2018 3.47298ZM17.6924 2.35614L17.7992 2.84461C18.7986 2.62621 19.8012 2.42712 20.8064 2.24734L20.7184 1.75515L20.6304 1.26296C19.6127 1.44498 18.5976 1.64655 17.5857 1.86766L17.6924 2.35614ZM23.7651 1.27005L23.8342 1.76524C24.8471 1.62373 25.862 1.50165 26.8784 1.39899L26.8281 0.901525L26.7779 0.404056C25.7488 0.507988 24.7213 0.631591 23.6959 0.774862L23.7651 1.27005ZM29.903 0.650126L29.9342 1.14915C30.9545 1.0853 31.9757 1.04093 32.9973 1.01606L32.9852 0.516207L32.973 0.016355C31.9387 0.0415401 30.9047 0.086457 29.8718 0.151102L29.903 0.650126ZM36.0702 0.499957L36.0633 0.999909C37.0852 1.01402 38.1068 1.04763 39.1277 1.10072L39.1537 0.601399L39.1796 0.102074C38.146 0.0483146 37.1117 0.0142922 36.0771 4.29153e-06L36.0702 0.499957ZM42.231 0.820393L42.186 1.31836C43.2034 1.41031 44.2196 1.52169 45.2338 1.65252L45.2978 1.15663L45.3618 0.66074C44.3349 0.52828 43.3061 0.415508 42.276 0.322422L42.231 0.820393ZM48.3494 1.60961L48.2665 2.1027C49.2736 2.27188 50.2782 2.4604 51.2799 2.66826L51.3815 2.17869L51.4831 1.68912C50.469 1.47867 49.4518 1.28781 48.4322 1.11652L48.3494 1.60961ZM54.3898 2.86305L54.2696 3.34839C54.7654 3.47117 55.2603 3.59874 55.7543 3.73112L55.8837 3.24816L56.0131 2.7652C55.513 2.63118 55.012 2.50202 54.51 2.37771L54.3898 2.86305ZM55.8837 3.24816L55.7543 3.73112L56.1501 3.83718L56.2795 3.35422L56.4089 2.87126L56.0131 2.7652L55.8837 3.24816ZM57.071 3.56635L56.9416 4.0493L57.3373 4.15536L57.4668 3.67241L57.5962 3.18945L57.2004 3.08339L57.071 3.56635ZM57.4668 3.67241L57.3373 4.15536C57.8491 4.2925 58.359 4.43527 58.8671 4.58364L59.0072 4.10369L59.1474 3.62374C58.6322 3.47329 58.1151 3.32851 57.5962 3.18945L57.4668 3.67241ZM62.0574 5.06871L61.896 5.54194C62.8989 5.88401 63.8935 6.24824 64.8792 6.63428L65.0615 6.16872L65.2439 5.70315C64.2444 5.31169 63.2358 4.94235 62.2188 4.59548L62.0574 5.06871ZM68.0136 7.40152L67.8107 7.8585C68.7787 8.2883 69.7369 8.73963 70.6848 9.21214L70.9078 8.76466L71.1309 8.31718C70.1698 7.83804 69.1981 7.38038 68.2165 6.94454L68.0136 7.40152ZM73.7384 10.2554L73.4957 10.6925C74.421 11.2066 75.3353 11.7414 76.2378 12.2967L76.4998 11.8709L76.7618 11.4451C75.8467 10.8819 74.9196 10.3396 73.9812 9.81835L73.7384 10.2554ZM79.1864 13.6078L78.9056 14.0215C79.3436 14.3187 79.7785 14.621 80.2101 14.9281L80.5 14.5208L80.7899 14.1134C80.3522 13.8019 79.9113 13.4954 79.4671 13.1941L79.1864 13.6078Z" fill="#346E3C"/>
</svg>
