<svg width="24" height="24" viewBox="0 0 24 24" fill="none" xmlns="http://www.w3.org/2000/svg">
<path fill-rule="evenodd" clip-rule="evenodd" d="M9.06128 1.75C8.46318 1.74998 7.95606 1.74997 7.5384 1.79463C7.0939 1.84217 6.68403 1.9455 6.30142 2.19415C5.91881 2.4428 5.65792 2.77537 5.43395 3.16225C5.2235 3.52579 5.01757 3.98918 4.77467 4.53575L1.81483 11.1954C1.6466 11.5739 1.81707 12.0171 2.19558 12.1854C2.5741 12.3536 3.01732 12.1831 3.18555 11.8046L6.12979 5.18005C6.3925 4.58896 6.56659 4.19971 6.73212 3.91377C6.88862 3.64342 7.00436 3.52625 7.11879 3.45189C7.23322 3.37752 7.3873 3.31934 7.69791 3.28613C8.02643 3.25099 8.45283 3.25 9.09968 3.25H10.75V4.75001L10.4553 4.75C10.0224 4.74995 9.62561 4.74991 9.3028 4.79331C8.94732 4.8411 8.57159 4.95355 8.26257 5.26257C7.95355 5.57159 7.8411 5.94732 7.79331 6.3028C7.74991 6.62561 7.74995 7.02244 7.75 7.45526V9.54476C7.74995 9.97757 7.74991 10.3744 7.79331 10.6972C7.8411 11.0527 7.95355 11.4284 8.26257 11.7374C8.55633 12.0312 8.91037 12.1473 9.25 12.1991V20.75H7.5C7.08579 20.75 6.75 21.0858 6.75 21.5C6.75 21.9142 7.08579 22.25 7.5 22.25H15.5C15.9142 22.25 16.25 21.9142 16.25 21.5C16.25 21.0858 15.9142 20.75 15.5 20.75H13.75V12.1991C14.0896 12.1473 14.4437 12.0312 14.7374 11.7374C15.0312 11.4437 15.1473 11.0896 15.1991 10.75H17.75V12.5C17.75 12.9142 18.0858 13.25 18.5 13.25H21.5C21.9142 13.25 22.25 12.9142 22.25 12.5V10C22.25 7.92893 20.5711 6.25 18.5 6.25H15.1991C15.1473 5.91038 15.0312 5.55633 14.7374 5.26257C14.4284 4.95355 14.0527 4.8411 13.6972 4.79331C13.3744 4.74991 12.9776 4.74995 12.5448 4.75L12.25 4.75001V3.25H14.5002C14.9144 3.25 15.2502 2.91422 15.2502 2.5C15.2502 2.08579 14.9144 1.75 14.5002 1.75H9.06128ZM15.25 7.75V9.25H18.5C18.9142 9.25 19.25 9.58579 19.25 10V11.75H20.75V10C20.75 8.75736 19.7426 7.75 18.5 7.75H15.25ZM13.7201 6.50267C13.7474 6.70568 13.7499 6.986 13.75 7.44672V9.55329C13.7499 10.014 13.7474 10.2943 13.7201 10.4973C13.7071 10.5939 13.6918 10.6423 13.6828 10.664C13.6808 10.6691 13.6792 10.6724 13.6781 10.6743L13.6768 10.6768L13.6743 10.6781C13.6724 10.6792 13.6691 10.6808 13.664 10.6828C13.6423 10.6918 13.5939 10.7071 13.4973 10.7201C13.2943 10.7474 13.014 10.7499 12.5533 10.75H10.4467C9.986 10.7499 9.70568 10.7474 9.50267 10.7201C9.40611 10.7071 9.35775 10.6918 9.33597 10.6828L9.32926 10.6799L9.32568 10.6781L9.32324 10.6768L9.32187 10.6743L9.3203 10.6712L9.31717 10.664C9.30821 10.6423 9.29291 10.5939 9.27993 10.4973C9.2516 10.2866 9.25001 9.99262 9.25001 9.50001V7.50001C9.25001 7.0074 9.2516 6.71339 9.27993 6.50267C9.29291 6.40611 9.30821 6.35775 9.31717 6.33597C9.31924 6.33093 9.32086 6.32761 9.32187 6.32568L9.32324 6.32325L9.32568 6.32187C9.32761 6.32086 9.33093 6.31924 9.33597 6.31717C9.35775 6.30821 9.40611 6.29291 9.50267 6.27993C9.71339 6.2516 10.0074 6.25001 10.5 6.25001H12.5C12.9926 6.25001 13.2866 6.2516 13.4973 6.27993C13.5939 6.29291 13.6423 6.30821 13.664 6.31717C13.6691 6.31924 13.6724 6.32086 13.6743 6.32187L13.6768 6.32325L13.6781 6.32568C13.6792 6.32761 13.6808 6.33093 13.6828 6.33597C13.6918 6.35775 13.7071 6.40611 13.7201 6.50267ZM10.75 12.25V20.75H12.25V12.25H10.75Z" fill="#1F1F1F" fill-opacity="0.8"/>
<path fill-rule="evenodd" clip-rule="evenodd" d="M20.5582 14.9991L20 15.5C20.5582 14.9991 20.559 14.9999 20.559 14.9999L20.5603 15.0014L20.5645 15.0061L20.5791 15.0226C20.5915 15.0367 20.6091 15.0568 20.6312 15.0822C20.6754 15.1332 20.7375 15.2059 20.8118 15.2955C20.9597 15.4739 21.1585 15.7228 21.3589 16.0015C21.5574 16.2774 21.7682 16.5975 21.9325 16.9166C22.0843 17.2116 22.25 17.6053 22.25 18C22.25 19.2426 21.2426 20.25 20 20.25C18.7574 20.25 17.75 19.2426 17.75 18C17.75 17.6053 17.9157 17.2116 18.0675 16.9166C18.2318 16.5975 18.4426 16.2774 18.6411 16.0015C18.8415 15.7228 19.0403 15.4739 19.1882 15.2955C19.2625 15.2059 19.3246 15.1332 19.3688 15.0822C19.3909 15.0568 19.4085 15.0367 19.4209 15.0226L19.4355 15.0061L19.4397 15.0014L19.4418 14.9991C19.5841 14.8406 19.787 14.75 20 14.75C20.213 14.75 20.4159 14.8406 20.5582 14.9991ZM20 16.6859C19.9534 16.7475 19.9061 16.8116 19.8589 16.8772C19.6824 17.1227 19.5182 17.3759 19.4012 17.6031C19.343 17.7162 19.3022 17.8119 19.2771 17.8886C19.2533 17.9608 19.2504 17.9956 19.25 17.9997C19.25 18.414 19.5858 18.75 20 18.75C20.4142 18.75 20.75 18.4142 20.75 18C20.7496 17.9958 20.7467 17.9608 20.7229 17.8886C20.6978 17.8119 20.657 17.7162 20.5988 17.6031C20.4818 17.3759 20.3176 17.1227 20.1411 16.8772C20.0939 16.8116 20.0466 16.7475 20 16.6859Z" fill="#1F1F1F" fill-opacity="0.8"/>
</svg>
