<svg xmlns="http://www.w3.org/2000/svg" width="108" height="265" fill="none" viewBox="0 0 108 265"><path fill="#346e3c" fill-opacity=".32" d="M71.955 6.496a3.1 3.1 0 1 0 0-6.2 3.1 3.1 0 0 0 0 6.2"/><path fill="#346e3c" fill-opacity=".32" d="M74.755 3.396c0 1.1-.7 2.2-1.8 2.6s-2.3 0-3.1-.8-.8-2.2-.2-3.1 1.7-1.5 2.8-1.3c1.3.2 2.2 1.4 2.2 2.7 0 .5.8.5.8 0 0-1.5-.9-2.8-2.3-3.3s-3 0-3.9 1-1.1 2.8-.3 4 2.2 1.9 3.7 1.6c1.6-.3 2.8-1.8 2.8-3.4 0-.5-.7-.5-.8 0zM75.855 17.196a3.1 3.1 0 1 0 0-6.2 3.1 3.1 0 0 0 0 6.2"/><path fill="#346e3c" fill-opacity=".32" d="M78.555 14.096c0 1.1-.7 2.2-1.8 2.6s-2.3 0-3.1-.8-.8-2.2-.2-3.1 1.7-1.5 2.8-1.3c1.3.2 2.2 1.4 2.2 2.7 0 .5.8.5.8 0 0-1.5-.9-2.8-2.3-3.3s-3 0-3.9 1-1.1 2.8-.3 4 2.2 1.9 3.7 1.6c1.6-.3 2.8-1.8 2.8-3.4 0-.5-.7-.5-.8 0zM58.355 9.596a3.1 3.1 0 1 0 0-6.2 3.1 3.1 0 0 0 0 6.2"/><path fill="#346e3c" fill-opacity=".32" d="M61.055 6.496c0 1.1-.7 2.2-1.8 2.6s-2.3 0-3.1-.8-.8-2.2-.2-3.1 1.7-1.5 2.8-1.3c1.3.2 2.2 1.4 2.2 2.7 0 .5.8.5.8 0 0-1.5-.9-2.8-2.3-3.3s-3 0-3.9 1-1.1 2.8-.3 4 2.2 1.9 3.7 1.6c1.6-.3 2.8-1.8 2.8-3.4 0-.5-.7-.5-.8 0zM53.455 20.996a3.1 3.1 0 1 0 0-6.2 3.1 3.1 0 0 0 0 6.2"/><path fill="#346e3c" fill-opacity=".32" d="M56.155 17.896c0 1.1-.7 2.2-1.8 2.6s-2.3 0-3.1-.8-.8-2.2-.2-3.1 1.7-1.5 2.8-1.3c1.3.2 2.2 1.4 2.2 2.7 0 .5.8.5.8 0 0-1.5-.9-2.8-2.3-3.3s-3 0-3.9 1-1.1 2.8-.3 4 2.2 1.9 3.7 1.6c1.6-.3 2.8-1.8 2.8-3.4 0-.5-.7-.5-.8 0zM72.755 27.996a3.1 3.1 0 1 0 0-6.2 3.1 3.1 0 0 0 0 6.2"/><path fill="#346e3c" fill-opacity=".32" d="M75.455 24.896c0 1.1-.7 2.2-1.8 2.6s-2.3 0-3.1-.8-.8-2.2-.2-3.1 1.7-1.5 2.8-1.3c1.3.2 2.2 1.4 2.2 2.7 0 .5.8.5.8 0 0-1.5-.9-2.8-2.3-3.3s-3 0-3.9 1-1.1 2.8-.3 4 2.2 1.9 3.7 1.6c1.6-.3 2.8-1.8 2.8-3.4 0-.5-.7-.5-.8 0zM66.455 39.596a3.1 3.1 0 1 0 0-6.2 3.1 3.1 0 0 0 0 6.2"/><path fill="#346e3c" fill-opacity=".32" d="M69.255 36.496c0 1.1-.7 2.2-1.8 2.6s-2.3 0-3.1-.8-.8-2.2-.2-3.1 1.7-1.5 2.8-1.3c1.3.2 2.2 1.4 2.2 2.7 0 .5.8.5.8 0 0-1.5-.9-2.8-2.3-3.3s-3 0-3.9 1-1.1 2.8-.3 4 2.2 1.9 3.7 1.6c1.6-.3 2.8-1.8 2.8-3.4 0-.5-.7-.5-.8 0zM48.355 33.296a3.1 3.1 0 1 0 0-6.2 3.1 3.1 0 0 0 0 6.2"/><path fill="#346e3c" fill-opacity=".32" d="M51.155 30.196c0 1.1-.7 2.2-1.8 2.6s-2.3 0-3.1-.8-.8-2.2-.2-3.1 1.7-1.5 2.8-1.3c1.3.2 2.2 1.4 2.2 2.7 0 .5.8.5.8 0 0-1.5-.9-2.8-2.3-3.3s-3 0-3.9 1-1.1 2.8-.3 4 2.2 1.9 3.7 1.6c1.6-.3 2.8-1.8 2.8-3.4 0-.5-.7-.5-.8 0zM44.156 46.296a3.1 3.1 0 1 0 0-6.2 3.1 3.1 0 0 0 0 6.2"/><path fill="#346e3c" fill-opacity=".32" d="M46.955 43.196c0 1.1-.7 2.2-1.8 2.6s-2.3 0-3.1-.8-.8-2.2-.2-3.1 1.7-1.5 2.8-1.3c1.3.2 2.2 1.4 2.2 2.7 0 .5.8.5.8 0 0-1.5-.9-2.8-2.3-3.3s-3 0-3.9 1-1.1 2.8-.3 4 2.2 1.9 3.7 1.6c1.6-.3 2.8-1.8 2.8-3.4 0-.5-.7-.5-.8 0zM64.555 53.196a3.1 3.1 0 1 0 0-6.2 3.1 3.1 0 0 0 0 6.2"/><path fill="#346e3c" fill-opacity=".32" d="M67.255 50.096c0 1.1-.7 2.2-1.8 2.6s-2.3 0-3.1-.8-.8-2.2-.2-3.1 1.7-1.5 2.8-1.3c1.3.2 2.2 1.4 2.2 2.7 0 .5.8.5.8 0 0-1.5-.9-2.8-2.3-3.3s-3 0-3.9 1-1.1 2.8-.3 4 2.2 1.9 3.7 1.6c1.6-.3 2.8-1.8 2.8-3.4 0-.5-.7-.5-.8 0zM62.656 65.496a3.1 3.1 0 1 0 0-6.2 3.1 3.1 0 0 0 0 6.2"/><path fill="#346e3c" fill-opacity=".32" d="M65.455 62.396c0 1.1-.7 2.2-1.8 2.6s-2.3 0-3.1-.8-.8-2.2-.2-3.1 1.7-1.5 2.8-1.3c1.3.2 2.2 1.4 2.2 2.7 0 .5.8.5.8 0 0-1.5-.9-2.8-2.3-3.3s-3 0-3.9 1-1.1 2.8-.3 4 2.2 1.9 3.7 1.6c1.6-.3 2.8-1.8 2.8-3.4 0-.5-.7-.5-.8 0zM41.455 60.096a3.1 3.1 0 1 0 0-6.2 3.1 3.1 0 0 0 0 6.2"/><path fill="#346e3c" fill-opacity=".32" d="M44.155 56.996c0 1.1-.7 2.2-1.8 2.6s-2.3 0-3.1-.8-.8-2.2-.2-3.1 1.7-1.5 2.8-1.3c1.3.2 2.2 1.4 2.2 2.7 0 .5.8.5.8 0 0-1.5-.9-2.8-2.3-3.3s-3 0-3.9 1-1.1 2.8-.3 4 2.2 1.9 3.7 1.6c1.6-.3 2.8-1.8 2.8-3.4 0-.5-.7-.5-.8 0zM42.155 70.696a3.1 3.1 0 1 0 0-6.2 3.1 3.1 0 0 0 0 6.2"/><path fill="#346e3c" fill-opacity=".32" d="M44.855 67.596c0 1.1-.7 2.2-1.8 2.6s-2.3 0-3.1-.8-.8-2.2-.2-3.1 1.7-1.5 2.8-1.3c1.3.2 2.2 1.4 2.2 2.7 0 .5.8.5.8 0 0-1.5-.9-2.8-2.3-3.3s-3 0-3.9 1-1.1 2.8-.3 4 2.2 1.9 3.7 1.6c1.6-.3 2.8-1.8 2.8-3.4 0-.5-.7-.5-.8 0zM41.455 82.596a3.1 3.1 0 1 0 0-6.2 3.1 3.1 0 0 0 0 6.2"/><path fill="#346e3c" fill-opacity=".32" d="M44.155 79.496c0 1.1-.7 2.2-1.8 2.6s-2.3 0-3.1-.8-.8-2.2-.2-3.1 1.7-1.5 2.8-1.3c1.3.2 2.2 1.4 2.2 2.7 0 .5.8.5.8 0 0-1.5-.9-2.8-2.3-3.3s-3 0-3.9 1-1.1 2.8-.3 4 2.2 1.9 3.7 1.6c1.6-.3 2.8-1.8 2.8-3.4 0-.5-.7-.5-.8 0zM56.455 87.696a3.1 3.1 0 1 0 0-6.2 3.1 3.1 0 0 0 0 6.2"/><path fill="#346e3c" fill-opacity=".32" d="M59.155 84.596c0 1.1-.7 2.2-1.8 2.6s-2.3 0-3.1-.8-.8-2.2-.2-3.1 1.7-1.5 2.8-1.3c1.3.2 2.2 1.4 2.2 2.7 0 .5.8.5.8 0 0-1.5-.9-2.8-2.3-3.3s-3 0-3.9 1-1.1 2.8-.3 4 2.2 1.9 3.7 1.6c1.6-.3 2.8-1.8 2.8-3.4 0-.5-.7-.5-.8 0zM58.355 74.296a3.1 3.1 0 1 0 0-6.2 3.1 3.1 0 0 0 0 6.2"/><path fill="#346e3c" fill-opacity=".32" d="M61.055 71.196c0 1.1-.7 2.2-1.8 2.6s-2.3 0-3.1-.8-.8-2.2-.2-3.1 1.7-1.5 2.8-1.3c1.3.2 2.2 1.4 2.2 2.7 0 .5.8.5.8 0 0-1.5-.9-2.8-2.3-3.3s-3 0-3.9 1-1.1 2.8-.3 4 2.2 1.9 3.7 1.6c1.6-.3 2.8-1.8 2.8-3.4 0-.5-.7-.5-.8 0z"/><path fill="#346e3c" fill-opacity=".32" d="M107.455 116.696s-1.2-.1-1.4-.1c-4-.2-8 .5-11.7 2-7.6 3.2-13.9 8.9-19.1 15.3-5.8 7.2-10.3 15.3-14 23.8-3 6.8-5.5 13.9-6.9 21.2-1.1 5.7-2.4 11.4-4.4 16.8-.8 2.1-1.6 4.2-2.7 6.1-.4-5.3-.8-10.6-1.1-15.9-.7-10.3-1.2-20.5-1.6-30.8-.4-9.9-.6-19.8-.5-29.6 0-8.5.3-17.1 1.1-25.6.4-4.6 1.1-9.1 2-13.6.2 0 .3 0 .5-.2 1.3-.4 2.7-.7 4.1-1 1.3-.3 2.9-.6 4.2-.3.3 0 .8-.7 1-.6-1.2-.3-2.4 0-3.6.2-1.4.2-2.9.6-4.3 1-.5.1-.9.3-1.4.4 0 0-.4.2-.5.2.9-4.5 1.9-9.1 3-13.6 1.3 0 2.7-.2 4-.3 1.2 0 2.4-.2 3.6-.3.4 0 .7-.6 1-.6-2.5.2-5.1.4-7.6.5-.3 0-.7.1-.9 0v-.4l1.5-6.6c.3-1.2.5-2.3.8-3.5 1.9-.4 3.9-.3 5.8 0 1.2.2 2.4.5 3.6.8 0 0 .4-.2.5-.3 0 0 .4-.3.5-.3-1.2-.4-2.4-.6-3.6-.8-2.2-.3-4.6-.5-6.8.2.8-3.5 1.7-7 2.6-10.5h8.7c.3 0 .7-.6 1-.6h-9.5c1-4.1 2.1-8.1 3.2-12.2 2.1-.2 4.1-.5 6.2-.7.3 0 .7 0 1-.1.2 0 .4-.2.5-.3.1 0 .4-.3.5-.3-2.4.3-4.8.5-7.1.8h-.9c.6-2.1 1.2-4.2 1.8-6.2s1.2-4 1.9-6c2.4.1 4.9.2 7.3.3h1.2c.1 0 .4-.2.5-.3s.4-.3.5-.3c-2.7-.1-5.4-.2-8.2-.4h-1.2c.8-2.6 1.7-5.1 2.7-7.6.6-1.6 1.3-3.2 2-4.8 2.3.7 4.5 1.5 6.8 2.2.3.1.7.2 1.1.3 0 0 .4-.2.5-.3 0 0 .4-.3.5-.3l-7.4-2.4c-.3-.1-.7-.2-1.1-.3.6-1.2 1.2-2.4 2-3.5.6-.9 1.2-1.8 2-2.5-.3.3-.8.3-1 .6-1.8 1.6-2.9 3.9-4 6.1 0 .2-.2.3-.2.5-.5 1-.9 2.1-1.4 3.1-1.7-2.6-3.4-5.3-5.2-7.9-.3-.4-.5-.8-.8-1.2l-1 .6c1.9 2.9 3.8 5.8 5.7 8.6.3.4.5.8.8 1.2-.9 2.4-1.8 4.8-2.6 7.3 0 .3-.2.6-.3.9l-.4 1.3c-2-2.4-3.9-4.9-5.9-7.3-.3-.4-.6-.8-.9-1.1l-1 .6c2.2 2.7 4.3 5.4 6.5 8 .3.4.6.8.9 1.1-1.1 3.4-2.1 6.8-3.1 10.3-.1.5-.3 1-.4 1.5l-6.9-8c-.4-.4-.7-.8-1.1-1.2l-1 .6c2.5 2.9 4.9 5.7 7.4 8.6.4.4.7.8 1.1 1.2 0 0 .1 0 .3-.1-.8 3-1.6 6-2.4 9.1-.3-.2-.6-.5-.8-.7-1.6-1.1-3.2-2.2-4.8-3.4l-3.4-2.4c-.1 0-.9.7-1 .6 2.6 1.8 5.1 3.6 7.7 5.4.6.4 1.1.8 1.7 1.2.1 0 .3.2.4.2-.9 3.4-1.7 6.9-2.5 10.3 0 .3-.1.6-.2.9-.2.9-.4 1.8-.6 2.6-2.7-2.2-5.3-4.4-8-6.5-.4-.3-.8-.7-1.2-1-.1 0-.9.7-1 .6l8.7 7.2c.4.3.8.7 1.2 1-.5 2-.9 4-1.4 6-1.3-.8-2.5-1.5-3.8-2.3-1-.6-2-1.2-3.1-1.8-.2 0-.9.7-1 .6 2.2 1.3 4.4 2.6 6.6 4 .3.2.7.5 1 .6-.9 4-1.8 8-2.7 12.1-.2-.3-.3-.6-.5-.9-.4-.7-1-1.4-1.6-2-.8-.8-1.6-1.7-2.5-2.3-.1 0-.9.7-1 .6 2 1.5 4.1 3.7 5 6.1.1.3 0 .5.2.6-.6 2.9-1.1 5.8-1.5 8.8-1 8-1.4 16-1.5 24.1-.2 9.6 0 19.3.2 28.9 0 2.7.2 5.3.3 8l-4.2-9.9c-1.6-3.8-3.1-7.5-4.6-11.3-1.2-3.1-2.2-6.3-3.7-9.2-2.6-5.3-6.3-10-9.9-14.6-3.9-4.8-8-9.5-12.2-14-1.5-1.6-3-3.2-4.6-4.8l-1.5-1.5c-.2-.2-.5-.7-.8-.8l-1 .5c.4 4.1 1.3 8.2 2.4 12.1 1 3.5 2.2 7 3.8 10.3.8 1.7 1.7 3.3 2.8 4.8 1.1 1.6 2.4 3 3.6 4.5 5.6 6.8 10.5 14.3 14.1 22.3 1.5 3.4 2.8 7.1 3.3 10.8.2 1.7.1 3.4.5 5 .4 1.8 1.1 3.4 1.9 5 2.7 5 6.7 9.4 11 12.9 0 0 .2.1.2.2v.4c.5 8.1 1.1 16.2 1.7 24.4.1 1.8.3 3.7.4 5.5.2 3.2.5 6.3.8 9.5.5 5.5.9 10.9 1.4 16.4v.7l1.8 18.3.6 6c.2 2 0 2.2.3 3.1v.4c0-.2 1.1-.4 1-.6-.2-2.1-.5-4.2-.7-6.2-.6-5.6-1.2-11.2-1.7-16.8-.2-1.6-.3-3.2-.4-4.8 3-2.3 5.4-5.2 7.4-8.4 2.4-3.7 4.3-7.8 6-11.9 3.8-9.2 6.3-18.8 8.5-28.5 1.9-8.4 3.4-17 4.8-25.5.3-1.7.5-3.3.8-5 .5-2.2 1.2-4.2 2.1-6.2 2-4.4 4.8-8.5 7.7-12.3 5.1-6.5 11-12.5 17.2-17.9.7-.6 1.4-1.3 2.2-1.9 0 0 .5-.3.5-.4zm-100.9-20.3c4.1 4.4 8.2 8.9 12 13.5 3.9 4.7 7.7 9.5 10.6 14.8 1.4 2.6 2.4 5.3 3.4 8 1.5 3.8 3 7.6 4.6 11.4 1.4 3.3 2.8 6.6 4.2 9.8.5 1.1 1 2.2 1.5 3.4.3.6.5 1.3.8 1.8 0 0 0 .2.1.2 0 2.1.2 4.1.3 6.2-1.6-3.1-3.2-6.2-4.7-9.2-1.6-3.2-3.1-6.3-4.6-9.5-1.2-2.6-2.2-5.2-3.3-7.8-2.9-6.3-6.6-12.2-10.4-18-1.8-2.9-3.7-5.7-5.7-8.5-1.5-2.1-3.1-4.1-4.6-6.2-2.8-4.2-5.2-8.7-7.3-13.3 1.1 1.1 2.1 2.2 3.2 3.3zm29.3 70.8c-1.9-3-3.5-6.4-3.7-10-.1-3.6-1-7-2.3-10.4-3.1-8.2-8-15.8-13.3-22.7-2.4-3.1-5.1-5.9-7-9.3-1.9-3.3-3.3-6.8-4.4-10.4-.9-3-1.7-6.1-2.3-9.2 0-.4-.1-.7-.2-1.1 1.7 3.6 3.6 7.2 5.7 10.6 1.5 2.4 3.2 4.5 4.8 6.8 1.9 2.6 3.6 5.2 5.4 7.9 3.9 6 7.7 12 10.9 18.4 1.2 2.5 2.2 5 3.3 7.5 1.4 3.1 2.8 6.2 4.3 9.3 1.4 2.9 2.9 5.8 4.3 8.7.8 1.6 1.6 3.3 2.5 4.9 0 0 0 .2.1.2.2 2.9.3 5.8.5 8.8-3.4-2.8-6.4-6.2-8.8-9.9zm13.3 32.4c1.7-3.6 3-7.5 4-11.4 1.3-4.7 2-9.5 3.2-14.3.9-3.5 2.1-7 3.3-10.5 3.1-8.3 7.1-16.4 11.9-23.8 4.8-7.2 10.7-14.3 18.2-18.8 3.3-2 7.2-3.3 11.1-3.6 1 0 2-.1 3-.1h1.9c-6.9 2.4-13 6.9-18 12-6.2 6.2-11.1 13.6-15.4 21.3-3.9 7.1-7.2 14.5-9.9 22q-1.5 4.2-2.7 8.7c-1.3 4.9-2.6 9.7-4.1 14.5-2.2 6.9-4.7 13.7-7.3 20.4v-1.1c-.3-4.1-.7-8.2-1-12.2.7-1 1.3-2.1 1.8-3.2zm56.2-81.4c-5.5 4.7-10.7 9.8-15.4 15.2-3.2 3.7-6.1 7.5-8.6 11.7-2.3 3.8-4.2 7.9-4.9 12.3-1.3 7.8-2.5 15.5-4.1 23.2-1.9 9.6-4.3 19.2-7.5 28.5-2.8 8-6.3 16.4-12 22.9-.8.9-1.8 1.8-2.7 2.6-.5-5.6-1-11.2-1.5-16.7 2.4-5.9 4.6-11.9 6.6-17.9 1.7-5.1 3.4-10.3 4.7-15.5.8-3 1.5-6 2.5-9 2.3-7.1 5.2-14 8.5-20.6 3.8-7.6 8.3-15 13.8-21.5 5.2-6.2 11.4-12.1 19-15 .9-.3 1.7-.6 2.6-.9 0 .1-1 .8-1.1.9z"/><path fill="#346e3c" fill-opacity=".32" d="M107.355 116.396c.2 0 .3 0 0 0h-2.2c-1.9 0-3.9.2-5.8.5-3.6.7-6.9 2.2-10 4.1-5.9 3.5-10.8 8.5-15 14-4.5 5.9-8.3 12.3-11.5 19s-6.2 14.2-7.9 21.8c-2.1 8.9-3.4 18.1-7.8 26.2l.7.2c-1.3-16.7-2.3-33.5-2.9-50.3-.6-16.7-.9-33.5.5-50.2.4-4.6 1-9.1 1.9-13.6 0-.3 0-1 .3-1.3s1.2-.3 1.6-.4c1-.3 2.1-.5 3.1-.7.5 0 1.1-.2 1.6-.3.7 0 1.4.1 2 0 .6 0 .7-.5 1.2-.6.3 0 .4-.7 0-.7-3.2-.6-6.9.8-10 1.7l.5.5c.9-4.6 1.9-9.1 3-13.6l-.4.3c1.8-.1 3.6-.3 5.4-.4.7 0 1.6 0 2.3-.2.5-.1.7-.4 1.1-.6.4-.1.4-.8 0-.7-1.5.1-3 .2-4.6.3-.7 0-1.3 0-2 .2-.4 0-1.4.3-1.9.2l.3.5c.5-2.3 1.1-4.7 1.6-7l-.4.3c.3 0 .5-.4.3-.6.2.2.5-1.5.6-1.6.2-1 .2-1.3 1.4-1.4 1.4-.1 2.9 0 4.3.2.6 0 1.2.2 1.8.3.5.1 1.3.5 1.8.5s.8-.4 1.2-.6c.3-.1.4-.6 0-.7-1.9-.6-3.8-.9-5.8-1.1-1.5-.1-3.5-.2-4.9.5l.6.4c.8-3.5 1.7-7 2.6-10.5l-.4.3h5.8c1.9 0 2 .2 2.8 0 .4-.1.7-.5 1.1-.6s.3-.7 0-.7h-4.6c-1.6 0-3.3.2-4.8 0l.3.5c1-4.1 2.1-8.1 3.2-12.2l-.4.3 5.4-.6c.6 0 1.3 0 1.8-.2.4-.1.8-.4 1.2-.6s.2-.7-.2-.7l-8.1.9.4.5c1.2-4.1 2.4-8.2 3.7-12.2l-.4.3c2 0 4.1.2 6.1.3.7 0 1.8.3 2.4 0 .4 0 .7-.5 1.1-.6s.3-.7 0-.7c-1.8 0-3.6-.2-5.3-.2-.8 0-1.7 0-2.6-.1-.4 0-1.1-.2-1.5 0l.5.5c1.4-4.1 2.8-8.2 4.6-12.2l-.4.2c2 .7 4 1.3 6.1 2 .5.2 1.4.6 1.9.6.4 0 .7-.5 1.1-.6.3-.1.4-.6 0-.7l-5.1-1.6c-.8-.2-1.6-.5-2.3-.7-.3-.1-.9-.4-1.3-.3l.4.5c1.1-2.1 2.2-4.3 3.9-6 .3-.3 0-.8-.4-.6-.5.3-1 .5-1.4 1-.5.5-.9 1-1.3 1.5-.5.6-.9 1.3-1.3 2-.2.4-.4.8-.6 1.1 0 .1-.4 1-.3 1-.4 0-.3.6 0 .7 0-.2-.2-.4-.2-.5-.6 1.2-1.1 2.5-1.7 3.7h.7c-2-3.1-4-6.2-6-9.2 0-.1-.3-.2-.4-.2-.4.2-.7.4-1.1.6-.2 0-.2.3-.1.5 2.2 3.3 4.3 6.6 6.5 9.9 0 .1.3.2.4.2l-.5-.5c-.5 1.3-1 2.7-1.5 4.1l-.6 1.8c0 .1-.6 2-.5 2-.4.1-.3.7 0 .7-.1-.2-.2-.3-.4-.5l-.4 1.3.6-.2c-2.3-2.8-4.6-5.6-6.8-8.5 0 0-.2-.1-.4 0-.4 0-.7.5-1 .6-.3 0-.3.4-.2.6 2.5 3.1 4.9 6.1 7.4 9.2 0 .1.2.1.4 0l-.5-.5c-.5 1.7-1.1 3.4-1.6 5.1-.2.8-.5 1.6-.7 2.5 0 .2-.6 2.5-.6 2.5-.4.1-.3.8 0 .7-.1-.2-.2-.3-.4-.5-.1.5-.3 1-.4 1.5l.6-.2c-2.7-3.1-5.3-6.2-8-9.3 0 0-.2-.1-.4 0-.4 0-.7.5-1 .6-.3 0-.3.4-.2.6 2.8 3.3 5.6 6.6 8.5 9.9 0 0 .2.1.4 0 .1 0 .2 0 .3-.2l-.6-.4c-.8 3-1.6 6-2.4 9.1l.6-.2c-2-1.6-4.2-3-6.3-4.5l-1.5-1.1c-.4-.3-.9-.9-1.4-1-.5 0-.7.5-1.1.6-.4 0-.5.5-.2.7l5.1 3.6c1.5 1.1 3.1 2.4 4.7 3.3l-.2-.4c-.5 1.9-.9 3.8-1.4 5.7-.2.9-.4 1.8-.7 2.7-.1.5-.2 1-.4 1.5 0 .1-.2 1.2-.2 1.2-.4.2-.1.8.3.7l-.5-.5c-.2.9-.4 1.8-.6 2.6l.6-.2c-2.3-1.9-4.6-3.8-7-5.7l-1.5-1.2c-.3-.2-.6-.7-.9-.7-.5 0-.8.5-1.2.6-.3 0-.4.5-.2.6 2 1.6 3.9 3.2 5.9 4.9.9.8 1.8 1.5 2.8 2.3.3.3 1 1.1 1.5 1.1l-.4-.5c-.5 2-.9 4-1.4 6l.6-.2c-1.8-1.1-3.7-2.2-5.5-3.3-.4-.2-1.1-.9-1.6-.8-.4 0-.6.6-.9.6-.4 0-.5.5-.2.7 1.5.9 3.1 1.8 4.6 2.8.7.4 1.4.8 2.1 1.3.3.2.7.5 1.1.5l-.4-.5c-.9 4-1.8 8-2.7 12.1h.7c-.8-1.8-2.1-3.2-3.5-4.5-.3-.3-1-1.1-1.5-1.1s-.6.5-1 .6c-.4 0-.5.5-.2.7 1.9 1.5 3.8 3.3 4.7 5.6.4.9.2 1.2 0 2.2-.2 1.3-.5 2.6-.7 3.9-.8 5.1-1.2 10.2-1.6 15.3-.6 10.4-.7 20.9-.5 31.3 0 6 .3 11.9.5 17.8l.7-.2c-2.3-5.2-4.5-10.4-6.6-15.7-1.9-4.7-3.5-9.7-5.7-14.3-2.1-4.4-4.9-8.3-7.9-12.2-3.2-4.1-6.6-8.1-10.1-12-3.7-4.2-7.5-8.2-11.4-12.2-.1-.1-.3-.1-.4 0-.5.2-1 .4-1.2.9s.2 2 .3 2.5c.1 1 .3 2 .5 2.9.7 3.7 1.7 7.3 2.9 10.8 1.1 3.3 2.5 6.6 4.3 9.6s4.1 5.3 6.1 8c4.5 5.7 8.5 11.8 11.6 18.3 1.5 3.2 2.9 6.5 3.7 10s.5 7 1.8 10.4 3.4 6.4 5.7 9.1c1.2 1.5 2.6 2.8 4 4.1.6.6 1.3 1.2 2 1.7.3.2.8.9 1.2.9l-.4-.4c.2 4.1.5 8.2.8 12.3.1 2 .3 4.1.4 6.1 0 1 .2 2 .2 3 0 .5 0 1 .1 1.5 0 .3.3 1.4.2 1.6-.3.4.3.7.6.5-.2 0-.4-.2-.6-.3l.6 7.5c0 1.2.2 2.3.3 3.5 0 .7.1 1.3.2 2 0 .4.3 1.5.2 1.9-.2.4.4.6.6.4-.2 0-.4-.2-.6-.3.2 2.9.5 5.8.8 8.7.1 1.4.2 2.7.4 4.1 0 .8.1 1.5.2 2.3 0 .2.2 1.8.3 1.7-.3.3 0 .8.4.6l-.6-.3c.9 9.3 1.8 18.5 2.8 27.8 0 .4.5.5.7.2s.8-.2 1.1-.6c.2-.3 0-1 0-1.3 0-.7-.2-1.4-.2-2.2-.3-2.8-.6-5.7-.9-8.5-.3-3-.6-5.9-.9-8.9-.1-1.3-.3-2.6-.4-4 0-.6-.1-1.3-.2-1.9 0-1 .2-1.2.9-1.9 3.7-3.2 6.5-7.5 8.8-11.8 2.5-4.7 4.5-9.7 6.2-14.7 3.7-10.7 6.1-21.8 8.2-32.9 1.1-5.7 1.9-11.3 2.9-17s3.2-10.3 6.2-14.9c6.3-9.8 14.8-18.5 23.8-25.8.2-.2 0-.5-.2-.6v.7c.4-.2 0-.9-.4-.7-.3.2-.2.6 0 .7 0-.2-.1-.4-.2-.6-7.9 6.4-15.2 13.8-21.2 22-3.1 4.1-5.8 8.6-7.6 13.4-1 2.6-1.4 5.3-1.8 8.1s-.9 5.7-1.4 8.5c-1.9 11.2-4.2 22.4-7.5 33.3-1.6 5.5-3.5 10.9-5.9 16.1-2.2 4.8-4.8 9.6-8.4 13.5-.9 1-1.9 2-3 2.8-.3.2-.5.3-.6.7-.2.6.2 1.8.2 2.4.3 3.2.6 6.3.9 9.5s.7 6.6 1 9.9c.2 1.5.3 3 .5 4.6 0 .3.2.7.1 1-.1.5 0 .2-.4.5-.2.2-.4.2-.5.4l.7.2c-1.1-9.2-2-18.5-2.8-27.8 0-.3-.3-.5-.6-.3.2.2.3.4.4.6.4-.3 0-2.3-.1-2.7-.2-1.6-.3-3.2-.4-4.8-.3-3.2-.6-6.5-.8-9.7 0-.3-.4-.5-.6-.3.2.1.4.2.6.4.1-.3 0-.8 0-1.1 0-.7-.1-1.3-.2-2-.1-1.3-.2-2.7-.3-4-.2-2.7-.4-5.3-.6-8 0-.3-.4-.5-.6-.3.2.2.4.3.6.5.3-.5 0-1.7 0-2.2 0-1-.2-2-.2-3-.2-2.2-.3-4.4-.5-6.6-.3-4.4-.6-8.7-.8-13.1 0-.2-.2-.4-.4-.4s-1.2-1.2-1.5-1.4c-.6-.5-1.2-1.1-1.8-1.6-1.2-1.1-2.3-2.3-3.3-3.5-2.1-2.4-3.9-5.1-5.2-8-.7-1.6-1.2-3.3-1.4-5-.2-1.6-.2-3.2-.5-4.7-.6-3.2-1.7-6.3-3-9.3-2.7-6-6.1-11.7-9.9-17-1.9-2.6-3.9-5-5.9-7.5q-3.3-4.05-5.4-8.7c-1.6-3.6-2.8-7.5-3.8-11.3-.5-1.8-.9-3.7-1.2-5.6-.2-1.1-.3-2.2-.5-3.3 0-.7.2-.8.8-1h-.4c7.1 7 13.8 14.5 20 22.3 3.2 4 6.2 8.1 8.6 12.6 2.4 4.7 4 9.8 5.9 14.7 2.3 5.5 4.6 11.1 7 16.5.2.3.7.2.7-.2-.4-10.9-.7-21.9-.5-32.8s.4-21.9 2.3-32.7c.1-.7.3-1.5.4-2.2.1-.6.4-1.4.4-2 0-.5-.4-1.3-.7-1.8-1-2.2-2.8-3.9-4.7-5.3l-.2.7c.3 0 .4-.3.7-.3.4-.2.3-.2.7.2.3.3.7.6 1 .9 1.2 1.1 2.2 2.3 2.9 3.8.1.3.6.2.7 0 .9-4 1.8-8 2.7-12.1 0-.2-.1-.5-.4-.5-.4 0-1.1-.7-1.5-1l-2-1.2-3.9-2.4-.2.7c.3 0 .4-.2.7-.3.4-.2.3-.2.8 0s.9.5 1.3.8c1.6 1 3.3 2 4.9 2.9.2.1.5 0 .6-.2.5-2 .9-4 1.4-6 0-.2-.1-.5-.4-.5-.2 0-1.8-1.5-2-1.7-.9-.7-1.7-1.4-2.6-2.1l-5.1-4.2-.2.6c.7 0 .6-.8 1.3-.2.8.7 1.7 1.4 2.6 2.2 2 1.6 4 3.3 6 4.9.2.2.6.1.6-.2.2-.9.4-1.8.6-2.6 0-.3-.2-.5-.5-.5 0 .2.2.5.3.7.4-.2.4-1.3.5-1.6.3-1.1.5-2.1.8-3.2.5-2.2 1.1-4.4 1.6-6.7 0-.2 0-.3-.2-.4-1.7-.9-3.2-2.2-4.7-3.3l-5.1-3.6-.2.7c.2 0 .3 0 .4-.2.5-.2.3-.4.8-.2.9.3 1.9 1.3 2.6 1.9 2 1.4 4 2.7 5.9 4.2.2.2.6.1.6-.2.8-3 1.6-6.1 2.4-9.1 0-.3-.3-.6-.6-.4 0 0-3.6-4.2-3.9-4.6-1.5-1.7-2.9-3.4-4.4-5.1l-.2.6c.2 0 .3-.2.5-.3.5-.2.3-.3.7.2.7 1 1.6 1.8 2.3 2.7 1.7 2 3.4 4 5.1 5.9.2.2.6 0 .6-.2.1-.5.3-1 .4-1.5 0-.2-.1-.5-.4-.5v.8c.4-.2.4-.6.6-1 .3-1.1.6-2.1.9-3.2.6-2.1 1.3-4.2 1.9-6.3 0-.3-.2-.5-.5-.5.2 0-1.3-2-1.5-2.2-.6-.8-1.2-1.5-1.9-2.3-1.2-1.5-2.5-3.1-3.7-4.6l-.2.6c.2 0 .3-.2.5-.3 0 0 .2-.1.3-.2s.2 0 .2.2c.4.2.8 1 1.1 1.3.4.5.7.9 1.1 1.3 1.4 1.8 2.9 3.6 4.4 5.4.2.2.6 0 .6-.2l.4-1.3c0-.2-.1-.5-.4-.5v.7c.3 0 .3-.5.4-.7.3-.8.6-1.7.8-2.5.6-1.8 1.2-3.5 1.9-5.2 0-.3-.2-.6-.5-.5.1 0 .3.1.4.2-2.2-3.3-4.3-6.6-6.5-9.9v.5c.2-.2.5-.4.8-.6l-.4-.2c2 3 4 6.1 6 9.1.2.3.6.2.7 0 .5-1.2 1-2.4 1.6-3.5.1-.2 0-.5-.2-.5v.7c.3 0 .5-.7.6-.9.3-.7.7-1.4 1.1-2.1.5-.8 1-1.5 1.5-2.2s1.2-1 1.8-1.5l-.4-.6c-1.8 1.7-2.9 3.9-4 6.1-.1.3 0 .7.4.5.2 0 1.3.5 1.6.6l2.3.7 4.4 1.4v-.7c-.3.1-.6.4-1 .5-.7 0-1.7-.5-2.4-.7-1.8-.6-3.6-1.1-5.3-1.7-.1 0-.4 0-.4.2-1.8 4-3.3 8.2-4.7 12.4 0 .3.2.5.5.5.5-.1 1.3 0 1.8 0 .8 0 1.7 0 2.6.1 1.6 0 3.2.1 4.8.2v-.7c-.6.2-.8.5-1.4.6-.8 0-1.7 0-2.5-.1-1.9 0-3.8-.2-5.6-.2-.2 0-.3.1-.4.3-1.3 4-2.5 8.1-3.7 12.2 0 .2.1.5.4.5l8.1-.9-.2-.7c-.5.2-.8.5-1.3.6-.7.1-1.4.2-2.1.2-1.5.2-3.1.3-4.6.5-.2 0-.3 0-.4.3-1.1 4-2.2 8.1-3.2 12.2 0 .2 0 .4.3.5 1.5.2 3 0 4.5 0h5.1v-.7c-.7.2-1.1.5-1.7.6h-7.9c-.2 0-.3.1-.4.3-.9 3.5-1.7 7-2.6 10.5 0 .3.3.6.6.4 1.4-.7 3.5-.5 5-.4 1.7.2 3.4.5 5.1 1v-.7c-.8.3-.8.5-1.7.3-1-.2-2-.5-3-.6-1.9-.3-3.9-.4-5.8 0q-.15 0-.3.3c-.3 1.2-.5 2.3-.8 3.5v.4c0-.2.2-.4.3-.6-.2 0-.3.1-.4.3-.6 2.3-1.1 4.7-1.6 7 0 .2 0 .4.3.5s.7 0 1.1 0c.8 0 1.7-.1 2.5-.2 1.7-.1 3.4-.2 5.1-.4v-.7c-.6.2-.9.5-1.5.6-.7.1-1.5.1-2.3.2-1.6.1-3.3.2-4.9.4-.2 0-.3.1-.4.3-1 4.5-2.1 9.1-3 13.6 0 .3.2.5.5.5 1.4-.4 2.8-.8 4.3-1.2 1.7-.4 3.6-.9 5.3-.6v-.7c-.7.2-1 .5-1.8.5s-1.7 0-2.5.2c-1.9.3-3.8.8-5.6 1.3q-.15 0-.3.3c-2.8 14.7-3.2 29.6-3.1 44.5 0 15.2.7 30.4 1.6 45.6.5 8.5 1.1 17.1 1.7 25.6 0 .3.5.5.7.2 3.6-6.6 5.4-14.3 6.9-21.6 1.6-7.8 3.9-15.3 7.2-22.5 5.7-12.9 13.4-26.2 25.1-34.6 3.3-2.3 6.9-4.3 10.8-5.4 2.1-.6 4.3-.9 6.5-1h2.4c.2 0 .8.2 1 0 .4-.2.2-.9-.2-.7h-.1z"/><path fill="#346e3c" fill-opacity=".32" d="M6.355 96.696c6.6 7 13.1 14.2 18.7 22.1 2.8 4 5 8.2 6.8 12.8s3.6 9.1 5.4 13.6c2 4.8 4.1 9.7 6.2 14.5.1.2.4.2.6 0-.2 0-.4-.2-.6-.3 0 2.1.2 4.1.3 6.2l.7-.2c-2.6-5-5.1-10-7.5-15.1s-4.2-10-6.7-14.8c-4.9-9.5-11-18.6-17.4-27.2-3.6-4.8-6.4-10.1-8.9-15.5l-.6.5c1.1 1.1 2.1 2.2 3.2 3.3.3.3.9-.2.5-.5-1.1-1.1-2.1-2.2-3.2-3.3-.3-.3-.8 0-.6.5 2.2 4.8 4.7 9.5 7.7 13.8s6.4 8.8 9.4 13.4 5.8 9 8.3 13.8 4.4 9.7 6.7 14.5c2.7 5.7 5.5 11.4 8.4 17 .2.3.7.2.7-.2 0-2-.2-4.1-.3-6.2 0-.3-.4-.5-.6-.3h.6c-4-9.1-7.9-18.2-11.4-27.5-1.7-4.4-3.6-8.4-6.2-12.3s-5.5-7.4-8.5-11c-3.6-4.3-7.3-8.4-11.1-12.4-.3-.3-.9.2-.5.5z"/><path fill="#346e3c" fill-opacity=".32" d="M36.155 167.096c-1.5-2.3-2.7-4.7-3.3-7.3s-.4-5.1-1-7.6c-1.1-5-3.3-9.7-5.7-14.1-2.5-4.7-5.5-9.1-8.7-13.3s-6.7-8-9-12.8c-2.7-5.6-4.4-11.7-5.4-17.8l-.7.3c2.4 4.9 4.9 9.8 8.2 14.2s6.4 9 9.4 13.6 6 9.5 8.6 14.5 4.4 10.1 6.8 15q4.05 8.55 8.4 16.8c0 .2.3.2.5.1l-.6-.4c.2 2.9.3 5.9.5 8.8l.6-.3c-3.3-2.9-6.3-6.1-8.7-9.8-.3-.4-.9 0-.7.4 2.5 3.7 5.4 7.1 8.8 10 .2.2.7 0 .6-.3-.2-2.9-.3-5.8-.5-8.8 0-.3-.3-.5-.6-.3l.5.2c-2.6-4.9-5.1-9.9-7.5-14.9s-4.4-10.1-6.8-15.1-5.4-9.9-8.4-14.6-6-9.3-9.3-13.8c-3.7-5-6.8-10.3-9.4-15.9-.2-.4-.7 0-.7.3.8 5.4 2.4 10.8 4.5 15.8 1 2.3 2.1 4.6 3.5 6.7s3.1 4.1 4.7 6.1c3.4 4.2 6.5 8.7 9.2 13.3s5.2 9.6 6.5 14.8c.4 1.5.7 3.1.9 4.7.1 1.3.1 2.7.4 4 .6 2.8 1.9 5.3 3.4 7.7.3.4.9 0 .7-.4zM49.555 199.796c3.1-6.5 4.6-13.5 6.1-20.5 1.5-7.3 3.8-14.4 6.7-21.2 2.8-6.5 6.1-12.7 10-18.6 3.6-5.4 7.7-10.6 12.8-14.8 5.9-4.9 13.1-7.8 20.9-7.2v-.7c-13.8 4.8-23.7 16.8-31 28.8-4 6.6-7.4 13.5-10.3 20.7-1.5 3.8-2.9 7.6-4.1 11.5s-2.1 8-3.3 11.9c-2.5 8.9-5.7 17.7-9.1 26.3h.7c-.2-2.7-.5-5.5-.7-8.3-.1-1.4-.4-2.8-.3-4.2 0-1.2 1.2-2.6 1.7-3.8.2-.4-.4-.8-.7-.4l-.9 1.8c-.2.5-.8 1-.9 1.5s0 1.3.1 1.8c0 .8.1 1.6.2 2.5.2 3.1.5 6.1.7 9.2 0 .4.6.5.7 0 2.9-7.5 5.7-15.1 8.1-22.8s4-15.2 6.8-22.6c5.2-14.1 12.5-28.3 22.7-39.5 5.5-6 12-11.1 19.7-13.8.4-.1.3-.7 0-.7-6.6-.5-12.9 1.4-18.3 5.1s-9.8 8.6-13.6 13.8c-8.4 11.5-14.8 25.2-18.2 39-2 8.3-3.3 16.8-7 24.7-.2.4.4.8.7.4z"/><path fill="#346e3c" fill-opacity=".32" d="M105.055 117.996c-6.6 5.5-12.7 11.7-18.1 18.3s-9.8 13.6-11.1 21.8c-3 17.8-6 35.7-12.1 52.7-3.1 8.5-7 17.5-14 23.5l.6.3c-.4-4.7-.9-9.3-1.3-14-.1-1.2-.3-2.3.1-3.5s.9-2.3 1.3-3.4c.8-2.1 1.6-4.3 2.4-6.4 3.1-8.6 5.8-17.2 8.1-26s5.7-17.4 9.8-25.5c3.8-7.7 8.3-15.1 13.8-21.8 2.8-3.4 5.9-6.7 9.3-9.5 1.8-1.4 3.6-2.7 5.6-3.8 1-.5 1.9-1 3-1.5.6-.3 1.3-.5 1.9-.8.2 0 .4-.2.7-.2 0 0 1.1-.4 1-.5v-.5c-.3.3-.8.5-1.1.8-.4.3 0 .9.4.7s1-.6 1.2-1c0-.2 0-.4-.1-.5-.4-.2-1.2.2-1.6.4-1 .3-2 .7-2.9 1.2-1.9.8-3.7 1.9-5.4 3-3.3 2.2-6.3 4.9-9 7.8-5.9 6.3-10.7 13.5-14.8 21-4.4 8.1-8.1 16.6-10.9 25.4-1.4 4.5-2.5 9.2-3.8 13.8s-2.8 9-4.4 13.5c-.9 2.6-1.9 5.2-2.8 7.8-.5 1.2-.9 2.4-1.4 3.7-.4 1.1-1.2 2.4-1.3 3.5 0 1.3.2 2.7.3 3.9.1 1.4.2 2.8.4 4.2.2 2.8.5 5.6.8 8.4 0 .3.4.5.6.3 5.9-5.1 9.6-12.2 12.4-19.3 3.3-8.1 5.7-16.6 7.8-25.1s3.7-17.8 5.2-26.8c.7-4.4 1.3-8.8 3.1-13 1.7-3.8 3.9-7.4 6.4-10.8 5.8-7.9 12.9-15 20.3-21.3.4-.3-.2-.8-.5-.5z"/></svg>