<svg xmlns="http://www.w3.org/2000/svg" width="264" height="137" fill="none" viewBox="0 0 264 137"><path fill="#346e3c" fill-opacity=".55" d="M.69 58.755c-.5-.2-.7.5-.2.7s.7-.5.2-.7-.7.5-.2.7.7-.5.2-.7"/><path fill="#346e3c" fill-opacity=".55" d="M19.49 67.055c3.7-.2 7.4-.5 11-.9 3.9-.5 7.7-1.1 11.5-2.1 3.7-.9 7.3-2.1 10.8-3.7 3.2-1.5 6.3-3.3 8.9-5.7 2.5-2.2 4.5-5 5.7-8 1.4-3.4 1.7-7.2 1.4-10.9-.5-4.9-2.1-9.6-4.2-14.1-.6-1.3-1.2-2.6-1.9-3.9 0-.2-.2-.3-.3-.5s-.2-.4-.3-.5c.6 1.6.9 3.3 1.1 4.9.5 3.8.3 7.8-.7 11.5-1.5 5.2-4.6 9.7-8.7 13.2-6.5 5.4-14.8 8.3-22.9 10-6.1 1.3-12.4 2-18.6 2.3-1.8 0-3.7.2-5.5.2h-5.1c-.2 0-.7-.1-.9 0h-.1v7.8c.8 0 2.1.2 2.9.2 2.2.1 4.3.2 6.5.2 3.1 0 6.3 0 9.4-.1zm42.6-49.8s0-.2-.1-.3c0 0 0 .2.1.3m-61 44.4v-1.2c0-.4-.1-.4.3-.5h6.1c6.7-.1 13.3-.6 19.9-1.7 8.7-1.5 17.7-4 25-9.3 4.5-3.3 8.2-7.7 10.1-13 1.3-3.8 1.8-7.9 1.4-12-.2-1.9-.5-3.9-1.2-5.7 2.2 4.3 4 8.9 5 13.6.7 3.8.8 7.8-.2 11.5-.9 3.2-2.6 6.2-4.8 8.6-2.3 2.5-5.2 4.5-8.2 6.1-3.3 1.8-6.8 3.1-10.4 4.1q-5.7 1.65-11.4 2.4c-3.7.6-7.5.9-11.2 1.1q-4.95.3-9.9.3c-3.3 0-4.9 0-7.3-.2-1 0-2.1-.2-3.1-.2v-4.2z"/><path fill="#346e3c" fill-opacity=".55" d="M19.49 67.455c11.8-.5 24.4-2 35.1-7.5 4.7-2.4 9-5.7 11.7-10.3s3.4-10.4 2.5-15.8c-1-6.2-3.7-11.6-6.5-17.2-.2-.4-.8-.1-.7.3 2.3 6.5 1.8 14.4-1.3 20.6-2.9 5.7-7.9 10-13.5 13s-12.2 4.8-18.6 6c-7.1 1.3-14.4 1.9-21.6 2-1.8 0-3.5.1-5.3 0-.7 0-1.1 0-1.2.7-.2 1.6 0 3.5 0 5.1 0 .8-.2 1.9.1 2.6 0 .1.2.2.3.2 6.3.5 12.6.5 18.8.3.5 0 .5-.8 0-.8q-6.45.3-12.9 0c-1 0-2 0-3-.1-.7 0-1.8.1-2.4-.2-.3-.1-.1 0-.2-.4v-6.7h6.6c4.2-.1 8.5-.3 12.7-.8 14-1.5 30.8-5.2 39.2-17.7 4.7-6.9 5.9-16.2 3.1-24.1l-.7.3c2.3 4.7 4.7 9.2 5.9 14.3 1.3 5.6 1.3 11.6-1.3 16.8-5 9.8-16.8 14-26.9 16.1-6.5 1.4-13.2 2.1-19.8 2.4-.5 0-.5.8 0 .8z"/><path fill="#346e3c" fill-opacity=".55" d="M62.49 17.055s0-.2-.1-.2l-.7.3s0 .2.1.3v.1c0 .1 0 0 .1 0h.3s.2-.1.2-.2v-.3s0-.2-.1-.3v-.1c0-.1 0 0-.1 0h-.2v.7c0 .1 0 0 .1 0h.3s.2-.1.2-.2v-.3zM1.49 61.655c0-.2-.1-1 0-1.2.2-.4-.4 0 .3-.1.6-.1 1.3 0 2 0h5.2c3.2 0 6.5-.3 9.8-.6 6-.6 12.1-1.5 18-3.1 10.4-2.9 21.1-8.6 25.6-19 2.5-5.9 3-13.4.8-19.4l-.7.3c2.9 5.7 5.3 12 5.4 18.5s-2.5 12.4-7.3 16.6-11 6.8-17.1 8.5c-6.6 1.8-13.4 2.8-20.1 3.3-3.8.3-7.5.4-11.3.4s-7.2-.3-10.9-.4l.4.4v-4.1c0-.5-.8-.5-.8 0v4.1c0 .2.2.4.4.4 3.5 0 6.9.4 10.4.4s7.2-.1 10.8-.4c7-.5 14.1-1.4 20.8-3.3 6.1-1.7 12.3-4.1 17.2-8.2 4.7-3.9 7.6-9.3 8.1-15.4.6-7.4-2.2-14.7-5.5-21.2-.2-.4-.8-.1-.7.3 2.1 5.8 1.7 12.9-.6 18.6-2.2 5.3-6.2 9.5-10.9 12.7-10 6.6-22.7 8.7-34.5 9.6-3.6.3-7.2.4-10.8.4h-2.5c-.5 0-1.2-.2-1.7 0-.9.3-.5 1.2-.5 2s.8.5.8 0z"/><path fill="#346e3c" fill-opacity=".55" d="M24.59 66.755c14.3 3.3 28.6 7.7 41.7 14.5 8.8 4.5 17.1 10.2 23.8 17.5 4.7 5 8.5 10.7 10.799 17.2 1.5 4.2 2.4 8.7 2.6 13.2 0 1.4 0 2.8-.1 4.1 0 .6-.3 1.3-.3 1.9 0 .1.7 1 .6 1l1.2-1.2q1.5-1.5 2.7-3.3c1.2-1.6 2.2-3.3 3.1-5.1 1-2.1 1.8-4.3 2.3-6.6.5-2.6.6-5.2.3-7.9-.4-3-1.4-6-2.8-8.7-1.8-3.5-4.1-6.6-6.8-9.5-3.5-3.7-7.6-6.8-11.9-9.6-5.8-3.8-12.1-6.9-18.5-9.6-8.5-3.7-17.3-6.7-26.2-9.3-2.5-.8-5.1-1.5-7.6-2.2.3 0 .3 1 .6 1 9.4 2.6 18.6 5.5 27.7 9 6.9 2.7 13.6 5.7 20 9.4 4.8 2.7 9.3 5.8 13.5 9.4 3.1 2.7 5.9 5.8 8 9.3 0 0 .1.2.2.3l.3.6c.2.4.4.8.6 1.1.3.7.7 1.5.9 2.2q.75 2.1 1.2 4.2.75 3.9 0 7.8c-.4 2.3-1 4.6-2 6.7-.8 1.9-1.8 3.6-2.9 5.3-.9 1.3-1.8 2.5-2.8 3.6l-1.6 1.6.6 1c0-.5.2-.9.2-1.4.2-1.3.2-2.5.2-3.8 0-1.9-.2-3.9-.5-5.8-.4-2.5-1-4.9-1.8-7.3-1-2.9-2.2-5.6-3.6-8.3-1.8-3.2-3.7-6.2-6-9-2.7-3.4-5.8-6.4-9.1-9.2-4-3.4-8.4-6.3-12.9-8.9-5.5-3.2-11.4-5.9-17.3-8.3-7.3-2.9-14.8-5.2-22.4-7.1-2.1-.5-4.3-1.1-6.4-1.5.3 0 .3 1 .6 1z"/><path fill="#346e3c" fill-opacity=".55" d="M24.49 67.155c15.2 3.5 30.3 8.2 44 15.8 12.7 7 24.8 16.8 30.8 30.3 1.799 4.2 3.099 8.7 3.499 13.2.2 2.3.3 4.6 0 6.9 0 .6-.4 1.5-.3 2.1 0 .4.5.7.6 1.1 0 .3.4.3.6.2 5.4-5.1 9.3-12.5 9.7-19.9s-2.8-14.3-7.4-20c-4.8-6-11.3-10.7-18-14.6s-14.2-7.3-21.7-10.2c-8.9-3.4-17.9-6.2-27.1-8.8-.3 0-.7.4-.4.6.5.4.3.9 1 1.2 1.3.5 2.8.8 4.2 1.2 2.7.8 5.4 1.6 8.1 2.5 5.3 1.7 10.6 3.5 15.8 5.5 10.1 4 20.2 8.7 28.8 15.3 4.7 3.6 8.9 7.7 12 12.7.3.4.9 0 .7-.4v-.1c-.3-.4-.9 0-.7.4 3 5.5 4.1 11.9 2.6 18-1.4 5.6-4.6 11-8.8 14.9-.1.1-.1.3 0 .5l.6 1c.2.3.6.2.7 0 1.4-7.2-.3-15.2-3.1-21.9s-7.2-13.1-12.3-18.3c-10.7-10.9-24.6-18.1-38.8-23.4-8.4-3.1-17-5.5-25.7-7.5-.3 0-.7.4-.4.6s.3.8.6 1c.4.3.9-.2.5-.5-.3-.2-.3-.8-.6-1l-.4.6c14.8 3.4 29.4 7.9 42.8 15.1 13 6.9 24.7 16.5 31.6 29.7 4 7.5 6.6 16.9 5 25.4h.7l-.6-1.1v.5c4.3-4.1 7.7-9.9 9.1-15.7 1.4-6.2.3-12.6-2.7-18.2l-.7.4v.1l.7-.4c-5.5-8.7-14-14.9-22.9-19.8-9.7-5.4-20-9.5-30.5-12.9-3.1-1-6.2-2-9.3-2.9-1.5-.4-3-.9-4.4-1.3-.7-.2-1.8-.3-2.4-.8-.3-.3-.3-.6-.7-.9l-.4.6c15.2 4.2 30.5 9.2 44.5 16.6 6.6 3.5 13.1 7.7 18.5 13s9.7 11.9 10.5 19.3c.9 8.6-3.2 17.5-9.4 23.4l.6.2c0-.4-.4-.6-.5-.9-.2-.5.2-1.5.2-2q.3-3 0-6c-.3-4-1.2-7.9-2.6-11.7-2.5-6.8-6.7-12.9-11.7-18.1-10.6-11-24.5-18.2-38.7-23.5-8.5-3.2-17.2-5.6-26.1-7.6-.5-.1-.7.6-.2.7z"/><path fill="#346e3c" fill-opacity=".55" d="M53.59 60.055q12.3-.45 24.6-2.4 10.5-1.65 20.7-4.8c5.899-1.8 11.599-4 17.199-6.5 4.8-2.2 9.5-4.8 13.9-7.7 3.9-2.5 7.6-5.2 11.1-8.3 3-2.5 5.8-5.3 8.4-8.2 2.2-2.4 4.2-5 6.1-7.6 1.5-2 2.8-4.2 4-6.4.8-1.5 1.6-3 2.3-4.6.3-.7.7-1.4.9-2.1l-.6-1c.1.5.2 1 .2 1.6.1 1.4.2 2.9 0 4.3 0 2.2-.4 4.3-.8 6.5-.6 2.7-1.5 5.4-2.6 8-1.4 3.1-3.1 6.1-5.2 8.9-2.5 3.4-5.4 6.5-8.5 9.2-3.9 3.4-8.2 6.3-12.7 8.9-5.7 3.2-11.7 5.8-17.8 8-7.7 2.8-15.6 4.9-23.6 6.5-10 2.1-20.1 3.5-30.3 4.4-2.8.3-5.6.5-8.4.7.2 0 .4 1 .6 1 10.7-.7 21.4-1.9 32-3.8 8.5-1.5 16.9-3.5 25.2-6.1 6.6-2.1 13-4.6 19.1-7.7q7.35-3.75 13.8-8.7c3.5-2.7 6.7-5.8 9.5-9.2 2.3-2.8 4.3-5.8 5.9-9 1.3-2.6 2.4-5.4 3.1-8.2q.9-3.45 1.2-6.9c.1-1.6.2-3.3 0-4.9 0-.7 0-1.6-.3-2.3v-.1c0-.2-.7-.8-.6-1l-.6 1.5c-.6 1.4-1.2 2.7-1.9 4-1.1 2.1-2.3 4-3.6 6-1.7 2.5-3.6 5-5.5 7.3-2.4 2.9-5.1 5.6-7.8 8.1-3.2 3-6.7 5.7-10.3 8.3-4.2 2.9-8.7 5.6-13.2 7.9-5.3 2.7-10.7 4.9-16.3 6.8-6.5 2.2-13.1 4-19.9 5.3-7.8 1.5-15.6 2.5-23.5 3.1-2.1.1-4.3.3-6.4.4.2 0 .4 1 .6 1z"/><path fill="#346e3c" fill-opacity=".55" d="M53.59 60.455c18-.8 36-3.5 52.899-9.8s31.3-15.2 43-28q4.8-5.25 8.7-11.4c1.3-2.1 2.6-4.3 3.6-6.5.4-.8.8-1.7 1.1-2.5.3-.9 0-1.1-.4-2-.2-.4-.8-.1-.7.3.8 4.6.2 9.5-1 14s-3 8.6-5.5 12.4c-4.8 7.5-11.7 13.6-19.2 18.4-15.5 9.8-33.8 14.9-51.7 18-10.6 1.9-21.2 3-32 3.8-.4 0-.5.5-.2.7s.2.8.6 1c.2.1.7 0 .9 0 .7 0 1.5-.1 2.2-.2 2.6-.2 5.2-.4 7.8-.7 5.1-.5 10.1-1.1 15.1-1.9 10.2-1.5 20.2-3.6 30.1-6.7 17.9-5.5 36.7-14.5 47.3-30.6 3-4.5 5.2-9.5 6.3-14.8.6-2.6.9-5.2.9-7.9 0-1.3 0-2.6-.2-3.8 0-.3 0-.7-.2-1-.1-.3-.5-.6-.5-.9 0-.4-.6-.5-.7-.1-1.4 3.8-3.5 7.4-5.7 10.8s-4.9 6.8-7.7 10c-5.6 6.2-12.1 11.6-19.1 16.2-14.2 9.2-30.4 14.9-46.9 18.1-9.7 1.9-19.5 2.9-29.3 3.3-.4 0-.5.5-.2.7s.2.8.6 1c.4.3.8-.4.4-.6-.3-.2-.3-.8-.6-1l-.2.7c17.6-.7 35.2-3.4 51.8-9.4s30.6-14.4 42.3-26.5c3.2-3.4 6.2-7 8.8-10.8s5-7.8 6.6-12.1h-.7c0 .4.4.6.6 1.1.4.9.3 2.5.3 3.5q0 3.75-.6 7.5c-.9 4.8-2.6 9.3-5 13.5-4.7 8.1-11.7 14.6-19.5 19.7-16.1 10.5-35.4 15.6-54.2 18.8-5.6 1-11.2 1.7-16.8 2.3-2.8.3-5.5.6-8.3.8-1.4.1-2.8.2-4.1.3-.2 0-.7.1-.8 0 0 0 0-.3-.2-.4-.2-.2-.2-.4-.4-.5l-.2.7c19.4-1.4 38.9-4 57.5-9.9 17-5.4 34.6-14 45.1-29.1 2.8-4.1 5-8.6 6.4-13.4s2-10.1 1.2-15l-.7.3c.1.2.5.6.5.9 0 .4-.4 1.1-.6 1.5-.4 1-.9 1.9-1.4 2.8-1 1.9-2 3.7-3.2 5.5-2.3 3.6-4.9 7-7.7 10.1-5.6 6.3-12 11.8-19.1 16.4-14.3 9.4-30.7 15.3-47.5 18.5-9.7 1.9-19.6 2.9-29.5 3.3-.5 0-.5.8 0 .8z"/><path fill="#346e3c" fill-opacity=".55" d="M64.79 72.455c14.6-1.1 29.3-.7 43.699 2 11.2 2.1 22.2 5.6 32.4 10.6 7.9 3.9 15.4 8.6 22.2 14.2 4.7 3.9 9.1 8.1 12.9 12.8 1.7 2 3.4 4.4 4.7 6.5 0 .1 0-.1-.1-.2 0 .1.2.2.2.4-.6-1.7-1.5-3.3-2.4-4.9-2.4-4.3-5-8.3-8.1-12.1q-6.75-8.4-15.3-15c-7.5-5.8-15.8-10.6-24.6-14.2-11.3-4.7-23.2-7.6-35.3-9.2-1.7-.2-3.4-.4-5.2-.6.2 0 .4 1 .6 1 12.3 1.2 24.5 3.8 36 8.1 9 3.4 17.6 7.8 25.5 13.3 6 4.3 11.5 9.2 16.4 14.7 3.3 3.8 6.5 8 9 12.3 1 1.7 1.9 3.7 2.8 5.5l.2.4c-1.1-1.9-2.4-3.7-3.8-5.4-3.5-4.5-7.5-8.5-11.7-12.3-6.4-5.6-13.4-10.4-20.9-14.4-9.8-5.2-20.4-9-31.3-11.5-14-3.1-28.4-4.1-42.7-3.4-2 .1-4 .2-6 .4.2 0 .4 1.1.6 1z"/><path fill="#346e3c" fill-opacity=".55" d="M64.79 72.755c17.5-1.4 35.299-.4 52.399 3.9 16.2 4.1 31.5 11.4 44.6 21.9 3.5 2.9 6.9 5.9 10 9.2s5.9 7.1 8.6 10.9c.3.4.9 0 .6-.4 0 0 0-.1-.1-.2l-.6.4c0 .1.2.2.2.4.2.4.8.1.7-.3-1.3-3.4-3.2-6.6-5.2-9.7s-4-5.8-6.2-8.5c-4.6-5.5-9.8-10.5-15.6-14.8-11.6-8.8-25.1-14.9-39.2-18.8-8.2-2.2-16.6-3.7-25-4.5-.4 0-.5.5-.2.7.2.2.2.7.4.9.3.3.9.2 1.3.3 2.1.2 4.1.5 6.2.8 3.7.5 7.4 1.2 11.1 2 7.3 1.6 14.6 3.8 21.5 6.7 13.5 5.6 26.1 13.7 36.1 24.5 2.9 3.1 5.6 6.5 8 10 1.1 1.6 2.2 3.3 3.1 5s1.6 3.6 2.6 5.3c.2.4.9 0 .6-.4-4.3-7.2-10.5-13.5-16.9-18.9s-13.2-9.9-20.5-13.8c-15.2-8-32.1-12.4-49.2-14-10-.9-20.1-.9-30.1-.1-.4 0-.5.5-.2.7s.2.8.6 1c.4.3.8-.4.4-.6-.3-.2-.3-.8-.6-1l-.2.7c17.5-1.4 35.2-.5 52.2 3.9 16.1 4.1 31.5 11.3 44.5 21.7 7.3 5.8 14.5 12.8 19.3 20.9l.6-.4c-.9-1.4-1.4-3-2.2-4.5-.9-1.7-1.9-3.4-3-5-2-3-4.3-6-6.7-8.7-4.8-5.5-10.3-10.4-16.2-14.7-12-8.6-25.9-14.5-40.2-18-4.1-1-8.2-1.8-12.4-2.5-2-.3-4.1-.6-6.1-.9-.5 0-.9-.1-1.4-.2s-1.4 0-1.8-.3c-.2-.3-.2-.6-.5-.9l-.2.7c28.6 2.9 57.3 13.4 76.9 35.2 2.7 3 5.2 6.2 7.4 9.6s4.6 7.2 6.1 11.1l.7-.3c0-.1-.1-.3-.2-.4-.3-.4-.9 0-.6.4 0 0 0 .1.1.2l.6-.4c-2.3-3.2-4.5-6.4-7.2-9.3-2.9-3.2-5.9-6.1-9.2-8.9-6.2-5.3-13-9.9-20.2-13.7-15.2-8-32-12.5-49-14.2-10.2-1-20.5-1-30.7-.2-.5 0-.5.8 0 .8z"/><path fill="#346e3c" fill-opacity=".55" d="M93.59 62.955h5.3c4.399 0 8.899 0 13.299.1 5.7 0 11.5.1 17.2.2s11.5.1 17.2.2h13.1c2 .1 4.1.2 6.2.1 8.7-.4 17.5 0 26.2 1.5 7.4 1.2 14.7 3.2 21.7 5.9 6 2.4 11.8 5.3 17.3 8.8 4.7 3 9.1 6.3 13.2 10 3.4 3 6.5 6.3 9.4 9.8 2.1 2.5 4.1 5.2 5.9 7.9.6.9 1.2 1.8 1.7 2.7 0 0 0 .1.1.2l.1.2.3.6c.2.5 0 .2-.4 0-1.8-.9-3.7-1.7-5.5-2.4-3.6-1.3-7.3-2.4-11-3.2-4.8-1.1-9.6-1.5-14.5-2-8.4-.8-16.6-3-24.5-5.7-9.1-3.2-17.9-7.3-26-12.3-4.1-2.5-7.9-5.4-11.7-8.3-3.2-2.4-6.7-4.3-10.4-5.8-7.1-2.8-14.7-4-22.3-4.4-5.2-.3-10.5-.1-15.8.4-.8 0-2.3.3-3 .4.1 0 1.2.9 1.3.9 5.4-.9 11-1 16.5-.8 10.6.4 21.7 2.3 30.9 7.9 2.6 1.6 4.9 3.5 7.3 5.3q4.05 3 8.4 5.7c5.8 3.5 11.9 6.6 18.1 9.2 5.9 2.5 12 4.5 18.2 6.1 5.6 1.4 11.2 2.2 16.9 2.8 6.4.6 12.8 1.9 19 3.8 3.1 1 6.1 2.1 9 3.6.1 0 .3.1.4.2-.8-1.6-1.8-3.2-2.8-4.8-2.3-3.6-4.9-7-7.7-10.2-4.2-4.8-8.8-9.2-13.8-13.1-6.3-4.9-13.2-9.1-20.6-12.4-8.9-4-18.4-6.7-28.1-8.1-5.6-.8-11.4-1.3-17.1-1.3-3.1 0-6.2.2-9.2.2h-13c0-.1-22.2-.3-22.2-.3-7.3 0-14.6-.1-22-.2-4.2 0-8.4 0-12.6-.1h-.6c.2 0 .4 1 .6 1z"/><path fill="#346e3c" fill-opacity=".55" d="M93.59 63.355c12.299.1 24.599.2 36.799.4 6 0 12.1.1 18.1.2s12 .3 18 0c23.9-.9 47.9 4.7 67.7 18.4 5.4 3.8 10.5 8.1 15.1 12.9s8.6 9.7 11.8 15.3c.2.4.9 0 .6-.4l-.7.4c.2.3.4.6.5 1l.2-.5s-2.3-1.2-2.7-1.4c-1.1-.5-2.2-.9-3.3-1.3q-3.75-1.35-7.5-2.4c-5.1-1.3-10.2-2-15.4-2.6s-10.6-1.3-15.9-2.6c-4.9-1.2-9.8-2.8-14.6-4.6-9.5-3.6-18.6-8.2-26.9-14-4.1-2.9-7.9-6.2-12.3-8.6s-9-4-13.8-5c-10.6-2.4-22.1-2.7-32.9-1-.4 0-.3.6 0 .7.5.2.8.8 1.2.9h.8c.9-.1 1.8-.2 2.8-.4 2.7-.3 5.3-.4 8-.4 5.1 0 10.2.2 15.2 1 4.7.7 9.3 1.8 13.7 3.6 4.8 1.9 8.8 4.6 12.9 7.7 8.1 6.2 17.1 11.3 26.5 15.3s19.8 7.3 30.3 8.7c5.8.8 11.6 1.2 17.4 2.4 5.8 1.3 11.8 3.1 17.1 5.8.3.2.7-.2.5-.5-2.4-5.1-6-9.8-9.6-14-3.9-4.6-8.1-8.8-12.7-12.6-8.9-7.4-19.1-13.1-30-17-11.5-4.1-23.7-6.2-36-6.5-3.1 0-6.2 0-9.2.1h-9.9c-6.4 0-12.8-.1-19.3-.2-14.4-.1-28.7-.3-43.1-.4-.4 0-.5.5-.2.7s.2.8.6 1c.4.3.8-.4.4-.6-.3-.2-.3-.8-.6-1l-.2.7c12.5.1 25.1.2 37.7.4 6.2 0 12.5.1 18.7.2s12.7.2 19 0c24.1-.8 48.5 5.9 67.9 20.4 5.2 3.9 10.1 8.3 14.5 13.2s8.6 10.2 11.5 16.1l.5-.5c-9.1-4.8-19.6-6.8-29.8-7.8-10.9-1.1-21.4-3.8-31.6-7.8s-19.1-8.8-27.5-14.9c-4.1-2.9-7.8-6.1-12.4-8.2-4.2-2-8.8-3.4-13.3-4.3-5.3-1-10.7-1.5-16.2-1.6-3.1 0-6.2 0-9.2.3-1.3.1-2.6.3-4 .4-.8.1-.9 0-1.5-.4-.2-.1-.3-.2-.5-.3v.7c10-1.6 20.5-1.4 30.4.5 5 1 9.9 2.5 14.5 4.8s8.3 5.5 12.3 8.4c8 5.7 16.8 10.3 25.9 14 9.4 3.8 19.3 6.7 29.4 7.9 6 .7 12 1.2 17.9 2.7 2.8.7 5.5 1.5 8.2 2.5 1.5.5 3 1.1 4.4 1.8.5.2 1.7 1.2 2.2 1 .2-.1.3-.3.2-.5-.1-.3-.3-.6-.5-1s-.9 0-.6.4l.7-.4c-2.8-4.8-6.3-9.3-10-13.4-4-4.4-8.3-8.4-13-12-9.2-7.1-19.6-12.6-30.7-16.2-11.4-3.7-23.4-5.4-35.4-5.5-3.1 0-6.1.2-9.2.2h-9.1c-6.2 0-12.4-.1-18.5-.2-14.1-.1-28.2-.3-42.2-.4-.5 0-.5.8 0 .8z"/><path fill="#346e3c" fill-opacity=".55" d="M262.389 111.855c-3.8-4-8.2-7.5-12.5-10.9-9.4-7.2-19.8-13.5-31-17.5-5.6-2-11.5-3.1-17.3-4.5q-7.35-1.8-14.7-3.9c-10.4-2.9-20.8-5.7-31.4-7.5-13.3-2.3-26.8-3-40.2-2.5-2 0-5.8.3-7.8.4.1 0 2.1.7 2.3.6 14-.8 28-.5 41.9 1.6 10.8 1.6 21.5 4.3 32 7.2 4.9 1.4 9.9 2.8 14.8 4 2.5.6 5 1.3 7.5 1.8 2.9.6 5.8 1.2 8.6 2.1 11.8 3.5 22.8 9.6 32.7 16.8 5.4 3.9 10.6 8.2 15.3 12.9l.2.2c-.2-.2-.2-.6-.5-.8z"/><path fill="#346e3c" fill-opacity=".55" d="M262.589 111.655c-7.3-7.5-16-14-24.9-19.4-4.5-2.7-9.2-5.2-14.1-7.2s-9.9-3.5-15.1-4.8c-22-5.1-43.5-12.6-66.1-14.8-11.7-1.1-23.3-1.1-35-.4-.4 0-.5.7 0 .7s1.1.3 1.6.5c.8.2 1.6.1 2.5 0 2.8-.1 5.7-.2 8.5-.3 5.7 0 11.4 0 17.1.4 11.4.8 22.7 2.7 33.9 5.4 11 2.7 21.8 6.1 32.9 8.7 5.3 1.2 10.5 2.3 15.6 4.1s9.7 4 14.2 6.5c10.5 5.8 20.5 13.1 28.9 21.7.3.3.8 0 .6-.5-.2-.3-.3-.5-.5-.8-.3-.4-.9 0-.6.4.2.3.3.5.5.8l.6-.5c-7.4-7.5-16.2-14.1-25.2-19.6-8.9-5.4-18.4-9.5-28.6-11.8-11.3-2.5-22.3-5.8-33.5-8.7-10.9-2.8-21.9-5.1-33.1-6.2q-9.6-.9-19.2-.9c-3.2 0-6.5 0-9.8.2-1.3 0-2.8.4-4.1.2-.7-.1-1.3-.5-2-.6v.7c10-.6 20.1-.8 30.2 0 11.3.8 22.4 2.8 33.3 5.5s21.6 6.1 32.6 8.6c5.3 1.2 10.6 2.3 15.6 4.2s9.7 4.1 14.3 6.6c5.1 2.8 9.9 6 14.6 9.5 4.9 3.6 9.6 7.5 13.9 11.9.3.4.9-.2.5-.5z"/></svg>